<svg xmlns="http://www.w3.org/2000/svg" viewBox="0 0 90 90"><defs><style>.cls-1{fill:#ffeb97;}.cls-2{fill:#fff;}.cls-3{fill:#576065;}</style></defs><title>bitcoin-coin</title><g id="bitcoin-coin"><g id="bitcoin-coin-2" data-name="bitcoin-coin"><g id="fill"><circle class="cls-1" cx="45" cy="45" r="43.13"/><circle class="cls-2" cx="45" cy="45" r="32.34"/></g><g id="outline"><path class="cls-3" d="M45,90A45,45,0,1,1,90,45,45.05,45.05,0,0,1,45,90ZM45,3.75A41.25,41.25,0,1,0,86.25,45,41.3,41.3,0,0,0,45,3.75Z"/><path class="cls-3" d="M45,80.2a1.88,1.88,0,0,1,0-3.75,31.63,31.63,0,0,0,7-.79,1.88,1.88,0,0,1,.83,3.66A35.43,35.43,0,0,1,45,80.2Zm-7.41-.82a1.91,1.91,0,0,1-.42,0,35,35,0,0,1-7.44-2.6,1.87,1.87,0,0,1,1.63-3.38A31.23,31.23,0,0,0,38,75.68a1.88,1.88,0,0,1-.41,3.7ZM59.48,76.9a1.88,1.88,0,0,1-.82-3.56,31.47,31.47,0,0,0,6-3.75A1.88,1.88,0,0,1,67,72.51a35.38,35.38,0,0,1-6.66,4.2A1.87,1.87,0,0,1,59.48,76.9ZM24.26,73a1.87,1.87,0,0,1-1.17-.41A35.45,35.45,0,0,1,17.51,67a1.88,1.88,0,0,1,2.93-2.34,31.62,31.62,0,0,0,5,5A1.88,1.88,0,0,1,24.26,73Zm46.8-5.31a1.88,1.88,0,0,1-1.46-3,31.56,31.56,0,0,0,3.75-6,1.87,1.87,0,0,1,3.38,1.63,35.39,35.39,0,0,1-4.19,6.67A1.88,1.88,0,0,1,71.06,67.65ZM15,61.39a1.87,1.87,0,0,1-1.69-1.06,35,35,0,0,1-2.61-7.43,1.87,1.87,0,0,1,3.65-.84,31.31,31.31,0,0,0,2.33,6.64A1.88,1.88,0,0,1,15,61.39Zm62.51-7.1a1.85,1.85,0,0,1-.42,0A1.88,1.88,0,0,1,75.67,52a31.64,31.64,0,0,0,.78-7,1.94,1.94,0,0,1,1.88-1.94,1.82,1.82,0,0,1,1.88,1.81V45a35.47,35.47,0,0,1-.87,7.83A1.88,1.88,0,0,1,77.5,54.29ZM11.68,46.91A1.85,1.85,0,0,1,9.8,45.07V45a35.39,35.39,0,0,1,.86-7.76,1.88,1.88,0,1,1,3.66.82A31.66,31.66,0,0,0,13.55,45,1.9,1.9,0,0,1,11.68,46.91Zm65.79-7.58a1.88,1.88,0,0,1-1.83-1.45,31.23,31.23,0,0,0-2.35-6.63,1.87,1.87,0,1,1,3.37-1.64A35,35,0,0,1,79.29,37a1.88,1.88,0,0,1-1.83,2.3ZM14.93,32.48a1.87,1.87,0,0,1-1.69-2.69,35.22,35.22,0,0,1,4.18-6.68,1.87,1.87,0,1,1,2.94,2.33,31.48,31.48,0,0,0-3.74,6A1.87,1.87,0,0,1,14.93,32.48ZM71,26a1.87,1.87,0,0,1-1.46-.7,31.74,31.74,0,0,0-5-5,1.87,1.87,0,0,1,2.33-2.94A35.57,35.57,0,0,1,72.44,23,1.88,1.88,0,0,1,71,26ZM24.16,20.87A1.87,1.87,0,0,1,23,17.54a35.3,35.3,0,0,1,6.65-4.21,1.87,1.87,0,0,1,1.64,3.37,31.6,31.6,0,0,0-5.95,3.77A1.86,1.86,0,0,1,24.16,20.87Zm35.2-4.08a1.87,1.87,0,0,1-.81-.18,31.3,31.3,0,0,0-6.65-2.3,1.87,1.87,0,1,1,.82-3.66,35,35,0,0,1,7.45,2.58,1.88,1.88,0,0,1-.81,3.57ZM37.49,14.4a1.88,1.88,0,0,1-.42-3.7,35.37,35.37,0,0,1,7.82-.9h0a1.88,1.88,0,0,1,0,3.75,31.6,31.6,0,0,0-7,.8A1.91,1.91,0,0,1,37.49,14.4Z"/><path class="cls-3" d="M50.47,65.11H35.09a1.88,1.88,0,0,1-1.87-1.87v-36a1.88,1.88,0,0,1,1.88-1.87H50.47c5.47,0,9.14,5.27,9.14,10.19a10.44,10.44,0,0,1-3.54,7.63,11.26,11.26,0,0,1,6.66,10.38C62.73,60.13,57.46,65.11,50.47,65.11ZM37,61.36h13.5c4.93,0,8.51-3.29,8.51-7.82s-3.58-7.82-8.51-7.82H37.86V42H49.78c3.07,0,6.09-3.19,6.09-6.44,0-3-2.22-6.44-5.39-6.44H37Z"/><path class="cls-3" d="M45,32.24a1.88,1.88,0,0,1-1.87-1.87V23.44a1.88,1.88,0,0,1,3.75,0v6.93A1.88,1.88,0,0,1,45,32.24Z"/><path class="cls-3" d="M45,68.44a1.88,1.88,0,0,1-1.87-1.87V59.63a1.88,1.88,0,0,1,3.75,0v6.93A1.88,1.88,0,0,1,45,68.44Z"/></g></g></g></svg>