<svg xmlns="http://www.w3.org/2000/svg" viewBox="0 0 90 90"><defs><style>.cls-1{fill:#ff8898;}.cls-2{fill:#ffdac6;}.cls-3{fill:#576065;}</style></defs><title>bodystocking</title><g id="bodystocking"><g id="bodystocking-2" data-name="bodystocking"><g id="fill"><path class="cls-1" d="M67.49,17.34l-1.56-2.69-1.56,2.69a52.13,52.13,0,0,1-6.86,9.58,99.73,99.73,0,0,1-9.48,8l-1.27,1,.79,1.38c1.37,2.38,4.72,4.93,10,4.93A19.26,19.26,0,0,0,65,40.56c3.36-1.41,5.54-3.62,6.47-6.56C72.76,29.75,71.44,24.15,67.49,17.34Z"/><path class="cls-1" d="M32.49,26.92a52,52,0,0,1-6.86-9.58l-1.56-2.69-1.56,2.69c-3.95,6.8-5.28,12.41-3.95,16.65A10.56,10.56,0,0,0,25,40.56a19.24,19.24,0,0,0,7.42,1.61c5.28,0,8.63-2.55,10-4.93l.79-1.38-1.27-1A100.14,100.14,0,0,1,32.49,26.92Z"/><path class="cls-2" d="M44.75,88.69h0a13,13,0,0,1-1.85-.25l-.46-.1L42.08,88c-1.22-1.07-5.45-4.75-8.45-7-2.71-2-9.7-5.49-12.58-6.9l-1.76-.86,1-1.68c1.86-3.13,7.49-14.55,1.8-30.05l-1.55-4.23,4,2c.33.16.56.28.81.38a18.36,18.36,0,0,0,7.07,1.54c4.9,0,8.24-2.44,9.38-4.85l.49-1h5.35l.49,1c1.14,2.41,4.48,4.85,9.38,4.85a18.39,18.39,0,0,0,7.07-1.54c.26-.11.5-.23.75-.35l4-2-1.5,4.21c-5.69,15.49-.06,26.92,1.8,30.05l1,1.68L69,74.17c-2.88,1.41-9.88,4.91-12.59,6.9-3,2.21-7.22,5.89-8.45,7l-.36.31-.47.1a13.2,13.2,0,0,1-1.86.25h-.48Z"/></g><g id="outline"><path class="cls-3" d="M45.21,90h-.42a1.76,1.76,0,0,1-.34,0,15.09,15.09,0,0,1-2.23-.35,1.74,1.74,0,0,1-.73-.39c-.05,0-5.23-4.62-8.62-7.12s-13.64-7.39-13.74-7.44a1.74,1.74,0,0,1-.65-2.61c.43-.58,10.39-14.54.46-34.62a1.74,1.74,0,1,1,3.12-1.54c8.94,18.08,3,31.78.33,36.49,3.19,1.57,9.82,4.91,12.55,6.93,3,2.24,7.28,5.93,8.51,7a10.59,10.59,0,0,0,1.43.19h.24a10.39,10.39,0,0,0,1.44-.19c1.23-1.08,5.48-4.77,8.51-7,2.73-2,9.36-5.36,12.55-6.93C64.93,67.68,59,54,67.95,35.9a1.74,1.74,0,1,1,3.12,1.54c-9.93,20.08,0,34,.46,34.63a1.74,1.74,0,0,1-.65,2.6c-.1,0-10.44,5-13.75,7.44s-8.57,7.07-8.62,7.12a1.75,1.75,0,0,1-.73.39,14.94,14.94,0,0,1-2.24.35A1.71,1.71,0,0,1,45.21,90Z"/><path class="cls-3" d="M47.44,37.57h-4.9a1.74,1.74,0,1,1,0-3.48h4.9a1.74,1.74,0,0,1,0,3.48Z"/><path class="cls-3" d="M32.44,43.45a20.38,20.38,0,0,1-7.9-1.7c-3.73-1.56-6.15-4-7.2-7.37-1.59-5.05.2-11.69,5.31-19.74a1.65,1.65,0,0,1,1.54-.81,1.74,1.74,0,0,1,1.47.92c0,.07,4,7.53,7.75,11.26a107.15,107.15,0,0,0,10.17,8.47,1.74,1.74,0,0,1,.64,1.9,9.9,9.9,0,0,1-5.41,5.71A14.85,14.85,0,0,1,32.44,43.45ZM24.08,19c-3.33,5.91-4.51,10.83-3.42,14.32a8.47,8.47,0,0,0,5.22,5.21c5.68,2.37,9.6,1.27,11.43.4a7.44,7.44,0,0,0,3.06-2.51,100.45,100.45,0,0,1-9.44-8A52,52,0,0,1,24.08,19Z"/><path class="cls-3" d="M57.57,43.45a14.84,14.84,0,0,1-6.36-1.36,9.93,9.93,0,0,1-5.43-5.71,1.74,1.74,0,0,1,.64-1.9A106.9,106.9,0,0,0,56.6,26c3.73-3.72,7.71-11.18,7.75-11.26a1.74,1.74,0,0,1,1.47-.92,1.7,1.7,0,0,1,1.54.81c5.11,8.05,6.89,14.7,5.31,19.75-1,3.33-3.47,5.81-7.2,7.37A20.38,20.38,0,0,1,57.57,43.45Zm-7.95-7a7.48,7.48,0,0,0,3.07,2.51c1.83.87,5.75,2,11.42-.41a8.46,8.46,0,0,0,5.22-5.2c1.1-3.49-.08-8.4-3.41-14.32a51.79,51.79,0,0,1-6.87,9.45A100.48,100.48,0,0,1,49.62,36.43Z"/><path class="cls-3" d="M24.15,17.48h-.08a1.74,1.74,0,0,1-1.66-1.75c-.08-2.31.61-7.27,6.1-15a1.74,1.74,0,1,1,2.84,2c-5.23,7.37-5.5,11.68-5.46,12.83,0,0,0,.19,0,.24A1.74,1.74,0,0,1,24.15,17.48Z"/><path class="cls-3" d="M65.88,17.26a1.7,1.7,0,0,1-1.73-1.58s0-.19,0-.24c0-1.11-.32-5.31-5.56-12.69a1.74,1.74,0,0,1,2.84-2c5.49,7.73,6.24,12.57,6.2,14.77a1.78,1.78,0,0,1-1.7,1.76Z"/></g></g></g></svg>