<svg xmlns="http://www.w3.org/2000/svg" viewBox="0 0 90 90"><defs><style>.cls-1{fill:#94d5d2;}.cls-2{fill:none;}.cls-3{fill:#fff;}.cls-4{fill:#ffdac6;}.cls-5{fill:#576065;}</style></defs><title>buy-sign-hand</title><g id="buy-sign-hand"><g id="buy-sign-hand-2" data-name="buy-sign-hand"><g id="fill"><rect class="cls-1" x="2.26" y="4.83" width="72.46" height="32.62" rx="6.89" ry="6.89"/><rect class="cls-2" x="2.26" y="4.83" width="72.46" height="32.62" rx="6.89" ry="6.89"/><path class="cls-3" d="M31.36,15.6v.72c0,2.06-.63,3.38-2,4,1.69.66,2.35,2.18,2.35,4.3v1.63C31.67,29.37,30,31,26.89,31h-5V11h4.75C30,11,31.36,12.5,31.36,15.6Zm-6.27-1.75v5.3h1.23c1.17,0,1.89-.52,1.89-2.12V15.91c0-1.43-.49-2.06-1.6-2.06Zm0,8.16v6.16h1.8c1.06,0,1.63-.49,1.63-2V24.45c0-1.86-.6-2.43-2-2.43Z"/><path class="cls-3" d="M36.57,11V26.45c0,1.43.63,1.95,1.63,1.95s1.63-.52,1.63-1.95V11h3V26.25c0,3.21-1.6,5-4.7,5s-4.7-1.83-4.7-5V11Z"/><path class="cls-3" d="M47.91,24.39,43.93,11h3.29l2.41,9.14L52,11h3l-4,13.41V31H47.91Z"/><path class="cls-4" d="M69.79,85.44A20,20,0,0,1,49.62,65.29v-14c0-2.1,1.55-4.46,3.65-4.46h4.47V30.43a3.56,3.56,0,1,1,7.11,0v6.29h3.67A5,5,0,0,1,73,41.17v.62h3.16c2.11,0,3.94,2.36,3.94,4.46v.62h3.68a5,5,0,0,1,4.44,4.46V69.18c0,9.07-8,16.26-17.06,16.26Z"/><line class="cls-4" x1="57.75" y1="45.85" x2="57.75" y2="61.08"/><line class="cls-4" x1="64.85" y1="35.7" x2="64.85" y2="45.85"/><line class="cls-4" x1="72.97" y1="40.78" x2="72.97" y2="50.93"/><line class="cls-4" x1="80.08" y1="45.85" x2="80.08" y2="56"/></g><g id="outline"><path class="cls-5" d="M67.37,39H66a1.8,1.8,0,1,1,0-3.6h1.42a5.09,5.09,0,0,0,5.09-5.09V11.45a5.09,5.09,0,0,0-5.09-5.09H8.69A5.09,5.09,0,0,0,3.6,11.45V30.29a5.09,5.09,0,0,0,5.09,5.09h47.4a1.8,1.8,0,1,1,0,3.6H8.69A8.7,8.7,0,0,1,0,30.29V11.45A8.7,8.7,0,0,1,8.69,2.76H67.37a8.7,8.7,0,0,1,8.69,8.69V30.29A8.7,8.7,0,0,1,67.37,39Z"/><path class="cls-5" d="M71.14,87.24H69.79a21.72,21.72,0,0,1-22-21.95v-14c0-3,2.24-6.26,5.45-6.26h2.67V30.43a5.36,5.36,0,1,1,10.71,0v4.49h1.87A6.88,6.88,0,0,1,74.63,40h1.51c2.85,0,5.08,2.49,5.62,5.08h2A6.77,6.77,0,0,1,90,51.33V69.18C90,79,81.36,87.24,71.14,87.24ZM53.28,48.67c-.9,0-1.85,1.37-1.85,2.66v14A18.16,18.16,0,0,0,69.79,83.64h1.35c8.27,0,15.26-6.62,15.26-14.46V51.33a3.27,3.27,0,0,0-2.64-2.66H80.08a1.8,1.8,0,0,1-1.8-1.8v-.62c0-1.22-1.16-2.66-2.14-2.66H73a1.8,1.8,0,0,1-1.8-1.8v-.62a3.27,3.27,0,0,0-2.66-2.66H64.85a1.8,1.8,0,0,1-1.8-1.8V30.43a1.77,1.77,0,1,0-3.51,0V46.87a1.8,1.8,0,0,1-1.8,1.8Z"/><path class="cls-5" d="M57.75,62.88a1.8,1.8,0,0,1-1.8-1.8V45.85a1.8,1.8,0,0,1,3.6,0V61.08A1.8,1.8,0,0,1,57.75,62.88Z"/><path class="cls-5" d="M64.85,47.65a1.8,1.8,0,0,1-1.8-1.8V35.7a1.8,1.8,0,1,1,3.6,0V45.85A1.8,1.8,0,0,1,64.85,47.65Z"/><path class="cls-5" d="M73,52.73a1.8,1.8,0,0,1-1.8-1.8V40.78a1.8,1.8,0,0,1,3.6,0V50.93A1.8,1.8,0,0,1,73,52.73Z"/><path class="cls-5" d="M80.08,57.8a1.8,1.8,0,0,1-1.8-1.8V45.85a1.8,1.8,0,1,1,3.6,0V56A1.8,1.8,0,0,1,80.08,57.8Z"/></g></g></g></svg>