<svg xmlns="http://www.w3.org/2000/svg" viewBox="0 0 90 90"><defs><style>.cls-1{fill:#ffeb97;}.cls-2{fill:#ff8898;}.cls-3{fill:#576065;}</style></defs><title>cart</title><g id="cart"><g id="cart-2" data-name="cart"><g id="fill"><circle class="cls-1" cx="45.16" cy="69.74" r="5.17"/><circle class="cls-1" cx="69.12" cy="69.74" r="5.17"/><path class="cls-2" d="M79.62,64a1.89,1.89,0,0,0,0,.34.6.6,0,0,1-.6.6h-2.4a8.89,8.89,0,0,0-14.94,0h-9a8.89,8.89,0,0,0-14.94,0h-2.4a.6.6,0,0,1-.6-.6,1.89,1.89,0,0,0-.08-.55L23.13,26.52H85.72a.6.6,0,0,1,.59.49Z"/></g><g id="outline"><path class="cls-3" d="M38.11,68.57H35.29a4.29,4.29,0,0,1-4.27-4L18.36,23.55C18,22.93,13.8,15.84,3.6,15.07v2.36a1.8,1.8,0,1,1-3.6,0V13.21a1.8,1.8,0,0,1,1.8-1.8c12.75,0,18.94,8.5,19.9,10.78a1.63,1.63,0,0,1,.06.17l12.77,41.4a1.8,1.8,0,0,1,.08.53.68.68,0,0,0,.68.68h2.82a1.8,1.8,0,0,1,0,3.6Z"/><path class="cls-3" d="M62.07,68.57H52.2a1.8,1.8,0,0,1,0-3.6h9.87a1.8,1.8,0,1,1,0,3.6Z"/><path class="cls-3" d="M79,68.57H76.17a1.8,1.8,0,0,1,0-3.6H79a.68.68,0,0,0,.68-.68,1.78,1.78,0,0,1,0-.32l6.7-37a.68.68,0,0,0-.67-.57H21.53a1.8,1.8,0,0,1,0-3.6H85.72A4.28,4.28,0,0,1,90,27.12a1.78,1.78,0,0,1,0,.32l-6.71,37A4.29,4.29,0,0,1,79,68.57ZM88.2,27.12h0Z"/><path class="cls-3" d="M45.16,78.59A8.85,8.85,0,1,1,54,69.74,8.86,8.86,0,0,1,45.16,78.59Zm0-14.1a5.25,5.25,0,1,0,5.25,5.25A5.25,5.25,0,0,0,45.16,64.5Z"/><path class="cls-3" d="M69.12,78.59A8.85,8.85,0,1,1,78,69.74,8.86,8.86,0,0,1,69.12,78.59Zm0-14.1a5.25,5.25,0,1,0,5.25,5.25A5.25,5.25,0,0,0,69.12,64.5Z"/><path class="cls-3" d="M76.51,37.32H37a1.8,1.8,0,0,1,0-3.6H76.51a1.8,1.8,0,1,1,0,3.6Z"/><path class="cls-3" d="M75.1,46.17H38.45a1.8,1.8,0,1,1,0-3.6H75.1a1.8,1.8,0,0,1,0,3.6Z"/><path class="cls-3" d="M73.69,55H41.27a1.8,1.8,0,0,1,0-3.6H73.69a1.8,1.8,0,0,1,0,3.6Z"/></g></g></g></svg>