<svg xmlns="http://www.w3.org/2000/svg" viewBox="0 0 90 90"><defs><style>.cls-1{fill:#fff;}.cls-2{fill:#e6e6e6;}.cls-3{fill:#ffeb97;}.cls-4{fill:#94d5d2;}.cls-5{fill:#ff8898;}.cls-6{fill:#576065;}</style></defs><title>cart-shopping-list</title><g id="cart-shopping-list"><g id="cart-shopping-list-2" data-name="cart-shopping-list"><g id="fill"><rect class="cls-1" x="32.51" y="1.81" width="43.27" height="34.82"/><ellipse class="cls-2" cx="45.15" cy="81.78" rx="6.76" ry="6.75"/><ellipse class="cls-2" cx="68.15" cy="81.78" rx="6.77" ry="6.75"/><path class="cls-3" d="M74.35,78.92l-.53-.82a6.74,6.74,0,0,0-11.32,0l-.53.82H51.34l-.53-.82a6.74,6.74,0,0,0-11.32,0l-.53.82H35.68a2.38,2.38,0,0,1-2.38-2.38l-11.74-38H84.09a2.38,2.38,0,0,1,2.34,1.94l.06.32L80,76.55a2.38,2.38,0,0,1-2.38,2.38Z"/><circle class="cls-4" cx="42.78" cy="13.87" r="5.66"/><ellipse class="cls-5" cx="42.78" cy="27.9" rx="5.67" ry="5.66"/></g><g id="outline"><path class="cls-6" d="M38.39,80.4H35.68a4.19,4.19,0,0,1-4.17-3.87L19.36,37.2c-.33-.62-4.22-7.31-14-8.06v2.18a1.81,1.81,0,1,1-3.61,0V27.27a1.81,1.81,0,0,1,1.81-1.81c12.28,0,18.25,8.19,19.18,10.38a1.64,1.64,0,0,1,.06.17L35,75.68a1.81,1.81,0,0,1,.08.53.57.57,0,0,0,.57.57h2.71a1.81,1.81,0,1,1,0,3.61Z"/><path class="cls-6" d="M61.39,80.4H51.92a1.81,1.81,0,0,1,0-3.61h9.47a1.81,1.81,0,1,1,0,3.61Z"/><path class="cls-6" d="M77.62,80.4H74.92a1.81,1.81,0,1,1,0-3.61h2.71a.57.57,0,0,0,.57-.57,2,2,0,0,1,0-.32l6.43-35.4a.57.57,0,0,0-.56-.46H22.48a1.81,1.81,0,1,1,0-3.61H84.09a4.19,4.19,0,0,1,4.19,4.18,2,2,0,0,1,0,.32L81.81,76.4A4.19,4.19,0,0,1,77.62,80.4Zm8.84-39.8h0Z"/><path class="cls-6" d="M45.15,90a8.56,8.56,0,1,1,8.57-8.56A8.58,8.58,0,0,1,45.15,90Zm0-13.51a4.95,4.95,0,1,0,5,4.95A5,5,0,0,0,45.15,76.49Z"/><path class="cls-6" d="M68.15,90a8.56,8.56,0,1,1,8.57-8.56A8.58,8.58,0,0,1,68.15,90Zm0-13.51a4.95,4.95,0,1,0,5,4.95A5,5,0,0,0,68.15,76.49Z"/><path class="cls-6" d="M75.24,50.46H37.36a1.81,1.81,0,1,1,0-3.61H75.24a1.81,1.81,0,1,1,0,3.61Z"/><path class="cls-6" d="M73.89,58.94H38.71a1.81,1.81,0,0,1,0-3.61H73.89a1.81,1.81,0,0,1,0,3.61Z"/><path class="cls-6" d="M72.54,67.41H41.42a1.81,1.81,0,1,1,0-3.61H72.54a1.81,1.81,0,0,1,0,3.61Z"/><path class="cls-6" d="M77.58,38.47H74V3.64l-39.63,0,0,34.86H30.7V3.64A3.65,3.65,0,0,1,34.34,0H73.93a3.65,3.65,0,0,1,3.65,3.64Z"/><path class="cls-6" d="M42.78,17.66l-4-4a1.81,1.81,0,1,1,2.55-2.56l1.43,1.43,4.13-4.12A1.81,1.81,0,1,1,49.47,11Z"/><path class="cls-6" d="M42.78,31.68l-4-4a1.81,1.81,0,0,1,2.55-2.56l1.43,1.43,4.13-4.12A1.81,1.81,0,0,1,49.47,25Z"/><rect class="cls-6" x="52.77" y="10.6" width="17.88" height="3.61"/><rect class="cls-6" x="52.77" y="24.62" width="17.88" height="3.61"/></g></g></g></svg>