<svg xmlns="http://www.w3.org/2000/svg" viewBox="0 0 90 90"><defs><style>.cls-1{fill:#ffeb97;}.cls-2{fill:#e6d488;}.cls-3{fill:#e6e6e6;}.cls-4{fill:#fff;}.cls-5{fill:#94d5d2;}.cls-6{fill:#576065;}</style></defs><title>cash-desk</title><g id="cash-desk"><g id="cash-desk-2" data-name="cash-desk"><g id="fill"><path class="cls-1" d="M80.38,36.85c2.38,12.36,5.53,32.52,5.53,32.52H4.09S6.7,49.57,9.17,37.21Z"/><path class="cls-2" d="M9.17,37.21c.87-4.34,1.71-7.77,2.42-9.09,3.35-6.23,65.29-4.37,66.82,0a84.05,84.05,0,0,1,2,8.73Z"/><rect class="cls-3" x="1.88" y="69.38" width="86.25" height="18.75"/><rect class="cls-4" x="20.63" y="1.88" width="48.75" height="26.25"/><rect class="cls-5" x="27.13" y="9.38" width="35.75" height="11.25"/></g><g id="outline"><path class="cls-6" d="M88.13,90H1.88A1.87,1.87,0,0,1,0,88.13V69.38A1.87,1.87,0,0,1,1.88,67.5H88.13A1.87,1.87,0,0,1,90,69.38V88.13A1.87,1.87,0,0,1,88.13,90ZM3.75,86.25h82.5v-15H3.75Z"/><path class="cls-6" d="M84.55,70.13a1.87,1.87,0,0,1-1.87-1.87c0-22.39-5.17-40.65-7.76-41.25H69.38a1.88,1.88,0,0,1,0-3.75h5.57c8.77,0,11.49,33,11.49,45A1.87,1.87,0,0,1,84.55,70.13Z"/><path class="cls-6" d="M5.45,70.13a1.87,1.87,0,0,1-1.87-1.87c0-12,2.69-45,11.37-45h5.38a1.88,1.88,0,0,1,0,3.75H14.94c-2.85.77-7.62,20.38-7.62,41.25A1.87,1.87,0,0,1,5.45,70.13Z"/><path class="cls-6" d="M69.38,30H20.63a1.87,1.87,0,0,1-1.87-1.87V1.88A1.87,1.87,0,0,1,20.63,0H69.38a1.87,1.87,0,0,1,1.88,1.88V28.13A1.87,1.87,0,0,1,69.38,30ZM22.5,26.25h45V3.75h-45Z"/><path class="cls-6" d="M64.75,22.5H25.25V7.5h39.5ZM29,18.75H61v-7.5H29Z"/><rect class="cls-6" x="20.63" y="44.01" width="9.04" height="6.4"/><rect class="cls-6" x="34.74" y="44.01" width="9.04" height="6.4"/><rect class="cls-6" x="48.86" y="44.01" width="9.04" height="6.4"/><rect class="cls-6" x="20.63" y="54.59" width="9.04" height="6.4"/><rect class="cls-6" x="34.74" y="54.59" width="9.04" height="6.4"/><rect class="cls-6" x="48.86" y="54.59" width="9.04" height="6.4"/><rect class="cls-6" x="62.1" y="44.06" width="7.28" height="16.88"/><path class="cls-6" d="M56.25,80.63H33.75a1.88,1.88,0,0,1,0-3.75h22.5a1.88,1.88,0,0,1,0,3.75Z"/><rect class="cls-6" x="10.31" y="35.31" width="69.38" height="3.75"/></g></g></g></svg>