<svg xmlns="http://www.w3.org/2000/svg" viewBox="0 0 90 90"><defs><style>.cls-1{fill:#fff;}.cls-2{fill:#576065;}.cls-3{fill:#ff8898;}.cls-4{fill:#94d5d2;}</style></defs><title>checklist</title><g id="checklist"><g id="checklist-2" data-name="checklist"><g id="fill"><path class="cls-1" d="M12.25,81.11v4.3A2.79,2.79,0,0,0,15,88.2H75a2.79,2.79,0,0,0,2.79-2.79V4.59A2.79,2.79,0,0,0,75,1.8H15a2.78,2.78,0,0,0-2.78,2.78V84"/><path class="cls-2" d="M75,90H15a4.59,4.59,0,0,1-4.59-4.59V4.58A4.58,4.58,0,0,1,15,0H75a4.59,4.59,0,0,1,4.59,4.59V85.41A4.59,4.59,0,0,1,75,90ZM14.05,81.11v4.3a1,1,0,0,0,1,1H75a1,1,0,0,0,1-1V4.59a1,1,0,0,0-1-1H15a1,1,0,0,0-1,1Z"/><rect class="cls-3" x="19.68" y="11.95" width="19.69" height="9.39"/><circle class="cls-4" cx="25.63" cy="36.34" r="5.96"/><circle class="cls-4" cx="25.63" cy="54.21" r="5.96"/><circle class="cls-4" cx="25.63" cy="72.09" r="5.96"/><rect class="cls-2" x="42.99" y="17.41" width="27.33" height="3.93"/><rect class="cls-2" x="42.99" y="11.95" width="27.33" height="3.93"/></g><g id="outline"><path class="cls-2" d="M75,90H15a4.59,4.59,0,0,1-4.59-4.59V4.58A4.58,4.58,0,0,1,15,0H75a4.59,4.59,0,0,1,4.59,4.59V85.41A4.59,4.59,0,0,1,75,90ZM14.05,81.11v4.3a1,1,0,0,0,1,1H75a1,1,0,0,0,1-1V4.59a1,1,0,0,0-1-1H15a1,1,0,0,0-1,1Z"/><path class="cls-2" d="M25.63,40.55,21.38,36.3a1.8,1.8,0,1,1,2.55-2.55l1.71,1.71,4.69-4.69a1.8,1.8,0,0,1,2.55,2.55Z"/><path class="cls-2" d="M25.63,58.43l-4.25-4.25a1.8,1.8,0,0,1,2.55-2.55l1.71,1.71,4.69-4.69a1.8,1.8,0,1,1,2.55,2.55Z"/><path class="cls-2" d="M25.63,76.3l-4.25-4.25a1.8,1.8,0,1,1,2.55-2.55l1.71,1.71,4.69-4.69a1.8,1.8,0,1,1,2.55,2.55Z"/><rect class="cls-2" x="40.53" y="31.74" width="29.79" height="3.6"/><rect class="cls-2" x="40.53" y="37.69" width="17.88" height="3.6"/><rect class="cls-2" x="40.53" y="49.61" width="8.94" height="3.6"/><rect class="cls-2" x="52.45" y="49.61" width="17.88" height="3.6"/><rect class="cls-2" x="40.53" y="55.57" width="23.84" height="3.6"/><rect class="cls-2" x="40.53" y="67.49" width="29.79" height="3.6"/><rect class="cls-2" x="40.53" y="73.45" width="8.94" height="3.6"/><rect class="cls-2" x="52.45" y="73.45" width="8.94" height="3.6"/></g></g></g></svg>