<svg xmlns="http://www.w3.org/2000/svg" viewBox="0 0 90 90"><defs><style>.cls-1{fill:#94d5d2;}.cls-2{fill:#ff8898;}.cls-3{fill:#ffeb97;}.cls-4{fill:#576065;}.cls-5{fill:#fff;}</style></defs><title>clothes-hanger-label</title><g id="clothes-hanger-label"><g id="clothes-hanger-label-2" data-name="clothes-hanger-label"><g id="fill"><rect class="cls-1" x="55.31" y="68.35" width="28.12" height="19.85"/><path class="cls-2" d="M48.86,42.65H31.77a1.44,1.44,0,0,0-1,.42L5.12,68.59a1.41,1.41,0,0,0,0,2l17.1,17a1.42,1.42,0,0,0,1,.42,1.44,1.44,0,0,0,1-.42L49.87,62.09a1.41,1.41,0,0,0,.42-1v-17A1.42,1.42,0,0,0,48.86,42.65Z"/><path class="cls-3" d="M15.59,68.36c1.28-1.28,2.7-1.17,4,.17l.26.26L18.65,70l-.35-.35c-.6-.6-1.06-.58-1.48-.17s-.43.88.17,1.48c1.72,1.72,4.61-.53,7,1.86,1.34,1.34,1.43,2.77.14,4.06s-2.72,1.19-4.06-.14l-.51-.51L20.8,75l.6.6c.59.6,1.07.55,1.49.13s.46-.9-.13-1.49c-1.72-1.72-4.61.52-7-1.86C14.42,71.06,14.31,69.64,15.59,68.36Z"/><path class="cls-3" d="M31.58,69.27,30.26,70.6l-1.74-1.29L26.9,70.92l1.29,1.74L27,73.87l-7-9.69,1.92-1.92Zm-5.64.35,1.26-1.26-4.86-3.59Z"/><path class="cls-3" d="M24.43,59.72l1.31-1.31,7.16,7.16,2.16-2.16,1.19,1.19-3.47,3.47Z"/><path class="cls-3" d="M33.91,57.28l1.8-1.8,1.19,1.19-1.8,1.8,2.45,2.45,2.27-2.27L41,59.85l-3.58,3.58-8.35-8.35,3.58-3.58,1.19,1.19L31.58,55Z"/></g><g id="outline"><path class="cls-4" d="M82,54.14H50.28a1.8,1.8,0,0,1,0-3.6H82c.46,0,1.14-.6,1.42-1.56.5-1.72-.48-3.57-2.63-5L48.87,27.51a1.8,1.8,0,0,1-1-1.6v-9a1.8,1.8,0,0,1,1.8-1.8c3.8,0,7.52-2.84,7.52-5.73A5.63,5.63,0,0,0,51.57,3.6a5.73,5.73,0,0,0-5.71,5.73,1.8,1.8,0,1,1-3.6,0,9.28,9.28,0,1,1,18.56,0c0,4.74-4.62,8.41-9.32,9.18v6.3l31.05,16.1c4.35,2.79,5,6.5,4.29,9.08A5.4,5.4,0,0,1,82,54.14Z"/><path class="cls-4" d="M21.42,54.14a5.57,5.57,0,0,1-5-4.28c-1-3.3.54-6.61,4-8.86L41.63,27.41a1.8,1.8,0,0,1,1.94,3L22.39,44c-2.11,1.36-3,3.11-2.54,4.82a2.17,2.17,0,0,0,1.57,1.7,1.8,1.8,0,1,1,0,3.6Z"/><path class="cls-4" d="M23.22,89.83a3.21,3.21,0,0,1-2.27-.94l-17.1-17a3.21,3.21,0,0,1,0-4.55L29.49,41.79a3.22,3.22,0,0,1,2.28-.94H48.86a3.22,3.22,0,0,1,3.22,3.22v17a3.23,3.23,0,0,1-1,2.28L25.5,88.89A3.24,3.24,0,0,1,23.22,89.83ZM6.66,69.59,23.22,86.08,48.48,60.92V44.45H31.92ZM48.6,60.81h0Zm.26-16.36h0Z"/><ellipse class="cls-5" cx="42.11" cy="50.75" rx="3.26" ry="3.24"/><path class="cls-4" d="M42.11,55.12a4.38,4.38,0,0,1-4.38-4.37,4.37,4.37,0,0,1,4.38-4.37,4.37,4.37,0,1,1,0,8.74Zm0-6.49a2.12,2.12,0,0,0-1.51.62A2.09,2.09,0,0,0,40,50.75a2.13,2.13,0,1,0,2.13-2.12Z"/><path class="cls-4" d="M42.5,51.34a1.8,1.8,0,0,1-1.8-1.8A4.08,4.08,0,0,0,40,48.26,8.53,8.53,0,0,1,38.19,44c-.12-1.35.71-3,2.17-5.78,1.13-2.16,3.24-6.17,2.71-7.35,0-.1-.25-.17-.42-.22a1.8,1.8,0,0,1,.87-3.49,4,4,0,0,1,2.83,2.24c1.25,2.78-.81,6.7-2.81,10.5a20.44,20.44,0,0,0-1.77,3.87,5.21,5.21,0,0,0,1.16,2.43,5.82,5.82,0,0,1,1.37,3.34A1.8,1.8,0,0,1,42.5,51.34Z"/><path class="cls-4" d="M83.43,90H55.31a1.8,1.8,0,0,1-1.8-1.8V68.35a1.8,1.8,0,0,1,1.8-1.8H83.43a1.8,1.8,0,0,1,1.8,1.8V88.2A1.8,1.8,0,0,1,83.43,90ZM57.11,86.4H81.63V70.15H57.11Z"/><path class="cls-4" d="M69.49,69.1h-.18c-.71-.07-7-.76-9.66-3.43a5.81,5.81,0,0,1,0-8.19,5.93,5.93,0,0,1,8.2,0h0c2.67,2.67,3.36,9,3.43,9.66a1.8,1.8,0,0,1-1.79,2Zm-5.74-9.73a2.19,2.19,0,0,0-1.55,3.75c.94.94,3.2,1.63,5.13,2-.41-2-1.1-4.2-2-5.13h0A2.17,2.17,0,0,0,63.75,59.36Z"/><path class="cls-4" d="M69.49,69.1a1.8,1.8,0,0,1-1.79-2c.07-.71.77-7,3.44-9.66a5.93,5.93,0,0,1,8.19,0,5.81,5.81,0,0,1,0,8.19c-2.67,2.67-9,3.37-9.66,3.44Zm5.74-9.73a2.18,2.18,0,0,0-1.55.64h0c-.93.93-1.63,3.14-2,5.14,2-.41,4.2-1.1,5.14-2a2.2,2.2,0,0,0,0-3.1A2.18,2.18,0,0,0,75.23,59.36Zm-2.82-.63h0Z"/><rect class="cls-4" x="60.42" y="76.11" width="17.91" height="3.6" transform="translate(-8.9 146.86) rotate(-89.69)"/></g></g></g></svg>