<svg xmlns="http://www.w3.org/2000/svg" viewBox="0 0 90 90"><defs><style>.cls-1{fill:#ff8898;}.cls-2{fill:#ffeb97;}.cls-3{fill:#576065;}</style></defs><title>contact-24hr</title><g id="contact-24hr"><g id="contact-24hr-2" data-name="contact-24hr"><g id="fill"><path class="cls-1" d="M69.76,85.73l6.79-6.8A6.38,6.38,0,0,0,76,69.4L65.33,61.12a6.36,6.36,0,0,0-7.86,0L55.11,63a6.36,6.36,0,0,1-8.45-.49l-19-19A6.38,6.38,0,0,1,27.15,35L29,32.67a6.38,6.38,0,0,0,0-7.87L20.78,14.17a6.36,6.36,0,0,0-9.53-.59L4.46,20.37C-.22,25-.2,38.18,25.88,64.29S65.46,90,69.76,85.73Z"/><ellipse class="cls-2" cx="67.29" cy="22.76" rx="20.67" ry="20.69"/><path class="cls-3" d="M62,16.31c-.89,0-1.45.48-1.45,1.75V20H57.87V18.25c0-2.84,1.42-4.47,4.16-4.47s4.16,1.63,4.16,4.47c0,5.84-6.06,7.85-5.53,11h5.28v2.54H57.87V29.57c0-5.23,5.53-6.09,5.53-11.22C63.4,16.75,62.85,16.31,62,16.31Z"/><path class="cls-3" d="M67.26,26l5.07-12h3V26H76.7v2.54H75.38v3.22H72.59V28.53H67.26Zm5.33,0V19.41L69.82,26Z"/></g><g id="outline"><path class="cls-3" d="M63.4,90a23.66,23.66,0,0,1-8.12-1.64c-8.67-3.19-19-10.79-30.85-22.6C-6.33,34.93-.8,22.73,3,18.92L9.8,12.13a8.41,8.41,0,0,1,12.59.78l8.27,10.63a8.41,8.41,0,0,1,0,10.39L28.76,36.3a4.34,4.34,0,0,0,.34,5.75l19,19a4.32,4.32,0,0,0,5.74.34l2.36-1.87a8.39,8.39,0,0,1,10.39,0l10.63,8.28A8.43,8.43,0,0,1,78,80.38l-6.79,6.8h0C70.18,88.21,67.78,90,63.4,90ZM15.74,13.75a4.26,4.26,0,0,0-3,1.27L5.9,21.81c-4.51,4.52-1.61,18,21.43,41C38.55,74.07,48.7,81.56,56.7,84.5c5.22,1.92,9.57,1.84,11.62-.21l6.79-6.8A4.33,4.33,0,0,0,74.7,71L64.07,62.73a4.31,4.31,0,0,0-5.34,0l-2.36,1.87A8.41,8.41,0,0,1,45.21,64l-19-19a8.43,8.43,0,0,1-.65-11.17l1.87-2.37a4.32,4.32,0,0,0,0-5.34L19.16,15.42A4.27,4.27,0,0,0,16,13.76Zm54,72h0Z"/><path class="cls-3" d="M67.28,45.5A22.73,22.73,0,1,1,90,22.76,22.75,22.75,0,0,1,67.28,45.5Zm0-41.38A18.65,18.65,0,1,0,85.91,22.76,18.66,18.66,0,0,0,67.28,4.12Z"/></g></g></g></svg>