<svg xmlns="http://www.w3.org/2000/svg" viewBox="0 0 90 90"><defs><style>.cls-1{fill:#e6d488;}.cls-2{fill:#ffeb97;}.cls-3{fill:#fff;}.cls-4{fill:#576065;}</style></defs><title>delivery-truck</title><g id="dollar-coins"><g id="dollar-coins-2" data-name="dollar-coins"><g id="fill"><rect class="cls-1" x="20.72" y="77.43" width="43.24" height="10.81"/><rect class="cls-1" x="26.04" y="66.7" width="43.24" height="10.81"/><rect class="cls-1" x="20.72" y="55.81" width="43.24" height="10.81"/><rect class="cls-2" x="26.04" y="45" width="43.24" height="10.81"/><circle class="cls-2" cx="42.34" cy="23.38" r="21.62"/><circle class="cls-3" cx="42.34" cy="23.38" r="14.1"/><path class="cls-4" d="M41.45,31.35A8.43,8.43,0,0,1,36,28.94l1.78-2.5a6.7,6.7,0,0,0,3.68,2V24.77c-2.38-.6-5-1.48-5-4.63,0-2.34,1.85-4.33,5-4.65V13.34h2.2v2.2a8.19,8.19,0,0,1,4.7,2.06L46.52,20a6.5,6.5,0,0,0-2.87-1.5v3.26c2.38.6,5,1.53,5,4.68,0,2.57-1.67,4.54-5,4.88v2.11h-2.2Zm0-10.16V18.36c-1,.14-1.62.72-1.62,1.5S40.48,20.91,41.45,21.18Zm2.2,4.14v3.1c1.13-.23,1.71-.9,1.71-1.62S44.65,25.65,43.65,25.33Z"/></g><g id="outline"><path class="cls-4" d="M64,90H20.72A1.76,1.76,0,0,1,19,88.24V77.43a1.76,1.76,0,0,1,1.76-1.76H64a1.76,1.76,0,0,1,1.76,1.76V88.24A1.76,1.76,0,0,1,64,90ZM22.49,86.47H62.19V79.19H22.49Z"/><rect class="cls-4" x="29.77" y="77.43" width="3.53" height="10.81"/><rect class="cls-4" x="40.57" y="77.43" width="3.53" height="10.81"/><rect class="cls-4" x="51.38" y="77.43" width="3.53" height="10.81"/><path class="cls-4" d="M69.28,79.28H26a1.76,1.76,0,0,1-1.76-1.76V66.7A1.76,1.76,0,0,1,26,64.94H69.28A1.76,1.76,0,0,1,71,66.7V77.51A1.76,1.76,0,0,1,69.28,79.28ZM27.81,75.75H67.51V68.47H27.81Z"/><rect class="cls-4" x="35.09" y="66.7" width="3.53" height="10.81"/><rect class="cls-4" x="45.9" y="66.7" width="3.53" height="10.81"/><rect class="cls-4" x="56.7" y="66.7" width="3.53" height="10.81"/><path class="cls-4" d="M64,68.38H20.72A1.76,1.76,0,0,1,19,66.62V55.81A1.76,1.76,0,0,1,20.72,54H64a1.76,1.76,0,0,1,1.76,1.76V66.62A1.76,1.76,0,0,1,64,68.38ZM22.49,64.85H62.19V57.57H22.49Z"/><rect class="cls-4" x="29.77" y="55.81" width="3.53" height="10.81"/><rect class="cls-4" x="40.57" y="55.81" width="3.53" height="10.81"/><rect class="cls-4" x="51.38" y="55.81" width="3.53" height="10.81"/><path class="cls-4" d="M69.28,57.57H26a1.76,1.76,0,0,1-1.76-1.76V45A1.76,1.76,0,0,1,26,43.24H69.28A1.76,1.76,0,0,1,71,45V55.81A1.76,1.76,0,0,1,69.28,57.57ZM27.81,54H67.51V46.76H27.81Z"/><rect class="cls-4" x="35.09" y="45" width="3.53" height="10.81"/><rect class="cls-4" x="45.9" y="45" width="3.53" height="10.81"/><rect class="cls-4" x="56.7" y="45" width="3.53" height="10.81"/><path class="cls-4" d="M42.34,46.76A23.38,23.38,0,1,1,65.72,23.38,23.41,23.41,0,0,1,42.34,46.76Zm0-43.24A19.85,19.85,0,1,0,62.19,23.38,19.88,19.88,0,0,0,42.34,3.53Z"/><rect class="cls-4" x="40.57" y="37.46" width="3.53" height="7.54"/><rect class="cls-4" x="40.57" y="1.76" width="3.53" height="7.54"/><rect class="cls-4" x="56.41" y="21.62" width="7.54" height="3.53"/><rect class="cls-4" x="20.72" y="21.62" width="7.54" height="3.53"/><rect class="cls-4" x="25.95" y="34.24" width="7.54" height="3.53" transform="translate(-16.75 31.56) rotate(-45)"/><rect class="cls-4" x="51.18" y="9" width="7.55" height="3.53" transform="translate(8.48 42.01) rotate(-45)"/><rect class="cls-4" x="53.24" y="32.34" width="3.53" height="7.41" transform="translate(-9.38 49.45) rotate(-45)"/><rect class="cls-4" x="27.96" y="6.99" width="3.53" height="7.55" transform="translate(1.09 24.17) rotate(-45)"/><path class="cls-4" d="M42.34,39.22A15.84,15.84,0,1,1,58.18,23.38,15.86,15.86,0,0,1,42.34,39.22Zm0-28.15A12.31,12.31,0,1,0,54.65,23.38,12.32,12.32,0,0,0,42.34,11.07Z"/></g></g></g></svg>