<svg xmlns="http://www.w3.org/2000/svg" viewBox="0 0 90 90"><defs><style>.cls-1{fill:#ff8898;}.cls-2{fill:#fff;}.cls-3{fill:#d6d6d6;}.cls-4{fill:#576065;}</style></defs><title>dollar-coins</title><g id="bank-card"><g id="bank-card-2" data-name="bank-card"><g id="fill"><path class="cls-1" d="M88.2,63.71V66.6a9.26,9.26,0,0,1-9.26,9.26H11.06A9.26,9.26,0,0,1,1.8,66.6V63.71Z"/><path class="cls-2" d="M1.8,63.71V23.4a9.26,9.26,0,0,1,9.26-9.26H78.94A9.26,9.26,0,0,1,88.2,23.4V63.71Z"/><rect class="cls-3" x="1.9" y="51.17" width="86.3" height="12.54"/></g><g id="outline"><path class="cls-4" d="M78.94,77.66H11.06A11.07,11.07,0,0,1,0,66.6V23.4A11.07,11.07,0,0,1,11.06,12.34H78.94A11.07,11.07,0,0,1,90,23.4V66.6A11.07,11.07,0,0,1,78.94,77.66ZM11.06,15.94A7.47,7.47,0,0,0,3.6,23.4V66.6a7.47,7.47,0,0,0,7.46,7.46H78.94A7.47,7.47,0,0,0,86.4,66.6V23.4a7.47,7.47,0,0,0-7.46-7.46Z"/><path class="cls-4" d="M90,65.51H.1V49.37H90ZM3.7,61.91H86.4V53H3.7Z"/><path class="cls-4" d="M63.52,30.09H14.14a1.8,1.8,0,1,1,0-3.6H63.52a1.8,1.8,0,0,1,0,3.6Z"/><path class="cls-4" d="M26.48,38.83H14.14a1.8,1.8,0,1,1,0-3.6H26.48a1.8,1.8,0,1,1,0,3.6Z"/></g></g></g></svg>