<svg xmlns="http://www.w3.org/2000/svg" viewBox="0 0 90 90"><defs><style>.cls-1{fill:#d9d9d9;}.cls-2{fill:#fff;}.cls-3{fill:#ffeb97;}.cls-4{fill:#576065;}</style></defs><title>euro-bills</title><g id="euro-bills"><g id="euro-bill"><g id="fill"><path class="cls-1" d="M83.51,88.12c1.46,0,2.66-1.73,2.66-3.86V22.57c0-2.13-1.19-3.86-2.66-3.86h-77c-1.47,0-2.66,1.73-2.66,3.86v61.7c0,2.13,1.19,3.86,2.66,3.86Z"/><path class="cls-2" d="M83.51,58.71a2.94,2.94,0,0,0,2.66-3.16V5a2.94,2.94,0,0,0-2.66-3.16h-77A2.94,2.94,0,0,0,3.84,5V55.55a2.94,2.94,0,0,0,2.66,3.16Z"/><path class="cls-3" d="M65.11,10.1H24.89A11.37,11.37,0,0,1,13.39,21.64l.28,16.59c6.47,0,11.21,5.77,11.21,12.26H65.11a11.37,11.37,0,0,1,11.5-11.54V21.64A11.37,11.37,0,0,1,65.11,10.1Z"/></g><g id="outline"><path class="cls-4" d="M83.51,90h-77A4.81,4.81,0,0,1,2,85V74.57a1.87,1.87,0,0,1,3.75,0V85c0,.72.42,1.29.78,1.29h77c.36,0,.78-.56.78-1.29V74.57a1.88,1.88,0,0,1,3.75,0V85A4.81,4.81,0,0,1,83.51,90Z"/><path class="cls-4" d="M83.51,80.19h-77a4.81,4.81,0,0,1-4.53-5V64.77a1.87,1.87,0,0,1,3.75,0V75.16c0,.72.42,1.28.78,1.28h77c.36,0,.78-.56.78-1.28V64.77a1.88,1.88,0,0,1,3.75,0V75.16A4.81,4.81,0,0,1,83.51,80.19Z"/><path class="cls-4" d="M83.51,70.39h-77a4.81,4.81,0,0,1-4.53-5V55a1.87,1.87,0,0,1,3.75,0V65.36c0,.72.42,1.28.78,1.28h77c.36,0,.78-.56.78-1.28V55A1.88,1.88,0,0,1,88,55V65.36A4.81,4.81,0,0,1,83.51,70.39Z"/><path class="cls-4" d="M83.51,60.58h-77a4.81,4.81,0,0,1-4.53-5V5A4.81,4.81,0,0,1,6.49,0h77A4.81,4.81,0,0,1,88,5V55.55A4.81,4.81,0,0,1,83.51,60.58ZM6.49,3.75c-.36,0-.78.56-.78,1.29V55.55c0,.72.42,1.28.78,1.28h77c.36,0,.78-.56.78-1.28V5c0-.72-.42-1.29-.78-1.29Z"/><path class="cls-4" d="M65.11,52.36H24.89A1.87,1.87,0,0,1,23,50.49c0-5.73-4.19-10.39-9.34-10.39a1.88,1.88,0,0,1-1.87-1.84l-.28-16.59a1.88,1.88,0,0,1,1.88-1.91A9.54,9.54,0,0,0,23,10.1a1.87,1.87,0,0,1,1.88-1.87H65.11A1.87,1.87,0,0,1,67,10.1a9.54,9.54,0,0,0,9.62,9.66,1.87,1.87,0,0,1,1.88,1.88V38.95a1.87,1.87,0,0,1-1.87,1.88A9.54,9.54,0,0,0,67,50.49,1.87,1.87,0,0,1,65.11,52.36ZM26.65,48.61H63.36A13.2,13.2,0,0,1,74.73,37.2V23.39A13.2,13.2,0,0,1,63.36,12H26.64A13.19,13.19,0,0,1,15.3,23.38l.22,13.11C21.3,37.38,25.87,42.35,26.65,48.61Z"/><rect class="cls-4" x="36.26" y="31.58" width="13.76" height="3.75"/><rect class="cls-4" x="36.26" y="25.25" width="13.76" height="3.75"/><path class="cls-4" d="M49.28,42.95c-5.61,0-10.17-5.68-10.17-12.66s4.56-12.66,10.17-12.66A9.16,9.16,0,0,1,56.18,21l-2.82,2.47a5.47,5.47,0,0,0-4.07-2c-3.54,0-6.42,4-6.42,8.91s2.88,8.91,6.42,8.91A5.49,5.49,0,0,0,53.44,37l2.87,2.41A9.17,9.17,0,0,1,49.28,42.95Z"/><rect class="cls-4" x="23.44" y="28.42" width="6.59" height="3.75"/><rect class="cls-4" x="59.97" y="28.42" width="6.59" height="3.75"/></g></g></g></svg>