<svg xmlns="http://www.w3.org/2000/svg" viewBox="0 0 90 90"><defs><style>.cls-1{fill:#ff8898;}.cls-2{fill:#c7c7c7;}.cls-3{fill:#c4c4c4;}.cls-4{fill:#d6d6d6;}.cls-5{fill:#ffeb97;}.cls-6{fill:#ffdac6;}.cls-7{fill:#fff;}.cls-8{fill:#576065;}</style></defs><title>hand-package</title><g id="hand-package"><g id="hand-package-2" data-name="hand-package"><g id="fill"><rect class="cls-1" x="1.8" y="41.43" width="21.42" height="32.6"/><polygon class="cls-2" points="32.84 32 25.1 45.78 25.1 41.53 25.1 41.44 25.1 17.43 32.84 32"/><path class="cls-3" d="M36.08,33.9h7v7.59l3.05,3,3.45-1.73,3.08,1.54,3.08-1.54,3.45,1.73,3.06-3V33.9h8.61l8,18.09H43.3a1.78,1.78,0,0,0-.28.06c-2.91-2-7.12-4.21-14.4-4.89Z"/><polygon class="cls-2" points="80.34 46 74.2 32.04 80.34 18.56 80.34 46"/><polygon class="cls-4" points="79.3 11.78 70.93 30.15 62.3 30.15 62.3 11.78 79.3 11.78"/><polygon class="cls-4" points="43.13 30.15 36.11 30.15 26.34 11.78 43.13 11.78 43.13 30.15"/><polygon class="cls-5" points="58.54 11.78 58.54 39.93 58.51 39.97 55.8 38.61 52.72 40.15 49.63 38.61 46.92 39.97 46.89 11.78 58.54 11.78"/><path class="cls-6" d="M52.31,78.23c-5.49,0-12.39-3.51-17.94-6.33C30.56,70,27.45,68.38,25.1,68V50.73c10.1.21,14.37,3.33,17.49,5.62C44.4,57.68,46,58.83,48,58.83h.21c2.89,0,9.57,0,11.83,2.7a3.2,3.2,0,0,1,.7,1.74H38.85a1.88,1.88,0,0,0,0,3.76H62.39c4.37,1,9.31-3.17,13.69-6.84C78,58.54,81,56.06,82,56c3.06,0,4.37,1.38,4.37,4.61C86.32,64.46,63.22,78.23,52.31,78.23Z"/><circle class="cls-7" cx="12.51" cy="64.51" r="3.76"/></g><g id="outline"><path class="cls-8" d="M82.21,55.67H43.3a1.8,1.8,0,1,1,0-3.6H80.41V11.7H25V41.53a1.8,1.8,0,1,1-3.6,0V9.9a1.8,1.8,0,0,1,1.8-1.8h59A1.8,1.8,0,0,1,84,9.9v44A1.8,1.8,0,0,1,82.21,55.67Z"/><path class="cls-8" d="M26.34,49.2a1.8,1.8,0,0,1-1.57-2.68l8.65-15.38A1.8,1.8,0,0,1,35,30.23H45a1.8,1.8,0,0,1,0,3.6H36L27.91,48.28A1.8,1.8,0,0,1,26.34,49.2Z"/><path class="cls-8" d="M81.33,54.7a1.8,1.8,0,0,1-1.65-1.08L71,33.83H60.42a1.8,1.8,0,0,1,0-3.6H72.14a1.8,1.8,0,0,1,1.65,1.08L83,52.18a1.8,1.8,0,0,1-1.65,2.52Z"/><path class="cls-8" d="M72.14,33.83a1.78,1.78,0,0,1-.74-.16,1.8,1.8,0,0,1-.89-2.38L80.58,9.15a1.8,1.8,0,0,1,3.28,1.49L73.78,32.77A1.8,1.8,0,0,1,72.14,33.83Z"/><path class="cls-8" d="M35,33.83a1.8,1.8,0,0,1-1.59-1L21.63,10.74a1.8,1.8,0,0,1,3.18-1.69L36.57,31.18A1.8,1.8,0,0,1,35,33.83Z"/><path class="cls-8" d="M46.2,44.44l-3-3V8.1h19V41.46l-3,3L55.8,42.72l-3.08,1.54-3.08-1.54Zm3.43-5.74,3.08,1.54L55.8,38.7l2.72,1.36.1-.1V11.7H46.81V40l.1.1Z"/><path class="cls-8" d="M52.31,81.9c-6.37,0-13.71-3.73-19.61-6.73-3.46-1.76-7-3.58-8.6-3.58a1.8,1.8,0,0,1,0-3.6c2.42,0,5.87,1.75,10.23,4,5.55,2.82,12.46,6.34,18,6.34,10.93,0,34.09-13.83,34.09-17.65C86.4,57.42,85,56,82,56c-1,0-4,2.5-5.93,4.16-4.48,3.75-9.56,8-14,6.75a1.8,1.8,0,0,1-1.28-2,3.88,3.88,0,0,0-.66-3.35c-2.29-2.74-9-2.74-11.89-2.73H48c-2,0-3.6-1.14-5.4-2.46-3.16-2.32-7.5-5.5-17.86-5.64a1.8,1.8,0,0,1,0-3.6h0c11.52.16,16.59,3.88,19.94,6.34,1.4,1,2.41,1.76,3.27,1.76h.2c3.64,0,11.29,0,14.65,4a6.85,6.85,0,0,1,1.6,4.26c2.65-.54,6.38-3.67,9.23-6.06,3.33-2.79,6-5,8.24-5,5.11,0,8,3,8,8.28C90,68.49,62.2,81.9,52.31,81.9Z"/><path class="cls-8" d="M23.22,75.83H1.8A1.8,1.8,0,0,1,0,74V41.43a1.8,1.8,0,0,1,1.8-1.8H23.22a1.8,1.8,0,0,1,1.8,1.8V74A1.8,1.8,0,0,1,23.22,75.83ZM3.6,72.23H21.42v-29H3.6Z"/><path class="cls-8" d="M62.56,66.94H38.85a1.8,1.8,0,0,1,0-3.6H62.56a1.8,1.8,0,1,1,0,3.6Z"/></g></g></g></svg>