<svg xmlns="http://www.w3.org/2000/svg" viewBox="0 0 90 90"><defs><style>.cls-1{fill:#ffeb97;}.cls-2{fill:#94d5d2;}.cls-3{fill:#7cb3b0;}.cls-4{fill:#576065;}</style></defs><title>jeans</title><g id="jeans"><g id="jeans-2" data-name="jeans"><g id="fill"><rect class="cls-1" x="60.34" y="1.35" width="20.71" height="14.68"/><rect class="cls-1" x="40.58" y="1.35" width="20.7" height="14.68"/><rect class="cls-1" x="20.82" y="1.35" width="20.7" height="14.68"/><polygon class="cls-2" points="16.96 88.65 8.92 52.74 20.82 36.99 20.82 15.09 81.04 15.09 81.04 88.65 16.96 88.65"/><rect class="cls-3" x="38.6" y="32.76" width="28.61" height="8.79"/><polygon class="cls-3" points="38.6 57.05 38.6 40.6 67.21 40.6 67.21 57.05 52.91 65.17 38.6 57.05"/></g><g id="outline"><path class="cls-4" d="M80.57,90H17.34a1.82,1.82,0,0,1-1.78-1.42L7.66,53.25A1.82,1.82,0,0,1,8,51.75L19.47,36.54V1.82A1.82,1.82,0,0,1,21.29,0H80.57a1.82,1.82,0,0,1,1.82,1.82V88.18A1.82,1.82,0,0,1,80.57,90ZM18.79,86.36h60V3.64H23.11V37.15a1.82,1.82,0,0,1-.37,1.1l-11.35,15Zm2.49-49.21h0Z"/><g id="color"><path class="cls-4" d="M52.91,66.44a1.82,1.82,0,0,1-.9-.24L38.17,58.36a1.82,1.82,0,0,1-.92-1.58V33.22a1.82,1.82,0,0,1,1.82-1.82H66.73a1.82,1.82,0,0,1,1.82,1.82V56.78a1.82,1.82,0,0,1-.92,1.58L53.8,66.21A1.81,1.81,0,0,1,52.91,66.44Zm-12-10.73,12,6.82,12-6.82V35h-24Zm25.84,1.06h0Z"/></g><g id="color-2" data-name="color"><path class="cls-4" d="M66.35,42.89H60.9a1.82,1.82,0,0,1,0-3.64h5.46a1.82,1.82,0,0,1,0,3.64Zm-10.91,0H50a1.82,1.82,0,0,1,0-3.64h5.46a1.82,1.82,0,0,1,0,3.64Zm-10.91,0H39.07a1.82,1.82,0,0,1,0-3.64h5.46a1.82,1.82,0,1,1,0,3.64Z"/></g><path class="cls-4" d="M80.57,17.38H21.29a1.82,1.82,0,0,1,0-3.64H80.57a1.82,1.82,0,1,1,0,3.64Z"/><path class="cls-4" d="M41.05,17.38a1.82,1.82,0,0,1-1.82-1.82V3.7a1.82,1.82,0,1,1,3.64,0V15.56A1.82,1.82,0,0,1,41.05,17.38Z"/><path class="cls-4" d="M60.81,17.38A1.82,1.82,0,0,1,59,15.56V3.7a1.82,1.82,0,1,1,3.64,0V15.56A1.82,1.82,0,0,1,60.81,17.38Z"/></g></g></g></svg>