<svg xmlns="http://www.w3.org/2000/svg" viewBox="0 0 90 90"><defs><style>.cls-1{fill:#ffeb97;}.cls-2{fill:#ccbc79;}.cls-3{fill:#94d5d2;}.cls-4{fill:#7fb8b6;}.cls-5{fill:#576065;}</style></defs><title>magnifier-dollar-sign</title><g id="magnifier-dollar-sign"><g id="magnifier-dollar-sign-2" data-name="magnifier-dollar-sign"><g id="fill"><path class="cls-1" d="M12.8,86.25,29,70A6.4,6.4,0,0,0,29,61h0A6.4,6.4,0,0,0,20,61L3.75,77.2a6.4,6.4,0,0,0,0,9.06h0A6.4,6.4,0,0,0,12.8,86.25Z"/><path class="cls-2" d="M29,61a6.38,6.38,0,0,0-2.89-1.63l5.21-5.21a32.05,32.05,0,0,0,4.53,4.53l-5.21,5.21A6.35,6.35,0,0,0,29,61Z"/><circle class="cls-3" cx="56.12" cy="33.88" r="32"/><path class="cls-4" d="M54.71,46.51A13.37,13.37,0,0,1,46,42.69l2.83-4a10.63,10.63,0,0,0,5.84,3.16v-5.8c-3.78-1-7.9-2.35-7.9-7.34,0-3.71,2.94-6.87,7.9-7.38V17.94H58.2v3.49a13,13,0,0,1,7.46,3.27l-2.9,3.82a10.31,10.31,0,0,0-4.55-2.39v5.18c3.78,1,8,2.42,8,7.42,0,4.07-2.64,7.2-8,7.75v3.34H54.71Zm0-16.12V25.91c-1.65.22-2.57,1.14-2.57,2.39C52.14,29.36,53.17,29.95,54.71,30.39ZM58.2,37v4.92c1.8-.37,2.72-1.43,2.72-2.57S59.78,37.48,58.2,37Z"/></g><g id="outline"><path class="cls-5" d="M8.28,90A8.27,8.27,0,0,1,2.43,75.87L18.65,59.64a8.28,8.28,0,1,1,11.7,11.7L14.13,87.58h0A8.26,8.26,0,0,1,8.28,90Zm4.53-3.75h0ZM24.51,61a4.51,4.51,0,0,0-3.2,1.32L5.08,78.52a4.53,4.53,0,1,0,6.4,6.4L27.71,68.7A4.52,4.52,0,0,0,24.51,61Z"/><path class="cls-5" d="M30.67,65.74a1.87,1.87,0,0,1-1.81-1.4,4.33,4.33,0,0,0-3.19-3.19A1.87,1.87,0,0,1,24.81,58L30,52.8a1.88,1.88,0,0,1,2.78.14,30.24,30.24,0,0,0,4.26,4.26A1.88,1.88,0,0,1,37.2,60L32,65.19A1.88,1.88,0,0,1,30.67,65.74Zm-1.33-6.95a8,8,0,0,1,1,.85h0a8,8,0,0,1,.85,1l1.91-1.91q-1-.9-1.87-1.87Z"/><path class="cls-5" d="M56.12,67.76A33.88,33.88,0,1,1,90,33.88,33.92,33.92,0,0,1,56.12,67.76Zm0-64A30.13,30.13,0,1,0,86.25,33.88,30.16,30.16,0,0,0,56.12,3.75Z"/></g></g></g></svg>