<svg xmlns="http://www.w3.org/2000/svg" viewBox="0 0 90 90"><defs><style>.cls-1{fill:#94d5d2;}.cls-2{fill:#fff;}.cls-3{fill:#ff8898;}.cls-4{fill:#576065;}</style></defs><title>map-pointer-house</title><g id="map-pointer-house"><g id="map-pointer-house-2" data-name="map-pointer-house"><g id="fill"><path class="cls-1" d="M74.26,31C74.26,49.77,51.75,88.2,45,88.2S15.74,49.77,15.74,31a29.26,29.26,0,0,1,58.52,0Z"/><circle class="cls-2" cx="45" cy="32.2" r="18.78"/><path class="cls-3" d="M52.69,25.17l-4.91-4a4.09,4.09,0,0,0-5.57,0l-5.47,4.48L35,28.28V39.43a2.91,2.91,0,0,0,3,2.79h13.6a2.91,2.91,0,0,0,3-2.79V28.28Z"/></g><g id="outline"><path class="cls-4" d="M45,90c-8.43,0-31.06-39.82-31.06-59a31.06,31.06,0,0,1,62.12,0C76.06,50.18,53.43,90,45,90ZM45,3.6A27.45,27.45,0,0,0,17.54,31c0,19,22.32,55.38,27.46,55.43S72.46,49.95,72.46,31A27.45,27.45,0,0,0,45,3.6Z"/><path class="cls-4" d="M51.29,43.35H38.46a4.55,4.55,0,0,1-4.65-4.43V28.4a1.8,1.8,0,0,1,3.6,0V38.92a1,1,0,0,0,1.05.83H51.29a1,1,0,0,0,1.05-.83V28.4a1.8,1.8,0,0,1,3.6,0V38.92A4.55,4.55,0,0,1,51.29,43.35Z"/><path class="cls-4" d="M58.15,32.09A1.79,1.79,0,0,1,57,31.69L46.49,23.06A2.11,2.11,0,0,0,43.61,23L33,31.69a1.8,1.8,0,0,1-2.28-2.78l10.52-8.62a5.65,5.65,0,0,1,7.64.09L59.29,28.9a1.8,1.8,0,0,1-1.14,3.19Z"/><rect class="cls-4" x="49.59" y="19.19" width="3.6" height="4.71"/></g></g></g></svg>