<svg xmlns="http://www.w3.org/2000/svg" viewBox="0 0 90 90"><defs><style>.cls-1{fill:#ff8898;}.cls-2{fill:#94d5d2;}.cls-3{fill:#ffeb97;}.cls-4{fill:#576065;}.cls-5{fill:#fff;}</style></defs><title>megaphone-label</title><g id="megaphone-label"><g id="megaphone-label-2" data-name="megaphone-label"><g id="fill"><path class="cls-1" d="M27.14,63H17.71a.79.79,0,0,0-.56.23L3,77.38a.79.79,0,0,0,0,1.11l9.43,9.44a.78.78,0,0,0,.56.23.79.79,0,0,0,.56-.23L27.7,73.77a.79.79,0,0,0,.23-.56V63.77A.79.79,0,0,0,27.14,63Z"/><path class="cls-2" d="M10.2,24.4,83.47,1.84A3.76,3.76,0,0,1,87.22,5.6V62a3.76,3.76,0,0,1-3.76,3.76L10.2,43.2Z"/><path class="cls-3" d="M13.8,43.2c-2.07,0-9.23,6-9.23.55V23.85c0-5.4,7.15.55,9.23.55Z"/></g><g id="outline"><path class="cls-4" d="M83.47,67.6a1.83,1.83,0,0,1-.54-.08L10.11,45.09c-.27.18-.91.71-1.31,1C7.51,47.21,6,48.42,4.42,47.66s-1.68-3-1.68-3.91V23.85c0-.92,0-3.08,1.67-3.87s3.09.43,4.39,1.49a12.26,12.26,0,0,0,1.36,1L82.93.08A1.83,1.83,0,0,1,83.47,0a5.6,5.6,0,0,1,5.59,5.6V62A5.6,5.6,0,0,1,83.47,67.6ZM10.2,41.37a1.84,1.84,0,0,1,.54.08l73,22.47A1.93,1.93,0,0,0,85.39,62V5.6A1.93,1.93,0,0,0,83.7,3.69l-73,22.47a1.84,1.84,0,0,1-.54.08c-1.4,0-2.59-1-3.74-1.92l-.06,0V43.35l0,0C7.61,42.35,8.8,41.37,10.2,41.37Z"/><path class="cls-4" d="M14,46a1.84,1.84,0,0,1-1.84-1.84V23.85a1.84,1.84,0,1,1,3.67,0V44.18A1.84,1.84,0,0,1,14,46Z"/><path class="cls-4" d="M79.13,15.62a1.84,1.84,0,0,1-1.84-1.84V3.72a1.84,1.84,0,0,1,3.67,0V13.78A1.84,1.84,0,0,1,79.13,15.62Z"/><path class="cls-4" d="M79.13,65.72a1.84,1.84,0,0,1-1.84-1.84V54A1.84,1.84,0,0,1,81,54v9.9A1.84,1.84,0,0,1,79.13,65.72Z"/><path class="cls-4" d="M38.06,62.17a36.42,36.42,0,0,1-11.92-2.65C22,57.8,20,56,20,54a9.08,9.08,0,0,1,3.51-6.9,1.84,1.84,0,0,1,2.17,3,5.35,5.35,0,0,0-2,3.78c.7,1.05,5.59,3.47,11.23,4.39,3.89.63,5.44.08,5.71-.19,2.29-2.29,2.16-3.69,2.16-3.7a1.78,1.78,0,0,1,1.34-2.17,1.89,1.89,0,0,1,2.25,1.39c.13.52.61,3.33-3.15,7.09C42.06,61.75,40.18,62.17,38.06,62.17ZM23.61,53.75Z"/><path class="cls-4" d="M13,90a2.61,2.61,0,0,1-1.85-.77L1.7,79.79a2.63,2.63,0,0,1,0-3.71L15.85,61.92a2.61,2.61,0,0,1,1.86-.77h9.43a2.62,2.62,0,0,1,2.62,2.63v9.44A2.64,2.64,0,0,1,29,75.07L14.85,89.23A2.63,2.63,0,0,1,13,90ZM5,77.93l8,8,13.1-13.11v-8H18.15ZM26.4,72.47h0Zm.74-7.65h0Zm-1.05-1h0Z"/><path class="cls-5" d="M23.42,69.95a2.47,2.47,0,1,1,2.47-2.47A2.47,2.47,0,0,1,23.42,69.95Zm0-3.67a1.21,1.21,0,1,0,1.21,1.21A1.21,1.21,0,0,0,23.42,66.27Z"/><rect class="cls-4" x="8.59" y="73.43" width="13.59" height="3.67" transform="translate(-49.24 33.72) rotate(-45.71)"/><path class="cls-4" d="M23.63,68.62h0a1.81,1.81,0,0,1-1.8-1.81c0-.11,1.07-11.19,5.77-12.14a1.84,1.84,0,0,1,.77,3.59c-1.24.66-2.79,6.75-2.86,8.57A1.86,1.86,0,0,1,23.63,68.62Zm4.72-10.37Z"/></g></g></g></svg>