<svg xmlns="http://www.w3.org/2000/svg" viewBox="0 0 90 90"><defs><style>.cls-1{fill:#fff;}.cls-2{fill:#ffeb97;}.cls-3{fill:#576065;}.cls-4{fill:#ff8898;}</style></defs><title>mobile-analytics</title><g id="mobile-analytics"><g id="mobile-analytics-2" data-name="mobile-analytics"><g id="fill"><rect class="cls-1" x="19.06" y="1.76" width="51.88" height="86.47" rx="6.49" ry="6.49"/><rect class="cls-2" x="27.71" y="10.41" width="34.59" height="60.53"/><circle class="cls-3" cx="45" cy="79.59" r="1.88"/><polygon class="cls-4" points="27.71 45.54 35 37.84 41.62 42.84 47.43 35 53.92 37.16 62.29 23.38 62.29 70.94 27.71 70.94 27.71 45.54"/></g><g id="outline"><path class="cls-3" d="M64.46,90H25.54a8.26,8.26,0,0,1-8.25-8.25V8.25A8.26,8.26,0,0,1,25.54,0H64.46a8.26,8.26,0,0,1,8.25,8.25v73.5A8.26,8.26,0,0,1,64.46,90ZM25.54,3.53a4.73,4.73,0,0,0-4.72,4.72v73.5a4.73,4.73,0,0,0,4.72,4.72H64.46a4.73,4.73,0,0,0,4.72-4.72V8.25a4.73,4.73,0,0,0-4.72-4.72Z"/><path class="cls-3" d="M64.06,72.71H25.94V8.65H64.06ZM29.47,69.18H60.53v-57H29.47Z"/><path class="cls-3" d="M45,83.23a3.64,3.64,0,1,1,3.64-3.64A3.65,3.65,0,0,1,45,83.23Zm0-3.76v.23l.12-.12A.12.12,0,0,0,45,79.47Z"/><path class="cls-3" d="M64.06,72.71H25.94V44.84l8.86-9.36,6.46,4.88,5.51-7.43L53.14,35l10.92-18ZM29.47,69.18H60.53V29.68l-5.84,9.6-6.61-2.2L42,45.32,35.2,40.2l-5.73,6Z"/><path class="cls-3" d="M53.65,20.82H36.35a1.76,1.76,0,0,1,0-3.53h17.3a1.76,1.76,0,1,1,0,3.53Z"/></g></g></g></svg>