<svg xmlns="http://www.w3.org/2000/svg" viewBox="0 0 90 90"><defs><style>.cls-1{fill:#fff;}.cls-2{fill:#94d5d2;}.cls-3{fill:#576065;}.cls-4{fill:#d6d6d6;}.cls-5{fill:#ffeb97;}.cls-6{fill:#ff8898;}</style></defs><title>mobile-atm</title><g id="mobile-atm"><g id="mobile-atm-2" data-name="mobile-atm"><g id="fill"><rect class="cls-1" x="11.83" y="1.8" width="66.34" height="86.4"/><rect class="cls-2" x="22.63" y="9.51" width="44.74" height="15.43"/><circle class="cls-3" cx="49.25" cy="17.13" r="2.19"/><path class="cls-3" d="M59.93,17.13a2.19,2.19,0,1,1-2.18-2.19A2.19,2.19,0,0,1,59.93,17.13Z"/><circle class="cls-3" cx="40.75" cy="17.13" r="2.19"/><circle class="cls-3" cx="32.26" cy="17.13" r="2.19"/><rect class="cls-4" x="22.62" y="34.89" width="10.95" height="10.96"/><rect class="cls-4" x="39.8" y="34.89" width="10.95" height="10.96"/><rect class="cls-4" x="56.42" y="34.89" width="10.96" height="10.96"/><rect class="cls-4" x="22.62" y="52.56" width="10.95" height="10.96"/><rect class="cls-4" x="39.8" y="52.56" width="10.95" height="10.96"/><rect class="cls-4" x="56.42" y="52.56" width="10.96" height="10.96"/><rect class="cls-5" x="22.62" y="70.38" width="10.95" height="10.96"/><rect class="cls-4" x="39.8" y="70.38" width="10.95" height="10.96"/><rect class="cls-6" x="56.42" y="70.38" width="10.96" height="10.96"/></g><g id="outline"><path class="cls-3" d="M78.17,90H11.83A1.8,1.8,0,0,1,10,88.2V1.8A1.8,1.8,0,0,1,11.83,0H78.17A1.8,1.8,0,0,1,80,1.8V88.2A1.8,1.8,0,0,1,78.17,90ZM13.63,86.4H76.37V3.6H13.63Z"/><path class="cls-3" d="M67.37,26.74H22.63a1.8,1.8,0,0,1-1.8-1.8V9.52a1.8,1.8,0,0,1,1.8-1.8H67.37a1.8,1.8,0,0,1,1.8,1.8V24.94A1.8,1.8,0,0,1,67.37,26.74Zm-42.94-3.6H65.57V11.32H24.43Z"/><path class="cls-3" d="M33.57,47.65h-11a1.8,1.8,0,0,1-1.8-1.8v-11a1.8,1.8,0,0,1,1.8-1.8h11a1.8,1.8,0,0,1,1.8,1.8v11A1.8,1.8,0,0,1,33.57,47.65ZM24.42,44h7.35V36.69H24.42Z"/><path class="cls-3" d="M50.75,47.65h-11a1.8,1.8,0,0,1-1.8-1.8v-11a1.8,1.8,0,0,1,1.8-1.8h11a1.8,1.8,0,0,1,1.8,1.8v11A1.8,1.8,0,0,1,50.75,47.65ZM41.6,44H49V36.69H41.6Z"/><path class="cls-3" d="M67.38,47.65h-11a1.8,1.8,0,0,1-1.8-1.8v-11a1.8,1.8,0,0,1,1.8-1.8h11a1.8,1.8,0,0,1,1.8,1.8v11A1.8,1.8,0,0,1,67.38,47.65ZM58.22,44h7.36V36.69H58.22Z"/><path class="cls-3" d="M33.57,65.32h-11a1.8,1.8,0,0,1-1.8-1.8v-11a1.8,1.8,0,0,1,1.8-1.8h11a1.8,1.8,0,0,1,1.8,1.8v11A1.8,1.8,0,0,1,33.57,65.32Zm-9.15-3.6h7.35V54.36H24.42Z"/><path class="cls-3" d="M50.75,65.32h-11a1.8,1.8,0,0,1-1.8-1.8v-11a1.8,1.8,0,0,1,1.8-1.8h11a1.8,1.8,0,0,1,1.8,1.8v11A1.8,1.8,0,0,1,50.75,65.32Zm-9.15-3.6H49V54.36H41.6Z"/><path class="cls-3" d="M67.38,65.32h-11a1.8,1.8,0,0,1-1.8-1.8v-11a1.8,1.8,0,0,1,1.8-1.8h11a1.8,1.8,0,0,1,1.8,1.8v11A1.8,1.8,0,0,1,67.38,65.32Zm-9.16-3.6h7.36V54.36H58.22Z"/><path class="cls-3" d="M33.57,83.14h-11a1.8,1.8,0,0,1-1.8-1.8v-11a1.8,1.8,0,0,1,1.8-1.8h11a1.8,1.8,0,0,1,1.8,1.8v11A1.8,1.8,0,0,1,33.57,83.14Zm-9.15-3.6h7.35V72.18H24.42Z"/><path class="cls-3" d="M50.75,83.14h-11a1.8,1.8,0,0,1-1.8-1.8v-11a1.8,1.8,0,0,1,1.8-1.8h11a1.8,1.8,0,0,1,1.8,1.8v11A1.8,1.8,0,0,1,50.75,83.14Zm-9.15-3.6H49V72.18H41.6Z"/><path class="cls-3" d="M67.38,83.14h-11a1.8,1.8,0,0,1-1.8-1.8v-11a1.8,1.8,0,0,1,1.8-1.8h11a1.8,1.8,0,0,1,1.8,1.8v11A1.8,1.8,0,0,1,67.38,83.14Zm-9.16-3.6h7.36V72.18H58.22Z"/></g></g></g></svg>