<svg xmlns="http://www.w3.org/2000/svg" viewBox="0 0 90 90"><defs><style>.cls-1{fill:#ffdac6;}.cls-2{fill:#576065;}.cls-3{fill:#ffeb97;}</style></defs><title>money-pig</title><g id="money-pig"><g id="money-pig-2" data-name="money-pig"><g id="fill"><path class="cls-1" d="M21.05,23.19c-5.36,3.74-9,15.89-9.65,20.46,0,1.43,0,3.39,0,4.8.39,14,12.8,24,12.8,24v6.4c.22.44,0,.79.39,1.06a2.9,2.9,0,0,0,1.41.54H38.6v-8s4.51,0,6.4,0h8v8H65.8a2.85,2.85,0,0,0,1.43-.53,1.31,1.31,0,0,0,.39-.95V68.25A32.47,32.47,0,0,0,81.8,51.83l6.4-3V35.73H82a35.23,35.23,0,0,0-9.26-13.89C75.3,18,79.05,12.62,78.6,11.66c-.74-1.57-12-2.44-19.71,5.56A74,74,0,0,0,45,15.68a45.91,45.91,0,0,0-7.17.55"/><circle class="cls-2" cx="66.69" cy="31.47" r="3.22"/><circle class="cls-3" cx="27.26" cy="20.94" r="11.57"/></g><g id="outline"><path class="cls-2" d="M65.8,82.25H53a1.8,1.8,0,0,1-1.8-1.8v-6.2H40.4v6.2a1.8,1.8,0,0,1-1.8,1.8H26a4.54,4.54,0,0,1-2.35-.8,2.37,2.37,0,0,1-1.15-2,1.81,1.81,0,0,1-.11-.62V73.28C19.7,70.89,10,61.39,9.6,48.5c0-.73,0-1.59,0-2.47,0-.28,0-.56,0-.83-5.26-1-9.36-4.28-9.6-7.8-.06-.91.08-4,4.56-5.09a1.8,1.8,0,0,1,.87,3.49c-.71.18-1.89.59-1.84,1.35.08,1.19,2.26,3.5,6.2,4.41a28.4,28.4,0,0,1,5.87-14.88,1.8,1.8,0,0,1,2.82,2.24c-3.15,4-4.78,8.52-5.28,14.77,0,.71,0,1.55,0,2.38s0,1.64,0,2.32c.36,13,12,22.56,12.13,22.65a1.8,1.8,0,0,1,.67,1.4v6.09l0,.1H36.8v-6.2a1.8,1.8,0,0,1,1.79-1.8s4.52,0,6.42,0h8a1.8,1.8,0,0,1,1.8,1.8v6.2h11V68.25a1.8,1.8,0,0,1,.88-1.55,30.76,30.76,0,0,0,13.4-15.49,1.81,1.81,0,0,1,.94-1l5.36-2.48V37.53H82a1.8,1.8,0,0,1-1.7-1.2A33.62,33.62,0,0,0,71.59,23.2a1.8,1.8,0,0,1-.32-2.35l1-1.56c1.33-2,3.39-5.09,4.2-6.72-2.71-.56-10.58-.09-16.33,5.89a1.8,1.8,0,0,1-1.73.5A72.11,72.11,0,0,0,45,17.48a36.67,36.67,0,0,0-6.29.43,1.8,1.8,0,0,1-.56-3.56A40.79,40.79,0,0,1,45,13.88a79.26,79.26,0,0,1,13.32,1.37A23.29,23.29,0,0,1,76.84,9c1.82.3,2.93.92,3.39,1.89.75,1.58-.34,3.5-4.93,10.4l-.18.28a37.7,37.7,0,0,1,8.15,12.37H88.2a1.8,1.8,0,0,1,1.8,1.8V48.87a1.8,1.8,0,0,1-1,1.63l-5.73,2.65a34.34,34.34,0,0,1-13.8,16.1V79a3.09,3.09,0,0,1-.95,2.25A4.45,4.45,0,0,1,65.8,82.25Zm11-70.51Z"/><path class="cls-2" d="M27.26,34.13A13.19,13.19,0,1,1,40.45,20.94,13.21,13.21,0,0,1,27.26,34.13Zm0-23.14a10,10,0,1,0,10,10A10,10,0,0,0,27.26,11Z"/><path class="cls-2" d="M27.26,28.28c-2.72,0-4.62-1.68-4.62-4.07a1.35,1.35,0,0,1,2.7,0c0,1.2,1.2,1.37,1.92,1.37s1.92-.18,1.92-1.37c0-.72-.07-.85-2-1.8l-1.06-.53c-1.87-.93-3.49-1.73-3.49-4.22s1.9-4.1,4.62-4.1,4.58,1.65,4.58,4.1a1.35,1.35,0,1,1-2.7,0c0-1.22-1.18-1.4-1.88-1.4s-1.92.14-1.92,1.4c0,.72.07.85,2,1.79l1.06.52c1.88.92,3.5,1.72,3.5,4.22S30,28.28,27.26,28.28Z"/><path class="cls-2" d="M27.2,16.18a1.35,1.35,0,0,1-1.35-1.35V13.31a1.35,1.35,0,1,1,2.7,0v1.52A1.35,1.35,0,0,1,27.2,16.18Z"/><path class="cls-2" d="M27.2,29.92a1.35,1.35,0,0,1-1.35-1.35V27a1.35,1.35,0,0,1,2.7,0v1.52A1.35,1.35,0,0,1,27.2,29.92Z"/></g></g></g></svg>