<svg xmlns="http://www.w3.org/2000/svg" viewBox="0 0 90 90"><defs><style>.cls-1{fill:#e6d488;}.cls-2{fill:#ffeb97;}.cls-3{fill:#576065;}</style></defs><title>money-bag</title><g id="money-bag"><g id="money-bag-2" data-name="money-bag"><g id="fill"><path class="cls-1" d="M35.88,17.18c-5.38-1.82-9-11.47-9-15.33,0,0,3.93,5.82,12.74,1.62l8.56,1.15,15-2.77c0,3.86-3.63,13.51-9,15.33Z"/><path class="cls-2" d="M54.12,17.17c13.27,7.71,23,30.48,23,44.12C77.08,77.91,62.72,88.2,45,88.2S12.92,77.91,12.92,61.29c0-13.64,9.69-36.41,23-44.12"/><path class="cls-3" d="M43.58,65.17a13.4,13.4,0,0,1-8.68-3.82l2.83-4a10.65,10.65,0,0,0,5.85,3.16V54.72c-3.79-1-7.91-2.35-7.91-7.36,0-3.72,2.94-6.88,7.91-7.4V36.55h3.5V40a13,13,0,0,1,7.47,3.27l-2.91,3.83a10.33,10.33,0,0,0-4.56-2.39v5.19c3.79,1,8,2.43,8,7.43,0,4.08-2.65,7.21-8,7.76v3.35h-3.5Zm0-16.15V44.53c-1.66.22-2.57,1.14-2.57,2.39C41,48,42,48.58,43.58,49Zm3.5,6.59v4.93c1.8-.37,2.72-1.43,2.72-2.57S48.66,56.12,47.08,55.61Z"/></g><g id="outline"><path class="cls-3" d="M45,90C25.37,90,11.12,77.93,11.12,61.3c0-13.78,9.14-35,21.33-44-4.82-3.83-7.38-12.11-7.38-15.44A1.8,1.8,0,0,1,28.18.62c.06.06,5.78,6,12.61,6a1.8,1.8,0,1,1,0,3.6A20.34,20.34,0,0,1,29.68,6.49c1.31,3.7,3.77,8,6.77,9a1.8,1.8,0,0,1,.33,3.26C24.56,25.84,14.72,47.83,14.72,61.3c0,14.78,12.45,25.1,30.28,25.1S75.28,76.08,75.28,61.3c0-13.47-9.84-35.46-22.06-42.56a1.8,1.8,0,0,1,.33-3.26C58,14,61.33,5.13,61.33,1.85a1.8,1.8,0,0,1,3.6,0c0,3.33-2.57,11.61-7.38,15.44,12.19,9.05,21.33,30.23,21.33,44C78.88,77.93,64.63,90,45,90Z"/><path class="cls-3" d="M49.3,11.78a1.8,1.8,0,0,1-1.72-1.28c-.75-2.5-2.13-5.6-4.4-6.13-2.55-.59-5.75,2.12-6.67,3.11A1.8,1.8,0,1,1,33.86,5c.2-.22,5-5.37,10.13-4.17,3.17.73,5.54,3.63,7,8.6a1.8,1.8,0,0,1-1.21,2.24A1.84,1.84,0,0,1,49.3,11.78Z"/><path class="cls-3" d="M49.06,8a1.74,1.74,0,0,1-.64-.12,1.76,1.76,0,0,1-1.05-2.23C47.59,5,49.93-.59,63.21.05a1.8,1.8,0,0,1,1.71,1.88A1.82,1.82,0,0,1,63,3.65c-10.52-.52-12.29,3.24-12.3,3.28A1.86,1.86,0,0,1,49.06,8Z"/><path class="cls-3" d="M56.27,19.1H36.63a1.8,1.8,0,1,1,0-3.6H56.27a1.8,1.8,0,1,1,0,3.6Z"/><path class="cls-3" d="M69.7,26.68a1.8,1.8,0,0,1-1.76-1.42c-1.19-5.45-11.43-4.79-11.53-4.78a1.8,1.8,0,0,1-.29-3.59c.54,0,13.46-1,15.34,7.6a1.8,1.8,0,0,1-1.37,2.14A1.83,1.83,0,0,1,69.7,26.68Z"/><path class="cls-3" d="M59.94,19.45a11,11,0,0,1-4.48-1,1.8,1.8,0,0,1,1.6-3.22h0a6.45,6.45,0,0,0,4.46.36,4.93,4.93,0,0,0,2.71-3A1.8,1.8,0,1,1,67.55,14a8.41,8.41,0,0,1-4.8,5A8.11,8.11,0,0,1,59.94,19.45Z"/></g></g></g></svg>