<svg xmlns="http://www.w3.org/2000/svg" viewBox="0 0 90 90"><defs><style>.cls-1{fill:#94d5d2;}.cls-2{fill:#ff8898;}.cls-3{fill:#e07885;}.cls-4{fill:#fff;}.cls-5{fill:#e6e6e6;}.cls-6{fill:#576065;}</style></defs><title>online-shop</title><g id="online-shop"><g id="online-shop-2" data-name="online-shop"><g id="fill"><path class="cls-1" d="M3.68,19.65H5.56V35h0v3.53a8.15,8.15,0,0,0,7.93,7.6,7.57,7.57,0,0,0,6.33-3.56,7.41,7.41,0,0,0,12.66,0,7.4,7.4,0,0,0,12.65,0,7.4,7.4,0,0,0,12.66,0,7.4,7.4,0,0,0,12.66,0,7.57,7.57,0,0,0,6.33,3.56,7.94,7.94,0,0,0,7.65-7.72V36.88h0V35h0V19.65h1.88V57.21H3.68Z"/><rect class="cls-2" x="72.45" y="19.65" width="8.24" height="15.36"/><path class="cls-3" d="M80.63,38.76a3.86,3.86,0,0,1-7.7,0Z"/><rect class="cls-4" x="59.7" y="19.65" width="9" height="15.36"/><path class="cls-5" d="M68,38.76a3.86,3.86,0,0,1-7.71,0Z"/><rect class="cls-2" x="46.88" y="19.65" width="9.06" height="15.36"/><path class="cls-3" d="M55.31,38.76a3.86,3.86,0,0,1-7.7,0Z"/><rect class="cls-4" x="34.19" y="19.65" width="8.93" height="15.36"/><path class="cls-5" d="M42.66,38.76a4.09,4.09,0,0,1-3.85,3.62A4.1,4.1,0,0,1,35,38.76Z"/><rect class="cls-2" x="21.44" y="19.65" width="9" height="15.36"/><path class="cls-3" d="M30,38.76a4.09,4.09,0,0,1-3.85,3.62,4.09,4.09,0,0,1-3.85-3.62Z"/><rect class="cls-4" x="9.32" y="19.65" width="8.36" height="15.36"/><path class="cls-5" d="M17.35,38.76a4.1,4.1,0,0,1-3.86,3.62,4.39,4.39,0,0,1-4.14-3.62Z"/><path class="cls-4" d="M3.68,13.17A2.92,2.92,0,0,1,6.6,10.25H83.4a2.92,2.92,0,0,1,2.92,2.92v2.72H3.68Z"/><path class="cls-5" d="M83.4,66.6H6.6a2.93,2.93,0,0,1-2.92-2.92V61H86.32v2.71A2.92,2.92,0,0,1,83.4,66.6Z"/></g><g id="outline"><g id="screen-shop"><path class="cls-6" d="M83.4,70.28H6.6A6.61,6.61,0,0,1,0,63.68V13.17a6.61,6.61,0,0,1,6.6-6.6H83.4a6.61,6.61,0,0,1,6.6,6.6V63.68A6.61,6.61,0,0,1,83.4,70.28ZM6.6,10.18a3,3,0,0,0-3,3V63.68a3,3,0,0,0,3,3H83.4a3,3,0,0,0,3-3V13.17a3,3,0,0,0-3-3Z"/><path class="cls-6" d="M86.32,19.57H3.68a1.8,1.8,0,0,1,0-3.6H86.32a1.8,1.8,0,1,1,0,3.6Z"/><path class="cls-6" d="M86.32,60.89H3.68a1.8,1.8,0,0,1,0-3.6H86.32a1.8,1.8,0,1,1,0,3.6Z"/><path class="cls-6" d="M56.2,83.42H33.8a1.8,1.8,0,0,1-1.8-1.8V68.48h3.6V79.82H54.4V68.48H58V81.62A1.8,1.8,0,0,1,56.2,83.42Z"/><path class="cls-6" d="M60,83.42H30a1.8,1.8,0,0,1,0-3.6H60a1.8,1.8,0,0,1,0,3.6Z"/><path class="cls-6" d="M45,14.85a1.81,1.81,0,0,1-1.28-.52,1.78,1.78,0,0,1-.38-.58,2,2,0,0,1-.14-.7,1.8,1.8,0,0,1,.14-.68,2.07,2.07,0,0,1,.38-.59,1.88,1.88,0,0,1,2.56,0,2.07,2.07,0,0,1,.38.59,1.8,1.8,0,0,1,.14.68,2,2,0,0,1-.14.7,1.78,1.78,0,0,1-.38.58A1.81,1.81,0,0,1,45,14.85Z"/><rect class="cls-6" x="80.76" y="17.83" width="3.6" height="19.05"/><path class="cls-6" d="M76.78,46.05a7.51,7.51,0,0,1-6.33-3.63,7.33,7.33,0,0,1-12.66,0,7.33,7.33,0,0,1-12.66,0,7.33,7.33,0,0,1-12.65,0,7.34,7.34,0,0,1-12.66,0,7.51,7.51,0,0,1-6.33,3.63,8.07,8.07,0,0,1-7.85-7.53V35.08H84.37v3.34A7.86,7.86,0,0,1,76.78,46.05Zm-3.95-7.38a3.95,3.95,0,0,0,7.89,0Zm-12.66,0a3.95,3.95,0,0,0,7.89,0Zm-12.65,0a3.94,3.94,0,0,0,7.88,0Zm-12.66,0a4.18,4.18,0,0,0,3.95,3.78,4.18,4.18,0,0,0,3.94-3.78Zm-12.65,0a4.18,4.18,0,0,0,3.94,3.78,4.18,4.18,0,0,0,3.94-3.78Zm-12.95,0a4.46,4.46,0,0,0,4.23,3.78,4.19,4.19,0,0,0,3.95-3.78Z"/><rect class="cls-6" x="17.76" y="17.83" width="3.6" height="20.52"/><rect class="cls-6" x="30.51" y="17.83" width="3.6" height="20.52"/><rect class="cls-6" x="56.02" y="17.83" width="3.6" height="20.52"/><rect class="cls-6" x="68.77" y="17.83" width="3.6" height="20.52"/><rect class="cls-6" x="43.2" y="17.83" width="3.6" height="20.52"/><rect class="cls-6" x="5.64" y="17.83" width="3.6" height="19.05"/></g></g></g></g></svg>