<svg xmlns="http://www.w3.org/2000/svg" viewBox="0 0 90 90"><defs><style>.cls-1{fill:#94d5d2;}.cls-2{fill:#ffeb97;}.cls-3{fill:#7cb3b0;}.cls-4{fill:#576065;}</style></defs><title>shopping-bag</title><g id="shopping-bag"><g id="shopping-bag-2" data-name="shopping-bag"><g id="fill"><rect class="cls-1" x="6.92" y="18.51" width="76.15" height="69.53"/><polyline class="cls-2" points="10.23 18.51 10.23 1.96 79.77 1.96 79.77 18.51"/><polygon class="cls-1" points="10.09 15.37 10.09 1.96 11.99 1.96 20.02 7.92 10.09 15.37"/><polygon class="cls-3" points="20.02 7.92 20.02 18.51 10.09 18.51 10.09 15.37 20.02 7.92"/><polygon class="cls-1" points="79.91 15.37 79.91 1.96 78.01 1.96 69.98 7.92 79.91 15.37"/><polygon class="cls-3" points="69.98 7.92 69.98 18.51 79.91 18.51 79.91 15.37 69.98 7.92"/><circle class="cls-2" cx="31.76" cy="28.45" r="3.31"/><circle class="cls-2" cx="58.24" cy="28.45" r="3.31"/></g><g id="outline"><path class="cls-4" d="M83.08,90H6.92a2,2,0,0,1-2-2V18.51a2,2,0,0,1,2-2H83.08a2,2,0,0,1,2,2V88A2,2,0,0,1,83.08,90ZM8.88,86.09H81.12V20.47H8.88Z"/><path class="cls-4" d="M79.77,20.47a2,2,0,0,1-2-2V3.91H12.19v14.6a2,2,0,0,1-3.91,0V2a2,2,0,0,1,2-2H79.77a2,2,0,0,1,2,2V18.51A2,2,0,0,1,79.77,20.47Z"/><path class="cls-4" d="M6.92,20.47a2,2,0,0,1-1.18-3.52l11-8.27L9.15,3.59A2,2,0,1,1,11.32.33L21.25,7a2,2,0,0,1,.09,3.19L8.1,20.08A1.94,1.94,0,0,1,6.92,20.47Z"/><path class="cls-4" d="M83.08,20.47a1.94,1.94,0,0,1-1.17-.39L68.66,10.15A2,2,0,0,1,68.75,7L78.68.33a2,2,0,1,1,2.17,3.26L73.22,8.67l11,8.27a2,2,0,0,1-1.18,3.52Z"/><path class="cls-4" d="M45,60.2A15.22,15.22,0,0,1,29.8,45V31.76a2,2,0,0,1,3.91,0V45a11.29,11.29,0,0,0,22.58,0V31.76a2,2,0,0,1,3.91,0V45A15.22,15.22,0,0,1,45,60.2Z"/><path class="cls-4" d="M31.76,33.71A5.27,5.27,0,1,1,37,28.45,5.27,5.27,0,0,1,31.76,33.71Zm0-6.62a1.35,1.35,0,1,0,1.35,1.35A1.36,1.36,0,0,0,31.76,27.09Z"/><path class="cls-4" d="M58.24,33.71a5.27,5.27,0,1,1,5.27-5.27A5.27,5.27,0,0,1,58.24,33.71Zm0-6.62a1.35,1.35,0,1,0,1.35,1.35A1.36,1.36,0,0,0,58.24,27.09Z"/><path class="cls-4" d="M20.17,20.47a2,2,0,0,1-2-2V8.58a2,2,0,0,1,3.91,0v9.93A2,2,0,0,1,20.17,20.47Z"/><path class="cls-4" d="M69.83,20.47a2,2,0,0,1-2-2V8.58a2,2,0,0,1,3.91,0v9.93A2,2,0,0,1,69.83,20.47Z"/></g></g></g></svg>