<svg xmlns="http://www.w3.org/2000/svg" viewBox="0 0 90 90"><defs><style>.cls-1{fill:#fff;}.cls-2{fill:#c7c7c7;}.cls-3{fill:#ff8898;}.cls-4{fill:#e07885;fill-rule:evenodd;}.cls-5{fill:#e6e6e6;}.cls-6{fill:#94d5d2;}.cls-7{fill:#ffeb97;}.cls-8{fill:#576065;}</style></defs><title>shop</title><g id="shop"><g id="shop-2" data-name="shop"><g id="fill"><rect class="cls-1" x="8.73" y="41.64" width="72.53" height="39.5"/><polyline class="cls-2" points="57.09 82.98 57.09 55.93 72.2 55.93 72.2 82.98"/><polyline class="cls-3" points="6.47 41.64 6.47 22.1 83.53 22.1 83.53 41.64"/><path class="cls-4" d="M77.6,49.21a6.17,6.17,0,0,1-5.93-6H70.54a5.93,5.93,0,1,1-11.86,0H57.55a5.93,5.93,0,1,1-11.85,0H44.58a6.17,6.17,0,0,1-5.93,6,6.17,6.17,0,0,1-5.93-6H31.59a6.17,6.17,0,0,1-5.93,6,6.17,6.17,0,0,1-5.93-6H18.61a6.17,6.17,0,0,1-5.93,6,6.42,6.42,0,0,1-6.21-6V41.64H83.53v1.57A6.17,6.17,0,0,1,77.6,49.21Z"/><rect class="cls-5" x="5.71" y="81.75" width="78.58" height="6.45"/><rect class="cls-6" x="17.8" y="56.11" width="30.97" height="18.33"/><rect class="cls-7" x="23.84" y="1.8" width="42.32" height="14.18"/></g><g id="outline"><rect class="cls-8" x="6.93" y="47.66" width="3.6" height="33.49"/><rect class="cls-8" x="79.47" y="47.66" width="3.6" height="33.49"/><polygon class="cls-8" points="74 82.98 70.4 82.98 70.4 57.73 58.89 57.73 58.89 82.98 55.29 82.98 55.29 54.13 74 54.13 74 82.98"/><rect class="cls-8" x="65.61" y="67.38" width="3.6" height="2.87"/><path class="cls-8" d="M83.53,43.44a1.8,1.8,0,0,1-1.8-1.8V23.9H8.27V41.64a1.8,1.8,0,0,1-3.6,0V22.1a1.8,1.8,0,0,1,1.8-1.8H83.53a1.8,1.8,0,0,1,1.8,1.8V41.64A1.8,1.8,0,0,1,83.53,43.44Z"/><path class="cls-8" d="M77.6,51a7.66,7.66,0,0,1-6.5-3.76,7.48,7.48,0,0,1-13,0,7.48,7.48,0,0,1-13,0,7.48,7.48,0,0,1-13,0,7.48,7.48,0,0,1-13,0A7.66,7.66,0,0,1,12.68,51a8.23,8.23,0,0,1-8-7.68V39.84H85.33v3.38A8,8,0,0,1,77.6,51Zm-4.1-7.56a4.1,4.1,0,0,0,8.2,0Zm-13,0a4.1,4.1,0,0,0,8.2,0Zm-13,0a4.1,4.1,0,0,0,8.19,0Zm-13,0a4.35,4.35,0,0,0,4.1,4,4.35,4.35,0,0,0,4.1-4Zm-13,0a4.34,4.34,0,0,0,4.1,4,4.35,4.35,0,0,0,4.1-4Zm-13.28,0a4.63,4.63,0,0,0,4.39,4,4.35,4.35,0,0,0,4.1-4Z"/><rect class="cls-8" x="17.1" y="22.1" width="3.6" height="21.05"/><rect class="cls-8" x="30.18" y="22.1" width="3.6" height="21.05"/><rect class="cls-8" x="56.35" y="22.1" width="3.6" height="21.05"/><rect class="cls-8" x="69.43" y="22.1" width="3.6" height="21.05"/><rect class="cls-8" x="43.2" y="22.1" width="3.6" height="21.05"/><path class="cls-8" d="M84.29,90H5.71a1.8,1.8,0,0,1-1.8-1.8V81.75a1.8,1.8,0,0,1,1.8-1.8H84.29a1.8,1.8,0,0,1,1.8,1.8V88.2A1.8,1.8,0,0,1,84.29,90ZM7.51,86.4h75V83.55h-75Z"/><path class="cls-8" d="M50.57,76.24H16V54.31H50.57Zm-31-3.6H47V57.91H19.6Z"/><rect class="cls-8" x="30.18" y="16.92" width="3.6" height="5.92"/><rect class="cls-8" x="56.35" y="16.92" width="3.6" height="7.84"/><path class="cls-8" d="M66.16,17.78H23.84A1.8,1.8,0,0,1,22,16V1.8A1.8,1.8,0,0,1,23.84,0H66.16A1.8,1.8,0,0,1,68,1.8V16A1.8,1.8,0,0,1,66.16,17.78Zm-40.52-3.6H64.36V3.6H25.64Z"/><rect class="cls-8" x="30.82" y="6.81" width="28.36" height="3.6"/></g></g></g></svg>