<svg id="sign-open" xmlns="http://www.w3.org/2000/svg" viewBox="0 0 90 90"><defs><style>.cls-1{fill:#ffeb97;}.cls-2{fill:#576065;}.cls-3{fill:#94d5d2;}</style></defs><title>sign-open</title><g id="sign-open-2" data-name="sign-open"><g id="fill"><path class="cls-1" d="M88.16,81.8a7.36,7.36,0,0,1-7.4,7.29H9.24a7.37,7.37,0,0,1-7.4-7.29V53.23a7.37,7.37,0,0,1,7.4-7.3H80.76a7.37,7.37,0,0,1,7.4,7.3Z"/><path class="cls-2" d="M18.92,61.95c0-3.7,2-5.82,5.54-5.82S30,58.25,30,61.95V74c0,3.7-2,5.82-5.54,5.82S18.92,77.69,18.92,74Zm3.65,12.27c0,1.65.73,2.28,1.89,2.28s1.89-.63,1.89-2.28V61.72c0-1.65-.73-2.28-1.89-2.28s-1.89.63-1.89,2.28Z"/><path class="cls-2" d="M44,62.11v3c0,3.7-1.79,5.72-5.44,5.72H36.83v8.7H33.18V56.4h5.37C42.2,56.4,44,58.41,44,62.11ZM36.83,59.7v7.84h1.72c1.16,0,1.79-.53,1.79-2.18V61.88c0-1.65-.63-2.18-1.79-2.18Z"/><path class="cls-2" d="M50.16,66.15h5v3.31h-5v6.78h6.3v3.31H46.51V56.4h9.95V59.7h-6.3Z"/><path class="cls-2" d="M62.78,62.78V79.54H59.5V56.4h4.58l3.75,13.85V56.4h3.25V79.54H67.33Z"/><circle class="cls-3" cx="45" cy="5.87" r="5.11"/></g><g id="outline"><rect class="cls-2" x="6.64" y="26.12" width="43.63" height="3.68" transform="translate(-10.88 34.61) rotate(-54.1)"/><rect class="cls-2" x="59.69" y="6.12" width="3.68" height="43.34" transform="translate(-4.55 41.63) rotate(-36.14)"/><path class="cls-2" d="M80.76,90.94H9.24A9.2,9.2,0,0,1,0,81.8V53.23a9.2,9.2,0,0,1,9.24-9.14H80.76A9.2,9.2,0,0,1,90,53.23V81.8A9.2,9.2,0,0,1,80.76,90.94ZM9.24,47.77a5.51,5.51,0,0,0-5.56,5.46V81.8a5.51,5.51,0,0,0,5.56,5.45H80.76a5.51,5.51,0,0,0,5.56-5.45V53.23a5.51,5.51,0,0,0-5.56-5.46Z"/><path class="cls-2" d="M45,13A6.95,6.95,0,1,1,52,6,7,7,0,0,1,45,13ZM45,2.74A3.27,3.27,0,1,0,48.27,6,3.27,3.27,0,0,0,45,2.74Z"/><rect class="cls-2" x="9.03" y="51.41" width="3.2" height="3.68"/><rect class="cls-2" x="9.03" y="80.19" width="3.2" height="3.68"/><rect class="cls-2" x="77.77" y="51.41" width="3.2" height="3.68"/><rect class="cls-2" x="77.77" y="80.19" width="3.2" height="3.68"/></g></g></svg>