<svg xmlns="http://www.w3.org/2000/svg" viewBox="0 0 90 90"><defs><style>.cls-1{fill:#fff;}.cls-2{fill:#94d5d2;}.cls-3{fill:#ffeb97;}.cls-4{fill:#ff8898;}.cls-5{fill:#576065;}</style></defs><title>smartwatch-cart</title><g id="smartwatch-cart"><g id="smartwatch-cart-2" data-name="smartwatch-cart"><g id="fill"><path class="cls-1" d="M65.16,73.8H19.08A5.78,5.78,0,0,1,13.32,68V22a5.78,5.78,0,0,1,5.76-5.76H65.16A5.78,5.78,0,0,1,70.92,22V68A5.78,5.78,0,0,1,65.16,73.8Z"/><polygon class="cls-2" points="55.33 48.23 28.75 48.23 28.75 33.58 59.09 33.58 55.33 48.23"/><polyline class="cls-3" points="70.92 39.24 76.68 39.24 76.68 50.76 70.92 50.76"/><polyline class="cls-4" points="24.84 16.2 27.72 1.8 56.52 1.8 59.4 16.2"/><polyline class="cls-4" points="59.4 73.8 56.52 88.2 27.72 88.2 24.84 73.8"/><circle class="cls-5" cx="32.52" cy="58.19" r="2.82"/><circle class="cls-5" cx="51.84" cy="58.19" r="2.82"/></g><g id="outline"><path class="cls-5" d="M65.16,75.6H19.08A7.57,7.57,0,0,1,11.52,68V22a7.57,7.57,0,0,1,7.56-7.56H65.16A7.57,7.57,0,0,1,72.72,22V68A7.57,7.57,0,0,1,65.16,75.6ZM19.08,18a4,4,0,0,0-4,4V68a4,4,0,0,0,4,4H65.16a4,4,0,0,0,4-4V22a4,4,0,0,0-4-4Z"/><path class="cls-5" d="M76.68,52.56H70.92a1.8,1.8,0,1,1,0-3.6h4V41h-4a1.8,1.8,0,0,1,0-3.6h5.76a1.8,1.8,0,0,1,1.8,1.8V50.76A1.8,1.8,0,0,1,76.68,52.56Z"/><path class="cls-5" d="M59.4,18a1.8,1.8,0,0,1-1.76-1.45L55,3.6H29.2l-2.59,13a1.8,1.8,0,1,1-3.53-.71L26,1.45A1.8,1.8,0,0,1,27.72,0h28.8a1.8,1.8,0,0,1,1.76,1.45l2.88,14.4A1.8,1.8,0,0,1,59.75,18,1.76,1.76,0,0,1,59.4,18Z"/><path class="cls-5" d="M56.52,90H27.72A1.8,1.8,0,0,1,26,88.55l-2.88-14.4a1.8,1.8,0,1,1,3.53-.71l2.59,13H55l2.59-13a1.8,1.8,0,1,1,3.53.71l-2.88,14.4A1.8,1.8,0,0,1,56.52,90Z"/><path class="cls-5" d="M28.75,50.78A1.8,1.8,0,0,1,27,49V30.12H23.49a1.8,1.8,0,1,1,0-3.6h5.26a1.8,1.8,0,0,1,1.8,1.8V49A1.8,1.8,0,0,1,28.75,50.78Z"/><path class="cls-5" d="M32.52,62.8a4.62,4.62,0,1,1,4.62-4.62A4.62,4.62,0,0,1,32.52,62.8Zm0-5.63a1,1,0,1,0,1,1A1,1,0,0,0,32.52,57.17Z"/><path class="cls-5" d="M51.84,62.8a4.62,4.62,0,1,1,4.62-4.62A4.62,4.62,0,0,1,51.84,62.8Zm0-5.63a1,1,0,1,0,1,1A1,1,0,0,0,51.84,57.17Z"/><path class="cls-5" d="M55,51.16H28.75a1.8,1.8,0,0,1,0-3.6H53.64l3-12.18H28.75a1.8,1.8,0,1,1,0-3.6H59A1.8,1.8,0,0,1,60.74,34L56.79,49.8A1.8,1.8,0,0,1,55,51.16Z"/><path class="cls-5" d="M55.33,43.27H30a1.8,1.8,0,0,1,0-3.6H55.33a1.8,1.8,0,1,1,0,3.6Z"/></g></g></g></svg>