<svg xmlns="http://www.w3.org/2000/svg" viewBox="0 0 90 90"><defs><style>.cls-1{fill:#fff;}.cls-2{fill:#ffeb97;}.cls-3{fill:#576065;}.cls-4{fill:#ff8898;}.cls-5{fill:#94d5d2;}.cls-6{fill:#ccc;}</style></defs><title>terms-of-delivery</title><g id="terms-of-delivery"><g id="terms-of-delivery-2" data-name="terms-of-delivery"><g id="fill"><rect class="cls-1" x="1.88" y="1.88" width="86.25" height="86.25"/><rect class="cls-2" x="1.88" y="1.88" width="86.25" height="14.87"/><path class="cls-3" d="M13.17,9.31a1.86,1.86,0,1,1-1.86-1.86,1.86,1.86,0,0,1,1.86,1.86"/><path class="cls-3" d="M20.61,9.31a1.86,1.86,0,1,1-1.86-1.86,1.86,1.86,0,0,1,1.86,1.86"/><path class="cls-3" d="M28,9.31a1.86,1.86,0,1,1-1.86-1.86A1.86,1.86,0,0,1,28,9.31"/><rect class="cls-4" x="40.31" y="68.44" width="24.38" height="9.38"/><circle class="cls-5" cx="18.25" cy="73.12" r="5.62"/></g><g id="outline"><path class="cls-3" d="M88.13,90H1.88A1.87,1.87,0,0,1,0,88.13V1.88A1.87,1.87,0,0,1,1.88,0H88.13A1.87,1.87,0,0,1,90,1.88V88.13A1.87,1.87,0,0,1,88.13,90ZM3.75,86.25h82.5V3.75H3.75Z"/><path class="cls-3" d="M86.64,18.62H3.36a1.88,1.88,0,0,1,0-3.75H86.64a1.88,1.88,0,1,1,0,3.75Z"/><rect class="cls-3" x="35.59" y="7.21" width="47.05" height="3.75"/><rect class="cls-3" x="12.63" y="28.59" width="53.37" height="3.75"/><rect class="cls-3" x="12.63" y="37.34" width="53.37" height="3.75"/><rect class="cls-3" x="12.63" y="46.09" width="53.37" height="3.75"/><rect class="cls-3" x="12.63" y="54.84" width="53.37" height="3.75"/><rect class="cls-6" x="75.5" y="34.22" width="3.75" height="25"/><path class="cls-3" d="M77.37,40.47a1.87,1.87,0,0,1-1.87-1.87V30.47a1.88,1.88,0,0,1,3.75,0v8.12A1.87,1.87,0,0,1,77.37,40.47Z"/><path class="cls-3" d="M64.69,79.69H40.31a1.87,1.87,0,0,1-1.87-1.87V68.44a1.87,1.87,0,0,1,1.88-1.87H64.69a1.87,1.87,0,0,1,1.88,1.88v9.38A1.87,1.87,0,0,1,64.69,79.69Zm-22.5-3.75H62.81V70.31H42.19Z"/><path class="cls-3" d="M18,78l-4.3-4.3A1.87,1.87,0,1,1,16.37,71L18,72.67,22.64,68A1.87,1.87,0,1,1,25.3,70.7Z"/></g></g></g></svg>