<svg xmlns="http://www.w3.org/2000/svg" viewBox="0 0 90 90"><defs><style>.cls-1{fill:#94d5d2;}.cls-2{fill:#ff8898;}.cls-3{fill:#e07885;}.cls-4{fill:#ffeb97;}.cls-5{fill:#fff;}.cls-6{fill:#576065;}</style></defs><title>wallet</title><g id="wallet"><g id="wallet-2" data-name="wallet"><g id="fill"><path class="cls-1" d="M83.26,63.67H68A3.06,3.06,0,0,1,64.9,60.6V51.4A3.06,3.06,0,0,1,68,48.33h15.3a3.06,3.06,0,0,1,3.06,3.07v9.2A3.06,3.06,0,0,1,83.26,63.67Z"/><path class="cls-2" d="M68,63.67A3.06,3.06,0,0,1,64.9,60.6V51.4A3.06,3.06,0,0,1,68,48.33h15.3V29.93a6.13,6.13,0,0,0-6.12-6.13H9.8a6.13,6.13,0,0,1-6.12-6.13v64.4A6.13,6.13,0,0,0,9.8,88.2H77.14a6.13,6.13,0,0,0,6.12-6.13V63.67Z"/><path class="cls-3" d="M77.14,23.8H9.8a6.13,6.13,0,0,1-6.12-6.13h0A6.13,6.13,0,0,1,9.8,11.53H71a6.13,6.13,0,0,1,6.12,6.13Z"/><rect class="cls-4" x="15.69" y="2.02" width="39.53" height="21.15"/><rect class="cls-5" x="29.97" y="17.67" width="40.5" height="5.51"/></g><g id="outline"><path class="cls-6" d="M83.26,65.47H68a4.87,4.87,0,0,1-4.86-4.87V51.4A4.87,4.87,0,0,1,68,46.53h15.3a4.87,4.87,0,0,1,4.86,4.87v9.2A4.87,4.87,0,0,1,83.26,65.47ZM68,50.13a1.27,1.27,0,0,0-1.26,1.27v9.2A1.27,1.27,0,0,0,68,61.87h15.3a1.27,1.27,0,0,0,1.26-1.27V51.4a1.27,1.27,0,0,0-1.26-1.27Z"/><path class="cls-6" d="M77.14,90H9.8a7.94,7.94,0,0,1-7.92-7.93V17.67a1.8,1.8,0,0,1,3.6,0A4.33,4.33,0,0,0,9.8,22H77.14a7.94,7.94,0,0,1,7.92,7.93v18.4a1.8,1.8,0,0,1-1.8,1.8H68a1.27,1.27,0,0,0-1.26,1.27v9.2A1.27,1.27,0,0,0,68,61.87h15.3a1.8,1.8,0,0,1,1.8,1.8v18.4A7.94,7.94,0,0,1,77.14,90ZM5.48,24.31V82.07A4.33,4.33,0,0,0,9.8,86.4H77.14a4.33,4.33,0,0,0,4.32-4.33V65.47H68a4.87,4.87,0,0,1-4.86-4.87V51.4A4.87,4.87,0,0,1,68,46.53h13.5V29.93a4.33,4.33,0,0,0-4.32-4.33H9.8A7.87,7.87,0,0,1,5.48,24.31Z"/><path class="cls-6" d="M77.14,25.6H9.8a7.93,7.93,0,0,1,0-15.87h5.89a1.8,1.8,0,1,1,0,3.6H9.8A4.33,4.33,0,0,0,9.8,22H75.34V17.67A4.33,4.33,0,0,0,71,13.33H55.22a1.8,1.8,0,1,1,0-3.6H71a7.94,7.94,0,0,1,7.92,7.93V23.8A1.8,1.8,0,0,1,77.14,25.6Z"/><path class="cls-6" d="M72.55,59.33A3.33,3.33,0,1,1,75.88,56,3.34,3.34,0,0,1,72.55,59.33Zm0-3.6a.27.27,0,0,0-.27.27c0,.29.54.29.54,0A.27.27,0,0,0,72.55,55.73Z"/><path class="cls-6" d="M17.49,23.85h-3.6V4.44A4.44,4.44,0,0,1,18.33,0H52.58A4.44,4.44,0,0,1,57,4.44V18.17h-3.6V4.44a.84.84,0,0,0-.83-.84H18.33a.84.84,0,0,0-.83.84Z"/><path class="cls-5" d="M71,33.53a2.24,2.24,0,0,1-.34,0,1.12,1.12,0,0,1-.34-.11,1,1,0,0,1-.31-.16,1.8,1.8,0,0,1-.27-.22,1.78,1.78,0,0,1,0-2.56,1.8,1.8,0,0,1,.27-.22,1,1,0,0,1,.31-.16,1.07,1.07,0,0,1,.34-.11,1.52,1.52,0,0,1,.7,0,1.21,1.21,0,0,1,.34.11,1.26,1.26,0,0,1,.31.16l.27.22a1.83,1.83,0,0,1,0,2.56l-.27.22a1.26,1.26,0,0,1-.31.16,1.27,1.27,0,0,1-.34.11A2.25,2.25,0,0,1,71,33.53Z"/><path class="cls-5" d="M61.94,31.73a1.8,1.8,0,0,1,1.8-1.8h0a1.81,1.81,0,0,1,1.82,1.8h0a1.81,1.81,0,0,1-1.82,1.8h0A1.8,1.8,0,0,1,61.94,31.73Zm-7.25,0a1.79,1.79,0,0,1,1.8-1.8h0a1.81,1.81,0,0,1,1.8,1.8h0a1.81,1.81,0,0,1-1.8,1.8h0A1.79,1.79,0,0,1,54.68,31.73Zm-7.27,0a1.79,1.79,0,0,1,1.8-1.8h0a1.81,1.81,0,0,1,1.8,1.8h0a1.81,1.81,0,0,1-1.8,1.8h0A1.79,1.79,0,0,1,47.41,31.73Zm-7.27,0a1.81,1.81,0,0,1,1.8-1.8h0a1.81,1.81,0,0,1,1.8,1.8h0a1.81,1.81,0,0,1-1.8,1.8h0A1.81,1.81,0,0,1,40.14,31.73Zm-7.27,0a1.81,1.81,0,0,1,1.8-1.8h0a1.81,1.81,0,0,1,1.8,1.8h0a1.81,1.81,0,0,1-1.8,1.8h0A1.81,1.81,0,0,1,32.87,31.73Zm-7.27,0a1.81,1.81,0,0,1,1.8-1.8h0a1.81,1.81,0,0,1,1.8,1.8h0a1.81,1.81,0,0,1-1.8,1.8h0A1.81,1.81,0,0,1,25.6,31.73Zm-7.27,0a1.81,1.81,0,0,1,1.8-1.8h0a1.81,1.81,0,0,1,1.8,1.8h0a1.81,1.81,0,0,1-1.8,1.8h0A1.81,1.81,0,0,1,18.32,31.73Z"/><path class="cls-5" d="M12.87,33.53a1.8,1.8,0,0,1-1.28-3.08,1.86,1.86,0,0,1,2.54,0,1.8,1.8,0,0,1-1.26,3.08Z"/><path class="cls-5" d="M69.21,82.06a1.8,1.8,0,0,1,1.8-1.8h0a1.79,1.79,0,0,1,1.8,1.8h0a1.78,1.78,0,0,1-1.8,1.8h0A1.79,1.79,0,0,1,69.21,82.06Zm-7.2,0a1.81,1.81,0,0,1,1.82-1.8h0a1.79,1.79,0,0,1,1.78,1.8h0a1.78,1.78,0,0,1-1.78,1.8h0A1.8,1.8,0,0,1,62,82.06Zm-7.2,0a1.8,1.8,0,0,1,1.8-1.8h0a1.79,1.79,0,0,1,1.8,1.8h0a1.78,1.78,0,0,1-1.8,1.8h0A1.79,1.79,0,0,1,54.81,82.06Zm-7.2,0a1.8,1.8,0,0,1,1.8-1.8h0a1.79,1.79,0,0,1,1.8,1.8h0a1.78,1.78,0,0,1-1.8,1.8h0A1.79,1.79,0,0,1,47.61,82.06Zm-7.2,0a1.81,1.81,0,0,1,1.82-1.8h0A1.79,1.79,0,0,1,44,82.06h0a1.78,1.78,0,0,1-1.78,1.8h0A1.8,1.8,0,0,1,40.41,82.06Zm-7.2,0a1.8,1.8,0,0,1,1.8-1.8h0a1.79,1.79,0,0,1,1.8,1.8h0a1.78,1.78,0,0,1-1.8,1.8h0A1.79,1.79,0,0,1,33.21,82.06Zm-7.2,0a1.8,1.8,0,0,1,1.8-1.8h0a1.79,1.79,0,0,1,1.8,1.8h0a1.78,1.78,0,0,1-1.8,1.8h0A1.79,1.79,0,0,1,26,82.06Zm-7.2,0a1.8,1.8,0,0,1,1.8-1.8h0a1.79,1.79,0,0,1,1.8,1.8h0a1.78,1.78,0,0,1-1.8,1.8h0A1.79,1.79,0,0,1,18.81,82.06Zm-7.2,0a1.8,1.8,0,0,1,1.8-1.8h0a1.79,1.79,0,0,1,1.8,1.8h0a1.78,1.78,0,0,1-1.8,1.8h0A1.79,1.79,0,0,1,11.61,82.06Z"/><path class="cls-5" d="M75.6,38.93a1.81,1.81,0,0,1,1.8-1.8h0a1.79,1.79,0,0,1,1.8,1.8h0a1.79,1.79,0,0,1-1.8,1.8h0A1.81,1.81,0,0,1,75.6,38.93Zm0-7.2a1.81,1.81,0,0,1,1.8-1.8h0a1.79,1.79,0,0,1,1.8,1.8h0a1.79,1.79,0,0,1-1.8,1.8h0A1.81,1.81,0,0,1,75.6,31.73Z"/><path class="cls-5" d="M75.6,81.45a1.81,1.81,0,0,1,1.8-1.8h0a1.79,1.79,0,0,1,1.8,1.8h0a1.79,1.79,0,0,1-1.8,1.8h0A1.81,1.81,0,0,1,75.6,81.45Zm0-7.2a1.81,1.81,0,0,1,1.8-1.8h0a1.79,1.79,0,0,1,1.8,1.8h0a1.79,1.79,0,0,1-1.8,1.8h0A1.81,1.81,0,0,1,75.6,74.25Z"/><path class="cls-6" d="M73.35,24.34h-3.6V19.53a1,1,0,0,0-1-1H31.61a1,1,0,0,0-1,1v4.81h-3.6V19.53A4.56,4.56,0,0,1,31.61,15H68.8a4.56,4.56,0,0,1,4.55,4.56Z"/></g></g></g></svg>