<svg xmlns="http://www.w3.org/2000/svg" viewBox="0 0 90 90"><defs><style>.cls-1{fill:#94d5d2;}.cls-2{fill:#fff;}.cls-3{fill:#ffeb97;}.cls-4{fill:#576065;}</style></defs><title>watch</title><g id="watch"><g id="watch-2" data-name="watch"><g id="fill"><path class="cls-1" d="M59.75,23.6a25.89,25.89,0,0,0-29.51,0L27,25.82l2.2-21.33a3.24,3.24,0,0,1,3.23-3.13H57.54a3.29,3.29,0,0,1,3.24,3.36L63,25.82Z"/><path class="cls-1" d="M32.46,88.63a3.28,3.28,0,0,1-3.24-3.36L27,64.18l3.22,2.22a25.9,25.9,0,0,0,29.51,0L63,64.18l-2.2,21.33a3.24,3.24,0,0,1-3.23,3.12Z"/><path class="cls-2" d="M45,71.56A26.56,26.56,0,1,1,71.56,45,26.59,26.59,0,0,1,45,71.56Z"/><path class="cls-3" d="M45,64.95A20,20,0,1,1,65,45a20,20,0,0,1-20,20Z"/></g><g id="outline"><g id="watch-2-2" data-name="watch-2"><polygon class="cls-4" points="56.14 46.75 43.16 46.75 43.16 29.76 46.79 29.76 46.79 43.12 56.14 43.12 56.14 46.75"/><path class="cls-4" d="M45,66.32A21.32,21.32,0,1,1,66.32,45,21.35,21.35,0,0,1,45,66.32Zm0-39A17.68,17.68,0,1,0,62.68,45,17.7,17.7,0,0,0,45,27.31Z"/><path class="cls-4" d="M45,73.28A28.29,28.29,0,1,1,73.28,45,28.32,28.32,0,0,1,45,73.28Zm0-52.94A24.65,24.65,0,1,0,69.65,45,24.68,24.68,0,0,0,45,20.35Z"/><path class="cls-4" d="M57.54,90H32.46a4.61,4.61,0,0,1-4.6-4.5L25.73,64.91l3.62-.37L31.5,85.39a1,1,0,0,0,1,1H57.54a1,1,0,0,0,1-1v-.19l2.15-20.78,3.62.37L62.14,85.5A4.61,4.61,0,0,1,57.54,90Z"/><path class="cls-4" d="M29.46,24.4,25.84,24l2-19.53A4.61,4.61,0,0,1,32.46,0H57.54a4.61,4.61,0,0,1,4.6,4.5l2,19.4-3.62.37-2-19.67a1,1,0,0,0-1-1H32.46a1,1,0,0,0-1,1v.19Z"/></g></g></g></g></svg>