<svg xmlns="http://www.w3.org/2000/svg" viewBox="0 0 90 90"><defs><style>.cls-1{fill:#94d5d2;}.cls-2{fill:#576065;}.cls-3{fill:#fff;}</style></defs><title>winter-shopping-bag</title><g id="winter-shopping-bag"><g id="winter-shopping-bag-2" data-name="winter-shopping-bag"><path id="fill" class="cls-1" d="M78.81,85.47A2.75,2.75,0,0,1,76,88.2H14a2.75,2.75,0,0,1-2.76-2.73V21.37A2.75,2.75,0,0,1,14,18.64H76a2.75,2.75,0,0,1,2.76,2.73Z"/><g id="outline"><path class="cls-2" d="M76,90H14a4.55,4.55,0,0,1-4.56-4.53V21.37A4.55,4.55,0,0,1,14,16.84H76a4.55,4.55,0,0,1,4.56,4.53v64.1A4.55,4.55,0,0,1,76,90ZM14,20.44a1,1,0,0,0-1,.93v64.1a1,1,0,0,0,1,.93H76a1,1,0,0,0,1-.93V21.37a1,1,0,0,0-1-.93Z"/><path class="cls-2" d="M66,19.64h-3.6c0-8.85-7.49-16-16.69-16S29,10.8,29,19.64H25.4C25.4,8.81,34.5,0,45.69,0S66,8.81,66,19.64Z"/><path class="cls-2" d="M64.18,30a1.8,1.8,0,0,1-1.8-1.8c0-8.85-7.49-16-16.69-16S29,19.34,29,28.19a1.8,1.8,0,0,1-3.6,0c0-10.83,9.1-19.64,20.29-19.64S66,17.36,66,28.19A1.8,1.8,0,0,1,64.18,30Z"/><path class="cls-3" d="M45,54.73a1.35,1.35,0,0,1-1.35-1.35v-18a1.35,1.35,0,0,1,2.7,0v18A1.35,1.35,0,0,1,45,54.73Z"/><path class="cls-3" d="M45,43.9a1.35,1.35,0,0,1-.81-2.43L49,37.85A1.35,1.35,0,0,1,50.65,40l-4.84,3.62A1.35,1.35,0,0,1,45,43.9Z"/><path class="cls-3" d="M45,43.9a1.35,1.35,0,0,1-.81-.27L39.35,40A1.35,1.35,0,0,1,41,37.85l4.84,3.62A1.35,1.35,0,0,1,45,43.9Z"/><path class="cls-3" d="M45,72.55a1.35,1.35,0,0,1-1.35-1.35V53.38a1.35,1.35,0,0,1,2.7,0V71.2A1.35,1.35,0,0,1,45,72.55Z"/><path class="cls-3" d="M49.84,70.16a1.33,1.33,0,0,1-.78-.25l-4.84-3.41a1.35,1.35,0,0,1,1.55-2.21l4.84,3.41a1.35,1.35,0,0,1-.78,2.45Z"/><path class="cls-3" d="M40.16,70.16a1.35,1.35,0,0,1-.78-2.45l4.84-3.41a1.35,1.35,0,1,1,1.55,2.21l-4.84,3.41A1.33,1.33,0,0,1,40.16,70.16Z"/><path class="cls-3" d="M45,54.73a1.34,1.34,0,0,1-.7-.2L28.57,44.86A1.35,1.35,0,0,1,30,42.56l15.72,9.67a1.35,1.35,0,0,1-.71,2.5Z"/><path class="cls-3" d="M35.32,48.65A1.35,1.35,0,0,1,34,47.3v-6a1.35,1.35,0,0,1,2.7,0v6A1.35,1.35,0,0,1,35.32,48.65Z"/><path class="cls-3" d="M29.28,51a1.35,1.35,0,0,1-.5-2.61l6-2.39a1.35,1.35,0,1,1,1,2.51l-6,2.39A1.33,1.33,0,0,1,29.28,51Z"/><path class="cls-3" d="M60.72,65.38a1.35,1.35,0,0,1-.76-.23L44.24,54.49a1.35,1.35,0,0,1,1.52-2.24L61.48,62.91a1.35,1.35,0,0,1-.76,2.47Z"/><path class="cls-3" d="M54.74,60.74a1.35,1.35,0,0,1-.53-2.59l6-2.53a1.35,1.35,0,0,1,1.05,2.49l-6,2.53A1.32,1.32,0,0,1,54.74,60.74Z"/><path class="cls-3" d="M54.68,67.77h0a1.35,1.35,0,0,1-1.34-1.36l.06-7A1.35,1.35,0,0,1,54.74,58h0a1.35,1.35,0,0,1,1.34,1.36l-.06,7A1.35,1.35,0,0,1,54.68,67.77Z"/><path class="cls-3" d="M28.07,63a1.35,1.35,0,0,1-.59-2.56l16.93-8.27a1.35,1.35,0,0,1,1.18,2.43L28.66,62.85A1.34,1.34,0,0,1,28.07,63Z"/><path class="cls-3" d="M34.46,60a1.34,1.34,0,0,1-.67-.18l-5.19-3A1.35,1.35,0,0,1,30,54.49l5.19,3A1.35,1.35,0,0,1,34.46,60Z"/><path class="cls-3" d="M32.91,66.58a1.35,1.35,0,0,1-1.31-1.66l1.56-6.57a1.35,1.35,0,0,1,2.63.62l-1.56,6.57A1.35,1.35,0,0,1,32.91,66.58Z"/><path class="cls-3" d="M45,54.73a1.35,1.35,0,0,1-.61-2.56L61.33,43.7a1.35,1.35,0,1,1,1.21,2.42L45.6,54.58A1.35,1.35,0,0,1,45,54.73Z"/><path class="cls-3" d="M55.89,49.84a1.35,1.35,0,0,1-1.35-1.35V41.32a1.35,1.35,0,0,1,2.7,0v7.17A1.35,1.35,0,0,1,55.89,49.84Z"/><path class="cls-3" d="M61.93,52.23a1.33,1.33,0,0,1-.5-.09l-6-2.39a1.35,1.35,0,0,1,1-2.51l6,2.39a1.35,1.35,0,0,1-.5,2.61Z"/></g></g></g></svg>