<svg xmlns="http://www.w3.org/2000/svg" viewBox="0 0 90 90"><defs><style>.cls-1{fill:#fff;}.cls-2{fill:#ff8898;}.cls-3{fill:#ffeb97;}.cls-4{fill:#576065;}</style></defs><title>wish-list</title><g id="wish-list"><g id="wish-list-2" data-name="wish-list"><g id="fill"><path class="cls-1" d="M12.25,81.11v4.3A2.79,2.79,0,0,0,15,88.2H75a2.79,2.79,0,0,0,2.79-2.79V4.59A2.79,2.79,0,0,0,75,1.8H38.84L12.25,27V84"/><path class="cls-2" d="M12.25,28.16H35.94a2.79,2.79,0,0,0,2.79-2.79V3.19"/><polygon class="cls-3" points="46.8 32.29 51.81 42.44 63 44.06 54.9 51.96 56.81 63.11 46.8 57.84 36.79 63.11 38.7 51.96 30.6 44.06 41.79 42.44 46.8 32.29"/></g><g id="outline"><path class="cls-4" d="M75,90H15a4.59,4.59,0,0,1-4.59-4.59V27A1.8,1.8,0,0,1,11,25.69L37.61.49A1.8,1.8,0,0,1,38.84,0H75a4.59,4.59,0,0,1,4.59,4.59V85.41A4.59,4.59,0,0,1,75,90ZM14.05,81.11v4.3a1,1,0,0,0,1,1H75a1,1,0,0,0,1-1V4.59a1,1,0,0,0-1-1H39.56L14.05,27.78Z"/><path class="cls-4" d="M35.94,30H12.25a1.8,1.8,0,0,1,0-3.6H35.94a1,1,0,0,0,1-1V3.19a1.8,1.8,0,0,1,3.6,0V25.37A4.59,4.59,0,0,1,35.94,30Z"/><path class="cls-4" d="M56.81,64.91A1.8,1.8,0,0,1,56,64.7L46.8,59.88,37.62,64.7A1.8,1.8,0,0,1,35,62.8l1.75-10.22-7.42-7.24a1.8,1.8,0,0,1,1-3.07L40.6,40.79l4.59-9.3a1.87,1.87,0,0,1,3.23,0L53,40.79l10.26,1.49a1.8,1.8,0,0,1,1,3.07l-7.42,7.24L58.59,62.8a1.8,1.8,0,0,1-1.77,2.1ZM46.8,56a1.79,1.79,0,0,1,.84.21l6.79,3.57-1.3-7.55a1.8,1.8,0,0,1,.52-1.59l5.49-5.35-7.58-1.1a1.8,1.8,0,0,1-1.36-1L46.8,36.36l-3.39,6.87a1.8,1.8,0,0,1-1.36,1l-7.58,1.1L40,50.67a1.8,1.8,0,0,1,.52,1.59l-1.3,7.55L46,56.25A1.79,1.79,0,0,1,46.8,56Z"/></g></g></g></svg>