<?xml version="1.0" encoding="utf-8"?>
<!-- Generator: Adobe Illustrator 17.1.0, SVG Export Plug-In . SVG Version: 6.00 Build 0)  -->
<!DOCTYPE svg PUBLIC "-//W3C//DTD SVG 1.1//EN" "http://www.w3.org/Graphics/SVG/1.1/DTD/svg11.dtd">
<svg version="1.1" id="arrows-hearts" xmlns="http://www.w3.org/2000/svg" xmlns:xlink="http://www.w3.org/1999/xlink" x="0px"
	 y="0px" viewBox="0 0 59.9995 57.3999" enable-background="new 0 0 59.9995 57.3999" xml:space="preserve">
<g id="arrows-hearts-color">
	<path fill="#F16061" d="M29.9995,45.5347c0-2.1045-1.7056-3.8106-3.813-3.8106c-2.104,0-3.8096,1.7061-3.8096,3.8106
		c0,1.1045,0.4766,2.0879,1.2232,2.7861l-0.0088,0.0019l6.4082,6.4073l6.4131-6.4073c-0.0049-0.0019-0.0068-0.0019-0.0068-0.0039
		c0.7441-0.6992,1.2167-1.6796,1.2167-2.7841c0-2.1045-1.7021-3.8106-3.8105-3.8106
		C31.7075,41.7241,29.9995,43.4302,29.9995,45.5347z"/>
	<path fill="#F16061" d="M29.9995,7.5996c0-2.105-1.7056-3.8105-3.813-3.8105c-2.104,0-3.8096,1.7055-3.8096,3.8105
		c0,1.1045,0.4766,2.0864,1.2232,2.7852l-0.0088,0.0024l6.4082,6.4082l6.4131-6.4082c-0.0049-0.0024-0.0068-0.0024-0.0068-0.0044
		c0.7441-0.6987,1.2167-1.6787,1.2167-2.7832c0-2.105-1.7021-3.8105-3.8105-3.8105C31.7075,3.7891,29.9995,5.4946,29.9995,7.5996z"
		/>
</g>
<g id="arrows-hearts-line">
	<g>
		<g>
			<path fill="#393939" d="M3.7119,11.9766L3.7119,11.9766c-0.6133,0-1.1113-0.4981-1.1113-1.1109l0.001-9.7549
				C2.6016,0.4966,3.0986,0,3.7129,0h9.7558c0.6128,0,1.1109,0.4966,1.1109,1.1108c0,0.6143-0.4981,1.1114-1.1109,1.1114H4.8242
				l-0.0015,8.6435C4.8227,11.48,4.3247,11.9766,3.7119,11.9766L3.7119,11.9766z"/>
		</g>
		<g>
			<path fill="#393939" d="M50.353,56.7886c-0.6142,0-1.1113-0.4971-1.1113-1.1114v-7.3154c0-0.6142,0.4971-1.1103,1.1113-1.1103
				h8.5352c0.6142,0,1.1113,0.4961,1.1113,1.1103c0,0.6143-0.4971,1.1113-1.1113,1.1113h-7.4239v6.2041
				C51.4643,56.2915,50.9673,56.7886,50.353,56.7886L50.353,56.7886z"/>
		</g>
		<g>
			<path fill="#393939" d="M45.4761,51.9106c-0.6133,0-1.1114-0.497-1.1114-1.1113v-7.3144c0-0.6143,0.4981-1.1114,1.1114-1.1114
				h8.5351c0.6123,0,1.1104,0.4971,1.1104,1.1114c0,0.6142-0.4981,1.1113-1.1104,1.1113h-7.4238v6.2031
				C46.5874,51.4136,46.0884,51.9106,45.4761,51.9106L45.4761,51.9106z"/>
		</g>
		<g>
			<path fill="#393939" d="M55.6753,54.187c-0.2842,0-0.5684-0.1084-0.7852-0.3262L3.4668,2.437
				c-0.4341-0.4341-0.4341-1.1372,0-1.5713c0.4336-0.4341,1.1367-0.4341,1.5708,0l51.4228,51.4248
				c0.4346,0.4336,0.4346,1.1367,0,1.5703C56.2436,54.0786,55.9595,54.187,55.6753,54.187L55.6753,54.187z"/>
		</g>
	</g>
	<g>
		<g>
			<path fill="#393939" d="M55.6753,11.979L55.6753,11.979c-0.6133,0-1.1113-0.4981-1.1113-1.1113l0.0009-8.6446l-8.6435-0.0009
				c-0.6133,0-1.1104-0.4981-1.1104-1.1114C44.811,0.4966,45.3081,0,45.9214,0l0,0l9.7549,0.001
				c0.6142,0,1.1113,0.498,1.1113,1.1108l-0.001,9.7559C56.7866,11.4819,56.2886,11.979,55.6753,11.979L55.6753,11.979z"/>
		</g>
		<g>
			<path fill="#393939" d="M8.4263,57.3999c-0.6143,0-1.1109-0.4971-1.1109-1.1113v-7.4239l-6.2046-0.0029
				C0.4966,48.8618,0,48.3647,0,47.7515c0-0.6143,0.4966-1.1114,1.1108-1.1114l0,0l7.3155,0.002
				c0.6142,0,1.1113,0.498,1.1113,1.1113v8.5352C9.5376,56.9028,9.0405,57.3999,8.4263,57.3999L8.4263,57.3999z"/>
		</g>
		<g>
			<path fill="#393939" d="M13.3037,52.52L13.3037,52.52c-0.6128,0-1.1108-0.498-1.1108-1.1113l0.0009-7.4238l-6.2046,0.0019
				c-0.0009,0-0.0009,0-0.0009,0c-0.6133,0-1.1114-0.4971-1.1114-1.1103c0-0.6133,0.4971-1.1114,1.1104-1.1114l7.3174-0.0019l0,0
				c0.2954,0,0.5771,0.1172,0.7856,0.3252s0.3257,0.4902,0.3257,0.7851l-0.001,8.5352C14.415,52.0229,13.917,52.52,13.3037,52.52
				L13.3037,52.52z"/>
		</g>
		<g>
			<path fill="#393939" d="M3.7139,54.187c-0.2842,0-0.5684-0.1084-0.7857-0.3262c-0.4336-0.4336-0.4336-1.1367,0-1.5703
				L54.3501,0.8667c0.4346-0.4341,1.1377-0.4341,1.5713,0c0.4345,0.4341,0.4345,1.1372,0,1.5713L4.4995,53.8608
				C4.2827,54.0786,3.998,54.187,3.7139,54.187L3.7139,54.187z"/>
		</g>
	</g>
	<path fill="#393939" d="M49.7007,28.602v5.8692h-1.9864V28.602l-5.4072-8.8857h1.751c0.1777,0,0.3193,0.0449,0.4228,0.1338
		c0.1016,0.0898,0.1905,0.1997,0.2666,0.3286l3.377,5.7358c0.1377,0.2408,0.2529,0.4673,0.3447,0.6802
		c0.0938,0.2124,0.1778,0.4219,0.253,0.627c0.0761-0.2115,0.1582-0.4253,0.247-0.6367c0.0899-0.2139,0.2032-0.4361,0.3408-0.6705
		l3.3663-5.7358c0.0625-0.1084,0.1464-0.2139,0.2539-0.3125c0.1064-0.0996,0.2431-0.1499,0.414-0.1499h1.7725L49.7007,28.602z"/>
	<path fill="#393939" d="M10.1484,34.4712H8.1509V19.7163h1.9975V34.4712z"/>
	<g>
		<path fill="#393939" d="M29.9995,55.8413c-0.2842,0-0.5684-0.1084-0.7856-0.3252l-6.4082-6.4072
			c-0.0259-0.0264-0.0513-0.0537-0.0738-0.0821c-0.9463-0.9384-1.4658-2.1728-1.4658-3.4921c0-2.7139,2.208-4.9219,4.9204-4.9219
			c1.5357,0,2.9092,0.706,3.813,1.8105c0.9038-1.1045,2.2773-1.8105,3.8125-1.8105c2.7129,0,4.9209,2.208,4.9209,4.9219
			c0,1.3203-0.5176,2.5537-1.46,3.4912c-0.0234,0.0283-0.0488,0.0566-0.0752,0.083l-6.4126,6.4072
			C30.5679,55.7329,30.2837,55.8413,29.9995,55.8413L29.9995,55.8413z M24.4722,47.6333l5.5273,5.5254l5.5342-5.5293
			c0.0342-0.042,0.0713-0.083,0.1113-0.1211c0.5586-0.5244,0.8662-1.2256,0.8662-1.9736c0-1.4893-1.2099-2.7002-2.6992-2.7002
			s-2.7012,1.2109-2.7012,2.7002c0,0.6142-0.497,1.1103-1.1113,1.1103c-0.6143,0-1.1108-0.4961-1.1108-1.1103
			c0-1.4893-1.2124-2.7002-2.7022-2.7002c-1.4888,0-2.6982,1.2109-2.6982,2.7002c0,0.747,0.3091,1.4492,0.8711,1.9746
			C24.4009,47.5483,24.4375,47.5893,24.4722,47.6333L24.4722,47.6333z"/>
	</g>
	<g>
		<path fill="#393939" d="M29.9995,17.9067c-0.2842,0-0.5684-0.1084-0.7856-0.3257l-6.4082-6.4082
			c-0.0259-0.0263-0.0513-0.0532-0.0738-0.0815c-0.9463-0.9385-1.4658-2.1733-1.4658-3.4917c0-2.7139,2.208-4.9219,4.9204-4.9219
			c1.5357,0,2.9092,0.7066,3.813,1.8111c0.9038-1.1045,2.2773-1.8111,3.8125-1.8111c2.7129,0,4.9209,2.208,4.9209,4.9219
			c0,1.3193-0.5176,2.5532-1.46,3.4907c-0.0234,0.0283-0.0488,0.0562-0.0752,0.0825l-6.4126,6.4082
			C30.5679,17.7983,30.2837,17.9067,29.9995,17.9067L29.9995,17.9067z M24.4722,9.6968l5.5273,5.5273l5.5342-5.5293
			c0.0342-0.0434,0.0713-0.0845,0.1113-0.1225c0.5586-0.524,0.8662-1.2242,0.8662-1.9727c0-1.4888-1.2099-2.6997-2.6992-2.6997
			s-2.7012,1.2109-2.7012,2.6997c0,0.6143-0.497,1.1113-1.1113,1.1113c-0.6143,0-1.1108-0.497-1.1108-1.1113
			c0-1.4888-1.2124-2.6997-2.7022-2.6997c-1.4888,0-2.6982,1.2109-2.6982,2.6997c0,0.7476,0.3091,1.4487,0.8711,1.9736
			C24.4009,9.6123,24.4375,9.6538,24.4722,9.6968L24.4722,9.6968z"/>
	</g>
</g>
</svg>
