<?xml version="1.0" encoding="utf-8"?>
<!-- Generator: Adobe Illustrator 17.1.0, SVG Export Plug-In . SVG Version: 6.00 Build 0)  -->
<!DOCTYPE svg PUBLIC "-//W3C//DTD SVG 1.1//EN" "http://www.w3.org/Graphics/SVG/1.1/DTD/svg11.dtd">
<svg version="1.1" id="bed-love-couple" xmlns="http://www.w3.org/2000/svg" xmlns:xlink="http://www.w3.org/1999/xlink" x="0px"
	 y="0px" viewBox="0 0 59.9995 49.6758" enable-background="new 0 0 59.9995 49.6758" xml:space="preserve">
<g id="bed-love-couple-color">
	<g>
		<path fill="none" d="M34.9995,16.6768"/>
	</g>
	<g>
		<path fill="none" d="M58.9995,16.6768"/>
	</g>
	<path fill="#F16061" d="M1.29,40.6758l1.2569-1.6143c4.1338-5.3095,15.4223-9.0185,27.4526-9.0185
		c4.6748,0,9.3594,0.6855,13.9229,2.0371l0.2158,0.0644l0.1621,0.1455l0.2051-0.0341l0.2285,0.0713
		c5.2168,1.6455,10.0156,4.1875,12.5224,6.6328l1.7588,1.7158H1.29z"/>
	<path fill="#FDE3E3" d="M38.3452,25.6455c1.5918,0.2774,2.9854,1.1133,3.9229,2.3555c0.6552,0.8681,1.0253,1.8613,1.0976,2.8818
		c-3.5654-0.9853-7.499-1.6523-11.5967-1.8037C32.7261,26.6455,35.4614,25.1475,38.3452,25.6455z"/>
	<path fill="#FDE3E3" d="M21.0063,25.627c1.6856-0.1905,3.3106,0.1484,4.5723,0.9472c0.7305,0.4619,1.5977,1.2578,1.9902,2.5215
		c-4.2636,0.168-8.3086,0.7715-11.9209,1.7168C15.8628,28.1836,18.0806,25.9531,21.0063,25.627z"/>
	<g>
		<path fill="#F16061" d="M30.0317,12.8828c-0.4228-0.9648-1.3857-1.6406-2.5058-1.6406c-1.5078,0-2.5938,1.248-2.7325,2.7334
			c0,0-0.0732,0.3682,0.0889,1.0322c0.2217,0.9053,0.7412,1.7071,1.4404,2.3213l3.709,3.1943l3.6446-3.1943
			c0.7002-0.6142,1.2197-1.416,1.4404-2.3213c0.1621-0.664,0.0889-1.0322,0.0889-1.0322c-0.1368-1.4854-1.2237-2.7334-2.7325-2.7334
			C31.353,11.2422,30.4526,11.918,30.0317,12.8828z"/>
		<path fill="#F16061" d="M38.2837,2.6406C37.8618,1.6738,36.8989,1,35.7788,1c-1.5088,0-2.5957,1.2461-2.7324,2.7324
			c0,0-0.0733,0.3701,0.0898,1.0332c0.2207,0.9043,0.7393,1.7071,1.4395,2.3203l3.708,3.1954l3.6455-3.1963
			c0.6992-0.6123,1.2187-1.4151,1.4404-2.3194c0.1612-0.6631,0.0889-1.0332,0.0889-1.0332C43.3218,2.2461,42.2358,1,40.7261,1
			C39.6059,1,38.7056,1.6738,38.2837,2.6406z"/>
	</g>
</g>
<g id="bed-love-couple-line">
	<g>
		<path fill="#393939" d="M1,49.6758c-0.5527,0-1-0.4473-1-1v-35.999c0-0.5523,0.4473-1,1-1s1,0.4477,1,1v35.999
			C2,49.2285,1.5527,49.6758,1,49.6758L1,49.6758z"/>
	</g>
	<g>
		<path fill="#393939" d="M58.9995,49.6758c-0.5527,0-1-0.4473-1-1v-35.999c0-0.5523,0.4473-1,1-1c0.5527,0,1,0.4477,1,1v35.999
			C59.9995,49.2285,59.5522,49.6758,58.9995,49.6758L58.9995,49.6758z"/>
	</g>
	<g>
		<path fill="#393939" d="M58.9995,41.6758H2c-0.5527,0-1-0.4473-1-1s0.4473-1,1-1h56.9995c0.5527,0,1,0.4473,1,1
			S59.5522,41.6758,58.9995,41.6758L58.9995,41.6758z"/>
	</g>
	<g>
		<path fill="#393939" d="M13.9995,30.6758H1c-0.5527,0-1-0.4473-1-1s0.4473-1,1-1h12.9995c0.5527,0,1,0.4473,1,1
			S14.5522,30.6758,13.9995,30.6758L13.9995,30.6758z"/>
	</g>
	<g>
		<path fill="#393939" d="M57.9995,30.6758h-13c-0.5527,0-1-0.4473-1-1s0.4473-1,1-1h13c0.5527,0,1,0.4473,1,1
			S58.5522,30.6758,57.9995,30.6758L57.9995,30.6758z"/>
	</g>
	<g>
		<path fill="#393939" d="M24.9995,17.6768H1c-0.5527,0-1-0.4483-1-1c0-0.5523,0.4473-1,1-1h23.9995c0.5527,0,1,0.4477,1,1
			C25.9995,17.2285,25.5522,17.6768,24.9995,17.6768L24.9995,17.6768z"/>
	</g>
	<g>
		<path fill="#393939" d="M58.9995,17.6768h-24c-0.5527,0-1-0.4483-1-1c0-0.5523,0.4473-1,1-1h24c0.5527,0,1,0.4477,1,1
			C59.9995,17.2285,59.5522,17.6768,58.9995,17.6768L58.9995,17.6768z"/>
	</g>
	<g>
		<path fill="#393939" d="M1,44.043c-0.5527,0-1-0.4473-1-1c0-7.5889,13.7378-14,29.9995-14c15.9785,0,30,8.0918,30,12.9824
			c0,0.5527-0.4473,1-1,1c-0.5527,0-1-0.4473-1-1c0-3.0957-12.416-10.9824-28-10.9824C13.9741,31.043,2,37.3789,2,43.043
			C2,43.5957,1.5527,44.043,1,44.043L1,44.043z"/>
	</g>
	<g>
		<path fill="#393939" d="M14.6626,32.9102c-0.5029,0-0.9356-0.378-0.9932-0.8897c-0.4599-4.1338,2.7324-7.8926,7.1162-8.3808
			c2.1221-0.2383,4.1709,0.2334,5.7676,1.3261c1.6719,1.1436,2.7158,2.8789,2.9404,4.8858
			c0.0606,0.5488-0.3339,1.0439-0.8828,1.1054c-0.5498,0.0625-1.0439-0.3339-1.1054-0.8828
			c-0.1602-1.4414-0.8799-2.6367-2.0811-3.457c-1.2021-0.8223-2.7754-1.1709-4.417-0.9902
			c-3.2881,0.3662-5.6875,3.1347-5.3496,6.1728c0.0606,0.5488-0.335,1.043-0.8838,1.1045
			C14.7368,32.9082,14.6997,32.9102,14.6626,32.9102L14.6626,32.9102z"/>
	</g>
	<g>
		<path fill="#393939" d="M44.3755,32.9629c-0.0567,0-0.1143-0.0049-0.1729-0.0146c-0.5439-0.0948-0.9082-0.6124-0.8135-1.1573
			c0.2452-1.4072-0.1289-2.8027-1.0546-3.9306c-0.9395-1.1436-2.3565-1.9307-3.9893-2.2144
			c-3.2627-0.5688-6.3359,1.4224-6.8603,4.4341c-0.0948,0.543-0.6143,0.9053-1.1563,0.8135
			c-0.5449-0.0948-0.9092-0.6123-0.8145-1.1573c0.7139-4.0986,4.8418-6.8154,9.1739-6.0605
			c2.1045,0.3662,3.9482,1.4014,5.1914,2.916c1.3017,1.584,1.8271,3.5527,1.4805,5.543
			C45.2749,32.6211,44.853,32.9629,44.3755,32.9629L44.3755,32.9629z"/>
	</g>
	<g>
		<path fill="#393939" d="M58.4995,45.375H1.5c-0.5527,0-1-0.4473-1-1s0.4473-1,1-1h56.9995c0.5527,0,1,0.4473,1,1
			S59.0522,45.375,58.4995,45.375L58.4995,45.375z"/>
	</g>
	<g>
		<g>
			<path fill="#393939" d="M30.0317,21.5234c-0.2324,0-0.4648-0.081-0.6523-0.2426l-3.709-3.1939
				c-0.8887-0.7807-1.4951-1.7612-1.7598-2.8413c-0.1748-0.7178-0.1386-1.1997-0.1093-1.3989
				c0.2089-2.0576,1.8046-3.6045,3.7246-3.6045c0.9384,0,1.8213,0.3525,2.4941,0.9565c0.6582-0.6088,1.5186-0.9565,2.4531-0.9565
				c1.9229,0,3.5186,1.5474,3.7246,3.605c0.0303,0.1997,0.0655,0.6816-0.1093,1.3979c-0.2637,1.0806-0.8701,2.0611-1.753,2.836
				l-3.6445,3.1938C30.5024,21.4409,30.2671,21.5234,30.0317,21.5234L30.0317,21.5234z M25.7749,14.1675
				c0.0019,0-0.0147,0.2212,0.0791,0.603c0.166,0.6797,0.5566,1.3047,1.1289,1.8071l3.043,2.6207l2.9912-2.6211
				c0.5722-0.502,0.9619-1.1265,1.1279-1.8062c0.0996-0.4082,0.0742-0.6333,0.0733-0.6352
				c-0.0918-0.9756-0.7149-1.8936-1.7452-1.8936c-0.6709,0-1.2402,0.3892-1.5244,1.0405c-0.1592,0.3643-0.5185,0.5996-0.916,0.6001
				h-0.001c-0.3974,0-0.7568-0.2348-0.916-0.5986c-0.2773-0.6328-0.9014-1.042-1.5898-1.042c-1.0284,0-1.6524,0.9189-1.7364,1.8262
				c-0.0039,0.0337-0.0087,0.0669-0.0146,0.1001C25.7749,14.168,25.7749,14.1675,25.7749,14.1675L25.7749,14.1675z"/>
		</g>
		<g>
			<path fill="#393939" d="M38.2837,11.2813c-0.2324,0-0.4649-0.0806-0.6524-0.2427l-3.708-3.1953
				c-0.8886-0.7779-1.4941-1.7583-1.7588-2.8404c-0.1757-0.7153-0.1406-1.1987-0.1103-1.3984C32.2602,1.5469,33.8559,0,35.7788,0
				c0.9395,0,1.8223,0.3521,2.4941,0.9561C38.9311,0.3477,39.7915,0,40.7261,0c1.9238,0,3.5185,1.5474,3.7246,3.6055
				c0.0293,0.1982,0.0644,0.6802-0.1094,1.3965c-0.2656,1.0835-0.8721,2.0634-1.7529,2.8354l-3.6455,3.1958
				C38.7544,11.1987,38.519,11.2813,38.2837,11.2813L38.2837,11.2813z M34.0278,3.9233c0.003,0-0.0146,0.2222,0.0791,0.6036
				c0.167,0.6826,0.5567,1.3066,1.128,1.8066l3.0429,2.6231L41.27,6.333c0.5713-0.5005,0.9619-1.1245,1.1279-1.8056
				c0.0996-0.4078,0.0733-0.6348,0.0733-0.6373C42.3794,2.9175,41.7563,2,40.7261,2c-0.6709,0-1.2412,0.3892-1.5254,1.0405
				c-0.1592,0.3643-0.5196,0.6001-0.917,0.6001c-0.3975,0-0.7578-0.2358-0.917-0.6001C37.0913,2.4087,36.4683,2,35.7788,2
				c-1.0303,0-1.6533,0.9175-1.7363,1.8242c-0.003,0.0332-0.0078,0.0669-0.0147,0.1001
				C34.0278,3.9238,34.0278,3.9233,34.0278,3.9233L34.0278,3.9233z"/>
		</g>
	</g>
</g>
</svg>
