<?xml version="1.0" encoding="utf-8"?>
<!-- Generator: Adobe Illustrator 17.1.0, SVG Export Plug-In . SVG Version: 6.00 Build 0)  -->
<!DOCTYPE svg PUBLIC "-//W3C//DTD SVG 1.1//EN" "http://www.w3.org/Graphics/SVG/1.1/DTD/svg11.dtd">
<svg version="1.1" id="champagne-glass" xmlns="http://www.w3.org/2000/svg" xmlns:xlink="http://www.w3.org/1999/xlink" x="0px"
	 y="0px" viewBox="0 0 23.8632 60" enable-background="new 0 0 23.8632 60" xml:space="preserve">
<g id="champagne-glass-color">
	<rect x="2" y="2" fill="#FDE3E3" width="19.8632" height="10.7158"/>
	<path fill="#F16061" d="M11.9316,44.7275C5.8759,44.7275,1,36.7539,1,30.1514V13.7158h21.8632v16.4356
		C22.8632,36.7539,17.9873,44.7275,11.9316,44.7275L11.9316,44.7275z"/>
</g>
<g id="champagne-glass-line">
	<g>
		<path fill="#393939" d="M11.9316,59.5957c-0.5527,0-1-0.4473-1-1V45.2354c0-0.5528,0.4473-1,1-1c0.5527,0,1,0.4472,1,1v13.3603
			C12.9316,59.1484,12.4843,59.5957,11.9316,59.5957L11.9316,59.5957z"/>
	</g>
	<g>
		<polygon fill="#393939" points="22.7392,14.7158 1.124,14.7158 1.124,12.7158 22.7392,12.7158 22.7392,14.7158 		"/>
	</g>
	<g>
		<path fill="#393939" d="M11.9316,45.7275C5.2119,45.7275,0,37.3545,0,30.1514V1c0-0.5527,0.4472-1,1-1h21.8632
			c0.5528,0,1,0.4473,1,1v29.1514C23.8632,37.3545,18.6513,45.7275,11.9316,45.7275L11.9316,45.7275z M2,2v28.1514
			c0,6.1113,4.583,13.5761,9.9316,13.5761c5.3486,0,9.9316-7.4648,9.9316-13.5761V2H2L2,2z"/>
	</g>
	<g>
		<circle fill="#393939" cx="11.9531" cy="29.668" r="1.0547"/>
		<circle fill="#393939" cx="9.1191" cy="37.7417" r="1.0542"/>
		<circle fill="#393939" cx="17.2255" cy="27.5586" r="1.0547"/>
		<circle fill="#393939" cx="11.4921" cy="19.3203" r="1.0547"/>
		<circle fill="#393939" cx="14.6543" cy="36.6875" r="1.0547"/>
		<circle fill="#393939" cx="7.0097" cy="24.2246" r="1.0547"/>
	</g>
	<g>
		<path fill="#393939" d="M21.6484,60H2.2148c-0.5527,0-1-0.4473-1-1c0-0.5527,0.4473-1,1-1h19.4336c0.5527,0,1,0.4473,1,1
			C22.6484,59.5527,22.2011,60,21.6484,60L21.6484,60z"/>
	</g>
</g>
</svg>
