<?xml version="1.0" encoding="utf-8"?>
<!-- Generator: Adobe Illustrator 17.1.0, SVG Export Plug-In . SVG Version: 6.00 Build 0)  -->
<!DOCTYPE svg PUBLIC "-//W3C//DTD SVG 1.1//EN" "http://www.w3.org/Graphics/SVG/1.1/DTD/svg11.dtd">
<svg version="1.1" id="cupcake-heart" xmlns="http://www.w3.org/2000/svg" xmlns:xlink="http://www.w3.org/1999/xlink" x="0px"
	 y="0px" viewBox="0 0 55.6977 60" enable-background="new 0 0 55.6977 60" xml:space="preserve">
<g id="cupcake-heart-color">
	<path fill="#FFFFFF" d="M43.9712,43.8418c-2.708,0-5.4825-1.2656-7.2432-3.3047c-2.2393-2.583-5.4746-4.0664-8.8745-4.0664
		c-3.4131,0-6.648,1.4834-8.8779,4.0674c-1.7652,2.0371-4.5391,3.3037-7.2417,3.3037c-5.2901,0-9.5923-4.2988-9.5923-9.582
		c0-0.5225,0.1513-1.6534,0.2934-2.4493c1.6314-8.978,8.0743-16.4643,16.8111-19.5351c0.0063-0.002,0.0117-0.0049,0.018-0.0073
		l7.8282,7.8281c0.2089,0.209,0.4829,0.314,0.7568,0.314c0.2739,0,0.5479-0.105,0.7568-0.314l7.8262-7.8223
		c0.0078,0.003,0.0156,0.0069,0.0244,0.0098c8.6446,3.0459,15.083,10.5112,16.7979,19.4517
		c0.123,0.7441,0.3027,2.0605,0.3027,2.5244C53.5571,39.543,49.2563,43.8418,43.9712,43.8418z"/>
	<path fill="#F16061" d="M14.2973,58.9287c-1.0258,0-2.0107-0.8242-2.2426-1.8779L8.1494,44.4307l1.7295,0.3076
		c0.6577,0.1172,1.2641,0.1738,1.855,0.1738c3.0039,0,6.0883-1.4082,8.0517-3.6738c2.0264-2.3487,4.9668-3.6963,8.0679-3.6963
		c3.0894,0,6.0298,1.3467,8.0649,3.6953c1.9571,2.2676,5.042,3.6748,8.0528,3.6748c0.9004,0,1.8271-0.1269,2.7539-0.375
		l2.0478-0.5508l-5.1474,13.1494c-0.2041,0.9727-1.2198,1.793-2.2198,1.793H14.2973z"/>
	<path fill="#F16061" d="M27.8491,6.4224c0-2.9561-2.3965-5.3516-5.3535-5.3516c-2.9566,0-5.353,2.3955-5.353,5.3516
		c0,1.5493,0.6689,2.9316,1.7197,3.9135l-0.0137,0.003l9.0005,9.0005l9.0049-9.0005c-0.0049-0.003-0.0078-0.003-0.0108-0.0064
		c1.0489-0.9814,1.7129-2.3608,1.7129-3.9101c0-2.9561-2.3935-5.3516-5.3535-5.3516C30.2475,1.0708,27.8491,3.4663,27.8491,6.4224z"
		/>
</g>
<g id="cupcake-heart-line">
	<g>
		<path fill="#393939" d="M41.4057,60H14.2973c-1.5161,0-2.9516-1.1602-3.2675-2.6406l-3.9854-12.876
			c-0.1738-0.5645,0.1421-1.1641,0.7066-1.3389c0.5649-0.1738,1.165,0.1416,1.3403,0.7071l4.0088,12.9687
			c0.1299,0.5879,0.688,1.0381,1.1972,1.0381h27.1084c0.5,0,1.0694-0.458,1.1719-0.9424c0.0117-0.0586,0.0293-0.1142,0.0498-0.1699
			l5.0791-12.9688c0.2158-0.5498,0.836-0.8261,1.3867-0.6064c0.5508,0.2158,0.8223,0.8369,0.6065,1.3867l-5.0488,12.8955
			C44.2993,58.8887,42.894,60,41.4057,60L41.4057,60z"/>
	</g>
	<g>
		<path fill="none" d="M36.812,11.2734"/>
	</g>
	<g>
		<path fill="#393939" d="M9.29,34.6387c-0.5469,0-1.0132-0.417-1.0644-0.9717c-0.5489-5.8618,2.9853-10.7666,6.7192-12.1216
			c0.5562-0.1968,1.1699,0.0859,1.3716,0.6421c0.2007,0.5552-0.0855,1.1699-0.6421,1.3716
			c-2.9043,1.0542-5.7632,5.1421-5.3179,9.9087c0.0557,0.5888-0.376,1.1113-0.9658,1.166
			C9.3569,34.6367,9.3237,34.6387,9.29,34.6387L9.29,34.6387z"/>
	</g>
	<path fill="#393939" d="M55.3628,31.3613c-1.8008-9.3999-8.3877-17.2734-17.294-20.7617c1.0098-1.1684,1.5576-2.6269,1.5576-4.1772
		C39.6264,2.8809,36.7446,0,33.2026,0c-2.2314,0-4.2012,1.144-5.3535,2.8755C26.6968,1.144,24.727,0,22.4956,0
		c-3.542,0-6.4238,2.8809-6.4238,6.4224c0,1.5463,0.5478,3.0024,1.5556,4.1709C8.6289,14.1079,2.0405,22.0088,0.3286,31.4316
		C0.206,32.1123,0,33.4746,0,34.2598c0,6.4638,5.2637,11.7226,11.7339,11.7226c3.3047,0,6.7011-1.5488,8.8613-4.0439
		c1.8232-2.1143,4.4687-3.3262,7.2583-3.3262c2.7788,0,5.4243,1.2129,7.2563,3.3262c2.1534,2.4951,5.5489,4.0439,8.8614,4.0439
		c6.4668,0,11.7265-5.2588,11.7265-11.7226C55.6977,33.415,55.3706,31.4102,55.3628,31.3613z M22.4956,2.1416
		c2.3613,0,4.2827,1.9209,4.2827,4.2808c0,0.5918,0.479,1.0703,1.0708,1.0703c0.5918,0,1.0703-0.4785,1.0703-1.0703
		c0-2.3599,1.9219-4.2808,4.2832-4.2808c2.3604,0,4.2822,1.9209,4.2822,4.2808c0,1.1884-0.4873,2.2988-1.374,3.1284
		c-0.0478,0.0449-0.0898,0.0937-0.1289,0.145l-8.1328,8.1294l-8.126-8.126c-0.0381-0.0513-0.0815-0.1006-0.1299-0.1455
		c-0.8896-0.8325-1.3798-1.9438-1.3798-3.1313C18.2134,4.0625,20.1347,2.1416,22.4956,2.1416z M43.9712,43.8418
		c-2.708,0-5.4825-1.2656-7.2432-3.3047c-2.2393-2.583-5.4746-4.0664-8.8745-4.0664c-3.4131,0-6.648,1.4834-8.8779,4.0674
		c-1.7652,2.0371-4.5391,3.3037-7.2417,3.3037c-5.2901,0-9.5923-4.2988-9.5923-9.582c0-0.5225,0.1513-1.6534,0.2934-2.4493
		c1.6314-8.978,8.0743-16.4643,16.8111-19.5351c0.0063-0.002,0.0117-0.0049,0.018-0.0073l7.8282,7.8281
		c0.2089,0.209,0.4829,0.314,0.7568,0.314c0.2739,0,0.5479-0.105,0.7568-0.314l7.8262-7.8223
		c0.0078,0.003,0.0156,0.0069,0.0244,0.0098c8.6446,3.0459,15.083,10.5112,16.7979,19.4517
		c0.123,0.7441,0.3027,2.0605,0.3027,2.5244C53.5571,39.543,49.2563,43.8418,43.9712,43.8418z"/>
</g>
</svg>
