<?xml version="1.0" encoding="utf-8"?>
<!-- Generator: Adobe Illustrator 17.1.0, SVG Export Plug-In . SVG Version: 6.00 Build 0)  -->
<!DOCTYPE svg PUBLIC "-//W3C//DTD SVG 1.1//EN" "http://www.w3.org/Graphics/SVG/1.1/DTD/svg11.dtd">
<svg version="1.1" id="door-tag-heart" xmlns="http://www.w3.org/2000/svg" xmlns:xlink="http://www.w3.org/1999/xlink" x="0px"
	 y="0px" viewBox="0 0 28 60" enable-background="new 0 0 28 60" xml:space="preserve">
<g id="door-tag-heart-color">
	<path fill="#FDE3E3" d="M13.7012,1C6.8125,1,1,6.5884,1,13.4731v1.356C1,16.8555,2.8711,19,4.8984,19h0.1563
		C7.0859,19,9,16.8555,9,14.8291v-1.356C9,10.7271,10.9531,9,13.7012,9h0.0527C16.5,9,19,10.7271,19,13.4731v7.5777
		C19,23.7852,16.5117,27,13.7793,27H6.1758C3.4434,27,1,28.2158,1,30.9492V54.75C1,56.8203,2.9063,59,4.9766,59h17.5
		C24.5469,59,27,56.8203,27,54.75V13.4731C27,6.5884,20.6426,1,13.7539,1H13.7012z"/>
	<path fill="#F16061" d="M14,41.25c0-2.208-1.791-3.998-4-3.998s-4,1.79-4,3.998c0,1.1582,0.5,2.1904,1.2852,2.9238l-0.0098,0.002
		L14,50.9004l6.7285-6.7246c-0.0039-0.002-0.0058-0.002-0.0078-0.0039C21.5039,43.4385,22,42.4082,22,41.25
		c0-2.208-1.7881-3.998-4-3.998C15.792,37.252,14,39.042,14,41.25z"/>
</g>
<g id="door-tag-heart-line">
	<g>
		<path fill="#393939" d="M22.4766,60h-17.5C2.4189,60,0,57.4492,0,54.75V30.9492C0,27.9429,2.4238,26,6.1758,26h7.6035
			C15.9531,26,18,23.2119,18,21.0508v-7.5777C18,11.2173,15.8125,10,13.7539,10C11.418,10,10,11.3311,10,13.4731v1.356
			C10,17.4868,7.5967,20,5.0547,20H4.8984C2.3809,20,0,17.4868,0,14.8291v-1.356C0,6.0439,6.1465,0,13.7012,0
			C21.3428,0,28,6.2959,28,13.4731V54.75C28,57.3008,25.1611,60,22.4766,60L22.4766,60z M6.1758,28C5.1963,28,2,28.2129,2,30.9492
			V54.75C2,56.3301,3.5303,58,4.9766,58h17.5C24.0576,58,26,56.208,26,54.75V13.4731C26,7.3613,20.2773,2,13.7539,2
			C7.3584,2,2,7.2539,2,13.4731v1.356C2,16.3701,3.4902,18,4.8984,18h0.1563C6.4863,18,8,16.3701,8,14.8291v-1.356
			C8,10.2505,10.3447,8,13.7012,8C17.3145,8,20,10.353,20,13.4731v7.5777C20,24.1982,17.2256,28,13.7793,28H6.1758L6.1758,28z"/>
	</g>
	<g>
		<path fill="#393939" d="M14,51.9004c-0.2559,0-0.5117-0.0977-0.707-0.293l-6.7246-6.7246
			c-0.0254-0.0254-0.0498-0.0527-0.0723-0.0801C5.5303,43.8477,5,42.5928,5,41.25c0-2.7559,2.2432-4.998,5-4.998
			c1.6338,0,3.0869,0.7871,4,2.0019c0.9131-1.2148,2.3662-2.0019,4-2.0019c2.7568,0,5,2.2421,5,4.998
			c0,1.3437-0.5283,2.5986-1.4912,3.5508c-0.0225,0.0293-0.0469,0.0566-0.0733,0.082l-6.7285,6.7246
			C14.5117,51.8027,14.2559,51.9004,14,51.9004L14,51.9004z M8.0771,43.5635L14,49.4863l5.9287-5.9248
			c0.0322-0.042,0.0693-0.083,0.1084-0.1201C20.6582,42.8604,21,42.082,21,41.25c0-1.6533-1.3457-2.998-3-2.998
			c-1.6543,0-3,1.3447-3,2.998c0,0.5527-0.4473,1-1,1c-0.5527,0-1-0.4473-1-1c0-1.6533-1.3457-2.998-3-2.998
			c-1.6543,0-3,1.3447-3,2.998c0,0.8311,0.3438,1.6104,0.9678,2.1934C8.0078,43.4805,8.0449,43.5215,8.0771,43.5635L8.0771,43.5635z
			"/>
	</g>
</g>
</svg>
