<?xml version="1.0" encoding="utf-8"?>
<!-- Generator: Adobe Illustrator 17.1.0, SVG Export Plug-In . SVG Version: 6.00 Build 0)  -->
<!DOCTYPE svg PUBLIC "-//W3C//DTD SVG 1.1//EN" "http://www.w3.org/Graphics/SVG/1.1/DTD/svg11.dtd">
<svg version="1.1" id="eye-heart" xmlns="http://www.w3.org/2000/svg" xmlns:xlink="http://www.w3.org/1999/xlink" x="0px" y="0px"
	 viewBox="0 0 60 40" enable-background="new 0 0 60 40" xml:space="preserve">
<g id="eye-heart-color">
	<path fill="#FFFFFF" d="M59,20c-2.9629,6.4629-13.7158,19-29,19S3.9629,26.4629,1,20C3.9629,13.5371,14.7158,1,30,1
		S56.0371,13.5371,59,20z"/>
	<circle fill="#F16061" cx="30.0938" cy="19.9844" r="14"/>
	<path fill="#FFFFFF" d="M30,17.8213c0-2.4844-2.0137-4.4981-4.5-4.4981c-2.4844,0-4.5,2.0137-4.5,4.4981
		c0,1.3008,0.5625,2.4648,1.4453,3.2891l-0.0107,0.0019L30,28.6768l7.5674-7.5645c0-0.0019-0.0059-0.0019-0.0078-0.0049
		C38.4404,20.2842,39,19.1221,39,17.8213c0-2.4844-2.0137-4.4981-4.5-4.4981C32.0146,13.3232,30,15.3369,30,17.8213z"/>
</g>
<g id="eye-heart-line">
	<g>
		<path fill="#393939" d="M30,40C14.751,40,3.5625,27.9883,0.0908,20.417c-0.1211-0.2647-0.1211-0.5693,0-0.834
			C3.5625,12.0117,14.751,0,30,0s26.4375,12.0117,29.9092,19.583c0.1211,0.2647,0.1211,0.5693,0,0.834
			C56.4375,27.9883,45.249,40,30,40L30,40z M2.1074,20C5.1396,26.1465,15.4902,38,30,38s24.8604-11.8535,27.8926-18
			C54.8604,13.8535,44.5098,2,30,2S5.1396,13.8535,2.1074,20L2.1074,20z"/>
	</g>
	<g>
		<path fill="#393939" d="M30.0938,34.9844c-8.2715,0-15-6.7285-15-15s6.7285-15.001,15-15.001c8.2714,0,15,6.7295,15,15.001
			S38.3652,34.9844,30.0938,34.9844L30.0938,34.9844z M30.0938,6.9834c-7.168,0-13,5.832-13,13.001c0,7.1679,5.832,13,13,13
			c7.1679,0,13-5.8321,13-13C43.0938,12.8154,37.2617,6.9834,30.0938,6.9834L30.0938,6.9834z"/>
	</g>
	<g>
		<path fill="#393939" d="M30,29.6768c-0.2559,0-0.5117-0.0977-0.707-0.293l-7.5655-7.5645
			c-0.0263-0.0263-0.0517-0.0547-0.0752-0.0839C20.5859,20.6865,20,19.3018,20,17.8213c0-3.0313,2.4678-5.4981,5.5-5.4981
			c1.8584,0,3.5039,0.9258,4.5,2.3399c0.9961-1.4141,2.6416-2.3399,4.5-2.3399c3.0322,0,5.5,2.4668,5.5,5.4981
			c0,1.4814-0.585,2.8662-1.6504,3.9141c-0.0234,0.0292-0.0488,0.0576-0.0752,0.0839l-7.5674,7.5645
			C30.5117,29.5791,30.2559,29.6768,30,29.6768L30,29.6768z M23.2412,20.5039L30,27.2627l6.7637-6.7607
			c0.0342-0.045,0.0713-0.086,0.1133-0.125C37.6016,19.7002,38,18.792,38,17.8213c0-1.9287-1.5703-3.4981-3.5-3.4981
			c-1.9297,0-3.5,1.5694-3.5,3.4981c0,0.5527-0.4473,1-1,1c-0.5527,0-1-0.4473-1-1c0-1.9287-1.5703-3.4981-3.5-3.4981
			c-1.9297,0-3.5,1.5694-3.5,3.4981c0,0.9707,0.4004,1.8789,1.1279,2.5586C23.1689,20.418,23.207,20.46,23.2412,20.5039
			L23.2412,20.5039z"/>
	</g>
</g>
</svg>
