<?xml version="1.0" encoding="utf-8"?>
<!-- Generator: Adobe Illustrator 17.1.0, SVG Export Plug-In . SVG Version: 6.00 Build 0)  -->
<!DOCTYPE svg PUBLIC "-//W3C//DTD SVG 1.1//EN" "http://www.w3.org/Graphics/SVG/1.1/DTD/svg11.dtd">
<svg version="1.1" id="flowers" xmlns="http://www.w3.org/2000/svg" xmlns:xlink="http://www.w3.org/1999/xlink" x="0px" y="0px"
	 viewBox="0 0 41.3632 60" enable-background="new 0 0 41.3632 60" xml:space="preserve">
<g id="flowers-colors">
	<polygon fill="#FDE3E3" points="38.1816,24.3008 20.6816,59 3.1816,24.3008 	"/>
	<path fill="#F16061" d="M6.207,14.9102c-0.2832-0.7383-0.624-1.4004-1.0117-1.9688l-0.334-0.4922l0.3183-0.6133l1.9649-4.4043
		l1.9512,4.293c0.0195,0.0254,0.0371,0.0527,0.0537,0.0801l0.3379,0.5547l-0.3692,0.5342
		c-0.4004,0.5791-0.7519,1.2578-1.0439,2.0175l-0.9336,2.4248L6.207,14.9102z"/>
	<path fill="#F16061" d="M5.8925,20.5684c-1.6679-0.3799-4.5185-2.0704-4.8584-9.125l-0.0839-1.75L2.5,10.5107
		c1.5927,0.8409,4.3105,3.1309,4.6132,9.0303l0.0674,1.3203L5.8925,20.5684z"/>
	<path fill="#F16061" d="M7.1679,19.5391c0.3028-5.9219,3.0225-8.2041,4.6172-9.0371l1.5488-0.8086l-0.0878,1.7451
		c-0.1749,3.5068-0.9766,6.0732-2.3848,7.6299c-0.8711,0.9628-1.8223,1.3447-2.4668,1.4951l-1.294,0.3017L7.1679,19.5391z"/>
	<path fill="#F16061" d="M33.29,14.9111c-0.2842-0.7402-0.625-1.4033-1.0117-1.9707l-0.335-0.4912l0.3194-0.6152l1.9628-4.4024
		l1.9512,4.293c0.0195,0.0264,0.0371,0.0527,0.0547,0.0811l0.3369,0.5537l-0.3681,0.5342c-0.4004,0.58-0.751,1.2587-1.043,2.0166
		l-0.9336,2.4257L33.29,14.9111z"/>
	<path fill="#F16061" d="M32.9755,20.5684c-1.6689-0.3799-4.5185-2.0704-4.8584-9.125l-0.0839-1.75l1.5498,0.8173
		c1.5927,0.8409,4.3105,3.1319,4.6132,9.0303l0.0674,1.3203L32.9755,20.5684z"/>
	<path fill="#F16061" d="M34.2509,19.5391c0.3018-5.9219,3.0205-8.2032,4.6153-9.0362l1.5488-0.8095l-0.0869,1.7461
		c-0.1758,3.5058-0.9785,6.0722-2.3838,7.6289c-0.8721,0.9628-1.8223,1.3447-2.4668,1.4951l-1.2939,0.3017L34.2509,19.5391z"/>
	<path fill="#F16061" d="M19.748,8.4785c-0.2842-0.7402-0.625-1.4023-1.0117-1.9707l-0.334-0.4902l0.3174-0.6133L20.6845,1
		l1.9532,4.293c0.0185,0.0254,0.0361,0.0527,0.0527,0.08l0.3379,0.5547l-0.3701,0.5332c-0.4004,0.5791-0.751,1.2578-1.043,2.0176
		l-0.9336,2.4268L19.748,8.4785z"/>
	<path fill="#F16061" d="M19.4336,14.1357c-1.669-0.3798-4.5186-2.0712-4.8584-9.1259l-0.084-1.75l1.5498,0.8183
		c1.5927,0.8399,4.3105,3.1309,4.6133,9.0313l0.0673,1.3203L19.4336,14.1357z"/>
	<path fill="#F16061" d="M20.7089,13.1064c0.3018-5.9228,3.0215-8.2041,4.6163-9.0361l1.5488-0.8086l-0.0869,1.7451
		c-0.1758,3.5069-0.9785,6.0733-2.3838,7.628c-0.8721,0.9648-1.8242,1.3457-2.4688,1.4961l-1.292,0.3007L20.7089,13.1064z"/>
</g>
<g id="flowers-line">
	<g>
		<path fill="#393939" d="M20.6816,60c-0.377,0-0.7227-0.2129-0.8926-0.5498L2.289,24.751
			c-0.1562-0.3096-0.1406-0.6787,0.041-0.9746c0.1817-0.2959,0.5039-0.4756,0.8516-0.4756h35c0.3477,0,0.6699,0.1797,0.8516,0.4756
			c0.1816,0.2959,0.1972,0.665,0.041,0.9746l-17.5,34.6992C21.4043,59.7871,21.0586,60,20.6816,60L20.6816,60z M4.8066,25.3008
			l15.875,31.4785l15.875-31.4785H4.8066L4.8066,25.3008z"/>
	</g>
	<g>
		<path fill="#393939" d="M5.1425,12.917c-0.1357,0-0.2734-0.0274-0.4062-0.0869c-0.5039-0.2246-0.7305-0.8164-0.5059-1.3203
			l2.001-4.4854c0.1611-0.3603,0.5049-0.6406,0.9131-0.5928c0.3926,0,0.748,0.2295,0.9101,0.586l1.9932,4.3857
			c0.2285,0.5029,0.0068,1.0957-0.4971,1.3242c-0.5,0.2295-1.0957,0.0069-1.3232-0.4961L7.1523,9.8672l-1.0957,2.457
			C5.8906,12.6963,5.5254,12.917,5.1425,12.917L5.1425,12.917z"/>
	</g>
	<g>
		<path fill="#393939" d="M6.8037,21.6729C5.207,21.6729,0,20.8291,0,9.9658c0-0.291,0.1269-0.5674,0.3466-0.7568
			c0.2207-0.1904,0.5127-0.2725,0.7998-0.2324c0.2852,0.042,6.9942,1.1552,6.9942,11.6767c0,0.4863-0.3662,0.9043-0.8447,0.9883
			C7.2959,21.6416,7.1152,21.6729,6.8037,21.6729L6.8037,21.6729z M2.0332,11.3945c0.3076,6.3897,2.6855,7.8809,4.081,8.1983
			C5.8398,14.2344,3.498,12.168,2.0332,11.3945L2.0332,11.3945z"/>
	</g>
	<g>
		<path fill="#393939" d="M7.4785,21.6729c0,0,0,0-0.001,0c-0.3105,0-0.4922-0.0313-0.4922-0.0313
			c-0.4785-0.084-0.8447-0.502-0.8447-0.9883c0-10.5215,6.709-11.6347,6.9951-11.6767c0.2861-0.0401,0.5791,0.042,0.7998,0.2324
			c0.2207,0.1894,0.3467,0.4658,0.3467,0.7568c0,4.5196-0.9014,7.8076-2.6787,9.7735C10.0254,21.4844,8.1933,21.6729,7.4785,21.6729
			L7.4785,21.6729z M12.248,11.3887c-1.4678,0.7666-3.8066,2.8252-4.081,8.2011c0.5478-0.1279,1.2744-0.4414,1.9531-1.1923
			C11.3593,17.0273,12.0859,14.6201,12.248,11.3887L12.248,11.3887z"/>
	</g>
	<g>
		<path fill="#393939" d="M7.1406,25.0078c-0.5527,0-1-0.4473-1-1v-3.3545c0-0.5527,0.4473-1,1-1c0.5527,0,1,0.4473,1,1v3.3545
			C8.1406,24.5605,7.6933,25.0078,7.1406,25.0078L7.1406,25.0078z"/>
	</g>
	<g>
		<path fill="#393939" d="M32.2246,12.917c-0.1358,0-0.2735-0.0274-0.4063-0.0869c-0.5039-0.2246-0.7304-0.8164-0.5058-1.3203
			l2.0009-4.4854c0.1602-0.3594,0.5166-0.5918,0.9092-0.5928c0.002,0,0.0029,0,0.0039,0c0.3926,0,0.7481,0.2295,0.9102,0.587
			l1.9922,4.3847c0.2285,0.5029,0.0058,1.0957-0.4961,1.3242c-0.5049,0.2305-1.0967,0.0049-1.3242-0.4961l-1.0743-2.3632
			l-1.0957,2.456C32.9726,12.6963,32.6074,12.917,32.2246,12.917L32.2246,12.917z"/>
	</g>
	<g>
		<path fill="#393939" d="M33.8867,21.6729c-1.5957,0-6.8037-0.8438-6.8037-11.7071c0-0.291,0.1259-0.5674,0.3466-0.7568
			c0.2198-0.1904,0.5127-0.2725,0.7999-0.2324c0.2861,0.042,6.9941,1.1552,6.9941,11.6767c0,0.4863-0.3662,0.9043-0.8447,0.9883
			C34.3789,21.6416,34.1972,21.6729,33.8867,21.6729L33.8867,21.6729z M29.1162,11.3945c0.3076,6.3897,2.6845,7.8809,4.081,8.1983
			C32.9228,14.2344,30.582,12.168,29.1162,11.3945L29.1162,11.3945z"/>
	</g>
	<g>
		<path fill="#393939" d="M34.5605,21.6729L34.5605,21.6729c-0.3105,0-0.4922-0.0313-0.4922-0.0313
			c-0.4785-0.084-0.8447-0.502-0.8447-0.9883c0-10.5215,6.708-11.6347,6.9932-11.6767c0.2851-0.0401,0.58,0.042,0.7998,0.2324
			c0.2197,0.1894,0.3466,0.4658,0.3466,0.7568c0,4.5196-0.9003,7.8076-2.6777,9.7725
			C37.1074,21.4844,35.2754,21.6729,34.5605,21.6729L34.5605,21.6729z M39.3291,11.3887c-1.4678,0.7666-3.8057,2.8252-4.0791,8.2011
			c0.5468-0.1279,1.2734-0.4414,1.9511-1.1923C38.4404,17.0273,39.1679,14.6211,39.3291,11.3887L39.3291,11.3887z"/>
	</g>
	<g>
		<path fill="#393939" d="M34.2236,25.0078c-0.5518,0-1-0.4473-1-1v-3.3545c0-0.5527,0.4482-1,1-1c0.5518,0,1,0.4473,1,1v3.3545
			C35.2236,24.5605,34.7754,25.0078,34.2236,25.0078L34.2236,25.0078z"/>
	</g>
	<g>
		<path fill="#393939" d="M18.6836,6.4854c-0.1368,0-0.2754-0.0274-0.4073-0.087c-0.5049-0.2246-0.7314-0.8164-0.5058-1.3203
			l2.0009-4.4853C19.9316,0.2334,20.2871,0.001,20.6816,0c0,0,0.002,0,0.0029,0c0.3916,0,0.7481,0.2295,0.9102,0.5859l1.9941,4.3848
			c0.2295,0.5029,0.0069,1.0957-0.4961,1.3242c-0.5029,0.2295-1.0966,0.0059-1.3242-0.4961l-1.0752-2.3642l-1.0967,2.458
			C19.4306,6.2646,19.0654,6.4854,18.6836,6.4854L18.6836,6.4854z"/>
	</g>
	<g>
		<path fill="#393939" d="M20.3437,15.2402c-1.5957,0-6.8027-0.8437-6.8027-11.707c0-0.291,0.1269-0.5674,0.3467-0.7568
			c0.2197-0.1905,0.5146-0.2705,0.7998-0.2325c0.2851,0.042,6.9941,1.1553,6.9941,11.6768c0,0.4863-0.3652,0.9043-0.8447,0.9883
			C20.8369,15.209,20.6552,15.2402,20.3437,15.2402L20.3437,15.2402z M15.5742,4.9619c0.3076,6.3906,2.6855,7.8809,4.081,8.1983
			C19.3808,7.8018,17.039,5.7354,15.5742,4.9619L15.5742,4.9619z"/>
	</g>
	<g>
		<path fill="#393939" d="M21.0195,15.2402L21.0195,15.2402c-0.3115,0-0.4932-0.0312-0.4932-0.0312
			c-0.4785-0.084-0.8447-0.502-0.8447-0.9883c0-10.5215,6.709-11.6348,6.9941-11.6768c0.2872-0.039,0.5801,0.042,0.7998,0.2325
			c0.2198,0.1894,0.3467,0.4658,0.3467,0.7568c0,4.5186-0.9004,7.8066-2.6777,9.7725
			C23.5664,15.0518,21.7343,15.2402,21.0195,15.2402L21.0195,15.2402z M25.788,4.9561c-1.4677,0.7666-3.8056,2.8251-4.08,8.2011
			c0.5478-0.1279,1.2744-0.4414,1.9531-1.1924C24.8994,10.5947,25.6269,8.1875,25.788,4.9561L25.788,4.9561z"/>
	</g>
	<g>
		<path fill="#393939" d="M20.6816,25.0078c-0.5527,0-1-0.4473-1-1v-9.7871c0-0.5527,0.4473-1,1-1c0.5527,0,1,0.4473,1,1v9.7871
			C21.6816,24.5605,21.2343,25.0078,20.6816,25.0078L20.6816,25.0078z"/>
	</g>
</g>
</svg>
