<?xml version="1.0" encoding="utf-8"?>
<!-- Generator: Adobe Illustrator 17.1.0, SVG Export Plug-In . SVG Version: 6.00 Build 0)  -->
<!DOCTYPE svg PUBLIC "-//W3C//DTD SVG 1.1//EN" "http://www.w3.org/Graphics/SVG/1.1/DTD/svg11.dtd">
<svg version="1.1" id="giftbox" xmlns="http://www.w3.org/2000/svg" xmlns:xlink="http://www.w3.org/1999/xlink" x="0px" y="0px"
	 viewBox="0 0 59.9995 57.7427" enable-background="new 0 0 59.9995 57.7427" xml:space="preserve">
<g id="giftbox-color">
	<polygon fill="#FFFFFF" points="57.7788,23.6441 56.8979,23.6441 36.0913,23.6441 36.0913,15.9028 57.7788,15.9028 	"/>
	<rect x="27.6655" y="25.8653" fill="#F16061" width="6.6621" height="29.6567"/>
	<rect x="27.6655" y="15.9028" fill="#F16061" width="6.6621" height="7.7413"/>
	<polygon fill="#FFFFFF" points="2.2207,15.9028 25.9009,15.9028 25.9009,23.6441 5.0952,23.6441 2.2207,23.6441 	"/>
	<rect x="6.206" y="25.8653" fill="#FDE3E3" width="19.6949" height="29.6567"/>
	<rect x="36.0913" y="25.8653" fill="#FDE3E3" width="19.6963" height="29.6567"/>
	<g>
		<path fill="#F16061" d="M23.1977,7.9126c-1.5551-1.5552-4.0766-1.5547-5.6328,0.0015c-1.5561,1.5556-1.5561,4.0786-0.0019,5.6338
			c0.8174,0.8159,1.8974,1.1919,2.9658,1.1538l-0.0054,0.0088h9.4737l0.0019-9.4771c-0.0044,0.0015-0.0063,0.0029-0.0088,0.0029
			c0.0371-1.0678-0.3403-2.1435-1.1557-2.9594c-1.5552-1.5547-4.0752-1.5562-5.6348,0.0014
			C21.6445,3.834,21.6426,6.3574,23.1977,7.9126z"/>
		<path fill="#F16061" d="M36.8013,7.9126c1.5556-1.5552,4.0771-1.5547,5.6337,0.0015c1.5547,1.5556,1.5557,4.0786,0.002,5.6338
			c-0.8174,0.8159-1.8965,1.1919-2.9658,1.1538l0.0068,0.0088h-9.4736L30,5.2334c0.0054,0.0015,0.0054,0.0029,0.0078,0.0029
			c-0.0347-1.0678,0.3423-2.1435,1.1567-2.9594c1.5557-1.5547,4.0772-1.5562,5.6348,0.0014
			C38.354,3.834,38.3569,6.3574,36.8013,7.9126z"/>
	</g>
</g>
<g id="giftbox-line">
	<g>
		<g>
			<path fill="#393939" d="M56.8979,57.7427H5.0952c-0.6138,0-1.1103-0.4961-1.1103-1.1104V24.7544
				c0-0.6133,0.4965-1.1103,1.1103-1.1103h51.8027c0.6133,0,1.1104,0.497,1.1104,1.1103v31.8779
				C58.0083,57.2466,57.5112,57.7427,56.8979,57.7427L56.8979,57.7427z M6.206,55.522h49.5816V25.8653H6.206V55.522L6.206,55.522z"
				/>
		</g>
		<g>
			<path fill="#393939" d="M58.8891,25.8653H1.1103C0.4966,25.8653,0,25.3677,0,24.7544v-9.9619
				c0-0.6133,0.4966-1.1104,1.1103-1.1104h57.7788c0.6133,0,1.1104,0.4971,1.1104,1.1104v9.9619
				C59.9995,25.3677,59.5024,25.8653,58.8891,25.8653L58.8891,25.8653z M2.2207,23.6441h55.5581v-7.7413H2.2207V23.6441
				L2.2207,23.6441z"/>
		</g>
		<g>
			<polygon fill="#393939" points="28.1221,55.6362 25.9009,55.6362 25.9009,25.7505 28.1221,25.7505 28.1221,55.6362 			"/>
		</g>
		<g>
			<polygon fill="#393939" points="36.0913,55.6362 33.8706,55.6362 33.8706,25.7505 36.0913,25.7505 36.0913,55.6362 			"/>
		</g>
		<g>
			<polygon fill="#393939" points="28.1221,23.7588 25.9009,23.7588 25.9009,15.7886 28.1221,15.7886 28.1221,23.7588 			"/>
		</g>
		<g>
			<polygon fill="#393939" points="36.0913,23.7588 33.8706,23.7588 33.8706,15.7886 36.0913,15.7886 36.0913,23.7588 			"/>
		</g>
	</g>
	<g>
		<g>
			<path fill="#393939" d="M29.9971,15.8208h-9.4737c-0.04,0-0.0801-0.0024-0.1191-0.0068l-0.022,0.001
				c-1.3672,0-2.647-0.5264-3.6035-1.481c-1.9863-1.9878-1.9854-5.2192,0.001-7.2051c1.0996-1.0996,2.6494-1.6323,4.1762-1.4609
				c-0.1669-1.4878,0.3199-3.0357,1.4585-4.1748C23.3789,0.5303,24.6582,0,26.0181,0c1.3608,0,2.6396,0.5298,3.6015,1.4917
				c0.9673,0.9678,1.4912,2.2495,1.4834,3.6245c0.0039,0.0386,0.0069,0.0782,0.0069,0.1172l-0.003,9.4771
				C31.1069,15.3233,30.6094,15.8208,29.9971,15.8208L29.9971,15.8208z M20.5474,13.5996h8.3388l0.0025-8.2251
				c-0.0079-0.0581-0.0098-0.1172-0.0079-0.1767c0.0274-0.813-0.2675-1.5713-0.8315-2.1358
				c-1.0835-1.083-2.9746-1.0859-4.0644,0.002c-1.1202,1.1211-1.1211,2.9438-0.002,4.0635
				c0.2168,0.2168,0.3252,0.5009,0.3252,0.7851c0,0.2842-0.1084,0.5684-0.3252,0.7852c-0.4341,0.4336-1.1367,0.4336-1.5703,0
				c-1.0845-1.0845-2.9756-1.085-4.0625,0.0014c-1.1201,1.1202-1.1211,2.9434-0.002,4.0635
				c0.5464,0.5449,1.3047,0.8511,2.0733,0.8306C20.4639,13.5933,20.5049,13.5952,20.5474,13.5996L20.5474,13.5996z"/>
		</g>
		<g>
			<path fill="#393939" d="M39.478,15.8208h-9.4736c-0.6128,0-1.1104-0.4966-1.1104-1.1098l-0.0044-9.4771
				c0-0.0366,0.002-0.0737,0.0054-0.1099c-0.0063-1.3779,0.5161-2.6626,1.4834-3.6318C31.3413,0.5298,32.6216,0,33.9809,0
				c1.3614,0,2.6416,0.5303,3.6036,1.4932c1.1386,1.1391,1.6259,2.687,1.4589,4.1748c1.5274-0.1694,3.0772,0.3613,4.1768,1.4609
				c1.9854,1.9864,1.9863,5.2178,0.002,7.2041c-0.9571,0.9556-2.2373,1.482-3.6036,1.482l-0.0224-0.001
				C39.5571,15.8184,39.5181,15.8208,39.478,15.8208L39.478,15.8208z M31.1147,13.5996h8.2178
				c0.0586-0.0078,0.1182-0.0117,0.1777-0.0078c0.003,0,0.0059,0,0.0088,0c0.878,0,1.5987-0.2949,2.1338-0.8301
				c1.1182-1.1186,1.1172-2.9419-0.0029-4.0625c-1.0859-1.0854-2.9775-1.0859-4.0635-0.0014c-0.4336,0.4336-1.1367,0.4336-1.5703,0
				c-0.2168-0.2168-0.3252-0.501-0.3252-0.7852c0-0.2842,0.1084-0.5683,0.3252-0.7851c1.1191-1.1197,1.1182-2.9424-0.002-4.064
				c-1.0849-1.085-2.9785-1.0864-4.0644-0.0015c-0.5625,0.5645-0.8584,1.3238-0.833,2.1377c0.0029,0.0562,0,0.1114-0.0059,0.1656
				L31.1147,13.5996L31.1147,13.5996z"/>
		</g>
	</g>
</g>
</svg>
