<?xml version="1.0" encoding="utf-8"?>
<!-- Generator: Adobe Illustrator 17.1.0, SVG Export Plug-In . SVG Version: 6.00 Build 0)  -->
<!DOCTYPE svg PUBLIC "-//W3C//DTD SVG 1.1//EN" "http://www.w3.org/Graphics/SVG/1.1/DTD/svg11.dtd">
<svg version="1.1" id="heart-arrow" xmlns="http://www.w3.org/2000/svg" xmlns:xlink="http://www.w3.org/1999/xlink" x="0px"
	 y="0px" viewBox="0 0 59.9995 53.3594" enable-background="new 0 0 59.9995 53.3594" xml:space="preserve">
<g id="heart-arrow-color">
	<path fill="#F16061" d="M26.935,21.0855c0-7.146,5.7911-12.9375,12.9434-12.9375c7.1426,0,12.9404,5.7915,12.9404,12.9375
		c0,3.748-1.6201,7.0893-4.1582,9.4575l0.0323,0.0058L26.935,52.3067L5.1694,30.5488c0.0093-0.0058,0.0152-0.0058,0.0244-0.0166
		c-2.5376-2.3642-4.1416-5.6987-4.1416-9.4467c0-7.146,5.7896-12.9375,12.9434-12.9375C21.1387,8.148,26.935,13.9395,26.935,21.0855
		z"/>
</g>
<g id="heart-arrow-line">
	<g>
		<path fill="#393939" d="M48.5268,12.5269c-0.2695,0-0.539-0.1031-0.7451-0.3086c-0.4111-0.4112-0.4111-1.0772,0-1.4883
			l4.0088-4.0093c0.4111-0.4111,1.0772-0.4111,1.4883,0c0.4111,0.4116,0.4111,1.0777,0,1.4888l-4.0078,4.0088
			C49.0649,12.4238,48.7954,12.5269,48.5268,12.5269L48.5268,12.5269z"/>
	</g>
	<g>
		<path fill="#393939" d="M16.5644,52.6104H8.4868c-0.582,0-1.0527-0.4707-1.0527-1.0518v-8.123
			c0-0.5821,0.4707-1.0528,1.0527-1.0528c0.5815,0,1.0523,0.4707,1.0523,1.0528v7.0703h7.0253c0.5816,0,1.0523,0.4707,1.0523,1.0527
			C17.6167,52.1397,17.146,52.6104,16.5644,52.6104L16.5644,52.6104z"/>
	</g>
	<g>
		<path fill="#393939" d="M9.2524,51.8008c-0.2695,0-0.5385-0.1025-0.7441-0.3086c-0.4111-0.4111-0.4111-1.0771,0-1.4883
			l17.6836-17.6826c0.4111-0.4111,1.0776-0.4111,1.4888,0c0.4111,0.4111,0.4111,1.0771,0,1.4883L9.9966,51.4922
			C9.791,51.6983,9.522,51.8008,9.2524,51.8008L9.2524,51.8008z"/>
	</g>
	<g>
		<path fill="#393939" d="M58.9468,8.5176h-6.4121c-0.5821,0-1.0528-0.4707-1.0528-1.0523V1.0527
			C51.4819,0.4712,51.9526,0,52.5347,0c0.581,0,1.0527,0.4712,1.0527,1.0527v5.3599h5.3594c0.582,0,1.0527,0.4707,1.0527,1.0527
			C59.9995,8.0469,59.5288,8.5176,58.9468,8.5176L58.9468,8.5176z"/>
	</g>
	<g>
		<path fill="#393939" d="M54.939,12.5269h-6.4122c-0.581,0-1.0527-0.4707-1.0527-1.0528V5.0596
			c0-0.5816,0.4717-1.0523,1.0527-1.0523c0.5801,0,1.0518,0.4707,1.0518,1.0523v5.3618h5.3604c0.581,0,1.0527,0.4712,1.0527,1.0527
			C55.9917,12.0562,55.52,12.5269,54.939,12.5269L54.939,12.5269z"/>
	</g>
	<g>
		<g>
			<path fill="#393939" d="M6.6875,22.9277c-0.5816,0-1.0523-0.4707-1.0523-1.0527c0-4.3276,3.7671-9.3584,8.6246-9.3584
				c0.5815,0,1.0522,0.4707,1.0522,1.0527c0,0.5816-0.4707,1.0523-1.0522,1.0523c-3.5118,0-6.5196,3.9888-6.5196,7.2534
				C7.7402,22.457,7.2695,22.9277,6.6875,22.9277L6.6875,22.9277z"/>
		</g>
		<g>
			<path fill="#393939" d="M26.935,53.3594c-0.269,0-0.5385-0.1035-0.7441-0.3086L4.4253,31.293
				c-0.0528-0.0528-0.0977-0.1084-0.1377-0.1699C1.52,28.4531,0,24.8984,0,21.0855C0,13.3706,6.2788,7.0952,13.9956,7.0952
				c5.8315,0,10.8403,3.5855,12.9394,8.6665c2.1001-5.081,7.1104-8.6665,12.9434-8.6665c7.7158,0,13.9932,6.2754,13.9932,13.9903
				c0,3.8076-1.5264,7.3667-4.3057,10.0503c-0.0371,0.0556-0.0801,0.1093-0.1289,0.1572L27.6797,53.0508
				C27.4741,53.2559,27.2046,53.3594,26.935,53.3594L26.935,53.3594z M6.0913,29.9824l20.8437,20.836l20.8399-20.8399
				c0.0449-0.0752,0.1016-0.1445,0.1689-0.206c2.4649-2.3003,3.8223-5.3853,3.8223-8.687c0-6.5533-5.333-11.8853-11.8877-11.8853
				c-6.5566,0-11.8906,5.332-11.8906,11.8853c0,0.582-0.4717,1.0527-1.0528,1.0527c-0.5805,0-1.0522-0.4707-1.0522-1.0527
				c0-6.5533-5.332-11.8853-11.8872-11.8853c-6.5566,0-11.8906,5.332-11.8906,11.8853c0,3.309,1.352,6.3896,3.8066,8.6772
				C5.9824,29.8291,6.043,29.9033,6.0913,29.9824L6.0913,29.9824z"/>
		</g>
	</g>
</g>
</svg>
