<?xml version="1.0" encoding="utf-8"?>
<!-- Generator: Adobe Illustrator 17.1.0, SVG Export Plug-In . SVG Version: 6.00 Build 0)  -->
<!DOCTYPE svg PUBLIC "-//W3C//DTD SVG 1.1//EN" "http://www.w3.org/Graphics/SVG/1.1/DTD/svg11.dtd">
<svg version="1.1" id="heart-glasses" xmlns="http://www.w3.org/2000/svg" xmlns:xlink="http://www.w3.org/1999/xlink" x="0px"
	 y="0px" viewBox="0 0 59.9995 51.2246" enable-background="new 0 0 59.9995 51.2246" xml:space="preserve">
<g id="heart-glasses-heart-glasses">
	<g id="heart-glasses-color">
		<path fill="#F16061" d="M45.7534,34.3359c0-3.623,2.9385-6.5605,6.5645-6.5605c3.625,0,6.5634,2.9375,6.5634,6.5605
			c0,1.8994-0.8213,3.5948-2.1093,4.7969l0.0156,0.0039L45.7534,50.1719l-11.04-11.0352c0.0068-0.0039,0.0107-0.0039,0.0136-0.0068
			c-1.2861-1.2041-2.0996-2.8946-2.0996-4.794c0-3.623,2.9336-6.5605,6.5616-6.5605C42.813,27.7754,45.7534,30.7129,45.7534,34.3359
			z"/>
		<path fill="#F16061" d="M14.2495,34.3359c0-3.623-2.938-6.5605-6.5635-6.5605c-3.626,0-6.5635,2.9375-6.5635,6.5605
			c0,1.8994,0.8204,3.5948,2.1094,4.7969l-0.0185,0.0039l11.0361,11.0352l11.04-11.0352c-0.0063-0.0039-0.0102-0.0039-0.0146-0.0068
			c1.2871-1.2041,2.1016-2.8946,2.1016-4.794c0-3.623-2.9341-6.5605-6.5635-6.5605C17.1894,27.7754,14.2495,30.7129,14.2495,34.3359
			z"/>
	</g>
	<g id="heart-glasses-line">
		<g>
			<path fill="#393939" d="M45.7534,51.2246c-0.2695,0-0.5391-0.1025-0.7451-0.3086L33.9692,39.8809
				c-0.0371-0.0352-0.0693-0.0743-0.0996-0.1143c-1.4814-1.4551-2.2949-3.376-2.2949-5.4307c0-4.1982,3.416-7.6132,7.6143-7.6132
				c2.7919,0,5.2382,1.5087,6.5644,3.7539c1.3252-2.2452,3.7715-3.7539,6.5645-3.7539c4.1992,0,7.6152,3.415,7.6152,7.6132
				c0,2.0547-0.8154,3.9766-2.3047,5.4336c-0.0283,0.0391-0.0615,0.0762-0.0957,0.1114L46.4975,50.916
				C46.2915,51.1221,46.022,51.2246,45.7534,51.2246L45.7534,51.2246z M35.5845,38.5185l10.1689,10.1651l10.1641-10.1641
				c0.039-0.0556,0.0849-0.1084,0.1357-0.1562c1.1436-1.0694,1.7754-2.499,1.7754-4.0274c0-3.0381-2.4727-5.5078-5.5107-5.5078
				c-3.0401,0-5.5127,2.4697-5.5127,5.5078c0,0.5801-0.4717,1.0518-1.0518,1.0518c-0.581,0-1.0527-0.4717-1.0527-1.0518
				c0-3.0381-2.4727-5.5078-5.5117-5.5078c-3.0381,0-5.5098,2.4697-5.5098,5.5078c0,1.5293,0.6279,2.959,1.7676,4.0254
				C35.4985,38.4092,35.5444,38.4619,35.5845,38.5185L35.5845,38.5185z"/>
		</g>
		<g>
			<path fill="#393939" d="M14.2495,51.2246c-0.2695,0-0.5391-0.1025-0.7446-0.3086L2.4687,39.8809
				c-0.0366-0.0362-0.0698-0.0752-0.1005-0.1182c-1.4844-1.4541-2.2984-3.3731-2.2984-5.4268c0-4.1982,3.417-7.6132,7.6162-7.6132
				c2.7915,0,5.2373,1.5087,6.5635,3.7539c1.3257-2.2452,3.7715-3.7539,6.5635-3.7539c4.1987,0,7.6157,3.415,7.6157,7.6132
				c0,2.0547-0.814,3.9756-2.2964,5.4307c-0.0298,0.04-0.0635,0.0791-0.0986,0.1143L14.9936,50.916
				C14.7881,51.1221,14.5185,51.2246,14.2495,51.2246L14.2495,51.2246z M4.0913,38.5254l10.1582,10.1582L24.418,38.5185
				c0.041-0.0566,0.0864-0.1093,0.1377-0.1572c1.1401-1.0664,1.768-2.4961,1.768-4.0254c0-3.0381-2.4721-5.5078-5.5107-5.5078
				c-3.0391,0-5.5113,2.4697-5.5113,5.5078c0,0.5801-0.4707,1.0518-1.0522,1.0518c-0.582,0-1.0527-0.4717-1.0527-1.0518
				c0-3.0381-2.4722-5.5078-5.5108-5.5078c-3.039,0-5.5112,2.4697-5.5112,5.5078c0,1.5293,0.6313,2.959,1.7744,4.0274
				C4.0024,38.4131,4.0498,38.4678,4.0913,38.5254L4.0913,38.5254z"/>
		</g>
		<g>
			<path fill="#393939" d="M32.8345,34.5019h-4.6172c-0.5821,0-1.0528-0.4716-1.0528-1.0527c0-0.582,0.4707-1.0527,1.0528-1.0527
				h4.6172c0.582,0,1.0527,0.4707,1.0527,1.0527C33.8872,34.0303,33.4165,34.5019,32.8345,34.5019L32.8345,34.5019z"/>
		</g>
		<g>
			<path fill="#393939" d="M1.0522,33.4365C0.4707,33.4365,0,32.9639,0,32.3838V7.5254C0,3.3755,3.3774,0,7.5308,0
				C8.1123,0,8.583,0.4707,8.583,1.0522c0,0.5811-0.4707,1.0528-1.0522,1.0528c-2.9917,0-5.4258,2.4311-5.4258,5.4204v24.8584
				C2.105,32.9639,1.6343,33.4365,1.0522,33.4365L1.0522,33.4365z"/>
		</g>
		<g>
			<path fill="#393939" d="M58.9468,35.166c-0.5821,0-1.0528-0.4717-1.0528-1.0527V7.5254c0-2.9893-2.4326-5.4204-5.4238-5.4204
				c-0.5811,0-1.0518-0.4717-1.0518-1.0528C51.4184,0.4707,51.8891,0,52.4702,0c4.1514,0,7.5293,3.3755,7.5293,7.5254v26.5879
				C59.9995,34.6943,59.5288,35.166,58.9468,35.166L58.9468,35.166z"/>
		</g>
	</g>
</g>
</svg>
