<?xml version="1.0" encoding="utf-8"?>
<!-- Generator: Adobe Illustrator 17.1.0, SVG Export Plug-In . SVG Version: 6.00 Build 0)  -->
<!DOCTYPE svg PUBLIC "-//W3C//DTD SVG 1.1//EN" "http://www.w3.org/Graphics/SVG/1.1/DTD/svg11.dtd">
<svg version="1.1" id="heart-key" xmlns="http://www.w3.org/2000/svg" xmlns:xlink="http://www.w3.org/1999/xlink" x="0px" y="0px"
	 viewBox="0 0 54.8708 60" enable-background="new 0 0 54.8708 60" xml:space="preserve">
<g id="heart-key-color">
	<path fill="#F16061" d="M40.3064,14.5645c3.084-3.0845,3.084-8.0855-0.002-11.1709c-3.0839-3.0835-8.0878-3.0879-11.1718-0.0035
		c-1.6172,1.6167-2.3609,3.7588-2.2871,5.8794l-0.0186-0.0117l0.002,18.7847l18.789,0.0063
		c-0.0019-0.0088-0.0058-0.0117-0.0058-0.019c2.1191,0.0713,4.25-0.6763,5.8652-2.294c3.0859-3.0835,3.0879-8.0815,0-11.1689
		C48.3943,11.4834,43.3904,11.48,40.3064,14.5645z"/>
</g>
<g id="heart-key-line">
	<g>
		<path fill="#393939" d="M1.0784,55.0098c-0.2759,0-0.5518-0.1045-0.7627-0.3155c-0.4209-0.4209-0.4209-1.1035,0-1.5254
			l26.6079-26.6074c0.4214-0.4209,1.1035-0.4209,1.5244,0c0.4219,0.4214,0.4219,1.1035,0,1.5249L1.8406,54.6943
			C1.6301,54.9053,1.3542,55.0098,1.0784,55.0098L1.0784,55.0098z"/>
	</g>
	<g>
		<path fill="#393939" d="M11.0554,60c-0.2759,0-0.5517-0.1055-0.7627-0.3164l-6.6513-6.6533c-0.4209-0.4209-0.4209-1.1035,0-1.5244
			c0.4213-0.4219,1.104-0.4219,1.5249,0l6.6513,6.6533c0.4214,0.4209,0.4214,1.1035,0,1.5244C11.6072,59.8945,11.3313,60,11.0554,60
			L11.0554,60z"/>
	</g>
	<g>
		<path fill="#393939" d="M16.0452,51.6846c-0.2759,0-0.5523-0.1055-0.7627-0.3164l-4.9898-4.9893
			c-0.4209-0.4209-0.4209-1.1035,0-1.5244c0.4214-0.4219,1.104-0.4219,1.5249,0l4.9898,4.9892c0.4214,0.4209,0.4214,1.1036,0,1.5245
			C16.5969,51.5791,16.321,51.6846,16.0452,51.6846L16.0452,51.6846z"/>
	</g>
	<g>
		<path fill="#393939" d="M45.6179,29.127L45.6179,29.127l-18.79-0.0064c-0.5952,0-1.0777-0.4834-1.0777-1.0781L25.7483,9.2578
			c0-0.0586,0.0054-0.1177,0.0146-0.1758c-0.0273-2.4565,0.8931-4.7407,2.6075-6.4541C30.0642,0.9331,32.3171,0,34.7146,0
			c2.4014,0,4.6562,0.9346,6.3525,2.6309c2.4092,2.4087,3.1602,5.8574,2.2539,8.9135c0.8233-0.2431,1.6866-0.3696,2.5694-0.3696
			c2.3984,0,4.6543,0.9341,6.3496,2.6294c1.6973,1.6968,2.6308,3.9512,2.6308,6.3491c0,2.397-0.9355,4.6509-2.6308,6.3452
			c-1.6826,1.6861-3.9385,2.6138-6.3496,2.6138l0,0l-0.0889-0.001C45.7419,29.1216,45.6804,29.127,45.6179,29.127L45.6179,29.127z
			 M27.907,26.9639l17.5039,0.0063c0.0771-0.0146,0.1572-0.0283,0.2373-0.0181l0.2422,0.0035c1.834,0,3.5488-0.7036,4.8252-1.982
			c1.289-1.2881,1.998-3.0005,1.998-4.8213c0-1.8208-0.709-3.5341-1.998-4.8232c-1.2891-1.2891-3.003-1.9976-4.8252-1.9976
			c-1.8223,0-3.5342,0.7085-4.8213,1.9956c-0.4209,0.4214-1.1035,0.4214-1.5254,0c-0.21-0.2104-0.3154-0.4863-0.3154-0.7626
			c0-0.2759,0.1054-0.5518,0.3154-0.7623c2.6582-2.6591,2.6582-6.9863-0.002-9.6464c-1.289-1.2891-3.0029-1.9986-4.8271-1.9986
			c-1.8213,0-3.5322,0.7085-4.8193,1.9956c-1.3389,1.3384-2.0386,3.1421-1.9712,5.0791c0.0019,0.0811-0.0044,0.1612-0.0191,0.2388
			L27.907,26.9639L27.907,26.9639z"/>
	</g>
</g>
</svg>
