<?xml version="1.0" encoding="utf-8"?>
<!-- Generator: Adobe Illustrator 17.1.0, SVG Export Plug-In . SVG Version: 6.00 Build 0)  -->
<!DOCTYPE svg PUBLIC "-//W3C//DTD SVG 1.1//EN" "http://www.w3.org/Graphics/SVG/1.1/DTD/svg11.dtd">
<svg version="1.1" id="heart-lock-closed" xmlns="http://www.w3.org/2000/svg" xmlns:xlink="http://www.w3.org/1999/xlink" x="0px"
	 y="0px" viewBox="0 0 48.293 60" enable-background="new 0 0 48.293 60" xml:space="preserve">
<g id="heart-lock-closed-closed">
	<path fill="#F16061" d="M24.1465,29.084c0-6.3819-5.1729-9.5557-11.5605-9.5557c-6.3819,0-11.5586,5.1724-11.5586,11.5537
		c0,3.3448,1.4448,6.3321,3.7119,8.4502L4.711,39.5371l19.4355,19.4356L43.585,39.5371c-0.0039-0.0049-0.0108-0.0049-0.0196-0.0146
		c2.2676-2.1114,3.7002-5.0957,3.7002-8.4405c0-6.3813-5.1738-11.5537-11.5615-11.5537
		C29.3233,19.5283,24.1465,22.7021,24.1465,29.084z"/>
	<circle fill="#FDE3E3" cx="24.1472" cy="39.0537" r="3.1906"/>
</g>
<g id="heart-lock-closed-line">
	<g>
		<path fill="#393939" d="M12.8067,19.8071c-0.5679,0-1.0274-0.4594-1.0274-1.0273v-7.2974C11.7793,5.1509,17.3272,0,24.1465,0
			c6.8203,0,12.3682,5.1509,12.3682,11.4824v7.2959c0,0.5684-0.459,1.0279-1.0274,1.0279c-0.5674,0-1.0273-0.4595-1.0273-1.0279
			v-7.2959c0-5.1977-4.627-9.4272-10.3135-9.4272c-5.6865,0-10.3125,4.2295-10.3125,9.4272v7.2974
			C13.834,19.3477,13.3745,19.8071,12.8067,19.8071L12.8067,19.8071z"/>
	</g>
	<g>
		<path fill="#393939" d="M24.1465,60c-0.2627,0-0.5259-0.1006-0.7266-0.3008L3.9844,40.2627
			c-0.0449-0.0449-0.085-0.0928-0.1201-0.1455C1.3696,37.7031,0,34.5039,0,31.082c0-6.937,5.646-12.5815,12.586-12.5815
			c5.5913,0,9.7363,2.2207,11.5605,5.9282c1.8232-3.7075,5.9678-5.9282,11.5576-5.9282c6.9414,0,12.5889,5.6445,12.5889,12.5815
			c0,3.4326-1.3672,6.6299-3.8565,9.0303c-0.0361,0.0547-0.0791,0.1045-0.125,0.1504L24.8731,59.6992
			C24.6724,59.8994,24.4097,60,24.1465,60L24.1465,60z M5.6021,38.9736l18.5444,18.5459l18.5518-18.5488
			c0.0459-0.0723,0.1015-0.1396,0.166-0.1992c2.1758-2.0264,3.374-4.7569,3.374-7.6895c0-5.8042-4.7256-10.5263-10.5342-10.5263
			c-5.0908,0-10.5303,2.2407-10.5303,8.5283c0,0.5679-0.4594,1.0273-1.0273,1.0273c-0.5679,0-1.0273-0.4594-1.0273-1.0273
			c0-6.2876-5.441-8.5283-10.5332-8.5283c-5.8072,0-10.5313,4.7221-10.5313,10.5263c0,2.9248,1.2022,5.6602,3.3857,7.7002
			C5.5029,38.8398,5.5567,38.9043,5.6021,38.9736L5.6021,38.9736z"/>
	</g>
	<g>
		<path fill="#393939" d="M24.1465,43.2705c-2.3257,0-4.2173-1.8916-4.2173-4.2168c0-2.3262,1.8916-4.2178,4.2173-4.2178
			c2.3262,0,4.2188,1.8916,4.2188,4.2178C28.3653,41.3789,26.4727,43.2705,24.1465,43.2705L24.1465,43.2705z M24.1465,36.8906
			c-1.1919,0-2.1621,0.9707-2.1621,2.1631c0,1.1924,0.9702,2.1621,2.1621,2.1621c1.1934,0,2.1631-0.9697,2.1631-2.1621
			C26.3096,37.8613,25.3399,36.8906,24.1465,36.8906L24.1465,36.8906z"/>
	</g>
	<g>
		<path fill="#393939" d="M24.1465,48.7246c-0.5679,0-1.0273-0.46-1.0273-1.0283v-5.4531c0-0.5684,0.4594-1.0274,1.0273-1.0274
			c0.5679,0,1.0273,0.459,1.0273,1.0274v5.4531C25.1738,48.2646,24.7144,48.7246,24.1465,48.7246L24.1465,48.7246z"/>
	</g>
</g>
</svg>
