<?xml version="1.0" encoding="utf-8"?>
<!-- Generator: Adobe Illustrator 17.1.0, SVG Export Plug-In . SVG Version: 6.00 Build 0)  -->
<!DOCTYPE svg PUBLIC "-//W3C//DTD SVG 1.1//EN" "http://www.w3.org/Graphics/SVG/1.1/DTD/svg11.dtd">
<svg version="1.1" id="heart-balloon" xmlns="http://www.w3.org/2000/svg" xmlns:xlink="http://www.w3.org/1999/xlink" x="0px"
	 y="0px" viewBox="0 0 46.8926 60" enable-background="new 0 0 46.8926 60" xml:space="preserve">
<g id="heart-balloon-heart-balloon">
	<g id="heart-balloon-color">
		<path fill="#F16061" d="M25.9483,42.0762c0,1.3828-1.1192,2.5009-2.5015,2.5009c-1.3789,0-2.502-1.1181-2.502-2.5009
			c0-1.3809,1.1231-2.4991,2.502-2.4991C24.8291,39.5771,25.9483,40.6953,25.9483,42.0762z"/>
		<path fill="#F16061" d="M23.4468,12.2217C23.4468,6.0229,18.4253,1,12.2222,1C6.0249,1,1,6.0229,1,12.2217
			c0,3.2485,1.4024,6.1465,3.6055,8.1997l-0.0279,0.0073l18.8692,18.8692l18.8755-18.8692
			c-0.0078-0.0073-0.0137-0.0073-0.0215-0.0141c2.2012-2.0503,3.5918-4.9444,3.5918-8.1929C45.8926,6.0229,40.8711,1,34.668,1
			C28.4736,1,23.4468,6.0229,23.4468,12.2217z"/>
	</g>
	<g id="heart-balloon-line">
		<g>
			<path fill="#393939" d="M23.4468,45.5771c-1.9307,0-3.502-1.5703-3.502-3.5009c0-1.9297,1.5713-3.4991,3.502-3.4991
				c1.9311,0,3.5015,1.5694,3.5015,3.4991C26.9483,44.0068,25.3779,45.5771,23.4468,45.5771L23.4468,45.5771z M23.4468,40.5771
				c-0.8281,0-1.502,0.6729-1.502,1.4991c0,0.8281,0.6739,1.5009,1.502,1.5009c0.8281,0,1.5015-0.6728,1.5015-1.5009
				C24.9483,41.25,24.2749,40.5771,23.4468,40.5771L23.4468,40.5771z"/>
		</g>
		<g>
			<path fill="#393939" d="M23.2437,60c-0.5528,0-1-0.4473-1-1c0-1.1836,0.6601-2.1406,1.2988-3.0645
				c0.6396-0.9257,1.3013-1.8837,1.4097-3.1552c0.0888-1.0381-0.6294-2.3545-1.3238-3.628
				c-0.955-1.7519-1.9433-3.5644-1.0185-5.1523c0.2783-0.4766,0.8906-0.6377,1.3672-0.3604
				c0.478,0.2784,0.6391,0.8907,0.3613,1.3682c-0.3574,0.6133,0.3882,1.9805,1.0464,3.1865
				c0.7969,1.4619,1.7011,3.1192,1.5595,4.7569c-0.1533,1.7998-1.0419,3.0859-1.7558,4.1211
				c-0.5068,0.7334-0.9448,1.3672-0.9448,1.9277C24.2437,59.5527,23.7964,60,23.2437,60L23.2437,60z"/>
		</g>
		<g>
			<g>
				<path fill="#393939" d="M39.7158,15.5415c-0.5537,0-1.0009-0.4478-1.0009-1c0-2.7925-2.5684-6.2031-5.5655-6.2031
					c-0.5527,0-1.001-0.4478-1.001-1c0-0.5523,0.4483-1,1.001-1c4.2598,0,7.5655,4.4096,7.5655,8.2031
					C40.7149,15.0937,40.2676,15.5415,39.7158,15.5415L39.7158,15.5415z"/>
			</g>
			<g>
				<path fill="#393939" d="M23.4468,40.2979c-0.2559,0-0.5117-0.0977-0.707-0.293L3.8711,21.1357
					c-0.0469-0.0463-0.0879-0.0966-0.123-0.1499C1.3291,18.646,0,15.5435,0,12.2217C0,5.4824,5.4834,0,12.2222,0
					c5.0215,0,9.3457,3.0425,11.2246,7.3804C25.3262,3.0425,29.6475,0,34.668,0c6.7402,0,12.2246,5.4824,12.2246,12.2217
					c0,3.3281-1.3252,6.4297-3.7373,8.7612c-0.0371,0.0547-0.0791,0.106-0.126,0.1528L24.1538,40.0049
					C23.9585,40.2002,23.7026,40.2979,23.4468,40.2979L23.4468,40.2979z M5.4507,19.8872l17.9961,17.9966l18.0073-18.001
					c0.0459-0.0727,0.1006-0.1401,0.1651-0.2002c2.1113-1.9658,3.2734-4.6157,3.2734-7.4609C44.8926,6.5854,40.3057,2,34.668,2
					c-5.6358,0-10.2207,4.5854-10.2207,10.2217c0,0.5522-0.4478,1-1.0005,1s-1-0.4478-1-1C22.4468,6.5854,17.8599,2,12.2222,2
					C6.5855,2,2,6.5854,2,12.2217c0,2.8403,1.167,5.4927,3.2866,7.4682C5.3501,19.749,5.4048,19.8154,5.4507,19.8872L5.4507,19.8872
					z"/>
			</g>
		</g>
	</g>
</g>
</svg>
