<?xml version="1.0" encoding="utf-8"?>
<!-- Generator: Adobe Illustrator 17.1.0, SVG Export Plug-In . SVG Version: 6.00 Build 0)  -->
<!DOCTYPE svg PUBLIC "-//W3C//DTD SVG 1.1//EN" "http://www.w3.org/Graphics/SVG/1.1/DTD/svg11.dtd">
<svg version="1.1" id="heart-bag" xmlns="http://www.w3.org/2000/svg" xmlns:xlink="http://www.w3.org/1999/xlink" x="0px" y="0px"
	 viewBox="0 0 46.3237 60" enable-background="new 0 0 46.3237 60" xml:space="preserve">
<g id="heart-bag-heart-bag">
	<g id="heart-bag-color">
		<path fill="#F16061" d="M4.2749,14.7759h7.7846v3.8642c0,0.5811,0.4712,1.0528,1.0528,1.0528c0.581,0,1.0527-0.4717,1.0527-1.0528
			v-3.8642h17.9946v3.8642c0,0.5811,0.4708,1.0528,1.0528,1.0528c0.581,0,1.0517-0.4717,1.0517-1.0528v-3.8642h7.7842
			c1.1963,0,2.1699,0.9736,2.1699,2.1699v34.3774H2.105V16.9458C2.105,15.7495,3.0786,14.7759,4.2749,14.7759z"/>
		<path fill="#FDE3E3" d="M42.0483,57.8945H4.2749c-1.1963,0-2.1699-0.9736-2.1699-2.1699v-2.2969h42.1132v2.2969
			C44.2182,56.9209,43.2446,57.8945,42.0483,57.8945z"/>
		<path fill="#FFFFFF" d="M23.1616,31.8574c0-3.2309-2.6172-5.8491-5.8511-5.8491c-3.23,0-5.8491,2.6182-5.8491,5.8491
			c0,1.6934,0.731,3.2041,1.8779,4.2764l-0.0131,0.0029l9.8354,9.835l9.8398-9.835c-0.0039-0.0029-0.0068-0.0029-0.0107-0.0088
			c1.1455-1.0683,1.8711-2.5771,1.8711-4.2705c0-3.2309-2.6172-5.8491-5.8506-5.8491
			C25.7817,26.0083,23.1616,28.6265,23.1616,31.8574z"/>
	</g>
	<g id="heart-bag-line">
		<g id="heart-bag-bag-icon">
			<g>
				<path fill="#393939" d="M42.0483,60H4.2749C1.9179,60,0,58.082,0,55.7246V16.9458c0-2.3574,1.9179-4.2749,4.2749-4.2749h37.7734
					c2.3574,0,4.2754,1.9175,4.2754,4.2749v38.7788C46.3237,58.082,44.4057,60,42.0483,60L42.0483,60z M4.2749,14.7759
					c-1.1963,0-2.1699,0.9736-2.1699,2.1699v38.7788c0,1.1963,0.9736,2.1699,2.1699,2.1699h37.7734
					c1.1963,0,2.1699-0.9736,2.1699-2.1699V16.9458c0-1.1963-0.9736-2.1699-2.1699-2.1699H4.2749L4.2749,14.7759z"/>
			</g>
			<g>
				<path fill="#393939" d="M33.2124,19.6929c-0.5811,0-1.0528-0.4717-1.0528-1.0528V8.6987c0-3.6352-4.0371-6.5932-8.999-6.5932
					c-4.9599,0-8.9956,2.958-8.9956,6.5932v9.9414c0,0.5811-0.4717,1.0528-1.0527,1.0528c-0.5816,0-1.0528-0.4717-1.0528-1.0528
					V8.6987C12.0595,3.9023,17.039,0,23.1606,0c6.1221,0,11.1035,3.9023,11.1035,8.6987v9.9414
					C34.2641,19.2212,33.7925,19.6929,33.2124,19.6929L33.2124,19.6929z"/>
			</g>
			<g>
				<path fill="#393939" d="M44.8208,53.4277H1.5029c-0.582,0-1.0527-0.4716-1.0527-1.0527c0-0.5801,0.4707-1.0518,1.0527-1.0518
					h43.3179c0.582,0,1.0527,0.4717,1.0527,1.0518C45.8735,52.9561,45.4028,53.4277,44.8208,53.4277L44.8208,53.4277z"/>
			</g>
			<g>
				<path fill="#393939" d="M15.3266,19.6929h-4.6455c-0.5805,0-1.0522-0.4717-1.0522-1.0528c0-0.5815,0.4717-1.0527,1.0522-1.0527
					h4.6455c0.5806,0,1.0528,0.4712,1.0528,1.0527C16.3794,19.2212,15.9072,19.6929,15.3266,19.6929L15.3266,19.6929z"/>
			</g>
			<g>
				<path fill="#393939" d="M35.6411,19.6929h-4.6445c-0.5821,0-1.0528-0.4717-1.0528-1.0528c0-0.5815,0.4707-1.0527,1.0528-1.0527
					h4.6445c0.582,0,1.0527,0.4712,1.0527,1.0527C36.6938,19.2212,36.2231,19.6929,35.6411,19.6929L35.6411,19.6929z"/>
			</g>
		</g>
		<g>
			<path fill="#393939" d="M23.1616,47.0234c-0.269,0-0.5386-0.1025-0.7441-0.3076l-9.8355-9.8349
				c-0.0317-0.0303-0.0615-0.0645-0.0884-0.0997c-1.3466-1.3193-2.0849-3.0615-2.0849-4.9238c0-3.8052,3.0962-6.9013,6.9018-6.9013
				c2.4629,0,4.6289,1.2959,5.8511,3.2412c1.2217-1.9453,3.3867-3.2412,5.8496-3.2412c3.8057,0,6.9033,3.0961,6.9033,6.9013
				c0,1.8623-0.7343,3.5996-2.0722,4.9131c-0.0293,0.0391-0.0616,0.0752-0.0967,0.1104l-9.8399,9.8359
				C23.7002,46.9209,23.4311,47.0234,23.1616,47.0234L23.1616,47.0234z M14.1855,35.5078l8.9761,8.9746l8.9746-8.9687
				c0.0391-0.0557,0.0859-0.1075,0.1377-0.1563c0.9902-0.9228,1.5352-2.167,1.5352-3.5c0-2.645-2.1524-4.7964-4.7979-4.7964
				s-4.7969,2.1514-4.7969,4.7964c0,0.5811-0.4707,1.0528-1.0527,1.0528c-0.5815,0-1.0527-0.4717-1.0527-1.0528
				c0-2.645-2.1524-4.7964-4.7984-4.7964c-2.645,0-4.7964,2.1514-4.7964,4.7964c0,1.3311,0.5479,2.5762,1.544,3.5078
				C14.1054,35.4092,14.1484,35.4561,14.1855,35.5078L14.1855,35.5078z"/>
		</g>
	</g>
</g>
</svg>
