<?xml version="1.0" encoding="utf-8"?>
<!-- Generator: Adobe Illustrator 17.1.0, SVG Export Plug-In . SVG Version: 6.00 Build 0)  -->
<!DOCTYPE svg PUBLIC "-//W3C//DTD SVG 1.1//EN" "http://www.w3.org/Graphics/SVG/1.1/DTD/svg11.dtd">
<svg version="1.1" id="heart-target" xmlns="http://www.w3.org/2000/svg" xmlns:xlink="http://www.w3.org/1999/xlink" x="0px"
	 y="0px" viewBox="0 0 59.9995 60" enable-background="new 0 0 59.9995 60" xml:space="preserve">
<g id="heart-target-color">
	<circle fill="#F16061" cx="29.9995" cy="30.0002" r="26.9509"/>
	<circle fill="#FDE3E3" cx="29.9995" cy="30.0005" r="20.5874"/>
	<path fill="#F16061" d="M29.9995,26.4731c0-2.7548-2.2349-4.9877-4.9907-4.9877c-2.7559,0-4.9907,2.2329-4.9907,4.9877
		c0,1.4454,0.623,2.7334,1.6035,3.649l-0.0122,0.0024l8.3901,8.3901l8.3955-8.3901c-0.0039-0.0024-0.0068-0.0024-0.0107-0.0054
		c0.9775-0.915,1.5966-2.2006,1.5966-3.646c0-2.7548-2.2304-4.9877-4.9902-4.9877C32.2358,21.4854,29.9995,23.7183,29.9995,26.4731z
		"/>
</g>
<g id="heart-target-line">
	<g id="heart-target-target-dollar">
		<g id="heart-target-target-dollar_1_">
			<g>
				<path fill="#393939" d="M29.9995,60c-0.5815,0-1.0527-0.4707-1.0527-1.0527V44.4736c0-0.582,0.4712-1.0527,1.0527-1.0527
					c0.582,0,1.0527,0.4707,1.0527,1.0527v14.4737C31.0522,59.5293,30.5815,60,29.9995,60L29.9995,60z"/>
			</g>
			<g>
				<path fill="#393939" d="M29.9995,16.5791c-0.5815,0-1.0527-0.4707-1.0527-1.0527V1.0527C28.9468,0.4712,29.418,0,29.9995,0
					c0.582,0,1.0527,0.4712,1.0527,1.0527v14.4737C31.0522,16.1084,30.5815,16.5791,29.9995,16.5791L29.9995,16.5791z"/>
			</g>
			<g>
				<path fill="#393939" d="M15.5259,31.0527H1.0522C0.4707,31.0527,0,30.582,0,30s0.4707-1.0527,1.0522-1.0527h14.4737
					c0.582,0,1.0527,0.4707,1.0527,1.0527S16.1079,31.0527,15.5259,31.0527L15.5259,31.0527z"/>
			</g>
			<g>
				<path fill="#393939" d="M58.9468,31.0527H44.4731c-0.582,0-1.0527-0.4707-1.0527-1.0527s0.4707-1.0527,1.0527-1.0527h14.4737
					c0.582,0,1.0527,0.4707,1.0527,1.0527S59.5288,31.0527,58.9468,31.0527L58.9468,31.0527z"/>
			</g>
			<g>
				<path fill="#393939" d="M29.9995,51.6406c-11.9326,0-21.6406-9.708-21.6406-21.6406s9.708-21.6396,21.6406-21.6396
					c11.9326,0,21.6406,9.707,21.6406,21.6396S41.9321,51.6406,29.9995,51.6406L29.9995,51.6406z M29.9995,10.4658
					c-10.772,0-19.5352,8.7632-19.5352,19.5342c0,10.7715,8.7632,19.5352,19.5352,19.5352c10.7715,0,19.5352-8.7637,19.5352-19.5352
					C49.5347,19.229,40.771,10.4658,29.9995,10.4658L29.9995,10.4658z"/>
			</g>
			<g>
				<path fill="#393939" d="M29.9995,58.0039C14.5586,58.0039,1.9961,45.4404,1.9961,30c0-15.4409,12.5625-28.0034,28.0034-28.0034
					c15.4414,0,28.0039,12.5625,28.0039,28.0034C58.0034,45.4404,45.4409,58.0039,29.9995,58.0039L29.9995,58.0039z M29.9995,4.1016
					C15.7192,4.1016,4.1016,15.7197,4.1016,30c0,14.2803,11.6176,25.8984,25.8979,25.8984S55.8979,44.2803,55.8979,30
					C55.8979,15.7197,44.2798,4.1016,29.9995,4.1016L29.9995,4.1016z"/>
			</g>
		</g>
	</g>
	<g>
		<path fill="#393939" d="M29.9995,39.5674c-0.269,0-0.5386-0.1026-0.7441-0.3086l-8.3902-8.3901
			c-0.0298-0.0298-0.0566-0.0606-0.082-0.0928c-1.1733-1.1543-1.8179-2.6758-1.8179-4.3028c0-3.3305,2.711-6.0405,6.0435-6.0405
			c2.0703,0,3.9013,1.0469,4.9907,2.6377c1.0898-1.5908,2.9209-2.6377,4.9912-2.6377c3.332,0,6.043,2.71,6.043,6.0405
			c0,1.626-0.6406,3.1465-1.8086,4.2979c-0.0264,0.0337-0.0547,0.0669-0.086,0.0977l-8.3955,8.3901
			C30.5381,39.4648,30.269,39.5674,29.9995,39.5674L29.9995,39.5674z M22.4624,29.4883l7.5371,7.5381l7.542-7.5371
			c0.0371-0.0494,0.0781-0.0957,0.124-0.1387c0.8145-0.7617,1.2627-1.7837,1.2627-2.8775c0-2.1699-1.7666-3.935-3.9375-3.935
			c-2.1719,0-3.9385,1.7651-3.9385,3.935c0,0.5816-0.4707,1.0528-1.0527,1.0528c-0.5815,0-1.0527-0.4712-1.0527-1.0528
			c0-2.1699-1.7671-3.935-3.938-3.935s-3.938,1.7651-3.938,3.935c0,1.0928,0.4512,2.1158,1.2695,2.8804
			C22.3857,29.3955,22.4258,29.4409,22.4624,29.4883L22.4624,29.4883z"/>
	</g>
</g>
</svg>
