<?xml version="1.0" encoding="utf-8"?>
<!-- Generator: Adobe Illustrator 17.1.0, SVG Export Plug-In . SVG Version: 6.00 Build 0)  -->
<!DOCTYPE svg PUBLIC "-//W3C//DTD SVG 1.1//EN" "http://www.w3.org/Graphics/SVG/1.1/DTD/svg11.dtd">
<svg version="1.1" id="heart-bow-arrow" xmlns="http://www.w3.org/2000/svg" xmlns:xlink="http://www.w3.org/1999/xlink" x="0px"
	 y="0px" viewBox="0 0 59.7895 60" enable-background="new 0 0 59.7895 60" xml:space="preserve">
<g id="heart-bow-arrow-color">
	<path fill="#F16061" d="M51.4565,8.333c1.6651-1.6655,1.6651-4.3647,0-6.0303c-1.664-1.665-4.3662-1.667-6.0293-0.0019
		c-0.875,0.8725-1.2754,2.0293-1.2353,3.1743l-0.0117-0.0073l0.0019,10.1386l10.1436,0.0044
		c-0.002-0.0044-0.0049-0.0063-0.0049-0.0102c1.1445,0.039,2.2949-0.3652,3.167-1.2388c1.666-1.6645,1.666-4.3618,0-6.0288
		C55.8227,6.6694,53.1216,6.6675,51.4565,8.333z"/>
</g>
<g id="heart-bow-arrow-line">
	<g>
		<path fill="#393939" d="M9.6411,59.1768c-0.561,0-1.0278-0.4444-1.0503-1.0108l-0.2583-6.4023l-6.998,0.2588
			c-0.5694,0.039-1.0704-0.4317-1.0909-1.0118c-0.0215-0.581,0.4317-1.0693,1.0127-1.0908l8.0469-0.2988
			c0.5757-0.0322,1.0679,0.4297,1.0908,1.0098l0.2998,7.4511c0.024,0.5801-0.4287,1.0694-1.0092,1.0938
			C9.6699,59.1768,9.6557,59.1768,9.6411,59.1768L9.6411,59.1768z"/>
	</g>
	<g>
		<path fill="#393939" d="M14.4077,54.4072c-0.561,0-1.0278-0.4433-1.0503-1.0097l-0.2559-6.4014L6.103,47.2539
			c-0.5693,0.0381-1.0688-0.4316-1.0903-1.0127c-0.022-0.5801,0.4316-1.0683,1.0122-1.0898l8.0469-0.2979
			c0.5737-0.0351,1.0683,0.4297,1.0908,1.0098l0.2978,7.4492c0.024,0.5811-0.4287,1.0713-1.0092,1.0937
			C14.437,54.4072,14.4223,54.4072,14.4077,54.4072L14.4077,54.4072z"/>
	</g>
	<g>
		<path fill="#393939" d="M6.4404,54.627c-0.2695,0-0.5386-0.1036-0.7441-0.3086c-0.4117-0.4112-0.4117-1.0772,0-1.4883
			L44.1538,14.373c0.4111-0.4111,1.0771-0.4111,1.4883,0c0.4111,0.4112,0.4111,1.0772,0,1.4883L7.1846,54.3184
			C6.979,54.5234,6.7095,54.627,6.4404,54.627L6.4404,54.627z"/>
	</g>
	<g>
		<path fill="#393939" d="M38.2358,53.1807c-0.2695,0-0.5381-0.1036-0.7441-0.3086L7.1455,22.5225
			c-0.4111-0.4112-0.4111-1.0772,0-1.4883c4.2515-4.2525,9.9043-6.5952,15.917-6.5952c6.0122,0,11.6655,2.3427,15.9175,6.5952
			c4.2539,4.2514,6.5957,9.9043,6.5957,15.9179c0,6.0137-2.3418,11.667-6.5957,15.92
			C38.7749,53.0771,38.5054,53.1807,38.2358,53.1807L38.2358,53.1807z M9.3965,21.7969l28.8208,28.8242
			c3.3955-3.7568,5.2529-8.5703,5.2529-13.669c0-5.4501-2.1231-10.5756-5.9785-14.4296c-3.8545-3.8545-8.979-5.9786-14.4292-5.9786
			C17.9648,16.5439,13.1518,18.4028,9.3965,21.7969L9.3965,21.7969z"/>
	</g>
	<g>
		<path fill="#393939" d="M4.1787,25.3765C1.874,25.375,0,23.499,0,21.1958c0-2.3037,1.874-4.1787,4.1777-4.1787
			c0.582,0,1.0527,0.4707,1.0527,1.0522c0,0.5821-0.4707,1.0528-1.0527,1.0528c-1.1431,0-2.0723,0.9306-2.0723,2.0737
			c0,1.144,0.9302,2.0742,2.0733,2.0752c0.5757-0.001,1.1142-0.2383,1.5132-0.6694c0.039-0.0411,0.081-0.0791,0.1255-0.1138
			l1.3906-1.3911c0.4111-0.4112,1.0776-0.4112,1.4888,0c0.4111,0.4111,0.4111,1.0776,0,1.4887l-1.4864,1.4864
			c-0.0258,0.0259-0.0537,0.0503-0.0815,0.0727C6.3384,24.9395,5.2973,25.375,4.1787,25.3765L4.1787,25.3765z"/>
	</g>
	<g>
		<path fill="#393939" d="M38.9018,60c-2.2509,0-4.0839-1.873-4.0869-4.1758c0.001-1.1123,0.4239-2.1484,1.1914-2.9375
			c0.0225-0.0293,0.0459-0.0566,0.0723-0.084l1.4414-1.4863c0.4053-0.417,1.0713-0.4277,1.4893-0.0225
			c0.417,0.4053,0.4267,1.0713,0.0224,1.4883l-1.3486,1.3897c-0.0332,0.0449-0.0703,0.0869-0.1113,0.126
			c-0.419,0.4003-0.6504,0.9433-0.6514,1.5263c0.001,1.1406,0.8896,2.0703,1.9814,2.0703c1.0899,0,1.9766-0.9297,1.9766-2.0713
			c0-0.582,0.4707-1.0527,1.0527-1.0527c0.5821,0,1.0528,0.4707,1.0528,1.0527C42.9839,58.126,41.1528,60,38.9018,60L38.9018,60z"/>
	</g>
	<g>
		<path fill="#393939" d="M54.3257,16.6631L54.3257,16.6631l-10.1436-0.0039c-0.581,0-1.0517-0.4707-1.0517-1.0528l-0.003-10.1386
			c0-0.0449,0.0039-0.0894,0.0088-0.1333c-0.0049-1.4385,0.541-2.7744,1.5479-3.7788C45.685,0.5532,47.02,0,48.4389,0
			c1.4219,0,2.7579,0.5532,3.7618,1.5586c1.2324,1.2324,1.7324,2.9233,1.5,4.5283c1.6289-0.2305,3.3418,0.3135,4.5312,1.5015
			c1.0049,1.0053,1.5576,2.3408,1.5576,3.7602c0,1.42-0.5537,2.7539-1.5576,3.7583c-0.9961,0.9981-2.333,1.5493-3.7598,1.5493l0,0
			l-0.0175-0.0009C54.4116,16.6602,54.3686,16.6631,54.3257,16.6631L54.3257,16.6631z M45.2348,14.5537l8.9405,0.0044
			c0.0605-0.0093,0.1191-0.0142,0.1816-0.0093l0.1152,0.002c0.8643,0,1.6709-0.3321,2.2696-0.9321
			c0.6094-0.6075,0.9433-1.4136,0.9433-2.2701c0-0.8569-0.3349-1.664-0.9423-2.2715c-1.2129-1.2109-3.3291-1.2128-4.542,0
			c-0.4112,0.4112-1.0772,0.4112-1.4883,0c-0.2061-0.2055-0.3086-0.475-0.3086-0.7441c0-0.2695,0.1025-0.5391,0.3086-0.7446
			c1.2519-1.252,1.2519-3.2891,0-4.5415c-1.2139-1.2139-3.3301-1.2158-4.5401-0.002c-0.6308,0.6294-0.9609,1.4795-0.9287,2.3931
			c0.003,0.0649-0.0009,0.1284-0.0107,0.1914L45.2348,14.5537L45.2348,14.5537z"/>
	</g>
</g>
</svg>
