<?xml version="1.0" encoding="utf-8"?>
<!-- Generator: Adobe Illustrator 17.1.0, SVG Export Plug-In . SVG Version: 6.00 Build 0)  -->
<!DOCTYPE svg PUBLIC "-//W3C//DTD SVG 1.1//EN" "http://www.w3.org/Graphics/SVG/1.1/DTD/svg11.dtd">
<svg version="1.1" id="heart-lock-open" xmlns="http://www.w3.org/2000/svg" xmlns:xlink="http://www.w3.org/1999/xlink" x="0px"
	 y="0px" viewBox="0 0 48.293 60" enable-background="new 0 0 48.293 60" xml:space="preserve">
<g id="heart-lock-open-color">
	<path fill="#F16061" d="M24.1455,29.084c0-6.3819-5.1719-9.5567-11.5605-9.5567c-6.3819,0-11.5576,5.1724-11.5576,11.5547
		c0,3.3448,1.4438,6.3321,3.7119,8.4502L4.711,39.5371l19.4345,19.4356L43.585,39.5371c-0.0039-0.0049-0.0108-0.0049-0.0196-0.0137
		c2.2676-2.1113,3.7002-5.0966,3.7002-8.4414c0-6.3823-5.1738-11.5547-11.5615-11.5547
		C29.3223,19.5273,24.1455,22.7021,24.1455,29.084z"/>
	<circle fill="#FDE3E3" cx="24.1463" cy="39.0537" r="3.1906"/>
</g>
<g id="heart-lock-open-line">
	<g>
		<path fill="#393939" d="M35.4873,19.8062c-0.5674,0-1.0273-0.4595-1.0273-1.0279v-7.2959c0-5.1977-4.627-9.4272-10.3145-9.4272
			c-5.6865,0-10.3135,4.2295-10.3135,9.4272v3.1738c0,0.5684-0.4594,1.0279-1.0273,1.0279c-0.5679,0-1.0273-0.4595-1.0273-1.0279
			v-3.1738C11.7774,5.1509,17.3252,0,24.1455,0c6.8203,0,12.3692,5.1509,12.3692,11.4824v7.2959
			C36.5147,19.3467,36.0557,19.8062,35.4873,19.8062L35.4873,19.8062z"/>
	</g>
	<g>
		<path fill="#393939" d="M24.1455,60c-0.2627,0-0.5259-0.1006-0.7265-0.3008L3.9844,40.2627
			c-0.0449-0.0449-0.085-0.0928-0.1201-0.1436C1.3696,37.7041,0,34.5049,0,31.082c0-6.938,5.645-12.5825,12.585-12.5825
			c5.5913,0,9.7363,2.2217,11.5605,5.9292c1.8242-3.7075,5.9688-5.9292,11.5586-5.9292c6.9414,0,12.5889,5.6445,12.5889,12.5825
			c0,3.4336-1.3682,6.6328-3.8594,9.0332c-0.0361,0.0537-0.0771,0.1026-0.1221,0.1475L24.8721,59.6992
			C24.6714,59.8994,24.4082,60,24.1455,60L24.1455,60z M5.6021,38.9736l18.5434,18.5459l18.5557-18.5517
			c0.0449-0.0713,0.1006-0.1377,0.1631-0.1953c2.1758-2.0264,3.374-4.7569,3.374-7.6905c0-5.8051-4.7256-10.5273-10.5342-10.5273
			c-5.0918,0-10.5312,2.2407-10.5312,8.5293c0,0.5679-0.4595,1.0273-1.0274,1.0273c-0.5678,0-1.0273-0.4594-1.0273-1.0273
			c0-6.2886-5.4409-8.5293-10.5332-8.5293c-5.8062,0-10.5303,4.7222-10.5303,10.5273c0,2.9258,1.2022,5.6602,3.3857,7.7002
			C5.5029,38.8398,5.5567,38.9043,5.6021,38.9736L5.6021,38.9736z"/>
	</g>
	<g>
		<path fill="#393939" d="M24.1455,43.2705c-2.3261,0-4.2173-1.8916-4.2173-4.2168c0-2.3262,1.8912-4.2178,4.2173-4.2178
			c2.3262,0,4.2188,1.8916,4.2188,4.2178C28.3643,41.3789,26.4717,43.2705,24.1455,43.2705L24.1455,43.2705z M24.1455,36.8906
			c-1.1919,0-2.1626,0.9707-2.1626,2.1631c0,1.1924,0.9707,2.1621,2.1626,2.1621c1.1934,0,2.1631-0.9697,2.1631-2.1621
			C26.3086,37.8613,25.3389,36.8906,24.1455,36.8906L24.1455,36.8906z"/>
	</g>
	<g>
		<path fill="#393939" d="M24.1455,48.7246c-0.5678,0-1.0273-0.46-1.0273-1.0283v-5.4531c0-0.5684,0.4595-1.0274,1.0273-1.0274
			c0.5679,0,1.0274,0.459,1.0274,1.0274v5.4531C25.1729,48.2646,24.7134,48.7246,24.1455,48.7246L24.1455,48.7246z"/>
	</g>
</g>
</svg>
