<?xml version="1.0" encoding="utf-8"?>
<!-- Generator: Adobe Illustrator 17.1.0, SVG Export Plug-In . SVG Version: 6.00 Build 0)  -->
<!DOCTYPE svg PUBLIC "-//W3C//DTD SVG 1.1//EN" "http://www.w3.org/Graphics/SVG/1.1/DTD/svg11.dtd">
<svg version="1.1" id="lips" xmlns="http://www.w3.org/2000/svg" xmlns:xlink="http://www.w3.org/1999/xlink" x="0px" y="0px"
	 viewBox="0 0 59.9997 31.0684" enable-background="new 0 0 59.9997 31.0684" xml:space="preserve">
<g id="lips-color">
	<path fill="#F16061" d="M28.741,14.3154c-1.1689,0-3.6631-0.2597-7.2353-1.9941c-0.2149-0.1211-1.0826-0.5635-2.9795-0.5635
		c-1.7915,0-3.9043,0.3916-6.2823,1.1641c-0.1792,0.0527-3.7436,1.081-7.0229,1.081c-0.6504,0-1.2568-0.0419-1.8018-0.125
		l-2.9853-0.4501l2.665-1.4209c2.3867-1.2715,6.336-3.7207,11.5972-8.1622c0.1059-0.0966,3.209-2.8437,7.3193-2.8437
		c2.333,0,4.5498,0.8769,6.5889,2.6074l0.0732,0.0625l0.0606,0.0762c0.1904,0.2373,0.6328,0.6357,1.4687,0.6357
		c0.8106,0,1.7803-0.3955,2.8838-1.1757c0.2285-0.1788,2.6426-1.9717,6.1397-1.9717c2.1845,0,4.3398,0.6972,6.4072,2.0742
		l0.0566,0.0381l0.0508,0.0459c0.6377,0.5625,6.3506,5.5683,10.7354,7.8613l2.7978,1.4639l-3.1308,0.4131
		c-0.5967,0.08-1.2403,0.1191-1.9121,0.1191c-1.8702,0-3.9717-0.2939-6.2461-0.875l-0.0997-0.0313
		c-0.0244-0.0078-2.4931-0.9082-5.3681-0.9082c-1.8965,0-3.5264,0.3858-4.8447,1.1465c-0.1455,0.0801-3.1661,1.711-7.3614,1.711
		c-0.2763,0-0.5576-0.0078-0.8447-0.0225C29.408,14.2813,29.1648,14.3154,28.741,14.3154L28.741,14.3154z"/>
	<path fill="#F16061" d="M30.3455,30.0498c-3.8359,0-9.6836-0.6699-15.7544-3.8623C14.469,26.1162,8.013,22.0469,3.8274,15.5147
		l-1.0312-1.6094l1.9101,0.0703l0.253,0.0137c0.0849,0.0058,0.1699,0.0136,0.2617,0.0136c3.3574,0,6.9834-1.0703,7.0195-1.08
		c2.3736-0.7715,4.4956-1.1651,6.2857-1.1651c1.3545,0,2.1972,0.2334,2.6069,0.3887h0.0879l0.2446,0.1543
		c3.5938,1.7529,6.1006,2.0146,7.2754,2.0146c0.3106,0,0.5303-0.0185,0.6543-0.0332l0.082-0.0097l0.083,0.0039
		c0.253,0.0117,0.503,0.0166,0.7481,0.0166c4.2559,0,7.2441-1.6397,7.3691-1.71c1.3125-0.7578,2.9463-1.1465,4.8438-1.1465
		c2.4433,0,4.5976,0.6436,5.4101,0.92c2.292,0.5898,4.4268,0.8945,6.3038,0.8945c0.1084,0,0.206-0.0049,0.3027-0.0098l1.8642-0.0605
		l-0.7099,1.4824c-1.7793,3.7158-7.2549,12.5996-19.6377,14.8486c0.001-0.0009,0.001-0.0009,0.001-0.0009
		C36.0633,29.5108,33.8221,30.0498,30.3455,30.0498L30.3455,30.0498z"/>
</g>
<g id="lips-line">
	<g>
		<path fill="#393939" d="M28.74,15.3154c-1.2607,0-3.9384-0.2744-7.7099-2.1142c-0.0342-0.0166-0.0664-0.0342-0.0987-0.0547
			c0.001,0,0.001,0,0.001,0c-0.0029,0-0.7295-0.3887-2.4062-0.3887c-1.6861,0-3.7046,0.378-6,1.1231
			C12.345,13.9346,8.681,15.002,5.221,15.002c-2.085,0-3.7002-0.3955-4.8008-1.1768c-0.3008-0.2139-0.459-0.5762-0.4121-0.9424
			c0.0469-0.3662,0.292-0.6767,0.6377-0.8086c0.0498-0.0185,5.1055-1.9863,13.373-8.9658C14.1282,3.0069,17.4593,0,22.0154,0
			c2.6133,0,5.0791,0.9844,7.3291,2.9268c0.0782,0.0674,0.1455,0.1465,0.1992,0.2344v-0.001c0.004,0,0.1944,0.2226,0.6631,0.2226
			c0.4121,0,1.1387-0.166,2.2598-0.957c0.0605-0.0518,2.7549-2.1904,6.7637-2.1904c2.4091,0,4.7715,0.7685,7.0234,2.2832
			c0.0371,0.0254,0.0723,0.0527,0.1055,0.083c2.4551,2.1816,9.5469,7.9922,12.8427,8.6738
			c0.3877,0.0801,0.6924,0.3818,0.7754,0.7686c0.083,0.3877-0.0693,0.7871-0.3896,1.0195c-0.167,0.1221-1.7383,1.1885-5.3525,1.1885
			c-1.961,0-4.1797-0.3155-6.5938-0.9375c-0.1172-0.0381-2.4512-0.878-5.1201-0.878c-1.7188,0-3.1846,0.3428-4.3565,1.0196
			c-0.1513,0.084-3.706,2.0595-8.6504,1.8183C29.3689,15.293,29.1082,15.3154,28.74,15.3154L28.74,15.3154z M21.9432,11.4209
			c3.3906,1.6485,5.7129,1.8945,6.7968,1.8945c0.335,0,0.5274-0.0244,0.5655-0.0302c0.0693-0.0117,0.1494-0.0137,0.2168-0.0127
			c4.3896,0.2334,7.624-1.5391,7.6543-1.5557c1.4687-0.8476,3.2705-1.2803,5.3447-1.2803c3.0371,0,5.6064,0.9307,5.7148,0.9707
			c2.1553,0.5499,4.2061,0.8448,5.9991,0.8448c0.6835,0,1.2753-0.044,1.7812-0.1114c-4.4814-2.3437-10.2637-7.4062-10.9336-7.999
			c-1.8994-1.2646-3.8682-1.9062-5.8525-1.9062c-3.3096,0-5.5371,1.7675-5.5596,1.7861c-1.2959,0.916-2.4443,1.3613-3.4639,1.3613
			c-1.2851,0-1.9853-0.6806-2.25-1.0117C26.1033,2.7979,24.1053,2,22.0154,2c-3.7866,0-6.6469,2.583-6.6748,2.6094
			c-5.4048,4.5625-9.4546,7.0449-11.772,8.2803c0.4952,0.0752,1.0479,0.1123,1.6524,0.1123c3.1748,0,6.6787-1.0215,6.7139-1.0313
			c2.4687-0.8017,4.6958-1.2129,6.5913-1.2129C20.6033,10.7578,21.6429,11.25,21.9432,11.4209L21.9432,11.4209z"/>
	</g>
	<g>
		<path fill="#393939" d="M30.3416,31.0684c-4.1641,0-10.0684-0.7637-16.2793-4.0313c-0.3672-0.2256-7.5845-4.7685-11.8335-12.2256
			c-0.2734-0.4794-0.1055-1.0908,0.374-1.3642c0.4785-0.2735,1.0899-0.1055,1.3643,0.374c4,7.0205,11.0185,11.4385,11.0889,11.4815
			c10.7163,5.6367,20.7211,3.2509,20.8198,3.2246C50.8787,25.8037,55.367,12.9131,55.41,12.7832
			c0.1767-0.5234,0.7451-0.8037,1.2666-0.6299c0.5234,0.1758,0.8056,0.7432,0.6298,1.2666
			c-0.1933,0.5762-4.9199,14.1426-21.0107,17.0625C36.1238,30.5254,33.8514,31.0684,30.3416,31.0684L30.3416,31.0684z"/>
	</g>
</g>
</svg>
