<?xml version="1.0" encoding="utf-8"?>
<!-- Generator: Adobe Illustrator 17.1.0, SVG Export Plug-In . SVG Version: 6.00 Build 0)  -->
<!DOCTYPE svg PUBLIC "-//W3C//DTD SVG 1.1//EN" "http://www.w3.org/Graphics/SVG/1.1/DTD/svg11.dtd">
<svg version="1.1" id="love-smiley" xmlns="http://www.w3.org/2000/svg" xmlns:xlink="http://www.w3.org/1999/xlink" x="0px"
	 y="0px" viewBox="0 0 59.9995 60" enable-background="new 0 0 59.9995 60" xml:space="preserve">
<g id="love-smiley-color">
	<circle fill="#FDE3E3" cx="29.9998" cy="30" r="28.9284"/>
	<path fill="#F16061" d="M18.352,18.5688c0.6036-1.3808,1.982-2.3457,3.5826-2.3457c2.1596,0,3.7124,1.7852,3.9091,3.9092
		c0,0,0.1045,0.5274-0.1279,1.4785c-0.3159,1.293-1.0586,2.441-2.0591,3.3179L18.352,29.499l-5.2138-4.5703
		c-1.001-0.8769-1.7442-2.0249-2.062-3.3188c-0.2305-0.9502-0.1255-1.4776-0.1255-1.4776c0.1953-2.124,1.749-3.9092,3.9087-3.9092
		C16.4614,16.2231,17.7495,17.188,18.352,18.5688z"/>
	<path fill="#F16061" d="M41.5581,18.5688c0.6016-1.3808,1.9795-2.3457,3.582-2.3457c2.1582,0,3.7119,1.7852,3.9082,3.9092
		c0,0,0.1055,0.5274-0.1259,1.4785c-0.3165,1.293-1.0606,2.441-2.0606,3.3179l-5.3037,4.5703l-5.2148-4.5703
		c-1.002-0.8769-1.7432-2.0249-2.0606-3.3188c-0.2314-0.9502-0.126-1.4776-0.126-1.4776c0.1944-2.124,1.7491-3.9092,3.9073-3.9092
		C39.6655,16.2231,40.9546,17.188,41.5581,18.5688z"/>
</g>
<g id="love-smiley-line">
	<g>
		<path fill="#393939" d="M29.9995,60C13.4575,60,0,46.542,0,30S13.4575,0,29.9995,0s30,13.458,30,30S46.5415,60,29.9995,60
			L29.9995,60z M29.9995,2.1431C14.6396,2.1431,2.1426,14.6392,2.1426,30c0,15.3613,12.497,27.8564,27.8569,27.8564
			c15.3594,0,27.8574-12.4951,27.8574-27.8564C57.8569,14.6392,45.3589,2.1431,29.9995,2.1431L29.9995,2.1431z"/>
	</g>
	<g>
		<path fill="#393939" d="M29.9995,49.373c-8.5859,0-16.2241-5.9921-16.2241-10.7158c0-0.5927,0.4795-1.0713,1.0718-1.0713
			c0.5908,0,1.0712,0.4786,1.0712,1.0713c0,2.9346,5.9463,8.5733,14.0811,8.5733c8.1338,0,14.0801-5.6387,14.0801-8.5733
			c0-0.5927,0.4804-1.0713,1.0713-1.0713c0.5918,0,1.0713,0.4786,1.0713,1.0713C46.2222,43.3809,38.5845,49.373,29.9995,49.373
			L29.9995,49.373z"/>
	</g>
	<g>
		<path fill="#393939" d="M18.352,30.5703c-0.2519,0-0.5044-0.0889-0.706-0.2656l-5.2139-4.5703
			c-1.2055-1.0547-2.0342-2.3931-2.396-3.8697c-0.2397-0.9863-0.1831-1.6381-0.1489-1.8686
			c0.2764-2.8091,2.3608-4.8442,4.9722-4.8442c1.3593,0,2.602,0.5532,3.5034,1.5097c0.9223-0.9477,2.2021-1.5097,3.5718-1.5097
			c2.5678,0,4.6992,2.08,4.9721,4.8432c0.0347,0.2324,0.0908,0.8843-0.1484,1.8687c-0.3623,1.4775-1.1909,2.8159-2.3965,3.8706
			l-5.311,4.5761C18.8501,30.4834,18.6011,30.5703,18.352,30.5703L18.352,30.5703z M12.001,20.3394
			c0.0019,0-0.0411,0.3696,0.1172,1.017c0.2553,1.0455,0.8525,2.0015,1.7265,2.7657l4.5137,3.957l4.5986-3.9624
			c0.8653-0.7578,1.4624-1.7148,1.7188-2.7612c0.1626-0.6665,0.1123-1.0381,0.1108-1.041c-0.144-1.5425-1.1631-3.0201-2.852-3.0201
			c-1.128,0-2.149,0.669-2.6011,1.7036c-0.1694,0.3902-0.5557,0.6426-0.9815,0.6426l0,0c-0.4267,0-0.812-0.2524-0.9814-0.6426
			c-0.4658-1.0673-1.4043-1.7036-2.5112-1.7036c-1.6885,0-2.7076,1.4776-2.8418,2.9361c-0.0039,0.0366-0.0083,0.0732-0.0166,0.1098
			C12.001,20.3394,12.001,20.3394,12.001,20.3394L12.001,20.3394z"/>
	</g>
	<g>
		<path fill="#393939" d="M41.5581,30.5703c-0.252,0-0.5039-0.0889-0.7061-0.2656l-5.2148-4.5703
			c-1.2041-1.0537-2.0322-2.3921-2.3945-3.8697c-0.2403-0.9843-0.1836-1.6362-0.1494-1.8696
			c0.2714-2.7641,2.4013-4.8432,4.9707-4.8432c1.3584,0,2.6015,0.5532,3.5039,1.5097c0.9199-0.9477,2.2011-1.5097,3.5722-1.5097
			c2.6094,0,4.6953,2.0351,4.9717,4.8432c0.0342,0.2315,0.0908,0.8833-0.1484,1.8687c-0.3604,1.4741-1.1885,2.8125-2.3955,3.8706
			l-5.3096,4.5761C42.0571,30.4834,41.8071,30.5703,41.5581,30.5703L41.5581,30.5703z M35.2085,20.3413
			c0,0-0.042,0.3677,0.1142,1.0142c0.2579,1.0473,0.8545,2.0034,1.7256,2.7666l4.5147,3.957l4.5996-3.9624
			c0.8672-0.7598,1.4629-1.7158,1.7187-2.7603c0.1631-0.6674,0.1123-1.039,0.1114-1.0429
			c-0.1465-1.5415-1.1661-3.0191-2.8526-3.0191c-1.1289,0-2.1494,0.669-2.5996,1.7027c-0.1709,0.3901-0.5556,0.6435-0.9814,0.6435
			h-0.001c-0.4258,0-0.8106-0.2524-0.9824-0.6426c-0.4658-1.0664-1.4053-1.7036-2.5117-1.7036
			c-1.6885,0-2.7071,1.4766-2.8409,2.9351c-0.0029,0.0376-0.0088,0.0752-0.0156,0.1133
			C35.2075,20.3413,35.2085,20.3413,35.2085,20.3413L35.2085,20.3413z"/>
	</g>
</g>
</svg>
