<?xml version="1.0" encoding="utf-8"?>
<!-- Generator: Adobe Illustrator 17.1.0, SVG Export Plug-In . SVG Version: 6.00 Build 0)  -->
<!DOCTYPE svg PUBLIC "-//W3C//DTD SVG 1.1//EN" "http://www.w3.org/Graphics/SVG/1.1/DTD/svg11.dtd">
<svg version="1.1" id="love-ticket" xmlns="http://www.w3.org/2000/svg" xmlns:xlink="http://www.w3.org/1999/xlink" x="0px"
	 y="0px" viewBox="0 0 36.0445 60" enable-background="new 0 0 36.0445 60" xml:space="preserve">
<g id="love-ticket-color">
	<path fill="#F16061" d="M8.8833,1.0527c0,3.9927,3.9795,8.8897,8.8902,8.8897c4.9087,0,8.8891-4.897,8.8891-8.8897h8.3291v57.8946
		h-8.3896c0.0117,0,0.0605-0.7725,0.0605-0.9873c0-4.9082-3.9804-9.0723-8.8891-9.0723c-4.9107,0-8.8902,4.2559-8.8902,9.1631
		c0,0.2138,0.0454,0.8965,0.063,0.8965H1.0528V1.0527H8.8833z"/>
	<circle fill="#FFFFFF" cx="18.0222" cy="29.75" r="12.4773"/>
	<path fill="#F16061" d="M18.023,27.52c0-1.9375-1.5718-3.5088-3.5113-3.5088c-1.9379,0-3.5097,1.5713-3.5097,3.5088
		c0,1.0156,0.4389,1.9224,1.1279,2.5659l-0.0083,0.002l5.9014,5.9014l5.9043-5.9014c-0.0039-0.002-0.0059-0.002-0.0078-0.0039
		c0.6884-0.6436,1.122-1.5484,1.122-2.564c0-1.9375-1.5683-3.5088-3.5078-3.5088C19.5952,24.0112,18.023,25.5825,18.023,27.52z"/>
</g>
<g id="love-ticket-line">
	<g>
		<path fill="#393939" d="M34.9917,60h-8.3896c-0.5811,0-1.0528-0.4707-1.0528-1.0527c0-0.0616,0.0059-0.1221,0.0157-0.1807
			c0.0166-0.168,0.0459-0.6523,0.0459-0.8066c0-4.3467-3.5889-8.0196-7.8374-8.0196c-4.2481,0-7.8374,3.7139-7.8374,8.1104
			c0,0.1387,0.0224,0.5117,0.039,0.6738c0.0157,0.0723,0.024,0.1465,0.024,0.2227C9.9991,59.5293,9.5274,60,8.9463,60H1.0528
			C0.4712,60,0,59.5293,0,58.9473V1.0527C0,0.4717,0.4712,0,1.0528,0h7.8305c0.5816,0,1.0528,0.4717,1.0528,1.0527
			c0,3.5279,3.6167,7.8374,7.8374,7.8374c4.2202,0,7.8374-4.3095,7.8374-7.8374C25.6109,0.4717,26.0816,0,26.6626,0h8.3291
			c0.5821,0,1.0528,0.4717,1.0528,1.0527v57.8946C36.0445,59.5293,35.5738,60,34.9917,60L34.9917,60z M27.7154,57.8945h6.2236
			V2.1055h-6.3008c-0.6113,4.2553-4.7803,8.8896-9.8647,8.8896c-5.084,0-9.2544-4.6343-9.8653-8.8896H2.105v55.789h5.7271
			c0.0844-5.4687,4.6025-10.0595,9.9414-10.0595C23.2339,47.835,27.6802,52.3418,27.7154,57.8945L27.7154,57.8945z"/>
	</g>
	<g>
		<g>
			<path fill="#393939" d="M18.022,43.2803c-7.4604,0-13.5298-6.0694-13.5298-13.5303c0-7.46,6.0694-13.5298,13.5298-13.5298
				c7.4609,0,13.5303,6.0698,13.5303,13.5298C31.5523,37.2109,25.4829,43.2803,18.022,43.2803L18.022,43.2803z M18.022,18.3257
				c-6.2998,0-11.4248,5.1245-11.4248,11.4243c0,6.2998,5.125,11.4248,11.4248,11.4248c6.2998,0,11.4248-5.125,11.4248-11.4248
				C29.4468,23.4502,24.3218,18.3257,18.022,18.3257L18.022,18.3257z"/>
		</g>
		<g>
			<path fill="#393939" d="M18.023,37.041c-0.2691,0-0.5386-0.1025-0.7442-0.3076l-5.9013-5.9014
				c-0.0249-0.0244-0.0479-0.0503-0.0699-0.0771c-0.8769-0.8692-1.3579-2.0122-1.3579-3.2349c0-2.5151,2.0464-4.5615,4.562-4.5615
				c1.4102,0,2.6734,0.6431,3.5113,1.6504c0.8379-1.0073,2.1006-1.6504,3.5107-1.6504c2.5156,0,4.5606,2.0464,4.5606,4.5615
				c0,1.2202-0.4756,2.3594-1.3438,3.2246c-0.0244,0.0303-0.0508,0.0596-0.0791,0.0879l-5.9043,5.9009
				C18.5616,36.9385,18.2925,37.041,18.023,37.041L18.023,37.041z M12.9566,29.4341L18.023,34.5l5.0625-5.0591
				c0.0351-0.0449,0.0732-0.0869,0.1152-0.126c0.5088-0.4755,0.7891-1.1128,0.7891-1.7949c0-1.3545-1.1026-2.456-2.4561-2.456
				c-1.3554,0-2.458,1.1015-2.458,2.456c0,0.5816-0.4712,1.0528-1.0527,1.0528c-0.5811,0-1.0528-0.4712-1.0528-1.0528
				c0-1.3545-1.1025-2.456-2.4585-2.456c-1.3549,0-2.457,1.1015-2.457,2.456c0,0.6807,0.2818,1.3184,0.7935,1.7969
				C12.8877,29.3535,12.9239,29.3926,12.9566,29.4341L12.9566,29.4341z"/>
		</g>
	</g>
</g>
</svg>
