<?xml version="1.0" encoding="utf-8"?>
<!-- Generator: Adobe Illustrator 17.1.0, SVG Export Plug-In . SVG Version: 6.00 Build 0)  -->
<!DOCTYPE svg PUBLIC "-//W3C//DTD SVG 1.1//EN" "http://www.w3.org/Graphics/SVG/1.1/DTD/svg11.dtd">
<svg version="1.1" id="love-cruise" xmlns="http://www.w3.org/2000/svg" xmlns:xlink="http://www.w3.org/1999/xlink" x="0px"
	 y="0px" viewBox="0 0 47.5898 60" enable-background="new 0 0 47.5898 60" xml:space="preserve">
<g id="love-cruise-love-cruise">
	<g id="love-cruise-color">
		<path fill="#FFFFFF" d="M20.2988,17.2427c0.1143-0.0913,0.439-0.2476,0.9468-0.2476h5.0981c0.5088,0,0.8321,0.1563,0.9473,0.2476
			v3.3545h-6.9922V17.2427z"/>
		<path fill="#FDE3E3" d="M7.5635,23.3564c0-0.3603,0.2929-0.6538,0.6528-0.6538H39.373c0.3604,0,0.6533,0.2935,0.6533,0.6538
			v10.5342l-15.5849-5.8447c-0.4141-0.1563-0.8809-0.1553-1.2901-0.001L7.5635,33.8906V23.3564z"/>
		<path fill="#F16061" d="M11.4863,54.2559c-7.9687-7.8272-8.5435-14.4434-8.5176-16.3946l20.8262-7.8095l20.8252,7.8095
			c0.0244,1.959-0.5527,8.5713-8.5176,16.3946H11.4863z"/>
		<path fill="#F16061" d="M38.6553,3.2681c-0.1104-1.2046-0.9913-2.2154-2.2149-2.2154c-0.9082,0-1.6377,0.5459-1.9805,1.3301
			c-0.3408-0.7842-1.124-1.3301-2.0302-1.3301c-1.2246,0-2.1045,1.0108-2.2149,2.2154c0,0-0.0595,0.3003,0.0723,0.8379
			l0.2226,0.2553c-1.0009,0.0161-1.8056,0.6201-2.1835,1.4868c-0.3858-0.8779-1.2598-1.4926-2.2803-1.4926
			c-1.3711,0-2.3589,1.1362-2.4844,2.4868c0,0-0.0669,0.3349,0.0801,0.9394c0.2016,0.8238,0.6758,1.5523,1.3096,2.1114l3.375,2.9062
			l3.3154-2.9062c0.6367-0.5591,1.1084-1.2876,1.3105-2.1114c0.0518-0.2124,0.0723-0.3784,0.083-0.521l0.3106,0.3565l1.1142,0.9604
			l2.9551-2.5918c0.5684-0.4965,0.9883-1.1469,1.168-1.8798C38.7138,3.5684,38.6553,3.2681,38.6553,3.2681z"/>
	</g>
	<g id="love-cruise-line">
		<g>
			<g>
				<path fill="#393939" d="M36.9551,56.3604H10.6343l-0.3057-0.294C-0.3311,45.7979,0.8657,37.3086,0.9209,36.9512l0.0967-0.6055
					l22.1337-8.3008c0.4092-0.1543,0.876-0.1553,1.2901,0.001l22.1308,8.2998l0.0948,0.6055
					c0.0566,0.3574,1.2519,8.8467-9.4063,19.1152L36.9551,56.3604L36.9551,56.3604z M11.4863,54.2559h24.6162
					c7.9649-7.8233,8.543-14.4366,8.5176-16.3946l-20.8252-7.8095L2.9687,37.8613C2.9428,39.8125,3.5176,46.4287,11.4863,54.2559
					L11.4863,54.2559z"/>
			</g>
			<g>
				<path fill="#393939" d="M6.9653,40.8965c-0.4277,0-0.8306-0.2637-0.9878-0.6885c-0.2007-0.5449,0.0791-1.1514,0.624-1.3525
					l17.6582-6.5049l16.7452,6.5127c0.542,0.209,0.8105,0.8203,0.6005,1.3613c-0.2119,0.542-0.8222,0.8115-1.3632,0.5996
					l-16.003-6.2217L7.3291,40.8311C7.209,40.876,7.0864,40.8965,6.9653,40.8965L6.9653,40.8965z"/>
			</g>
			<g>
				<path fill="#393939" d="M29.3965,21.8896H27.291v-4.6469c-0.1152-0.0913-0.4385-0.2476-0.9473-0.2476h-5.0981
					c-0.5078,0-0.8325,0.1563-0.9468,0.2476v4.6469h-2.105v-4.7587c0-1.2774,1.3125-2.2408,3.0518-2.2408h5.0981
					c1.7403,0,3.0528,0.9634,3.0528,2.2408V21.8896L29.3965,21.8896z"/>
			</g>
			<g>
				<path fill="#393939" d="M42.1318,35.4092h-2.1055V23.3564c0-0.3603-0.2939-0.6538-0.6533-0.6538H8.2163
					c-0.3599,0-0.6528,0.2935-0.6528,0.6538v12.0528h-2.105V23.3564c0-1.5214,1.2378-2.7592,2.7578-2.7592H39.373
					c1.5205,0,2.7588,1.2378,2.7588,2.7592V35.4092L42.1318,35.4092z"/>
			</g>
			<g>
				<path fill="#393939" d="M35.126,26.3403h-2.1055c-0.5801,0-1.0527-0.4712-1.0527-1.0522c0-0.5816,0.4726-1.0527,1.0527-1.0527
					h2.1055c0.581,0,1.0527,0.4711,1.0527,1.0527C36.1787,25.8691,35.707,26.3403,35.126,26.3403L35.126,26.3403z M29.8633,26.3403
					h-2.1055c-0.5811,0-1.0527-0.4712-1.0527-1.0522c0-0.5816,0.4716-1.0527,1.0527-1.0527h2.1055
					c0.58,0,1.0527,0.4711,1.0527,1.0527C30.916,25.8691,30.4433,26.3403,29.8633,26.3403L29.8633,26.3403z M24.5996,26.3403h-2.105
					c-0.5806,0-1.0527-0.4712-1.0527-1.0522c0-0.5816,0.4721-1.0527,1.0527-1.0527h2.105c0.581,0,1.0527,0.4711,1.0527,1.0527
					C25.6523,25.8691,25.1806,26.3403,24.5996,26.3403L24.5996,26.3403z M19.3369,26.3403h-2.1055
					c-0.5805,0-1.0527-0.4712-1.0527-1.0522c0-0.5816,0.4722-1.0527,1.0527-1.0527h2.1055c0.5806,0,1.0522,0.4711,1.0522,1.0527
					C20.3891,25.8691,19.9175,26.3403,19.3369,26.3403L19.3369,26.3403z M14.0737,26.3403h-2.1055
					c-0.5805,0-1.0522-0.4712-1.0522-1.0522c0-0.5816,0.4717-1.0527,1.0522-1.0527h2.1055c0.5806,0,1.0527,0.4711,1.0527,1.0527
					C15.1264,25.8691,14.6543,26.3403,14.0737,26.3403L14.0737,26.3403z"/>
			</g>
			<g>
				<path fill="#393939" d="M46.5371,56.3604H1.0527C0.4707,56.3604,0,55.8896,0,55.3086c0-0.582,0.4707-1.0527,1.0527-1.0527
					h45.4844c0.582,0,1.0527,0.4707,1.0527,1.0527C47.5898,55.8896,47.1191,56.3604,46.5371,56.3604L46.5371,56.3604z"/>
			</g>
			<g>
				<path fill="#393939" d="M36.9853,60H10.6045c-0.5821,0-1.0528-0.4707-1.0528-1.0527c0-0.5821,0.4707-1.0528,1.0528-1.0528
					h26.3808c0.5821,0,1.0528,0.4707,1.0528,1.0528C38.0381,59.5293,37.5674,60,36.9853,60L36.9853,60z"/>
			</g>
			<g>
				<polygon fill="#393939" points="24.8476,55.3086 22.7422,55.3086 22.7422,29.0308 24.8476,29.0308 24.8476,55.3086 				"/>
			</g>
		</g>
		<g>
			<g>
				<path fill="#393939" d="M28.3262,13.8521c-0.2442,0-0.4893-0.085-0.6866-0.2549l-3.375-2.9063
					c-0.8335-0.7344-1.3989-1.6509-1.6455-2.6587c-0.1626-0.6689-0.1308-1.1269-0.102-1.3237
					c0.1977-1.9439,1.7085-3.4053,3.5288-3.4053c0.8457,0,1.6426,0.3013,2.2676,0.8228c0.6123-0.5254,1.3916-0.8228,2.2343-0.8228
					c1.8223,0,3.335,1.4619,3.5303,3.4068c0.0273,0.1953,0.0586,0.6528-0.1035,1.3208c-0.2481,1.0127-0.8154,1.9301-1.6397,2.6533
					l-3.3144,2.9067C28.8213,13.7651,28.5742,13.8521,28.3262,13.8521L28.3262,13.8521z M24.5947,7.042
					c0.0039,0-0.0054,0.1826,0.0698,0.4912c0.1441,0.5869,0.4829,1.1299,0.9829,1.5708l2.6729,2.3008l2.6269-2.3032
					c0.4981-0.4366,0.8379-0.98,0.9825-1.5699c0.083-0.3398,0.0644-0.5273,0.0634-0.5293
					c-0.0781-0.8242-0.5947-1.5942-1.4453-1.5942c-0.5517,0-1.0205,0.3218-1.2578,0.8613c-0.166,0.3833-0.5449,0.6309-0.9629,0.6314
					c-0.0009,0-0.0009,0-0.0009,0c-0.417,0-0.7959-0.2466-0.9639-0.6294c-0.2305-0.5244-0.7471-0.8633-1.3164-0.8633
					c-0.8487,0-1.3648,0.7705-1.4365,1.5313c-0.0025,0.0351-0.0083,0.0698-0.0147,0.1044C24.5947,7.043,24.5947,7.042,24.5947,7.042
					L24.5947,7.042z"/>
			</g>
			<g>
				<path fill="#393939" d="M34.4599,9.6299c-0.2451,0-0.4892-0.0845-0.6875-0.2549l-1.1142-0.96
					c-0.4404-0.3798-0.4893-1.0444-0.1104-1.4848c0.3819-0.4395,1.045-0.4888,1.4854-0.1104l0.4209,0.3628l2.2676-1.9883
					c0.4257-0.3715,0.7148-0.8344,0.8398-1.3393c0.0664-0.2774,0.0537-0.4312,0.0537-0.4326
					c-0.0664-0.6836-0.4834-1.3169-1.1748-1.3169c-0.4443,0-0.8252,0.2612-1.0156,0.6987c-0.168,0.3838-0.5469,0.6313-0.9649,0.6313
					H34.459c-0.418,0-0.7979-0.2485-0.9639-0.6328c-0.1856-0.4233-0.6025-0.6972-1.0654-0.6972
					c-0.6895,0-1.1094,0.6333-1.168,1.2592c-0.002,0.0337-0.0068,0.0679-0.0137,0.1016c0.0059-0.0122-0.0068,0.1104,0.0615,0.3877
					c0.1397,0.5645-0.206,1.1348-0.7705,1.2734c-0.5595,0.1421-1.1337-0.2045-1.2734-0.7695
					c-0.1504-0.6084-0.1221-1.0332-0.0967-1.2207C29.3496,1.3462,30.7461,0,32.4297,0c0.748,0,1.456,0.2554,2.0185,0.6987
					C35.0029,0.252,35.6943,0,36.4404,0c1.6846,0,3.0801,1.3467,3.2588,3.1387c0.0273,0.1855,0.0537,0.6084-0.0938,1.2153
					c-0.2275,0.9302-0.746,1.7681-1.497,2.4243l-2.9541,2.5908C34.9551,9.5425,34.708,9.6299,34.4599,9.6299L34.4599,9.6299z"/>
			</g>
		</g>
	</g>
</g>
</svg>
