<?xml version="1.0" encoding="utf-8"?>
<!-- Generator: Adobe Illustrator 17.1.0, SVG Export Plug-In . SVG Version: 6.00 Build 0)  -->
<!DOCTYPE svg PUBLIC "-//W3C//DTD SVG 1.1//EN" "http://www.w3.org/Graphics/SVG/1.1/DTD/svg11.dtd">
<svg version="1.1" id="loving-kiss-smiley" xmlns="http://www.w3.org/2000/svg" xmlns:xlink="http://www.w3.org/1999/xlink" x="0px"
	 y="0px" viewBox="0 0 59.9993 51.1562" enable-background="new 0 0 59.9993 51.1562" xml:space="preserve">
<g id="loving-kiss-smiley-color">
	<path fill="#FFFFFF" d="M40.5972,35.1269c-0.7832-0.6855-1.3653-1.584-1.6114-2.5937c-0.1836-0.7442-0.0996-1.1563-0.0996-1.1563
		c0.1524-1.6621,1.3672-3.0566,3.0547-3.0566c1.2539,0,2.2598,0.7558,2.7324,1.834c0.1992-0.4571,0.5137-0.8496,0.8965-1.1582
		c0.4238-1.7266,0.6719-3.5205,0.6719-5.376C46.2417,11.1279,36.1128,1,23.6201,1C11.1269,1,1,11.1279,1,23.6201
		c0,12.4932,10.1269,22.6201,22.6201,22.6201c7.6939,0,14.481-3.8496,18.5669-9.7187L40.5972,35.1269z"/>
	<path fill="#F16061" d="M53.1245,41.6113c0.4707-1.0801,1.5488-1.834,2.8008-1.834c1.6875,0,2.9023,1.3945,3.0566,3.0567
		c0,0,0.0821,0.4121-0.0996,1.1543C58.6343,45,58.0542,45.8984,57.271,46.584l-4.1465,3.5722l-4.0781-3.5722
		c-0.7832-0.6856-1.3633-1.584-1.6114-2.5957c-0.1796-0.7422-0.0996-1.1543-0.0996-1.1543
		c0.1543-1.6622,1.3692-3.0567,3.0567-3.0567C51.644,39.7773,52.6518,40.5312,53.1245,41.6113z"/>
	<path fill="#F16061" d="M44.6733,30.1543c0.4727-1.0801,1.5489-1.834,2.8028-1.834c1.6875,0,2.9023,1.3945,3.0547,3.0566
		c0,0,0.082,0.4141-0.0997,1.1543c-0.2461,1.0117-0.8281,1.9102-1.6113,2.5957l-4.1465,3.5742l-4.0781-3.5742
		c-0.7812-0.6855-1.3633-1.584-1.6113-2.5957c-0.1797-0.7402-0.0977-1.1543-0.0977-1.1543
		c0.1524-1.6621,1.3672-3.0566,3.0547-3.0566C43.1948,28.3203,44.2007,29.0742,44.6733,30.1543z"/>
</g>
<g id="loving-kiss-smiley-line">
	<g>
		<path fill="#393939" d="M18.2344,18.8427c-0.5528,0-1-0.4472-1-1c0-1.8251-1.4844-3.3095-3.3086-3.3095
			s-3.3086,1.4844-3.3086,3.3095c0,0.5528-0.4473,1-1,1c-0.5528,0-1-0.4472-1-1c0-2.9277,2.3818-5.3095,5.3086-5.3095
			c2.9267,0,5.3086,2.3818,5.3086,5.3095C19.2344,18.3955,18.7871,18.8427,18.2344,18.8427L18.2344,18.8427z"/>
	</g>
	<g>
		<path fill="#393939" d="M37.6225,18.8427c-0.5527,0-1-0.4472-1-1c0-1.8251-1.4843-3.3095-3.3085-3.3095
			c-1.8243,0-3.3082,1.4844-3.3082,3.3095c0,0.5528-0.4472,1-1,1c-0.5527,0-1-0.4472-1-1c0-2.9277,2.3819-5.3095,5.3082-5.3095
			c2.9277,0,5.3085,2.3818,5.3085,5.3095C38.6225,18.3955,38.1753,18.8427,37.6225,18.8427L37.6225,18.8427z"/>
	</g>
	<g>
		<path fill="#393939" d="M30.084,38.9824c-0.3233,0-0.6407-0.1563-0.833-0.4453c-0.3067-0.459-0.1827-1.0801,0.2773-1.3867
			l3.3306-2.2207l-3.3306-2.2188c-0.2783-0.1855-0.4453-0.4971-0.4453-0.832c0-0.334,0.167-0.6465,0.4453-0.8321l3.3306-2.2207
			l-3.3306-2.2197c-0.46-0.3066-0.584-0.9267-0.2773-1.3867c0.3056-0.46,0.9248-0.584,1.3867-0.2773l4.5786,3.0517
			c0.2773,0.1856,0.4453,0.4981,0.4453,0.832c0,0.334-0.168,0.6465-0.4453,0.8321l-3.3301,2.2207l3.3301,2.2187
			c0.2773,0.1856,0.4453,0.4971,0.4453,0.8321c0,0.3339-0.168,0.6464-0.4453,0.832l-4.5786,3.0527
			C30.4678,38.9277,30.2744,38.9824,30.084,38.9824L30.084,38.9824z"/>
	</g>
	<g>
		<path fill="#393939" d="M53.1245,51.1562c-0.2363,0-0.4707-0.083-0.6602-0.248l-4.0781-3.5723
			c-0.9668-0.8467-1.6328-1.9228-1.9219-3.1103c-0.1914-0.7862-0.1503-1.3174-0.121-1.5157
			c0.2226-2.2441,1.957-3.9326,4.0488-3.9326c1.0508,0,2.0176,0.4063,2.7422,1.1133c0.7402-0.7012,1.7324-1.1133,2.791-1.1133
			c2.0918,0,3.8262,1.6885,4.0488,3.9317c0.0293,0.2002,0.0703,0.7324-0.1211,1.5166c-0.289,1.1875-0.9551,2.2627-1.9238,3.1113
			l-4.1524,3.5771C53.5893,51.0752,53.3569,51.1562,53.1245,51.1562L53.1245,51.1562z M48.3179,43.0254
			c0.0019,0-0.0235,0.2646,0.0898,0.7265c0.1914,0.7852,0.6406,1.5049,1.2969,2.0791l3.4258,3.001l3.4882-3.0059
			c0.6504-0.5703,1.0997-1.29,1.2911-2.0751c0.1191-0.4834,0.0859-0.75,0.0859-0.753c-0.1094-1.1396-0.8477-2.2207-2.0703-2.2207
			c-0.8184,0-1.5567,0.4844-1.8848,1.2344c-0.1582,0.3643-0.5195,0.5996-0.916,0.5996l0,0c-0.3984,0-0.7578-0.2353-0.916-0.5986
			c-0.3399-0.7735-1.0176-1.2354-1.8164-1.2354c-1.2227,0-1.961,1.0811-2.0606,2.1485
			C48.3296,42.959,48.3237,42.9922,48.3179,43.0254L48.3179,43.0254L48.3179,43.0254z"/>
	</g>
	<g>
		<path fill="#393939" d="M44.6733,39.7011c-0.2363,0-0.4707-0.083-0.6601-0.248l-4.0762-3.5742
			c-0.9687-0.8477-1.6328-1.9229-1.9238-3.1094c-0.1914-0.7842-0.1485-1.3174-0.1211-1.5166
			c0.2226-2.2441,1.957-3.9326,4.0488-3.9326c1.0527,0,2.0195,0.4062,2.7422,1.1133c0.7402-0.7012,1.7344-1.1133,2.793-1.1133
			c2.0918,0,3.8261,1.6885,4.0468,3.9326c0.0293,0.1992,0.0704,0.7324-0.1211,1.5166c-0.289,1.1856-0.9531,2.2617-1.9238,3.1104
			l-4.1523,3.5791C45.1382,39.6201,44.9058,39.7011,44.6733,39.7011L44.6733,39.7011z M39.8667,31.5693
			c0.0019,0-0.0234,0.2656,0.0898,0.7246c0.1914,0.7852,0.6407,1.5049,1.2989,2.0811l3.4238,3.001l3.4883-3.0069
			c0.6523-0.5703,1.1015-1.29,1.291-2.0742c0.1191-0.4834,0.0859-0.752,0.0859-0.7539c-0.1074-1.1406-0.8457-2.2207-2.0683-2.2207
			c-0.8184,0-1.5586,0.4844-1.8868,1.2353c-0.1601,0.3633-0.5195,0.5987-0.916,0.5987l0,0c-0.3984,0-0.7578-0.2354-0.916-0.5996
			c-0.3379-0.7735-1.0176-1.2344-1.8164-1.2344c-1.2226,0-1.9609,1.0801-2.0586,2.1474c-0.0039,0.0342-0.0078,0.0684-0.0156,0.1026
			C39.8667,31.5693,39.8667,31.5693,39.8667,31.5693L39.8667,31.5693z"/>
	</g>
	<g>
		<path fill="#393939" d="M23.6201,47.2402C10.5957,47.2402,0,36.6445,0,23.6201C0,10.5957,10.5957,0,23.6201,0
			C36.644,0,47.2417,10.5957,47.2417,23.6201c0,1.8291-0.2363,3.7187-0.6992,5.6142c-0.0528,0.2129-0.1739,0.4034-0.3457,0.5411
			c-0.2696,0.2168-0.4805,0.4863-0.6075,0.7783c-0.1582,0.3642-0.5175,0.6006-0.916,0.6006l0,0
			c-0.3984,0-0.7578-0.2354-0.916-0.5996c-0.3398-0.7725-1.0176-1.2344-1.8164-1.2344c-1.2226,0-1.9609,1.0801-2.0586,2.1474
			c-0.0039,0.0352-0.0098,0.0704-0.0156,0.1055c0-0.001,0-0.001,0-0.001c0.0019,0-0.0234,0.2637,0.0898,0.7227
			c0.1914,0.7842,0.6407,1.5029,1.2989,2.0791l1.5918,1.3955c0.3828,0.3359,0.4511,0.9053,0.1601,1.3232
			C38.5835,43.4472,31.3354,47.2402,23.6201,47.2402L23.6201,47.2402z M23.6201,2C11.6992,2,2,11.6992,2,23.6201
			c0,11.9209,9.6992,21.6201,21.6201,21.6201c6.7647,0,13.1372-3.1865,17.2212-8.5684l-0.9043-0.7929
			c-0.9687-0.8487-1.6348-1.9238-1.9238-3.1094c-0.1914-0.7832-0.1485-1.3164-0.1192-1.5176
			c0.2207-2.2441,1.9551-3.9316,4.0469-3.9316c1.0488,0,2.0137,0.4033,2.7363,1.1074c0.375-1.6279,0.5645-3.2441,0.5645-4.8076
			C45.2417,11.6992,35.5425,2,23.6201,2L23.6201,2z"/>
	</g>
</g>
</svg>
