<?xml version="1.0" encoding="utf-8"?>
<!-- Generator: Adobe Illustrator 17.1.0, SVG Export Plug-In . SVG Version: 6.00 Build 0)  -->
<!DOCTYPE svg PUBLIC "-//W3C//DTD SVG 1.1//EN" "http://www.w3.org/Graphics/SVG/1.1/DTD/svg11.dtd">
<svg version="1.1" id="mail-closed-heart" xmlns="http://www.w3.org/2000/svg" xmlns:xlink="http://www.w3.org/1999/xlink" x="0px"
	 y="0px" viewBox="0 0 59.9995 40.2749" enable-background="new 0 0 59.9995 40.2749" xml:space="preserve">
<g id="mail-closed-heart-color">
	<rect x="1.0522" y="1.0522" fill="#FDE3E3" width="57.8946" height="38.17"/>
	<path fill="#F16061" d="M29.938,16.2485c0-3.0376-2.4629-5.4995-5.5039-5.4995c-3.0376,0-5.5015,2.4619-5.5015,5.4995
		c0,1.5923,0.6865,3.0142,1.7681,4.0225l-0.0142,0.0019l9.2515,9.251l9.251-9.251c-0.002-0.0019-0.0059-0.0019-0.0098-0.0058
		c1.0771-1.0064,1.7607-2.4263,1.7607-4.0186c0-3.0376-2.4619-5.4995-5.5009-5.4995C32.3999,10.749,29.938,13.2109,29.938,16.2485z"
		/>
</g>
<g id="mail-closed-heart-line">
	<g>
		<path fill="#393939" d="M59.9995,40.2749H0V0h59.9995V40.2749L59.9995,40.2749z M2.105,38.1694h55.789V2.105H2.105V38.1694
			L2.105,38.1694z"/>
	</g>
	<g>
		<polygon fill="#393939" points="19.1504,13.4106 0.5981,1.9477 1.7041,0.1572 20.2568,11.6196 19.1504,13.4106 		"/>
	</g>
	<g>
		<polygon fill="#393939" points="40.7192,13.4106 39.6128,11.6196 58.1645,0.1572 59.271,1.9477 40.7192,13.4106 		"/>
	</g>
	<g>
		<polygon fill="#393939" points="56.9565,39.3208 39.354,19.2671 40.937,17.8784 58.5395,37.9311 56.9565,39.3208 		"/>
	</g>
	<g>
		<polygon fill="#393939" points="2.9214,39.3208 1.3384,37.9311 18.9409,17.8784 20.5239,19.2671 2.9214,39.3208 		"/>
	</g>
	<g>
		<g>
			<path fill="#393939" d="M29.938,30.5767c-0.2696,0-0.5386-0.1026-0.7442-0.3086l-9.2519-9.2505
				c-0.0318-0.0318-0.0606-0.065-0.0874-0.0996c-1.2744-1.251-1.9746-2.9024-1.9746-4.6695c0-3.6123,2.9399-6.5517,6.5542-6.5517
				c2.3037,0,4.334,1.1933,5.5039,2.9941c1.1689-1.8008,3.1982-2.9941,5.501-2.9941c3.6142,0,6.5537,2.9394,6.5537,6.5517
				c0,1.7681-0.6983,3.4199-1.9707,4.6685c-0.0264,0.0351-0.0567,0.0683-0.0879,0.1006l-9.252,9.2505
				C30.4766,30.4741,30.207,30.5767,29.938,30.5767L29.938,30.5767z M21.5478,19.6455l8.3902,8.3901l8.3955-8.3945
				c0.0371-0.0508,0.0801-0.0991,0.1269-0.1435c0.92-0.8594,1.4268-2.0132,1.4268-3.2491c0-2.4521-1.9961-4.4467-4.4482-4.4467
				c-2.4532,0-4.4483,1.9946-4.4483,4.4467c0,0.5816-0.4712,1.0528-1.0527,1.0528c-0.5821,0-1.0528-0.4712-1.0528-1.0528
				c0-2.4521-1.9961-4.4467-4.4511-4.4467c-2.4527,0-4.4488,1.9946-4.4488,4.4467c0,1.2359,0.5088,2.3907,1.4331,3.2525
				C21.4663,19.5459,21.5098,19.5942,21.5478,19.6455L21.5478,19.6455z"/>
		</g>
	</g>
</g>
</svg>
