<?xml version="1.0" encoding="utf-8"?>
<!-- Generator: Adobe Illustrator 17.1.0, SVG Export Plug-In . SVG Version: 6.00 Build 0)  -->
<!DOCTYPE svg PUBLIC "-//W3C//DTD SVG 1.1//EN" "http://www.w3.org/Graphics/SVG/1.1/DTD/svg11.dtd">
<svg version="1.1" id="mail-open-heart" xmlns="http://www.w3.org/2000/svg" xmlns:xlink="http://www.w3.org/1999/xlink" x="0px"
	 y="0px" viewBox="0 0 59.9995 60" enable-background="new 0 0 59.9995 60" xml:space="preserve">
<g id="mail-open-heart-color">
	<polygon fill="#FDE3E3" points="18.3135,36.5039 2.2222,56.1416 2.2222,26.4155 	"/>
	<polygon fill="#FDE3E3" points="20.2114,37.6943 29.9995,43.8301 39.8911,37.6289 56.3999,57.7773 3.7539,57.7773 	"/>
	<polygon fill="#FDE3E3" points="41.7886,36.4385 57.7768,26.4155 57.7768,55.9521 	"/>
	<polygon fill="#F16061" points="56.4829,24.604 50.6811,28.2417 50.6811,22.1724 	"/>
	<polygon fill="#FFFFFF" points="10.4292,30.249 10.4292,1.1113 49.5698,1.1113 49.5698,30.249 29.9995,42.5186 	"/>
	<path fill="#F16061" d="M24.2207,11.0107c2.5737,0,4.668,2.0928,4.668,4.6641c0,0.6138,0.4965,1.1113,1.1108,1.1113
		c0.6143,0,1.1113-0.4975,1.1113-1.1113c0-2.5713,2.0928-4.6641,4.666-4.6641c2.5733,0,4.6661,2.0928,4.6661,4.6641
		c0,1.2969-0.5313,2.5068-1.4961,3.4067c-0.0508,0.0469-0.0957,0.0977-0.1358,0.1519l-8.8115,8.8101l-8.8086-8.8077
		c-0.0391-0.0537-0.0845-0.104-0.1343-0.1504c-0.9677-0.9033-1.5019-2.1142-1.5019-3.4106
		C19.5547,13.1035,21.6479,11.0107,24.2207,11.0107z"/>
	<polygon fill="#F16061" points="9.3183,28.2417 3.5156,24.604 9.3183,22.1724 	"/>
</g>
<g id="mail-open-heart-line">
	<g>
		<g>
			<path fill="#393939" d="M29.9995,30.7261c-0.2842,0-0.5684-0.1089-0.7856-0.3257l-9.7144-9.7139
				c-0.0327-0.0327-0.063-0.0669-0.0913-0.1025c-1.3399-1.3145-2.0757-3.0503-2.0757-4.9092c0-3.7969,3.0903-6.8862,6.8882-6.8862
				c2.4175,0,4.5483,1.251,5.7788,3.1396c1.2295-1.8886,3.3594-3.1396,5.7773-3.1396c3.7989,0,6.8887,3.0893,6.8887,6.8862
				c0,1.8599-0.7344,3.5952-2.0713,4.9063c-0.0283,0.0371-0.0595,0.0722-0.0937,0.1054l-9.7154,9.7139
				C30.5679,30.6172,30.2837,30.7261,29.9995,30.7261L29.9995,30.7261z M21.1909,19.2358l8.8086,8.8077l8.8105-8.8101
				c0.0411-0.0542,0.087-0.105,0.1368-0.1519c0.9648-0.8999,1.4961-2.1098,1.4961-3.4067c0-2.5713-2.0928-4.6641-4.6661-4.6641
				c-2.5732,0-4.666,2.0928-4.666,4.6641c0,0.6138-0.497,1.1113-1.1113,1.1113c-0.6143,0-1.1108-0.4975-1.1108-1.1113
				c0-2.5713-2.0943-4.6641-4.668-4.6641c-2.5728,0-4.666,2.0928-4.666,4.6641c0,1.2964,0.5342,2.5073,1.5019,3.4106
				C21.1064,19.1318,21.1518,19.1821,21.1909,19.2358L21.1909,19.2358z"/>
		</g>
	</g>
	<g id="mail-open-heart-mail-open-icon">
		<g>
			<polygon fill="#393939" points="57.2515,58.8174 38.9253,36.4512 40.644,35.042 58.9702,57.4082 57.2515,58.8174 			"/>
		</g>
		<g>
			<polygon fill="#393939" points="29.9995,43.8301 0.5205,25.3486 1.7012,23.4663 29.9995,41.2061 58.2983,23.4663 59.478,25.3486 
				29.9995,43.8301 			"/>
		</g>
		<g>
			<polygon fill="#393939" points="59.9995,60 0,60 0,23.6685 10.311,19.3462 11.1704,21.396 2.2222,25.1465 2.2222,57.7773 
				57.7768,57.7773 57.7768,25.1465 48.8276,21.396 49.687,19.3462 59.9995,23.6685 59.9995,60 			"/>
		</g>
		<g>
			<polygon fill="#393939" points="50.6811,30 48.4585,30 48.4585,2.2227 11.5405,2.2227 11.5405,30 9.3183,30 9.3183,0 50.6811,0 
				50.6811,30 			"/>
		</g>
		<g>
			<polygon fill="#393939" points="2.9023,58.8174 1.1836,57.4082 19.5112,35.042 21.23,36.4512 2.9023,58.8174 			"/>
		</g>
	</g>
</g>
</svg>
