<?xml version="1.0" encoding="utf-8"?>
<!-- Generator: Adobe Illustrator 17.1.0, SVG Export Plug-In . SVG Version: 6.00 Build 0)  -->
<!DOCTYPE svg PUBLIC "-//W3C//DTD SVG 1.1//EN" "http://www.w3.org/Graphics/SVG/1.1/DTD/svg11.dtd">
<svg version="1.1" id="mail-heart-xoxo" xmlns="http://www.w3.org/2000/svg" xmlns:xlink="http://www.w3.org/1999/xlink" x="0px"
	 y="0px" viewBox="0 0 59.9995 60" enable-background="new 0 0 59.9995 60" xml:space="preserve">
<g id="mail-heart-xoxo-color">
	<path fill="#F16061" d="M26.9204,7.2114c1.0859,0,1.9692,0.8823,1.9692,1.9663c0,0.6138,0.4981,1.1109,1.1109,1.1109
		c0.6133,0,1.1113-0.4971,1.1113-1.1109c0-1.084,0.8818-1.9663,1.9668-1.9663c1.085,0,1.9678,0.8823,1.9678,1.9663
		c0,0.5454-0.2246,1.0557-0.6319,1.4366c-0.038,0.0351-0.0722,0.0732-0.1054,0.1128l-4.3086,4.3076l-4.3052-4.3042
		c-0.0317-0.0396-0.0674-0.0777-0.1055-0.1133c-0.4101-0.3828-0.6357-0.8941-0.6357-1.4395
		C24.9541,8.0937,25.8364,7.2114,26.9204,7.2114z"/>
	<polygon fill="#FDE3E3" points="18.3144,36.5039 2.2222,56.1426 2.2222,26.4155 	"/>
	<polygon fill="#FDE3E3" points="20.2124,37.6943 29.9995,43.8301 39.8911,37.6289 56.3999,57.7773 3.7554,57.7773 	"/>
	<polygon fill="#FDE3E3" points="41.7886,36.4385 57.7768,26.4155 57.7768,55.9512 	"/>
	<polygon fill="#F16061" points="56.4829,24.604 50.6821,28.2407 50.6821,22.1729 	"/>
	<polygon fill="#FFFFFF" points="48.4595,2.2227 48.4595,29.6338 29.9995,41.2061 11.5405,29.6343 11.5405,2.2227 	"/>
	<polygon fill="#F16061" points="9.3183,28.2417 3.5156,24.604 9.3183,22.1724 	"/>
	<path fill="#F16061" d="M30.0005,9.1777c0-1.6992-1.3789-3.0771-3.0801-3.0771c-1.6992,0-3.0776,1.3779-3.0776,3.0771
		c0,0.8907,0.3842,1.687,0.9887,2.2515l-0.0078,0.001l5.1768,5.1758l5.1767-5.1758c0-0.001-0.0039-0.001-0.0039-0.0044
		c0.6006-0.562,0.9844-1.3574,0.9844-2.2481c0-1.6992-1.3769-3.0771-3.0791-3.0771C31.3784,6.1006,30.0005,7.4785,30.0005,9.1777z"
		/>
</g>
<g id="mail-heart-xoxo-line">
	<g>
		<path fill="#393939" d="M30.0005,17.7173c-0.2842,0-0.5684-0.1089-0.7857-0.3257l-5.1767-5.1758
			c-0.0225-0.0229-0.0445-0.0469-0.065-0.0708c-0.8017-0.7973-1.2412-1.8452-1.2412-2.9673c0-2.3095,1.8794-4.1884,4.1885-4.1884
			c1.2163,0,2.313,0.521,3.0791,1.3505c0.7661-0.8295,1.8643-1.3505,3.0791-1.3505c2.3105,0,4.1895,1.8789,4.1895,4.1884
			c0,1.1231-0.4395,2.1704-1.2393,2.9659c-0.0205,0.0249-0.042,0.0493-0.0654,0.0722l-5.1773,5.1758
			C30.5693,17.6084,30.2851,17.7173,30.0005,17.7173L30.0005,17.7173z M25.6953,10.7305l4.3052,4.3042l4.3086-4.3076
			c0.0332-0.0396,0.0674-0.0777,0.1045-0.1128c0.4082-0.3809,0.6328-0.8912,0.6328-1.4366c0-1.084-0.8828-1.9663-1.9678-1.9663
			c-1.085,0-1.9668,0.8823-1.9668,1.9663c0,0.6138-0.498,1.1109-1.1113,1.1109c-0.6128,0-1.1109-0.4971-1.1109-1.1109
			c0-1.084-0.8833-1.9663-1.9692-1.9663c-1.084,0-1.9663,0.8823-1.9663,1.9663c0,0.5454,0.2256,1.0567,0.6357,1.4395
			C25.6279,10.6528,25.6636,10.6909,25.6953,10.7305L25.6953,10.7305z"/>
	</g>
	<g>
		<polygon fill="#393939" points="57.2534,58.8184 38.9263,36.4521 40.645,35.043 58.9722,57.4102 57.2534,58.8184 		"/>
	</g>
	<g>
		<polygon fill="#393939" points="29.9995,43.8301 0.5205,25.3486 1.7012,23.4663 29.9995,41.2061 58.2983,23.4663 59.478,25.3486 
			29.9995,43.8301 		"/>
	</g>
	<g>
		<polygon fill="#393939" points="59.9995,60 0,60 0,23.6685 10.311,19.3462 11.1704,21.396 2.2222,25.1465 2.2222,57.7773 
			57.7768,57.7773 57.7768,25.1465 48.8276,21.396 49.687,19.3462 59.9995,23.6685 59.9995,60 		"/>
	</g>
	<g>
		<polygon fill="#393939" points="50.6821,30 48.4595,30 48.4595,2.2227 11.5405,2.2227 11.5405,30 9.3183,30 9.3183,0 50.6821,0 
			50.6821,30 		"/>
	</g>
	<g>
		<polygon fill="#393939" points="2.9023,58.8184 1.1836,57.4102 19.5112,35.043 21.23,36.4521 2.9023,58.8184 		"/>
	</g>
	<g>
		<g>
			<g>
				<path fill="#393939" d="M15.2275,26.9858c-0.2842,0-0.5683-0.1084-0.7856-0.3256c-0.4341-0.4336-0.4341-1.1373,0-1.5713
					l4.7265-4.7276c0.4341-0.4341,1.1373-0.4341,1.5713,0c0.4341,0.4336,0.4341,1.1372,0,1.5713l-4.7265,4.7276
					C15.7959,26.8774,15.5117,26.9858,15.2275,26.9858L15.2275,26.9858z"/>
			</g>
			<g>
				<path fill="#393939" d="M19.9541,26.9858c-0.2842,0-0.5684-0.1084-0.7857-0.3256l-4.7265-4.7276
					c-0.4341-0.4341-0.4341-1.1377,0-1.5713c0.4341-0.4341,1.1372-0.4341,1.5713,0l4.7265,4.7276
					c0.4341,0.434,0.4341,1.1377,0,1.5713C20.5224,26.8774,20.2383,26.9858,19.9541,26.9858L19.9541,26.9858z"/>
			</g>
		</g>
		<g>
			<g>
				<path fill="#393939" d="M31.7729,26.9858c-0.2841,0-0.5693-0.1084-0.7861-0.3256c-0.4341-0.4341-0.4341-1.1373,0-1.5713
					l4.7275-4.7276c0.4346-0.4341,1.1377-0.4341,1.5713,0c0.4346,0.4341,0.4346,1.1372,0,1.5713l-4.7275,4.7276
					C32.3413,26.8774,32.0571,26.9858,31.7729,26.9858L31.7729,26.9858z"/>
			</g>
			<g>
				<path fill="#393939" d="M36.5005,26.9858c-0.2842,0-0.5694-0.1084-0.7862-0.3256l-4.7275-4.7276
					c-0.4341-0.4341-0.4341-1.1372,0-1.5713c0.4346-0.4341,1.1377-0.4341,1.5713,0l4.7275,4.7276
					c0.4346,0.434,0.4346,1.1372,0,1.5713C37.0688,26.8774,36.7847,26.9858,36.5005,26.9858L36.5005,26.9858z"/>
			</g>
		</g>
		<g>
			<path fill="#393939" d="M25.8642,26.9858c-1.916,0-3.4751-1.5586-3.4751-3.4746s1.5591-3.4751,3.4751-3.4751
				c1.9151,0,3.4747,1.5591,3.4747,3.4751S27.7793,26.9858,25.8642,26.9858L25.8642,26.9858z M25.8642,22.2583
				c-0.6909,0-1.2529,0.562-1.2529,1.2529c0,0.6909,0.562,1.2525,1.2529,1.2525c0.6915,0,1.2525-0.5616,1.2525-1.2525
				C27.1167,22.8203,26.5557,22.2583,25.8642,22.2583L25.8642,22.2583z"/>
		</g>
		<g>
			<path fill="#393939" d="M42.4087,26.9858c-1.917,0-3.4746-1.5586-3.4746-3.4746s1.5576-3.4751,3.4746-3.4751
				c1.916,0,3.4756,1.5591,3.4756,3.4751S44.3247,26.9858,42.4087,26.9858L42.4087,26.9858z M42.4087,22.2583
				c-0.6904,0-1.2529,0.562-1.2529,1.2529c0,0.6909,0.5625,1.2525,1.2529,1.2525s1.2529-0.5616,1.2529-1.2525
				C43.6616,22.8203,43.0991,22.2583,42.4087,22.2583L42.4087,22.2583z"/>
		</g>
	</g>
	<g>
		<polygon fill="#393939" points="36.3042,34.5156 23.6963,34.5156 23.6963,32.2939 36.3042,32.2939 36.3042,34.5156 		"/>
	</g>
</g>
</svg>
