<?xml version="1.0" encoding="utf-8"?>
<!-- Generator: Adobe Illustrator 17.1.0, SVG Export Plug-In . SVG Version: 6.00 Build 0)  -->
<!DOCTYPE svg PUBLIC "-//W3C//DTD SVG 1.1//EN" "http://www.w3.org/Graphics/SVG/1.1/DTD/svg11.dtd">
<svg version="1.1" id="postcard" xmlns="http://www.w3.org/2000/svg" xmlns:xlink="http://www.w3.org/1999/xlink" x="0px" y="0px"
	 viewBox="0 0 59.9995 41.979" enable-background="new 0 0 59.9995 41.979" xml:space="preserve">
<g id="postcard-color">
	<g>
		<rect x="0.9673" y="0.9677" fill="#FFFFFF" width="58.0644" height="40.0435"/>
		<line fill="none" x1="29.9995" y1="6.9741" x2="29.9995" y2="35.0053"/>
		<line fill="none" x1="42.0122" y1="24.9936" x2="54.0259" y2="24.9936"/>
		<line fill="none" x1="40.0102" y1="28.9985" x2="54.0259" y2="28.9985"/>
		<rect x="45.0151" y="7.9755" fill="#FDE3E3" width="8.0098" height="8.0088"/>
	</g>
	<path fill="#F16061" d="M23.1792,11.351c-0.1099-1.1963-0.9849-2.1997-2.2002-2.1997c-0.9014,0-1.6274,0.5415-1.9678,1.3198
		c-0.3379-0.7783-1.1142-1.3198-2.0146-1.3198c-1.2154,0-2.0904,1.0034-2.2002,2.1997c0,0-0.0586,0.2974,0.0718,0.8311l0.2192,0.251
		c-0.9932,0.0166-1.7896,0.6201-2.166,1.4795c-0.3838-0.8711-1.251-1.4825-2.2642-1.4825c-1.3608,0-2.3428,1.1284-2.4682,2.4698
		c0,0-0.0645,0.3325,0.081,0.9326c0.2002,0.8174,0.6699,1.542,1.3003,2.0962l3.3511,2.8862l3.2925-2.8862
		c0.6323-0.5542,1.1001-1.2788,1.3007-2.0962c0.0508-0.21,0.0718-0.3741,0.083-0.5161l0.3082,0.353l1.1054,0.9531l2.9356-2.5732
		c0.5649-0.4922,0.9809-1.1387,1.1596-1.8672C23.2358,11.6484,23.1792,11.351,23.1792,11.351z"/>
	<g>
		<g>
			<line fill="none" x1="14.1811" y1="28.7485" x2="9.6763" y2="33.2524"/>
			<line fill="none" x1="9.6763" y1="28.7485" x2="14.1811" y2="33.2524"/>
		</g>
		<g>
			<line fill="none" x1="21.6899" y1="28.7485" x2="17.1846" y2="33.2524"/>
			<line fill="none" x1="17.1846" y1="28.7485" x2="21.6899" y2="33.2524"/>
		</g>
	</g>
</g>
<g id="postcard-line">
	<g>
		<g>
			<path fill="#393939" d="M59.9995,41.979H0V0h59.9995V41.979L59.9995,41.979z M1.935,40.0434h56.129V1.9355H1.935V40.0434
				L1.935,40.0434z"/>
		</g>
		<g>
			<polygon fill="#393939" points="30.9673,35.0053 29.0317,35.0053 29.0317,6.9741 30.9673,6.9741 30.9673,35.0053 			"/>
		</g>
		<g>
			<polygon fill="#393939" points="54.0259,25.9614 42.0122,25.9614 42.0122,24.0258 54.0259,24.0258 54.0259,25.9614 			"/>
		</g>
		<g>
			<polygon fill="#393939" points="54.0259,29.9663 40.0102,29.9663 40.0102,28.0307 54.0259,28.0307 54.0259,29.9663 			"/>
		</g>
		<g>
			<path fill="#393939" d="M53.9927,16.9521h-9.9453V7.0078h9.9453V16.9521L53.9927,16.9521z M45.9829,15.0166h6.0742V8.9433
				h-6.0742V15.0166L45.9829,15.0166z"/>
		</g>
	</g>
	<g>
		<g>
			<path fill="#393939" d="M12.9214,21.7827c-0.2246,0-0.4497-0.0782-0.6314-0.2344l-3.351-2.8862
				c-0.8125-0.7149-1.3663-1.6114-1.6094-2.5996c-0.1817-0.7486-0.1153-1.2198-0.0908-1.3462
				c0.1655-1.815,1.6406-3.2539,3.4184-3.2539c0.8438,0,1.6387,0.31,2.2529,0.8432c0.6001-0.5371,1.377-0.8432,2.2173-0.8432
				c1.7691,0,3.2378,1.4223,3.4287,3.3144c0.0274,0.1856,0.0586,0.6294-0.1015,1.2852c-0.2427,0.9917-0.7974,1.8886-1.6026,2.5942
				l-3.2924,2.8862C13.3769,21.7026,13.1494,21.7827,12.9214,21.7827L12.9214,21.7827z M10.6572,13.3979
				c-0.8901,0-1.4306,0.8013-1.5044,1.5923c-0.0088,0.0596-0.0293,0.2563,0.0576,0.6142c0.1465,0.5992,0.4922,1.1519,0.9986,1.5977
				l2.707,2.3306l2.6602-2.3316c0.5053-0.4433,0.8505-0.9961,0.998-1.5991c0.0869-0.355,0.0659-0.5503,0.0659-0.5522
				c-0.081-0.8511-0.6216-1.6519-1.5127-1.6519c-0.5796,0-1.0717,0.3374-1.3193,0.9023c-0.1543,0.3521-0.501,0.5796-0.8857,0.5801
				h-0.001c-0.3838,0-0.7315-0.226-0.8853-0.5776C11.7939,13.7529,11.2524,13.3979,10.6572,13.3979L10.6572,13.3979z"/>
		</g>
		<g>
			<path fill="#393939" d="M19.0112,17.5903c-0.2246,0-0.4497-0.0781-0.6318-0.2349l-1.106-0.9531
				c-0.4043-0.3486-0.4497-0.9595-0.101-1.3647c0.3505-0.4058,0.9589-0.4502,1.3657-0.1011l0.4677,0.4038l2.3033-2.0186
				c0.4345-0.3789,0.7304-0.852,0.8569-1.3701c0.0718-0.2939,0.0566-0.457,0.0557-0.459c-0.0659-0.7094-0.5103-1.3735-1.2427-1.3735
				c-0.4746,0-0.8779,0.2764-1.0811,0.7397c-0.1543,0.3526-0.5019,0.5801-0.8867,0.5801h-0.001
				c-0.3842-0.0005-0.7329-0.2285-0.8862-0.5815c-0.1948-0.4483-0.6377-0.7383-1.1274-0.7383c-0.7325,0-1.1768,0.6641-1.2364,1.3203
				c-0.0024,0.0317-0.0073,0.063-0.0131,0.0942v-0.0009c0.0029,0-0.0025,0.1562,0.0615,0.4199
				c0.1264,0.5195-0.1919,1.043-0.7105,1.1699c-0.519,0.1221-1.0434-0.1914-1.1699-0.7104
				c-0.145-0.5948-0.1172-1.0049-0.0918-1.1822c0.1738-1.7387,1.5274-3.0464,3.1602-3.0464c0.7466,0,1.4516,0.2623,2.0053,0.7159
				c0.5445-0.4571,1.2334-0.7159,1.9771-0.7159c1.6426,0,3.0034,1.3238,3.1641,3.0791c0.0092,0.0254,0.0698,0.4634-0.0962,1.148
				c-0.2232,0.9102-0.73,1.728-1.4639,2.3682l-2.9336,2.5713C19.4668,17.5107,19.2392,17.5903,19.0112,17.5903L19.0112,17.5903z"/>
		</g>
	</g>
	<g>
		<g>
			<g>
				<path fill="#393939" d="M9.6763,34.2202c-0.2476,0-0.4952-0.0938-0.6841-0.2832c-0.3784-0.378-0.3784-0.9903,0-1.3682
					l4.5049-4.5049c0.3779-0.3779,0.9902-0.3779,1.3686,0c0.3779,0.3789,0.3779,0.9912,0,1.3692l-4.5054,4.5039
					C10.1714,34.1264,9.9238,34.2202,9.6763,34.2202L9.6763,34.2202z"/>
			</g>
			<g>
				<path fill="#393939" d="M14.1811,34.2202c-0.2475,0-0.4951-0.0938-0.684-0.2832l-4.5049-4.5039
					c-0.3784-0.378-0.3784-0.9903,0-1.3692c0.3779-0.3779,0.9902-0.3779,1.3681,0l4.5054,4.5049
					c0.3779,0.3779,0.3779,0.9902,0,1.3682C14.6763,34.1264,14.4287,34.2202,14.1811,34.2202L14.1811,34.2202z"/>
			</g>
		</g>
		<g>
			<g>
				<path fill="#393939" d="M17.1846,34.2202c-0.2476,0-0.4952-0.0938-0.6841-0.2832c-0.378-0.378-0.378-0.9903,0-1.3682
					l4.5049-4.5049c0.3779-0.3779,0.9907-0.3779,1.3686,0c0.3779,0.3789,0.3779,0.9912,0,1.3692l-4.5054,4.5039
					C17.6797,34.1264,17.4321,34.2202,17.1846,34.2202L17.1846,34.2202z"/>
			</g>
			<g>
				<path fill="#393939" d="M21.6899,34.2202c-0.248,0-0.4956-0.0938-0.6845-0.2832l-4.5049-4.5039
					c-0.378-0.378-0.378-0.9903,0-1.3692c0.3779-0.3779,0.9902-0.3779,1.3681,0l4.5054,4.5049c0.3779,0.3779,0.3779,0.9902,0,1.3682
					C22.185,34.1264,21.9375,34.2202,21.6899,34.2202L21.6899,34.2202z"/>
			</g>
		</g>
	</g>
</g>
</svg>
