<?xml version="1.0" encoding="utf-8"?>
<!-- Generator: Adobe Illustrator 17.1.0, SVG Export Plug-In . SVG Version: 6.00 Build 0)  -->
<!DOCTYPE svg PUBLIC "-//W3C//DTD SVG 1.1//EN" "http://www.w3.org/Graphics/SVG/1.1/DTD/svg11.dtd">
<svg version="1.1" id="pot-love-pills" xmlns="http://www.w3.org/2000/svg" xmlns:xlink="http://www.w3.org/1999/xlink" x="0px"
	 y="0px" viewBox="0 0 41.8046 60" enable-background="new 0 0 41.8046 60" xml:space="preserve">
<g id="pot-love-pills-color">
	<path fill="#FFFFFF" d="M39.2099,20.8247l-2.4912-3.9888c-0.6074-0.9712-0.9297-2.0937-0.9297-3.2402v-3.2788H6.0156v3.2788
		c0,1.1465-0.3218,2.269-0.9292,3.2402l-2.4917,3.9888c-1.0073,1.6108-1.542,3.4712-1.542,5.3706v28.3506
		c0,2.4307,1.9717,4.4014,4.4028,4.4014h30.8941c2.4306,0,4.4023-1.9707,4.4023-4.4014V26.1953
		C40.7519,24.2959,40.2177,22.4355,39.2099,20.8247z"/>
	<path fill="#F16061" d="M35.4853,53.9854H5.768V26.1953h29.7173c0.3037,0,0.5527,0.1309,0.5527,0.2901v27.2099
		C36.038,53.8545,35.789,53.9854,35.4853,53.9854z"/>
	<rect x="5.0224" y="1.0527" fill="#F16061" width="31.7598" height="9.2642"/>
	<path fill="#FDE3E3" d="M31.8007,35.6367c-0.1582-1.7412-1.4296-3.1992-3.1963-3.1992c-1.3125,0-2.3671,0.7891-2.8603,1.9199
		c-0.4922-1.1308-1.623-1.9199-2.9316-1.9199c-1.7671,0-3.0376,1.458-3.1983,3.1992c0,0-0.0864,0.4326,0.106,1.208l0.3188,0.3662
		c-1.4453,0.0225-2.6059,0.9004-3.1509,2.1504c-0.5571-1.2666-1.8203-2.1543-3.2924-2.1543c-1.98,0-3.4068,1.6387-3.5874,3.5889
		c0,0-0.0967,0.4853,0.1152,1.3545c0.2915,1.1914,0.9741,2.2422,1.8911,3.0508l4.8735,4.1963l4.7852-4.1963
		c0.9214-0.8086,1.602-1.8594,1.8931-3.0508c0.0742-0.3057,0.1045-0.5449,0.1201-0.75l0.4482,0.5137l1.6094,1.3867l4.2676-3.7412
		c0.8193-0.7159,1.4258-1.6553,1.6855-2.7149C31.8847,36.0693,31.8007,35.6367,31.8007,35.6367z"/>
</g>
<g id="pot-love-pills-line">
	<g>
		<g>
			<path fill="#393939" d="M35.4853,55.0381h-30.77v-29.895h30.77c0.9141,0,1.6055,0.5766,1.6055,1.3423v27.2099
				C37.0908,54.4609,36.3994,55.0381,35.4853,55.0381L35.4853,55.0381z M35.4853,52.9326v1.0528V52.9326L35.4853,52.9326
				L35.4853,52.9326L35.4853,52.9326z M6.8203,52.9326h28.165V27.248H6.8203V52.9326L6.8203,52.9326z"/>
		</g>
		<g>
			<path fill="#393939" d="M36.7822,11.3691H5.0224c-0.5815,0-1.0522-0.4707-1.0522-1.0522V1.0527C3.9702,0.4712,4.4409,0,5.0224,0
				h31.7598c0.582,0,1.0527,0.4712,1.0527,1.0527v9.2642C37.8349,10.8984,37.3642,11.3691,36.7822,11.3691L36.7822,11.3691z
				 M6.0752,9.2642h29.6542V2.1055H6.0752V9.2642L6.0752,9.2642z"/>
		</g>
		<g>
			<path fill="#393939" d="M8.9926,11.3691c-0.582,0-1.0527-0.4707-1.0527-1.0522V1.3838c0-0.5816,0.4707-1.0527,1.0527-1.0527
				c0.5816,0,1.0528,0.4711,1.0528,1.0527v8.9331C10.0454,10.8984,9.5742,11.3691,8.9926,11.3691L8.9926,11.3691z"/>
		</g>
		<g>
			<path fill="#393939" d="M12.9624,11.3691c-0.5816,0-1.0528-0.4707-1.0528-1.0522V1.3838c0-0.5816,0.4712-1.0527,1.0528-1.0527
				c0.582,0,1.0527,0.4711,1.0527,1.0527v8.9331C14.0151,10.8984,13.5444,11.3691,12.9624,11.3691L12.9624,11.3691z"/>
		</g>
		<g>
			<path fill="#393939" d="M16.9326,11.3691c-0.5821,0-1.0528-0.4707-1.0528-1.0522V1.3838c0-0.5816,0.4707-1.0527,1.0528-1.0527
				c0.5815,0,1.0522,0.4711,1.0522,1.0527v8.9331C17.9848,10.8984,17.5141,11.3691,16.9326,11.3691L16.9326,11.3691z"/>
		</g>
		<g>
			<path fill="#393939" d="M20.9023,11.3691c-0.5815,0-1.0527-0.4707-1.0527-1.0522V1.3838c0-0.5816,0.4712-1.0527,1.0527-1.0527
				c0.582,0,1.0527,0.4711,1.0527,1.0527v8.9331C21.955,10.8984,21.4843,11.3691,20.9023,11.3691L20.9023,11.3691z"/>
		</g>
		<g>
			<path fill="#393939" d="M24.872,11.3691c-0.581,0-1.0527-0.4707-1.0527-1.0522V1.3838c0-0.5816,0.4717-1.0527,1.0527-1.0527
				c0.5821,0,1.0528,0.4711,1.0528,1.0527v8.9331C25.9248,10.8984,25.4541,11.3691,24.872,11.3691L24.872,11.3691z"/>
		</g>
		<g>
			<path fill="#393939" d="M28.8427,11.3691c-0.582,0-1.0527-0.4707-1.0527-1.0522V1.3838c0-0.5816,0.4707-1.0527,1.0527-1.0527
				c0.5811,0,1.0518,0.4711,1.0518,1.0527v8.9331C29.8945,10.8984,29.4238,11.3691,28.8427,11.3691L28.8427,11.3691z"/>
		</g>
		<g>
			<path fill="#393939" d="M32.8125,11.3691c-0.5821,0-1.0528-0.4707-1.0528-1.0522V1.3838c0-0.5816,0.4707-1.0527,1.0528-1.0527
				c0.582,0,1.0527,0.4711,1.0527,1.0527v8.9331C33.8652,10.8984,33.3945,11.3691,32.8125,11.3691L32.8125,11.3691z"/>
		</g>
		<g>
			<path fill="#393939" d="M36.3496,60H5.4555C2.4467,60,0,57.5527,0,54.5459V26.1953c0-2.0976,0.5878-4.1484,1.7021-5.9292
				l2.4917-3.9883c0.5039-0.8047,0.769-1.7319,0.769-2.6821v-3.2788c0-0.582,0.4708-1.0527,1.0528-1.0527H35.789
				c0.5821,0,1.0528,0.4707,1.0528,1.0527v3.2788c0,0.9502,0.2656,1.8774,0.7685,2.6821l2.4922,3.9883
				c1.1143,1.7808,1.7021,3.8316,1.7021,5.9292v28.3506C41.8046,57.5527,39.3584,60,36.3496,60L36.3496,60z M7.0683,11.3691v2.2266
				c0,1.3457-0.3764,2.6587-1.0898,3.7983l-2.4917,3.9888c-0.9033,1.4453-1.3814,3.1094-1.3814,4.8125v28.3506
				c0,1.8457,1.5025,3.3486,3.3501,3.3486h30.8941c1.8466,0,3.3496-1.5029,3.3496-3.3486V26.1953
				c0-1.7031-0.4776-3.3672-1.3809-4.8125l-2.4922-3.9888c-0.7129-1.1396-1.0898-2.4526-1.0898-3.7983v-2.2266H7.0683
				L7.0683,11.3691z"/>
		</g>
	</g>
	<g>
		<g>
			<path fill="#393939" d="M16.8881,50.4502c-0.2446,0-0.4892-0.085-0.6865-0.2549l-4.8735-4.1963
				c-1.1265-0.9941-1.8936-2.2344-2.2266-3.5976c-0.2221-0.9112-0.1709-1.5196-0.1377-1.7393
				c0.2549-2.5732,2.2407-4.5078,4.6319-4.5078c1.2509,0,2.4238,0.5049,3.2793,1.3584c0.8364-0.8623,1.9755-1.3584,3.2192-1.3584
				c2.4058,0,4.3989,1.9541,4.6382,4.5449c0.0088,0.0147,0.1094,0.6592-0.1426,1.6992c-0.3359,1.3702-1.1035,2.6114-2.2217,3.5938
				l-4.7861,4.1973C17.3837,50.3623,17.1357,50.4502,16.8881,50.4502L16.8881,50.4502z M11.04,41
				c0.0024,0-0.0337,0.3281,0.106,0.9014c0.2314,0.9423,0.7719,1.8115,1.5659,2.5107l4.1704,3.5908l4.0971-3.5927
				c0.7916-0.6954,1.3331-1.5635,1.5655-2.5108c0.1445-0.5947,0.1006-0.9287,0.1006-0.9326c-0.1299-1.3828-1.042-2.707-2.5513-2.707
				c-0.9878,0-1.8252,0.5693-2.2407,1.5224c-0.1675,0.3828-0.5449,0.6309-0.9644,0.6319c0,0,0,0-0.001,0
				c-0.4174,0-0.7954-0.2461-0.9629-0.6289c-0.4082-0.9258-1.3222-1.5254-2.3295-1.5254c-1.5069,0-2.418,1.3252-2.5391,2.6338
				C11.0527,40.9297,11.0483,40.9648,11.04,41L11.04,41L11.04,41z"/>
		</g>
		<g>
			<path fill="#393939" d="M25.7441,44.3535c-0.2451,0-0.4893-0.0859-0.6865-0.2549l-1.6104-1.3867
				c-0.4404-0.3799-0.4902-1.0449-0.1103-1.4844c0.3799-0.4394,1.0429-0.4892,1.4843-0.1113l0.917,0.7891l3.5801-3.1367
				c0.6865-0.6006,1.1543-1.3516,1.3555-2.1729c0.124-0.5049,0.0889-0.7871,0.0889-0.79c-0.1114-1.1885-0.8819-2.3155-2.1583-2.3155
				c-0.8349,0-1.5439,0.4815-1.8964,1.2891c-0.1661,0.3828-0.5459,0.6309-0.9639,0.6309l0,0c-0.4199,0-0.7979-0.2491-0.9648-0.6319
				c-0.3409-0.7822-1.1124-1.2881-1.9668-1.2881c-1.2759,0-2.0479,1.128-2.1504,2.2422c-0.0025,0.0362-0.0083,0.0723-0.0147,0.1084
				c0-0.001,0-0.001,0-0.001c0.002,0-0.0234,0.2754,0.0947,0.752c0.1397,0.5644-0.2045,1.1357-0.769,1.2754
				c-0.5654,0.1357-1.1348-0.2061-1.2749-0.7695c-0.2031-0.8223-0.1592-1.3809-0.1294-1.5928
				c0.2363-2.3897,2.0161-4.1201,4.2437-4.1201c1.1084,0,2.1464,0.4297,2.9209,1.1621c0.7587-0.7383,1.7705-1.1621,2.871-1.1621
				c2.1944,0,4.0118,1.7695,4.2403,4.122c0.0312,0.208,0.0742,0.7647-0.125,1.586c-0.3047,1.247-1.001,2.374-2.0147,3.2597
				l-4.2675,3.7393C26.2392,44.2656,25.9921,44.3535,25.7441,44.3535L25.7441,44.3535z"/>
		</g>
	</g>
</g>
</svg>
