<?xml version="1.0" encoding="utf-8"?>
<!-- Generator: Adobe Illustrator 17.1.0, SVG Export Plug-In . SVG Version: 6.00 Build 0)  -->
<!DOCTYPE svg PUBLIC "-//W3C//DTD SVG 1.1//EN" "http://www.w3.org/Graphics/SVG/1.1/DTD/svg11.dtd">
<svg version="1.1" id="rings" xmlns="http://www.w3.org/2000/svg" xmlns:xlink="http://www.w3.org/1999/xlink" x="0px" y="0px"
	 viewBox="0 0 55.6733 60" enable-background="new 0 0 55.6733 60" xml:space="preserve">
<g id="rings-rings">
	<g id="rings-color">
		<path fill="#F16061" d="M36.3813,6.8135c1.3145-1.3179,1.3145-3.4527-0.0029-4.7705c-1.3184-1.3189-3.4531-1.3189-4.7705-0.0034
			c-0.6924,0.6928-1.0098,1.6069-0.9776,2.5136l-0.0078-0.0073v8.0239l8.0264,0.0025c-0.001-0.0035-0.001-0.0044-0.001-0.0064
			c0.9033,0.0308,1.8145-0.29,2.5039-0.9795c1.3194-1.3169,1.3194-3.4531,0-4.771C39.8354,5.4976,37.6958,5.4956,36.3813,6.8135z"/>
	</g>
	<g id="rings-line">
		<g>
			<path fill="#393939" d="M37.06,60c-10.2632,0-18.6132-8.3506-18.6132-18.6143c0-10.2627,8.35-18.6113,18.6132-18.6113
				c10.2627,0,18.6133,8.3486,18.6133,18.6113C55.6733,51.6494,47.3227,60,37.06,60L37.06,60z M37.06,24.8799
				c-9.1025,0-16.5083,7.4043-16.5083,16.5058c0,9.1036,7.4058,16.5088,16.5083,16.5088c9.1026,0,16.5078-7.4052,16.5078-16.5088
				C53.5678,32.2842,46.1626,24.8799,37.06,24.8799L37.06,24.8799z"/>
		</g>
		<g>
			<path fill="#393939" d="M18.6123,44.1309c-4.9712,0-9.6455-1.9366-13.1612-5.4532C1.9365,35.1631,0,30.4902,0,25.519
				c-0.001-4.9721,1.9355-9.6469,5.4521-13.165c3.5137-3.5142,8.187-5.4502,13.1592-5.4502c4.9731,0,9.648,1.937,13.1636,5.4526
				c7.2568,7.2559,7.2578,19.0645,0.001,26.3213C28.2583,42.1943,23.5835,44.1309,18.6123,44.1309L18.6123,44.1309z M18.6113,9.0093
				c-4.4102,0-8.5547,1.7168-11.6704,4.8335c-3.1191,3.1196-4.8364,7.2666-4.8355,11.6762c0,4.4092,1.7164,8.5533,4.8345,11.6705
				c3.1187,3.1191,7.2632,4.8369,11.6724,4.8369c4.4087,0,8.5556-1.7178,11.6753-4.8369c6.4355-6.4361,6.4355-16.9087-0.001-23.3448
				C27.1689,10.7271,23.0219,9.0093,18.6113,9.0093L18.6113,9.0093z"/>
		</g>
		<g>
			<path fill="#393939" d="M38.6489,13.6245L38.6489,13.6245l-8.0264-0.0019c-0.582,0-1.0527-0.4717-1.0527-1.0528V4.5459
				c0-0.0352,0.002-0.0688,0.0059-0.103c-0.0059-1.1944,0.4492-2.3076,1.2861-3.1475C31.6997,0.46,32.81,0,33.9917,0
				c1.1826,0,2.2949,0.4619,3.1308,1.2983c0.9541,0.9541,1.3809,2.2393,1.2793,3.4903c1.2891-0.1114,2.5723,0.3598,3.4942,1.2827
				c0.8369,0.8359,1.2978,1.9482,1.2978,3.1313c0,1.1822-0.4609,2.2935-1.2978,3.1289c-0.8311,0.8306-1.9424,1.2891-3.1289,1.2891
				l0,0h-0.0205C38.7134,13.6235,38.6821,13.6245,38.6489,13.6245L38.6489,13.6245z M31.6753,11.5176l6.8593,0.0019
				c0.0498-0.0053,0.0997-0.0083,0.1495-0.0053c0.0019,0,0.0039,0,0.0058,0c0.7041,0,1.2852-0.2393,1.7178-0.6724
				c0.4394-0.4385,0.6807-1.0205,0.6807-1.6401c0-0.6202-0.2413-1.2032-0.6807-1.6421c-0.877-0.8765-2.4082-0.8775-3.2813-0.003
				c-0.4111,0.4131-1.0771,0.4112-1.4882,0.002c-0.2061-0.2056-0.3096-0.4746-0.3096-0.7441c0-0.2691,0.1016-0.5386,0.3076-0.7442
				c0.9033-0.9057,0.9023-2.3789-0.0019-3.2832c-0.878-0.8769-2.4063-0.8789-3.2823-0.0019
				c-0.456,0.4541-0.6933,1.0698-0.6709,1.7309c0.003,0.0542,0,0.1079-0.0058,0.1602V11.5176L31.6753,11.5176z"/>
		</g>
	</g>
</g>
</svg>
