<?xml version="1.0" encoding="utf-8"?>
<!-- Generator: Adobe Illustrator 17.1.0, SVG Export Plug-In . SVG Version: 6.00 Build 0)  -->
<!DOCTYPE svg PUBLIC "-//W3C//DTD SVG 1.1//EN" "http://www.w3.org/Graphics/SVG/1.1/DTD/svg11.dtd">
<svg version="1.1" id="smartphone-heart" xmlns="http://www.w3.org/2000/svg" xmlns:xlink="http://www.w3.org/1999/xlink" x="0px"
	 y="0px" viewBox="0 0 34 60" enable-background="new 0 0 34 60" xml:space="preserve">
<g id="smartphone-heart-smartphone-heart">
	<g id="smartphone-heart-color">
		<rect x="2" y="12" fill="#F16061" width="30" height="36"/>
		<path fill="#FDE3E3" d="M2,4.75C2,3.2334,3.2334,2,4.75,2h24.5C30.7666,2,32,3.2334,32,4.75V10H2V4.75z"/>
		<path fill="#FDE3E3" d="M32,55.25c0,1.5166-1.2334,2.75-2.75,2.75H4.75C3.2334,58,2,56.7666,2,55.25V50h30V55.25z"/>
		<path fill="#FFFFFF" d="M17,26.2744C17,23.3613,14.6396,21,11.7246,21c-2.9121,0-5.2744,2.3613-5.2744,5.2744
			c0,1.5254,0.6592,2.8887,1.6943,3.8535l-0.0127,0.0039L17,39l8.8711-8.8682c-0.0029-0.0039-0.0059-0.0039-0.0098-0.0078
			c1.0342-0.9629,1.6885-2.3242,1.6885-3.8496c0-2.9131-2.3603-5.2744-5.2754-5.2744C19.3623,21,17,23.3613,17,26.2744z"/>
	</g>
	<g id="smartphone-heart-line">
		<g>
			<g>
				<path fill="#393939" d="M29.25,60H4.75C2.1309,60,0,57.8691,0,55.25V4.75C0,2.1309,2.1309,0,4.75,0h24.5
					C31.8691,0,34,2.1309,34,4.75v50.5C34,57.8691,31.8691,60,29.25,60L29.25,60z M4.75,2C3.2334,2,2,3.2334,2,4.75v50.5
					C2,56.7666,3.2334,58,4.75,58h24.5c1.5166,0,2.75-1.2334,2.75-2.75V4.75C32,3.2334,30.7666,2,29.25,2H4.75L4.75,2z"/>
			</g>
			<g>
				<path fill="#393939" d="M32,12H2c-0.5527,0-1-0.4478-1-1c0-0.5522,0.4473-1,1-1h30c0.5527,0,1,0.4478,1,1
					C33,11.5522,32.5527,12,32,12L32,12z"/>
			</g>
			<g>
				<line fill="none" x1="17.9766" y1="6" x2="17.9766" y2="6"/>
			</g>
			<g>
				<path fill="#393939" d="M20,54h-4c-0.5527,0-1-0.4473-1-1c0-0.5527,0.4473-1,1-1h4c0.5527,0,1,0.4473,1,1
					C21,53.5527,20.5527,54,20,54L20,54z"/>
			</g>
			<g>
				<path fill="#393939" d="M32,50H2c-0.5527,0-1-0.4473-1-1c0-0.5527,0.4473-1,1-1h30c0.5527,0,1,0.4473,1,1
					C33,49.5527,32.5527,50,32,50L32,50z"/>
			</g>
		</g>
		<g>
			<path fill="#393939" d="M17,40c-0.2559,0-0.5117-0.0977-0.707-0.293l-8.8682-8.8681c-0.0312-0.0308-0.0596-0.064-0.0859-0.0982
				c-1.2198-1.1963-1.8887-2.7759-1.8887-4.4663C5.4502,22.8145,8.2646,20,11.7246,20c2.21,0,4.1572,1.1479,5.2754,2.8794
				C18.1182,21.1479,20.0645,20,22.2744,20c3.46,0,6.2754,2.8145,6.2754,6.2744c0,1.6924-0.667,3.27-1.8818,4.4624
				c-0.0274,0.0357-0.0576,0.0698-0.0899,0.1021L17.707,39.707C17.5117,39.9023,17.2559,40,17,40L17,40z M8.9512,29.5371L17,37.5859
				l8.0518-8.0493c0.038-0.0517,0.081-0.1001,0.1279-0.1445c0.8838-0.8223,1.3701-1.9297,1.3701-3.1177
				c0-2.3569-1.918-4.2744-4.2754-4.2744C19.918,22,18,23.9175,18,26.2744c0,0.5523-0.4473,1-1,1c-0.5527,0-1-0.4477-1-1
				C16,23.9175,14.082,22,11.7246,22c-2.3564,0-4.2744,1.9175-4.2744,4.2744c0,1.186,0.4883,2.2949,1.376,3.1221
				C8.873,29.4399,8.915,29.4868,8.9512,29.5371L8.9512,29.5371z"/>
		</g>
	</g>
</g>
</svg>
