<?xml version="1.0" encoding="utf-8"?>
<!-- Generator: Adobe Illustrator 17.1.0, SVG Export Plug-In . SVG Version: 6.00 Build 0)  -->
<!DOCTYPE svg PUBLIC "-//W3C//DTD SVG 1.1//EN" "http://www.w3.org/Graphics/SVG/1.1/DTD/svg11.dtd">
<svg version="1.1" id="stamp" xmlns="http://www.w3.org/2000/svg" xmlns:xlink="http://www.w3.org/1999/xlink" x="0px" y="0px"
	 viewBox="0 0 59.9995 60" enable-background="new 0 0 59.9995 60" xml:space="preserve">
<g id="stamp-color">
	<path fill="#F16061" d="M56.5864,15.2192c0.7569,0.5757,1.1904,1.4507,1.1904,2.4009c0,0.9497-0.4335,1.8237-1.1914,2.3994
		c-0.5468,0.418-0.8613,1.0469-0.8623,1.7246c0,0.6797,0.3135,1.3086,0.8633,1.73c0.7569,0.5742,1.1904,1.4488,1.1904,2.3989
		c0,0.9512-0.4335,1.8257-1.1914,2.4014c-0.5478,0.4175-0.8623,1.0469-0.8623,1.7256c0,0.6792,0.3145,1.3076,0.8633,1.7266
		c0.7569,0.5752,1.1904,1.4502,1.1904,2.4013c0,0.9492-0.4335,1.8242-1.1904,2.3994c-0.5469,0.417-0.8613,1.044-0.8623,1.7227
		c-0.0019,0.6787,0.3115,1.3096,0.8643,1.7324c0.7558,0.5733,1.1884,1.4473,1.1884,2.3985c0,0.9502-0.4335,1.8252-1.1914,2.4013
		c-0.5478,0.417-0.8623,1.0469-0.8623,1.7246c0,0.6797,0.3145,1.3086,0.8633,1.7276c0.7569,0.5752,1.1904,1.4511,1.1904,2.4004
		c0,1.4492-1.0302,2.6953-2.4521,2.9629c-0.8828,0.166-1.5615,0.8447-1.7275,1.7275c-0.2676,1.4219-1.5147,2.4521-2.9629,2.4521
		c-0.9502,0-1.8252-0.4336-2.4014-1.1923c-0.418-0.5479-1.0469-0.8614-1.7266-0.8614c-0.6777,0-1.3076,0.3135-1.7275,0.8633
		c-0.5732,0.7568-1.4482,1.1904-2.3975,1.1904c-0.9521,0-1.8261-0.4336-2.4023-1.1923c-0.8369-1.0967-2.6191-1.0948-3.4522,0.0009
		c-0.5742,0.7578-1.4502,1.1914-2.3994,1.1914c-0.9511,0-1.8261-0.4336-2.4023-1.1923c-0.836-1.0957-2.6152-1.0967-3.4517,0.0009
		c-0.5761,0.7578-1.4507,1.1914-2.4013,1.1914c-0.9507,0-1.8243-0.4336-2.4004-1.1923c-0.8355-1.0957-2.6182-1.0967-3.4527,0.0009
		c-0.5747,0.7578-1.4507,1.1914-2.4008,1.1914c-0.9498,0-1.8243-0.4336-2.4004-1.1914c-0.8345-1.0976-2.6162-1.0976-3.4527,0
		c-0.5761,0.7578-1.4507,1.1914-2.4013,1.1914c-1.4483,0-2.6944-1.0302-2.962-2.4521c-0.166-0.8828-0.8442-1.5615-1.7275-1.7275
		c-1.4214-0.2676-2.4521-1.5137-2.4521-2.9629c0-0.9493,0.434-1.8252,1.1914-2.4014c0.5478-0.418,0.8613-1.0469,0.8613-1.7266
		c0-0.6777-0.3135-1.3076-0.8638-1.7265c-0.7549-0.5742-1.1889-1.4492-1.1889-2.3994c0-0.9512,0.434-1.8252,1.1933-2.4014
		c0.5469-0.4199,0.8618-1.0508,0.8594-1.7295c0-0.6787-0.3145-1.3057-0.8628-1.7227c-0.7559-0.5752-1.1899-1.4502-1.1899-2.3994
		c0-0.9511,0.434-1.8261,1.1914-2.4023C3.9614,31.3076,4.2749,30.6792,4.2749,30c0-0.6787-0.3135-1.3081-0.8638-1.7271
		c-0.7549-0.5742-1.1889-1.4487-1.1889-2.3999c0-0.9501,0.434-1.8247,1.1923-2.4013c0.5479-0.419,0.8614-1.0479,0.8604-1.7276
		c0-0.6777-0.3145-1.3066-0.8638-1.7255c-0.7549-0.5748-1.1889-1.4488-1.1889-2.3985c0-0.9502,0.434-1.8252,1.1923-2.4023
		c0.5479-0.419,0.8628-1.0489,0.8604-1.7285c0-0.6783-0.3145-1.3067-0.8628-1.7232c-0.7559-0.5757-1.1899-1.4507-1.1899-2.4009
		c0-1.4492,1.0307-2.6958,2.4497-2.9629c0.8833-0.1655,1.5625-0.8432,1.7299-1.7275c0.2676-1.4209,1.5137-2.4521,2.962-2.4521
		c0.9506,0,1.8252,0.4335,2.4023,1.1919c0.8355,1.0952,2.6118,1.0971,3.4517-0.0015c0.5761-0.7569,1.4506-1.1904,2.4004-1.1904
		c0.9501,0,1.8261,0.4335,2.4033,1.1928c0.8354,1.0938,2.6084,1.0977,3.4526-0.0029c0.5737-0.7564,1.4473-1.1899,2.398-1.1899
		c0.9506,0,1.8252,0.4335,2.4023,1.1919c0.833,1.0952,2.6118,1.0971,3.4517-0.0015c0.5752-0.7569,1.4502-1.1904,2.4013-1.1904
		c0.9492,0,1.8252,0.4335,2.4014,1.1919c0.834,1.0947,2.6084,1.0996,3.4512-0.002c0.5752-0.7564,1.4492-1.1899,2.4013-1.1899
		c0.9493,0,1.8243,0.4335,2.4004,1.1928c0.8379,1.0952,2.6133,1.0957,3.4522-0.0029c0.5752-0.7564,1.4502-1.1899,2.4004-1.1899
		c1.4492,0,2.6953,1.0312,2.9629,2.4526c0.1669,0.8838,0.8457,1.5615,1.7275,1.727c1.4219,0.2671,2.4521,1.5137,2.4521,2.9629
		c0,0.9502-0.4335,1.8252-1.1904,2.4009c-0.5478,0.4165-0.8623,1.0449-0.8633,1.7232
		C55.7231,14.1689,56.0366,14.7988,56.5864,15.2192z"/>
	<path fill="#FDE3E3" d="M50.5552,49.8936c0,0.3642-0.2979,0.6621-0.6621,0.6621H10.105c-0.3648,0-0.6607-0.2979-0.6607-0.6621
		V10.106c0-0.3648,0.2959-0.6612,0.6607-0.6612h39.7881c0.3642,0,0.6621,0.2964,0.6621,0.6612V49.8936z"/>
	<path fill="#F16061" d="M38.3852,24.1602c-0.0488,0.0463-0.0937,0.0961-0.1337,0.1494l-8.252,8.247l-8.2466-8.2461
		c-0.039-0.0527-0.0825-0.102-0.1313-0.1474c-0.9004-0.8403-1.3965-1.9658-1.3965-3.168c0-2.3867,1.9424-4.3281,4.3306-4.3281
		c2.3881,0,4.333,1.9414,4.333,4.3281c0,0.6138,0.4965,1.1109,1.1108,1.1109c0.6143,0,1.1113-0.4971,1.1113-1.1109
		c0-2.3867,1.9434-4.3281,4.3321-4.3281c2.3886,0,4.331,1.9414,4.331,4.3281C39.7739,22.1978,39.2808,23.3218,38.3852,24.1602z"/>
	<g>
		<path fill="#393939" d="M17.353,39.3867h-0.8931l-2.2177,1.9063l0.3427,0.4795c0.0201,0.0263,0.0479,0.0527,0.084,0.0742
			c0.0357,0.0224,0.0767,0.0381,0.1236,0.0498c0.0444,0.0088,0.0942,0.0088,0.1474-0.0039
			c0.0533-0.0108,0.1045-0.0391,0.1553-0.0781l1.1807-0.9961c-0.0113,0.1699-0.0152,0.3359-0.0152,0.5v4.6084h-1.5332v0.833h4.0113
			v-0.833H17.353V39.3867z"/>
		<path fill="#393939" d="M24.0566,39.3984h-1.0317l-3.5298,4.6983l0.1128,0.5625c0.0161,0.0693,0.0532,0.126,0.1094,0.1719
			c0.0566,0.0459,0.123,0.0693,0.2011,0.0693h3.1846v1.8594h0.9536v-1.8594h0.7823c0.0781,0,0.1367-0.0234,0.1757-0.0654
			c0.0391-0.0459,0.0601-0.0996,0.0601-0.1602V44.043h-1.0181V39.3984z M23.103,41.3545v2.6885h-2.4272l2.4716-3.3946
			C23.1172,40.9053,23.103,41.1396,23.103,41.3545z"/>
		<polygon fill="#393939" points="28.7637,46.7598 29.9639,46.7598 29.9639,43.6895 32.8403,43.6895 32.8403,42.7236 
			29.9639,42.7236 29.9639,40.3691 33.352,40.3691 33.352,39.4023 28.7637,39.4023 		"/>
		<polygon fill="#393939" points="35.7436,43.5195 38.4507,43.5195 38.4507,42.5859 35.7436,42.5859 35.7436,40.3691 
			39.1304,40.3691 39.1304,39.4023 34.5415,39.4023 34.5415,46.7598 39.1304,46.7598 39.1333,45.7939 35.7436,45.7939 		"/>
		<path fill="#393939" d="M44.1919,42.9629c0.2295-0.0742,0.4277-0.168,0.5947-0.2803c0.166-0.1133,0.3047-0.2392,0.416-0.3808
			c0.1104-0.1407,0.1905-0.292,0.2461-0.4551c0.0528-0.1602,0.0772-0.3301,0.0772-0.502c0-0.3008-0.0498-0.5713-0.1504-0.8105
			c-0.0996-0.2412-0.2578-0.4434-0.4717-0.6104c-0.2158-0.167-0.4893-0.2959-0.8232-0.3857
			c-0.334-0.0918-0.7354-0.1358-1.2061-0.1358h-2.4463v7.3575h2.6973c0.4199,0,0.792-0.0518,1.1191-0.1582
			c0.3272-0.1055,0.6016-0.253,0.8252-0.4414c0.2227-0.1895,0.3926-0.4151,0.5108-0.6768c0.1162-0.2598,0.1757-0.5469,0.1757-0.8594
			C45.7563,43.7373,45.2358,43.1846,44.1919,42.9629z M41.6235,40.3389h1.251c0.5039,0,0.876,0.0888,1.1113,0.2685
			c0.2383,0.1807,0.3555,0.4746,0.3555,0.8789c0,0.3711-0.126,0.6573-0.3779,0.8545c-0.251,0.1963-0.6338,0.2959-1.1446,0.2959
			h-1.1953V40.3389z M44.4985,45.0781c-0.0537,0.1455-0.1396,0.2735-0.2568,0.3838c-0.1182,0.1084-0.2686,0.1953-0.4551,0.2588
			c-0.1846,0.0625-0.4111,0.0938-0.6826,0.0938h-1.4805v-2.334h1.4766c0.5107,0,0.8838,0.0986,1.1221,0.2978
			c0.2363,0.1992,0.3544,0.4727,0.3544,0.8203C44.5766,44.7686,44.5503,44.9287,44.4985,45.0781z"/>
	</g>
</g>
<g id="stamp-line">
	<g>
		<g>
			<path fill="#393939" d="M49.8931,52.7773H10.105c-1.5899,0-2.8828-1.2929-2.8828-2.8837V10.106
				c0-1.5904,1.2929-2.8833,2.8828-2.8833h39.7881c1.5908,0,2.8837,1.2929,2.8837,2.8833v39.7876
				C52.7768,51.4844,51.4839,52.7773,49.8931,52.7773L49.8931,52.7773z M10.105,9.4448c-0.3648,0-0.6607,0.2964-0.6607,0.6612
				v39.7876c0,0.3642,0.2959,0.6621,0.6607,0.6621h39.7881c0.3642,0,0.6621-0.2979,0.6621-0.6621V10.106
				c0-0.3648-0.2979-0.6612-0.6621-0.6612H10.105L10.105,9.4448z"/>
		</g>
		<g>
			<path fill="#393939" d="M50.6343,60c-1.6514,0-3.1719-0.7539-4.17-2.0693C45.5513,59.2461,44.0317,60,42.3813,60
				c-1.6523,0-3.1728-0.7539-4.1699-2.0693C37.2974,59.2461,35.7778,60,34.1274,60c-1.6513,0-3.1709-0.7539-4.1704-2.0684
				C29.0425,59.2461,27.5234,60,25.8721,60c-1.6514,0-3.1705-0.7539-4.169-2.0693C20.7895,59.2461,19.2685,60,17.6182,60
				c-1.6504,0-3.1695-0.7539-4.169-2.0684C12.5347,59.2461,11.0151,60,9.3638,60c-2.5152,0-4.6797-1.793-5.1451-4.2627
				C1.7925,55.3164,0,53.1504,0,50.6348c0-1.6504,0.7529-3.17,2.0669-4.169C0.7529,45.5508,0,44.0322,0,42.3809
				c0-1.6514,0.7529-3.1709,2.0679-4.169C0.7529,37.2959,0,35.7764,0,34.1279c0-1.6504,0.7529-3.1704,2.0669-4.1704
				C0.7529,29.0439,0,27.5244,0,25.873c0-1.6508,0.7529-3.1699,2.0679-4.1689C0.7529,20.7896,0,19.2705,0,17.6201
				c0-1.6499,0.7529-3.1694,2.0669-4.1694C0.7529,12.5347,0,11.0151,0,9.3652c0-2.5171,1.7925-4.6816,4.2617-5.1474
				C4.6831,1.7935,6.8476,0,9.3638,0c1.6503,0,3.1709,0.7539,4.1699,2.0679C14.4487,0.7539,15.9678,0,17.6182,0
				c1.6503,0,3.1704,0.7539,4.1694,2.0679C22.7016,0.7544,24.2207,0,25.8721,0c1.6503,0,3.1704,0.7539,4.1699,2.0679
				C30.9565,0.7539,32.477,0,34.1274,0c1.6494,0,3.169,0.7539,4.169,2.0679C39.2095,0.7544,40.729,0,42.3813,0
				c1.6504,0,3.169,0.7544,4.168,2.0684C47.4624,0.7544,48.9829,0,50.6343,0c2.5166,0,4.6816,1.7935,5.1465,4.2637
				c2.4257,0.4199,4.2187,2.5844,4.2187,5.1015c0,1.6499-0.7529,3.1695-2.0674,4.1695c1.3145,0.916,2.0674,2.4355,2.0674,4.0854
				c0,1.6504-0.7529,3.1695-2.0684,4.168c1.3155,0.915,2.0684,2.4341,2.0684,4.0849c0,1.6514-0.7529,3.1709-2.0684,4.17
				c1.3155,0.9145,2.0684,2.4345,2.0684,4.0849c0,1.6485-0.7529,3.168-2.0674,4.168c1.3145,0.9141,2.0674,2.4336,2.0674,4.085
				c0,1.6513-0.7529,3.1699-2.0684,4.1689c1.3155,0.915,2.0684,2.4346,2.0684,4.085c0,2.5156-1.793,4.6816-4.2627,5.1464
				C55.3149,58.207,53.1509,60,50.6343,60L50.6343,60z M46.5073,55.7227c0.6797,0,1.3086,0.3144,1.7256,0.8623
				c0.5762,0.7587,1.4512,1.1923,2.4014,1.1923c1.4482,0,2.6953-1.0302,2.9629-2.4521c0.166-0.8828,0.8447-1.5615,1.7275-1.7275
				c1.4219-0.2676,2.4521-1.5147,2.4521-2.9629c0-0.9493-0.4335-1.8243-1.1904-2.4004c-0.5488-0.418-0.8623-1.0469-0.8623-1.7266
				c0-0.6787,0.3135-1.3086,0.8613-1.7275c0.7579-0.5742,1.1914-1.4492,1.1914-2.3994c0-0.9512-0.4335-1.8252-1.1884-2.3985
				c-0.5518-0.4228-0.8662-1.0537-0.8643-1.7324c0-0.6787,0.3145-1.3057,0.8623-1.7227c0.7569-0.5752,1.1904-1.4492,1.1904-2.3994
				c0-0.9511-0.4335-1.8252-1.1904-2.4013c-0.5488-0.418-0.8623-1.0479-0.8623-1.7266c0-0.6787,0.3135-1.3081,0.8613-1.7256
				c0.7579-0.5757,1.1914-1.4502,1.1914-2.4014c0-0.9501-0.4335-1.8247-1.1884-2.3989c-0.5518-0.4214-0.8653-1.0503-0.8643-1.73
				c0-0.6777,0.3145-1.3066,0.8613-1.7246c0.7579-0.5757,1.1914-1.4497,1.1914-2.3994c0-0.9502-0.4335-1.8252-1.1904-2.4009
				c-0.5498-0.4204-0.8642-1.0503-0.8623-1.7299c0-0.6783,0.3145-1.3067,0.8623-1.7232c0.7569-0.5757,1.1904-1.4507,1.1904-2.4009
				c0-1.4492-1.0302-2.6958-2.4521-2.9629c-0.8809-0.1655-1.5606-0.8432-1.7275-1.727c-0.2676-1.4214-1.5147-2.4526-2.9629-2.4526
				c-0.9502,0-1.8252,0.4335-2.3994,1.1899c-0.8418,1.0991-2.6172,1.0967-3.4522,0.0029c-0.5771-0.7593-1.4521-1.1928-2.4014-1.1928
				c-0.9521,0-1.8261,0.4335-2.4013,1.1899c-0.8428,1.1025-2.6172,1.0967-3.4532,0.002c-0.5742-0.7584-1.4492-1.1919-2.3994-1.1919
				c-0.9511,0-1.8252,0.4335-2.4013,1.1904c-0.8399,1.0986-2.6162,1.0967-3.4517,0.0015c-0.5771-0.7584-1.4517-1.1919-2.4023-1.1919
				c-0.9507,0-1.8243,0.4335-2.398,1.1899c-0.8442,1.1006-2.6172,1.0967-3.4526,0.0029c-0.5772-0.7593-1.4532-1.1928-2.4033-1.1928
				c-0.9498,0-1.8243,0.4335-2.4004,1.1904c-0.8409,1.0986-2.6172,1.0967-3.4517,0.0015c-0.5771-0.7584-1.4517-1.1919-2.4023-1.1919
				c-1.4483,0-2.6944,1.0312-2.962,2.4521c-0.1674,0.8843-0.8466,1.562-1.7299,1.7275C3.2529,6.6694,2.2222,7.916,2.2222,9.3652
				c0,0.9502,0.434,1.8252,1.1899,2.4009c0.5483,0.4165,0.8628,1.0449,0.8628,1.7232c0.0024,0.6796-0.3125,1.3095-0.8604,1.7285
				c-0.7583,0.5771-1.1923,1.4521-1.1923,2.4023c0,0.9497,0.434,1.8237,1.1889,2.3985c0.5493,0.4189,0.8638,1.0478,0.8638,1.7255
				c0.001,0.6797-0.3125,1.3086-0.8604,1.7276c-0.7583,0.5766-1.1923,1.4512-1.1923,2.4013c0,0.9512,0.434,1.8257,1.1889,2.3999
				C3.9614,28.6919,4.2749,29.3213,4.2749,30c0,0.6787-0.3135,1.3086-0.8613,1.7256c-0.7574,0.5771-1.1914,1.4512-1.1914,2.4023
				c0,0.9502,0.434,1.8242,1.1899,2.3994c0.5483,0.417,0.8628,1.044,0.8628,1.7227c0.0024,0.6787-0.3125,1.3096-0.8594,1.7295
				c-0.7593,0.5762-1.1933,1.4502-1.1933,2.4014c0,0.9502,0.434,1.8252,1.1889,2.3994c0.5503,0.4189,0.8638,1.0488,0.8638,1.7275
				c0,0.6797-0.3135,1.3086-0.8613,1.7256c-0.7574,0.5771-1.1914,1.4521-1.1914,2.4014c0,1.4482,1.0307,2.6953,2.4521,2.9629
				c0.8833,0.166,1.5615,0.8447,1.7275,1.7275c0.2676,1.4219,1.5137,2.4521,2.962,2.4521c0.9506,0,1.8252-0.4336,2.4013-1.1914
				c0.8365-1.0976,2.6182-1.0966,3.4527,0c0.5761,0.7578,1.4506,1.1914,2.4004,1.1914c0.9501,0,1.8261-0.4336,2.4008-1.1914
				c0.8345-1.0976,2.6172-1.0966,3.4527-0.0009c0.5761,0.7587,1.4497,1.1923,2.4004,1.1923c0.9506,0,1.8252-0.4336,2.4013-1.1914
				c0.8365-1.0976,2.6157-1.0966,3.4517-0.0009c0.5771,0.7587,1.4512,1.1923,2.4023,1.1923c0.9502,0,1.8252-0.4336,2.3994-1.1914
				c0.835-1.0976,2.6172-1.0966,3.4532-0.0009c0.5752,0.7587,1.4492,1.1923,2.4013,1.1923c0.9493,0,1.8243-0.4336,2.3995-1.1904
				C45.1987,56.0371,45.8286,55.7227,46.5073,55.7227L46.5073,55.7227z"/>
		</g>
	</g>
	<g>
		<path fill="#393939" d="M29.9995,35.2383c-0.2842,0-0.5684-0.1084-0.7856-0.3252l-9.1504-9.1504
			c-0.0323-0.0317-0.0616-0.0659-0.0899-0.1011c-1.2715-1.2519-1.9707-2.9018-1.9707-4.6665c0-3.6123,2.9395-6.5508,6.5528-6.5508
			c2.2656,0,4.2656,1.1543,5.4438,2.9053c1.1787-1.751,3.1777-2.9053,5.4434-2.9053c3.6132,0,6.5527,2.9385,6.5527,6.5508
			c0,1.7652-0.6953,3.4141-1.9609,4.6631c-0.0293,0.0361-0.0616,0.0713-0.0938,0.105l-9.1558,9.1499
			C30.5679,35.1299,30.2837,35.2383,29.9995,35.2383L29.9995,35.2383z M21.7529,24.3105l8.2466,8.2461l8.2529-8.247
			c0.0391-0.0533,0.083-0.1031,0.1328-0.1494c0.8956-0.8384,1.3887-1.9624,1.3887-3.1651c0-2.3867-1.9424-4.3281-4.331-4.3281
			c-2.3877,0-4.3321,1.9414-4.3321,4.3281c0,0.6138-0.497,1.1109-1.1113,1.1109c-0.6143,0-1.1108-0.4971-1.1108-1.1109
			c0-2.3867-1.9449-4.3281-4.333-4.3281c-2.3882,0-4.3306,1.9414-4.3306,4.3281c0,1.2022,0.4961,2.3277,1.3965,3.168
			C21.6704,24.2085,21.7139,24.2578,21.7529,24.3105L21.7529,24.3105z"/>
	</g>
	<g>
		<path fill="#393939" d="M18.7388,45.9268v0.833h-4.0113v-0.833h1.5332v-4.6084c0-0.1641,0.0039-0.3301,0.0152-0.5l-1.1807,0.9961
			c-0.0508,0.039-0.102,0.0673-0.1553,0.0781c-0.0532,0.0127-0.103,0.0127-0.1474,0.0039
			c-0.0469-0.0117-0.0879-0.0274-0.1236-0.0498c-0.0361-0.0215-0.0639-0.0479-0.084-0.0742l-0.3427-0.4795l2.2177-1.9063h0.8931
			v6.5401H18.7388z"/>
		<path fill="#393939" d="M25.0747,44.043v0.6318c0,0.0606-0.021,0.1143-0.0601,0.1602c-0.039,0.042-0.0976,0.0654-0.1757,0.0654
			h-0.7823v1.8594H23.103v-1.8594h-3.1846c-0.0781,0-0.1445-0.0234-0.2011-0.0693c-0.0562-0.0459-0.0933-0.1026-0.1094-0.1719
			l-0.1128-0.5625l3.5298-4.6983h1.0317v4.6446H25.0747z M23.103,44.043v-2.6885c0-0.2149,0.0142-0.4492,0.0444-0.7061
			l-2.4716,3.3946H23.103z"/>
		<path fill="#393939" d="M29.9639,40.3691v2.3545h2.8764v0.9659h-2.8764v3.0703h-1.2002v-7.3575h4.5883v0.9668H29.9639z"/>
		<path fill="#393939" d="M39.1333,45.7939l-0.0029,0.9659h-4.5889v-7.3575h4.5889v0.9668h-3.3868v2.2168h2.7071v0.9336h-2.7071
			v2.2744H39.1333z"/>
		<path fill="#393939" d="M42.8745,39.4023c0.4707,0,0.8721,0.044,1.2061,0.1358c0.3339,0.0898,0.6074,0.2187,0.8232,0.3857
			c0.2139,0.167,0.3721,0.3692,0.4717,0.6104c0.1006,0.2392,0.1504,0.5097,0.1504,0.8105c0,0.1719-0.0244,0.3418-0.0772,0.502
			c-0.0556,0.1631-0.1357,0.3144-0.2461,0.4551c-0.1113,0.1416-0.25,0.2675-0.416,0.3808c-0.167,0.1123-0.3652,0.2061-0.5947,0.2803
			c1.0439,0.2217,1.5644,0.7744,1.5644,1.6611c0,0.3125-0.0595,0.5996-0.1757,0.8594c-0.1182,0.2617-0.2881,0.4873-0.5108,0.6768
			c-0.2236,0.1884-0.498,0.3359-0.8252,0.4414c-0.3271,0.1064-0.6992,0.1582-1.1191,0.1582h-2.6973v-7.3575H42.8745z
			 M41.6235,40.3389v2.2978h1.1953c0.5108,0,0.8936-0.0996,1.1446-0.2959c0.2519-0.1972,0.3779-0.4834,0.3779-0.8545
			c0-0.4043-0.1172-0.6982-0.3555-0.8789c-0.2353-0.1797-0.6074-0.2685-1.1113-0.2685H41.6235z M43.104,45.8145
			c0.2715,0,0.498-0.0313,0.6826-0.0938c0.1865-0.0635,0.3369-0.1504,0.4551-0.2588c0.1172-0.1103,0.2031-0.2383,0.2568-0.3838
			c0.0518-0.1494,0.0781-0.3095,0.0781-0.4795c0-0.3476-0.1181-0.6211-0.3544-0.8203c-0.2383-0.1992-0.6114-0.2978-1.1221-0.2978
			h-1.4766v2.334H43.104z"/>
	</g>
</g>
</svg>
