<?xml version="1.0" encoding="utf-8"?>
<!-- Generator: Adobe Illustrator 17.1.0, SVG Export Plug-In . SVG Version: 6.00 Build 0)  -->
<!DOCTYPE svg PUBLIC "-//W3C//DTD SVG 1.1//EN" "http://www.w3.org/Graphics/SVG/1.1/DTD/svg11.dtd">
<svg version="1.1" id="watch-heart" xmlns="http://www.w3.org/2000/svg" xmlns:xlink="http://www.w3.org/1999/xlink" x="0px"
	 y="0px" viewBox="0 0 43.3398 60" enable-background="new 0 0 43.3398 60" xml:space="preserve">
<g id="watch-heart-watch-heart">
	<g id="watch-heart-color">
		<polygon fill="#F16061" points="9.0908,2.1055 34.25,2.1055 35.7871,8.2476 7.5552,8.2476 		"/>
		<polygon fill="#F16061" points="34.25,57.8945 9.0908,57.8945 7.5132,51.5879 35.8281,51.5879 		"/>
		<path fill="#FDE3E3" d="M41.2353,45.3799c0,2.2627-1.8388,4.1025-4.1006,4.1025H6.2065c-2.2617,0-4.1015-1.8398-4.1015-4.1025
			V14.4541c0-2.2612,1.8398-4.1016,4.1015-4.1016h30.9282c2.2618,0,4.1006,1.8404,4.1006,4.1016V45.3799z"/>
		<path fill="#F16061" d="M8.4751,39.8135c0,1.8144,1.4824,3.2988,3.2978,3.2988h19.7935c1.8144,0,3.2998-1.4844,3.2998-3.2988
			v-19.792c0-1.8154-1.4854-3.2998-3.2998-3.2998H11.7729c-1.8154,0-3.2978,1.4844-3.2978,3.2998V39.8135z"/>
		<path fill="#FFFFFF" d="M21.6699,26.7319c0-2.5551-2.0703-4.6264-4.6279-4.6264c-2.5542,0-4.6255,2.0713-4.6255,4.6264
			c0,1.3384,0.5776,2.5342,1.4853,3.3804l-0.0112,0.0039l7.7793,7.7783l7.7813-7.7783c-0.002-0.0039-0.0049-0.0039-0.0079-0.0063
			c0.9063-0.8457,1.4805-2.0396,1.4805-3.378c0-2.5551-2.0703-4.6264-4.6269-4.6264
			C23.7422,22.1055,21.6699,24.1768,21.6699,26.7319z"/>
	</g>
	<g id="watch-heart-line">
		<g id="watch-heart-heart-rate-watch">
			<g>
				<path fill="#393939" d="M37.1347,51.5879H6.2065C2.7846,51.5879,0,48.8037,0,45.3799V14.4541
					c0-3.4224,2.7846-6.2065,6.2065-6.2065h30.9282c3.4219,0,6.2051,2.7841,6.2051,6.2065v30.9258
					C43.3398,48.8037,40.5566,51.5879,37.1347,51.5879L37.1347,51.5879z M6.2065,10.3525c-2.2617,0-4.1015,1.8404-4.1015,4.1016
					v30.9258c0,2.2617,1.8398,4.1025,4.1015,4.1025h30.9282c2.2618,0,4.1006-1.8408,4.1006-4.1025V14.4541
					c0-2.2612-1.8388-4.1016-4.1006-4.1016H6.2065L6.2065,10.3525z"/>
			</g>
			<g>
				<path fill="#393939" d="M31.5664,44.165H11.7729c-2.3994,0-4.3506-1.9521-4.3506-4.3515v-19.792
					c0-2.3994,1.9512-4.3521,4.3506-4.3521h19.7935c2.4004,0,4.3525,1.9527,4.3525,4.3521v19.792
					C35.9189,42.2129,33.9668,44.165,31.5664,44.165L31.5664,44.165z M11.7729,17.7744c-1.2378,0-2.2451,1.0078-2.2451,2.2471
					v19.792c0,1.2392,1.0073,2.2461,2.2451,2.2461h19.7935c1.2383,0,2.2471-1.0069,2.2471-2.2461v-19.792
					c0-1.2393-1.0088-2.2471-2.2471-2.2471H11.7729L11.7729,17.7744z"/>
			</g>
			<g>
				<path fill="#393939" d="M37.1338,10.3525c-0.4717,0-0.9004-0.3188-1.0215-0.7968L34.25,2.1055H9.0908L7.227,9.5557
					c-0.1406,0.5644-0.7109,0.9087-1.2763,0.7656c-0.5635-0.1411-0.9068-0.7129-0.7652-1.2764L7.248,0.7974
					C7.3652,0.3286,7.7866,0,8.2695,0h26.8018c0.4834,0,0.9033,0.3286,1.0205,0.7974l2.0644,8.2475
					c0.1397,0.5635-0.2021,1.1353-0.7666,1.2764C37.3037,10.3428,37.2187,10.3525,37.1338,10.3525L37.1338,10.3525z"/>
			</g>
			<g>
				<path fill="#393939" d="M35.0713,60H8.2695c-0.4829,0-0.9043-0.3291-1.0215-0.7979l-2.0625-8.246
					c-0.1416-0.5635,0.2017-1.1348,0.7652-1.2774c0.5654-0.1416,1.1357,0.2031,1.2763,0.7676l1.8638,7.4482H34.25l1.8623-7.4482
					c0.1426-0.5645,0.7139-0.9092,1.2773-0.7676c0.5645,0.1426,0.9063,0.7139,0.7666,1.2774l-2.0644,8.246
					C35.9746,59.6709,35.5547,60,35.0713,60L35.0713,60z"/>
			</g>
			<g>
				<line fill="none" x1="21.6699" y1="46.7393" x2="21.6699" y2="46.7393"/>
			</g>
			<g>
				<path fill="#393939" d="M16.4585,47.792h-4.6314c-0.5805,0-1.0522-0.4707-1.0522-1.0527c0-0.5821,0.4717-1.0528,1.0522-1.0528
					h4.6314c0.5815,0,1.0522,0.4707,1.0522,1.0528C17.5107,47.3213,17.04,47.792,16.4585,47.792L16.4585,47.792z"/>
			</g>
			<g>
				<path fill="#393939" d="M31.5117,47.792h-4.6309c-0.581,0-1.0527-0.4707-1.0527-1.0527c0-0.5821,0.4717-1.0528,1.0527-1.0528
					h4.6309c0.582,0,1.0527,0.4707,1.0527,1.0528C32.5644,47.3213,32.0937,47.792,31.5117,47.792L31.5117,47.792z"/>
			</g>
		</g>
		<g>
			<path fill="#393939" d="M21.6699,38.9473c-0.269,0-0.5386-0.1026-0.7441-0.3086l-7.7798-7.7783
				c-0.0298-0.0298-0.0572-0.0616-0.084-0.0948c-1.0957-1.081-1.6983-2.5068-1.6983-4.0337c0-3.1313,2.5474-5.6792,5.6783-5.6792
				c1.9072,0,3.5971,0.9444,4.6279,2.3887c1.0303-1.4443,2.7197-2.3887,4.627-2.3887c3.1318,0,5.6796,2.5479,5.6796,5.6792
				c0,1.5293-0.6015,2.9556-1.6972,4.0347c-0.0264,0.0332-0.0537,0.064-0.083,0.0938l-7.7823,7.7783
				C22.2085,38.8447,21.9394,38.9473,21.6699,38.9473L21.6699,38.9473z M14.7436,29.4805l6.9263,6.9257l6.9326-6.9306
				c0.0371-0.0479,0.0781-0.0933,0.1231-0.1353c0.7382-0.6894,1.1455-1.6157,1.1455-2.6084c0-1.9702-1.6035-3.5742-3.5742-3.5742
				c-1.9707,0-3.5743,1.604-3.5743,3.5742c0,0.5816-0.4707,1.0528-1.0527,1.0528c-0.5815,0-1.0527-0.4712-1.0527-1.0528
				c0-1.9702-1.6035-3.5742-3.5752-3.5742c-1.9693,0-3.5733,1.604-3.5733,3.5742c0,0.9917,0.4092,1.9185,1.1504,2.6104
				C14.6655,29.3848,14.7065,29.4312,14.7436,29.4805L14.7436,29.4805z"/>
		</g>
	</g>
</g>
</svg>
