<?xml version="1.0" encoding="utf-8"?>
<!-- Generator: Adobe Illustrator 17.1.0, SVG Export Plug-In . SVG Version: 6.00 Build 0)  -->
<!DOCTYPE svg PUBLIC "-//W3C//DTD SVG 1.1//EN" "http://www.w3.org/Graphics/SVG/1.1/DTD/svg11.dtd">
<svg version="1.1" id="bicycle" xmlns="http://www.w3.org/2000/svg" xmlns:xlink="http://www.w3.org/1999/xlink" x="0px" y="0px"
	 viewBox="0 0 1010 657.7143" enable-background="new 0 0 1010 657.7143" xml:space="preserve">
<g id="bicycle-bicycle">
	<g>
		<path fill="#FFCA72" d="M398.6357,450.5854c0,105.7647-85.727,191.4688-191.4765,191.4688
			c-105.7344,0-191.499-85.7041-191.499-191.4688c0-105.7656,85.7646-191.4697,191.499-191.4697
			C312.9087,259.1157,398.6357,344.8198,398.6357,450.5854z"/>
		<path fill="#37474F" d="M207.1592,657.7143C92.9272,657.7143,0,564.8022,0,450.5854C0,336.3833,92.9272,243.456,207.1592,243.456
			c114.209,0,207.1367,92.9273,207.1367,207.1294C414.2959,564.8022,321.3682,657.7143,207.1592,657.7143L207.1592,657.7143z
			 M207.1592,274.7758c-96.9561,0-175.8399,78.876-175.8399,175.8096c0,96.9483,78.8838,175.8086,175.8399,175.8086
			c96.9482,0,175.8169-78.8603,175.8169-175.8086C382.9761,353.6518,304.1074,274.7758,207.1592,274.7758L207.1592,274.7758z"/>
	</g>
	<path fill="#FFFFFD" d="M285.4585,450.5854c0,43.2461-35.083,78.2383-78.2993,78.2383c-43.2393,0-78.2993-34.9922-78.2993-78.2383
		c0-43.2471,35.06-78.2695,78.2993-78.2695C250.3755,372.3159,285.4585,407.3383,285.4585,450.5854z"/>
	<g>
		<path fill="#FFCA72" d="M994.3398,450.5854c0,105.7647-85.7041,191.4688-191.4384,191.4688
			c-105.7491,0-191.4688-85.7041-191.4688-191.4688c0-105.7656,85.7197-191.4697,191.4688-191.4697
			C908.6357,259.1157,994.3398,344.8198,994.3398,450.5854z"/>
		<path fill="#37474F" d="M802.9014,657.7143c-114.2021,0-207.1289-92.9121-207.1289-207.1289
			c0-114.2021,92.9268-207.1294,207.1289-207.1294C917.1025,243.456,1010,336.3833,1010,450.5854
			C1010,564.8022,917.1025,657.7143,802.9014,657.7143L802.9014,657.7143z M802.9014,274.7758
			c-96.9483,0-175.8096,78.876-175.8096,175.8096c0,96.9483,78.8613,175.8086,175.8096,175.8086
			c96.9337,0,175.7793-78.8603,175.7793-175.8086C978.6807,353.6518,899.835,274.7758,802.9014,274.7758L802.9014,274.7758z"/>
	</g>
	<path fill="#FFFFFD" d="M881.1699,450.5854c0,43.2461-35.0215,78.2988-78.2842,78.2988c-43.2314,0-78.3144-35.0527-78.3144-78.2988
		c0-43.2471,35.083-78.2998,78.3144-78.2998C846.1484,372.2856,881.1699,407.3383,881.1699,450.5854z"/>
	<g>
		<path fill="#37474F" d="M505,456.8217H207.1592c-5.2656,0-10.1817-2.6406-13.0801-7.0253
			c-2.8984-4.4004-3.3916-9.9551-1.3125-14.795l127.6309-297.8408c2.3442-5.4629,7.5644-9.1352,13.497-9.4687
			c5.9409-0.3496,11.5401,2.7158,14.4917,7.8598l170.2095,297.8404c2.7617,4.8564,2.7617,10.8046-0.0527,15.6298
			C515.7432,453.8628,510.584,456.8217,505,456.8217L505,456.8217z M230.9072,425.5014h247.1055L336.793,178.3891L230.9072,425.5014
			L230.9072,425.5014z"/>
	</g>
	<g>
		<path fill="#37474F" d="M666.0596,158.9809H334.79c-8.6494,0-15.6601-6.9951-15.6601-15.6601
			c0-8.6494,7.0107-15.6597,15.6601-15.6597h331.2696c8.6338,0,15.6601,7.0103,15.6601,15.6597
			C681.7197,151.9858,674.6934,158.9809,666.0596,158.9809L666.0596,158.9809z"/>
	</g>
	<g>
		<path fill="#37474F" d="M798.3486,478.1108c-6.373,0-12.3515-3.8994-14.6884-10.2119L617.9873,21.1074
			c-1.7598-4.8101-1.0928-10.1821,1.8369-14.4004C622.752,2.5039,627.5469,0,632.6758,0h75.9472
			c8.6495,0,15.6602,7.0107,15.6602,15.6596c0,8.6494-7.0107,15.6602-15.6602,15.6602h-53.4277l157.8428,425.6836
			c3.0039,8.1191-1.1231,17.1318-9.2568,20.1367C801.9912,477.8081,800.1699,478.1108,798.3486,478.1108L798.3486,478.1108z"/>
	</g>
	<g>
		<path fill="#37474F" d="M504.9849,444.9858c-2.6328,0-5.3033-0.6523-7.7544-2.0635c-7.5108-4.2793-10.1133-13.8545-5.8267-21.3662
			l170.2095-297.8706c4.2949-7.5112,13.8691-10.1362,21.3652-5.8266c7.5117,4.2788,10.1221,13.8535,5.8271,21.3652l-170.21,297.8711
			C515.7051,442.1635,510.4248,444.9858,504.9849,444.9858L504.9849,444.9858z"/>
	</g>
	<g>
		<path fill="#37474F" d="M346.9678,137.6914c-8.6494,0-15.6602-6.9956-15.6602-15.6597V58.2085
			c0-8.6646,7.0108-15.6597,15.6602-15.6597c8.6416,0,15.6592,6.9951,15.6592,15.6597v63.8232
			C362.627,130.6958,355.6094,137.6914,346.9678,137.6914L346.9678,137.6914z"/>
	</g>
	<g>
		<path fill="#37474F" d="M410.8135,73.8686H283.1289c-8.6489,0-15.6592-7.0107-15.6592-15.6601
			c0-8.6646,7.0103-15.6597,15.6592-15.6597h127.6846c8.6494,0,15.6596,6.9951,15.6596,15.6597
			C426.4731,66.8579,419.4629,73.8686,410.8135,73.8686L410.8135,73.8686z"/>
	</g>
</g>
</svg>
