<?xml version="1.0" encoding="utf-8"?>
<!-- Generator: Adobe Illustrator 17.1.0, SVG Export Plug-In . SVG Version: 6.00 Build 0)  -->
<!DOCTYPE svg PUBLIC "-//W3C//DTD SVG 1.1//EN" "http://www.w3.org/Graphics/SVG/1.1/DTD/svg11.dtd">
<svg version="1.1" id="bikini" xmlns="http://www.w3.org/2000/svg" xmlns:xlink="http://www.w3.org/1999/xlink" x="0px" y="0px"
	 viewBox="0 0 602.1691 1010" enable-background="new 0 0 602.1691 1010" xml:space="preserve">
<g id="bikini-bikini">
	<g>
		<path fill="#FFCA72" d="M548.2283,713.2676c0,0,8.1337,14.2636,7.1767,39.6953
			c-36.6454,13.5351-169.5264,109.5283-218.2666,232.8496c-34.2627,17.6621-62.6084,0-62.6084,0
			C225.8357,862.4912,92.9089,766.498,56.2478,752.9629c-0.9561-25.4317,7.2383-39.6953,7.2383-39.6953
			S258.8699,786.7559,548.2283,713.2676z"/>
		<path fill="#37474F" d="M305.6824,1010c-22.5791,0-38.1026-9.2715-39.8018-10.3184c-2.959-1.8661-5.2656-4.6132-6.5405-7.875
			C212.74,873.7959,83.4402,780.4131,50.5876,768.2891c-6.2217-2.2911-10.4248-8.088-10.6675-14.7042
			c-1.0922-29.2861,8.3306-46.585,9.3931-48.4667c3.9907-6.919,12.4883-9.924,19.9082-7.1621
			c0.8501,0.3339,86.2661,31.623,224.7315,31.623h0.0151c82.0171,0,166.2036-10.8037,250.2388-32.1543
			c7.1015-1.8057,14.5674,1.3506,18.1943,7.7393c1.0772,1.8818,10.4238,19.165,9.3164,48.4208
			c-0.2265,6.6162-4.4453,12.413-10.6523,14.7042c-32.8369,12.124-162.0918,105.5068-208.7217,223.5322
			c-1.457,3.6719-4.1885,6.6924-7.709,8.4971C332.1765,1006.7529,319.0808,1010,305.6824,1010L305.6824,1010z M287.2912,973.8398
			c7.1016,2.792,23.3384,5.2959,37.1773-0.1816c48.6943-116.0684,167.0537-206.6289,214.4424-231.0898
			c-0.2578-3.7481-0.7578-7.0411-1.335-9.833c-81.7744,19.6054-163.6553,29.5292-243.6079,29.5292h-0.0151
			c-110.8789,0-188.2217-18.9219-220.0728-28.4365c-0.5005,2.5489-0.895,5.4629-1.1382,8.7403
			C120.1618,767.0449,238.6579,857.6807,287.2912,973.8398L287.2912,973.8398z"/>
	</g>
	<path fill="#FFCA72" d="M461.613,556.8652c-48.4209,0-102.4111-30.9248-160.5283-91.9555
		c-58.1177,61.0307-112.1377,91.9555-160.5894,91.9555c-1.6235,0-3.2172-0.0294-4.81-0.1054
		c-35.7207-1.5332-68.1782-20.045-96.5088-55.0069l-0.8955-1.1152l-0.6675-1.2446
		c-12.3213-22.2154-22.4429-89.9683-21.5474-118.2608l0.668-21.312l20.4243,6.2061c19.0288-4.0664,39.3164-6.2593,60.2574-6.2593
		c93.4428,0,176.7646,41.9868,203.6689,70.3706c32.2305-33.9522,124.9141-70.2871,211.5137-70.2871
		c20.6523,0,40.4101,2.0254,58.831,6.0166h0.2432l14.1719,3.5049l0.289,12.4355c0.6973,28.3838-9.0898,95.0669-21.5781,117.5855
		l-0.6973,1.2446l-0.8964,1.1152c-28.299,34.9619-60.7569,53.4737-96.4776,55.0069
		C464.8601,556.8359,463.237,556.8652,461.613,556.8652L461.613,556.8652z"/>
	<g>
		<g>
			<path fill="#37474F" d="M301.0847,446.4805L301.0847,446.4805c-4.4917,0-8.7705-1.8438-11.8511-5.0987
				c-31.4106-33.1181-144.4292-82.6621-248.5698-59.1797c-8.771,1.9502-17.5566-3.5283-19.5449-12.3442
				c-1.9727-8.8013,3.5508-17.5493,12.352-19.5366c107.3277-24.1577,220.6646,20.4243,267.7505,57.9731
				c47.541-36.5395,167.7061-82.2827,275.5801-57.9731c8.8008,1.9873,14.3242,10.7353,12.3516,19.5366
				c-2.003,8.8013-10.7735,14.2788-19.5293,12.3442c-102.5479-23.1328-224.458,25.1973-256.6875,59.1875
				C309.8552,444.6367,305.5613,446.4805,301.0847,446.4805L301.0847,446.4805z"/>
		</g>
		<g>
			<path fill="#37474F" d="M461.6589,573.209c-49.666,0-103.5947-28.543-160.5742-84.9614
				c-59.1191,58.5122-114.9907,87.0395-166.1279,84.8393c-40.9707-1.7754-77.753-22.6855-109.3457-62.1465
				c-0.4556-0.5683-0.8653-1.1679-1.2447-1.79C8.282,482.3906-5.7092,389.2129,2.3484,362.5288
				c1.3051-4.3706,3.2627-7.936,5.8574-10.6753c15.9028-28.4668,65.6289-66.1601,144.0498-123.6553
				c55.8408-40.9023,119.0874-87.2744,134.9746-112.6611c4.7803-7.6406,14.8408-9.9844,22.5186-5.1816
				c5.7812,3.6035,8.498,10.2265,7.4511,16.5468c18.9522,25.7666,79.4219,68.1407,133.0332,105.712
				c78.2071,54.7939,127.7969,90.8252,143.7305,119.2314c2.5947,2.7393,4.5527,6.3125,5.8574,10.6831
				c8.0567,26.6841-5.9336,119.8618-22.0175,146.6216c-0.3799,0.6221-0.7891,1.2217-1.2452,1.79
				c-31.5927,39.461-68.3906,60.3711-109.3603,62.1465C465.3611,573.1631,463.5105,573.209,461.6589,573.209L461.6589,573.209z
				 M301.0847,448.5669L301.0847,448.5669c4.4609,0,8.7402,1.8364,11.8203,5.0757
				c56.6914,59.5293,108.2383,88.5957,152.8809,86.8047c30.834-1.336,59.2558-17.8145,84.4902-48.9903
				c11.8066-21.2895,22.8682-100.3398,18.6505-118.1543c-1.0938-1.1992-2.0039-2.5571-2.7168-4.0293
				c-11.0625-23.247-76.752-69.2851-134.7324-109.8994c-55.4317-38.8457-108.208-75.8261-134.0645-105.1347
				c-27.5566,28.2998-75.5986,63.5117-125.8252,100.3242c-58.3457,42.7461-124.4599,91.2051-135.6279,114.7026
				c-0.7134,1.4795-1.624,2.8374-2.7163,4.0366c-4.2183,17.8145,6.8437,96.8648,18.6489,118.1543
				c25.2354,31.1758,53.6416,47.6543,84.4756,48.9903c45.022,1.8203,96.1895-27.299,152.896-86.8125
				C292.3445,450.4033,296.6238,448.5669,301.0847,448.5669L301.0847,448.5669z"/>
		</g>
		<g>
			<g>
				<path fill="#37474F" d="M270.7512,155.3545l27.481-32.3897c7.1464-8.4218,14.1269-16.79,20.9248-24.9462
					C364.8464,43.2539,400.946,0,436.1511,0c19.3164,0,34.9004,12.208,46.3721,36.2969c6.9345,14.583,6.6924,29.4453-0.667,43.0117
					c-26.6621,49.1113-145.461,67.2822-168.9961,70.4238L270.7512,155.3545L270.7512,155.3545z M436.1511,32.6855
					c-18.3457,0-52.2451,38.8995-83.8379,76.6377C396.6218,99.21,442.8581,82.6396,453.1306,63.709
					c2.3672-4.3467,2.3369-8.2246-0.1211-13.376C447.4402,38.6182,441.7654,32.6855,436.1511,32.6855L436.1511,32.6855z"/>
			</g>
		</g>
		<g>
			<g>
				<path fill="#37474F" d="M331.3874,155.3467l-42.1084-5.6143c-23.5351-3.1416-142.3349-21.3125-168.9961-70.4238
					c-7.3593-13.5664-7.602-28.4287-0.6674-43.0039C131.0871,12.208,146.6863,0,166.0032,0
					c35.2348,0,71.3344,43.2773,117.0239,98.0713c6.7983,8.1416,13.748,16.4941,20.8799,24.8935L331.3874,155.3467
					L331.3874,155.3467z M166.0032,32.6855c-5.6294,0-11.3047,5.9405-16.8892,17.6631c-2.4429,5.1358-2.4731,9.0137-0.106,13.3604
					c10.273,18.9306,56.524,35.5078,100.833,45.6221C218.2483,71.5771,184.364,32.6855,166.0032,32.6855L166.0032,32.6855z"/>
			</g>
		</g>
	</g>
</g>
</svg>
