<?xml version="1.0" encoding="utf-8"?>
<!-- Generator: Adobe Illustrator 17.1.0, SVG Export Plug-In . SVG Version: 6.00 Build 0)  -->
<!DOCTYPE svg PUBLIC "-//W3C//DTD SVG 1.1//EN" "http://www.w3.org/Graphics/SVG/1.1/DTD/svg11.dtd">
<svg version="1.1" id="cruise-ship" xmlns="http://www.w3.org/2000/svg" xmlns:xlink="http://www.w3.org/1999/xlink" x="0px"
	 y="0px" viewBox="0 0 853.6703 1010" enable-background="new 0 0 853.6703 1010" xml:space="preserve">
<g id="cruise-ship-cruise-ship">
	<g>
		<polyline fill="#A6DDDD" points="549.4628,979.4404 815.1591,576.1348 426.835,351.311 38.5108,576.1348 283.7837,979.4404 		"/>
		<polygon fill="#FFFFFD" points="815.1591,576.1348 835.6337,433.0488 426.835,208.2598 18.0362,433.0488 38.5108,576.1348 
			426.835,351.311 		"/>
		<rect x="365.5298" y="18.0342" fill="#907973" width="122.6275" height="128.8945"/>
		<polygon fill="#FFCA72" points="426.835,208.2598 610.7852,309.4263 610.7852,146.9287 242.8848,146.9287 242.8848,309.4263 		"/>
	</g>
	<g>
		<g>
			<path fill="#37474F" d="M283.8003,997.4834c-6.0879,0-12.0229-3.0947-15.4238-8.6729L23.087,585.5039
				c-2.5171-4.1318-3.2481-9.1309-2.0577-13.8242c1.2071-4.711,4.251-8.7246,8.4346-11.1387l388.3413-224.8325
				c5.5947-3.2481,12.4653-3.2481,18.0601,0L824.2061,560.541c4.2852,2.4824,7.3809,6.6309,8.5195,11.461
				c1.1231,4.83,0.2383,9.914-2.5,14.0644L564.5126,989.3555c-5.4756,8.332-16.666,10.6445-24.9638,5.1346
				c-8.333-5.4756-10.6288-16.6484-5.1534-24.9637l255.2041-387.3546L426.835,372.1431L63.4922,582.5117l235.6983,387.5586
				c5.187,8.5029,2.4658,19.6074-6.0367,24.7949C290.2285,996.6328,286.9804,997.4834,283.8003,997.4834L283.8003,997.4834z"/>
		</g>
		<g>
			<path fill="#37474F" d="M815.1591,594.1777c-3.1289,0-6.2402-0.8164-9.0293-2.4316L426.835,372.1431L47.5411,591.7461
				c-5.1866,3.0098-11.564,3.248-16.9039,0.6113c-5.3906-2.6015-9.1489-7.7373-9.9995-13.6553L0.1802,435.6084
				c-1.0542-7.4399,2.585-14.7441,9.166-18.3662l408.7989-224.7896c5.3911-2.9843,11.9887-2.9843,17.3794,0l408.7998,224.7896
				c6.581,3.6221,10.2197,10.9263,9.166,18.3662l-20.458,143.0937c-0.8496,5.918-4.6084,11.0538-10,13.6553
				C820.5497,593.5654,817.8632,594.1777,815.1591,594.1777L815.1591,594.1777z M426.835,333.2769
				c3.1123,0,6.2412,0.8076,9.0303,2.4316l365.2304,211.4311l14.9141-104.2954L426.835,228.8364L37.6607,442.8442l14.914,104.2954
				l365.2305-211.4311C420.5942,334.0845,423.7231,333.2769,426.835,333.2769L426.835,333.2769z"/>
		</g>
		<g>
			<path fill="#37474F" d="M488.1573,164.9634H365.5298c-9.9824,0-18.0429-8.0777-18.0429-18.0347V18.0342
				C347.4868,8.0776,355.5474,0,365.5298,0h122.6275c9.9824,0,18.0429,8.0776,18.0429,18.0342v128.8945
				C506.2001,156.8857,498.1396,164.9634,488.1573,164.9634L488.1573,164.9634z M383.5556,128.894h86.5762V36.0688h-86.5762V128.894
				L383.5556,128.894z"/>
		</g>
		<g>
			<path fill="#37474F" d="M610.7852,327.4609c-2.9932,0-5.9854-0.7397-8.6904-2.2363L426.835,228.8364l-175.2603,96.3882
				c-5.5605,3.0864-12.3798,2.9844-17.873-0.272c-5.4927-3.248-8.8599-9.1494-8.8599-15.5263V146.9287
				c0-9.9653,8.0777-18.0347,18.043-18.0347h367.9004c9.9658,0,18.043,8.0694,18.043,18.0347v162.4976
				c0,6.3769-3.3661,12.2783-8.8604,15.5263C617.1454,326.6274,613.9482,327.4609,610.7852,327.4609L610.7852,327.4609z
				 M426.835,190.2251c2.9932,0,5.9863,0.748,8.6895,2.2275l157.2177,86.4654V164.9634H260.9278V278.918l157.2173-86.4654
				C420.8492,190.9731,423.8423,190.2251,426.835,190.2251L426.835,190.2251z"/>
		</g>
		<g>
			<path fill="#37474F" d="M745.8613,1010H77.2159c-9.9654,0-18.043-8.0781-18.043-18.0264c0-9.9648,8.0776-18.0428,18.043-18.0428
				h668.6455c9.9658,0,18.0263,8.0781,18.0263,18.0428C763.8876,1001.9219,755.8271,1010,745.8613,1010L745.8613,1010z"/>
		</g>
		<g>
			<path fill="#FFFFFF" d="M637.0244,593.8545c0,28.6885-23.2461,51.918-51.9512,51.918c-28.6719,0-51.9024-23.2295-51.9024-51.918
				c0-28.6885,23.2305-51.919,51.9024-51.919C613.7783,541.9355,637.0244,565.166,637.0244,593.8545z"/>
			<path fill="#37474F" d="M585.0732,662.0137c-37.5664,0-68.1426-30.5762-68.1426-68.1592
				c0-37.5654,30.5762-68.1416,68.1426-68.1416c37.5996,0,68.1924,30.5762,68.1924,68.1416
				C653.2656,631.4375,622.6729,662.0137,585.0732,662.0137L585.0732,662.0137z M585.0732,558.1602
				c-19.6758,0-35.6612,16.0185-35.6612,35.6943c0,19.6748,15.9854,35.6943,35.6612,35.6943
				c19.6914,0,35.7109-16.0195,35.7109-35.6943C620.7841,574.1787,604.7646,558.1602,585.0732,558.1602L585.0732,558.1602z"/>
		</g>
		<g>
			<path fill="#37474F" d="M426.835,985.2568c-9.9653,0-18.043-8.0781-18.043-18.0428V243.0957
				c0-9.9653,8.0777-18.0347,18.043-18.0347c9.9648,0,18.043,8.0694,18.043,18.0347v724.1182
				C444.878,977.1787,436.7997,985.2568,426.835,985.2568L426.835,985.2568z"/>
		</g>
	</g>
	<g>
		<g>
			<path fill="#37474F" d="M552.915,733.4541c-28.043,0-50.8467-22.8213-50.8467-50.8467c0-8.963,7.2607-16.2246,16.2236-16.2246
				c8.9785,0,16.2403,7.2617,16.2403,16.2246c0,10.1348,8.248,18.3828,18.3828,18.3828c10.1347,0,18.3828-8.248,18.3828-18.3828
				v-69.248c0-8.9785,7.2793-16.2227,16.2402-16.2227c8.963,0,16.2403,7.2442,16.2403,16.2227v69.248
				C603.7783,710.6328,580.9404,733.4541,552.915,733.4541L552.915,733.4541z"/>
		</g>
		<g>
			<path fill="#37474F" d="M622.1279,733.4541c-28.0254,0-50.8301-22.8213-50.8301-50.8467v-64.2812
				c0-8.9796,7.2793-16.2246,16.2402-16.2246c8.963,0,16.2403,7.2451,16.2403,16.2246v64.2812
				c0,10.1348,8.2148,18.3828,18.3496,18.3828c10.1523,0,18.3828-8.248,18.3828-18.3828c0-8.963,7.2793-16.2246,16.2402-16.2246
				c8.9629,0,16.2411,7.2617,16.2411,16.2246C672.9921,710.6328,650.1708,733.4541,622.1279,733.4541L622.1279,733.4541z"/>
		</g>
	</g>
</g>
</svg>
