<?xml version="1.0" encoding="utf-8"?>
<!-- Generator: Adobe Illustrator 17.1.0, SVG Export Plug-In . SVG Version: 6.00 Build 0)  -->
<!DOCTYPE svg PUBLIC "-//W3C//DTD SVG 1.1//EN" "http://www.w3.org/Graphics/SVG/1.1/DTD/svg11.dtd">
<svg version="1.1" id="dolphin" xmlns="http://www.w3.org/2000/svg" xmlns:xlink="http://www.w3.org/1999/xlink" x="0px" y="0px"
	 viewBox="0 0 911.3654 1009.9992" enable-background="new 0 0 911.3654 1009.9992" xml:space="preserve">
<g id="dolphin-dolphin">
	<g>
		<path fill="#A6DDDD" d="M680.1008,387.2219c-33.5352,2.9409-63.5918,3.7124-92.3926,3.9272
			c-2.3672,58.104-39.6328,101.4668-113.4453,139.9243c13.9521-60.9638,13.0918-95.0908,4.0176-140.48
			c0,0-211.2456-58.2651-311.2056,121.3365c0,0-79.6235,144.7841,67.7158,245.749
			c72.6836-6.0264,136.7412-125.6055,218.7324-72.1279c-28.747,10.0781-25.5732,87.7295-54.5351,109.4638
			c-39.3814,46.4473-123.6319,17.8623-123.937,17.7188c9.917,21.1972,43.8471,75.4277,30.2714,104.2998
			c-17.4311,37.1572-83.3715,45.3711-96.6245,74.1719c-68.3794-69.043,34.1451-162.834,7.2989-199.5254
			C-47.1917,664.9992,28.2712,401.694,28.2712,401.694c44.7436-163.0849,230.6577-242.8525,268.9272-255.6748
			c-2.5283-15.5659-6.2046-29.6972-13.1806-55.27c-6.1514-22.5063-15.7276-51.8809-21.1612-71.9307
			c92.9121,10.6885,99.3682,69.1509,140.9375,93.5762c224.3721-53.5132,341.584,17.0723,390.8643,154.2979
			C1031.4133,352.7004,776.4738,378.9904,680.1008,387.2219z"/>
		<path fill="#37474F" d="M208.6979,1009.9992c-4.9854,0-9.7915-1.9727-13.3422-5.5587
			c-50.0337-50.5-25.232-110.5059-7.1377-154.334c6.3305-15.3515,14.7055-35.6513,13.6118-44.4394
			C-65.3221,672.4953,9.4055,399.2731,10.2126,396.5114c44.0083-160.521,213.2622-240.9873,265.5381-262.3818
			c-2.2417-10.168-5.3262-21.7173-9.8814-38.4488c-3.0669-11.1904-6.9761-24.1025-10.7959-36.7094
			c-3.8735-12.7329-7.6216-25.1426-10.3476-35.2388c-1.6319-6.0078-0.1792-12.4458,3.8916-17.1802
			c4.0527-4.7163,10.2397-7.2095,16.3911-6.4023c69.312,7.9624,96.7139,40.8882,118.7363,67.3218
			c8.1055,9.7377,15.2969,18.3632,23.6895,24.7475c207.7124-47.3257,343.0727,7.353,401.8579,159.8213
			c75.0332,28.1733,105.5908,52.7241,101.7539,81.5068c-3.6592,27.7427-34.002,55.7369-229.3311,72.3965
			c-28.6933,2.5288-54.4814,3.4434-76.9697,3.8023c-8.7158,55.2881-47.8818,99.4931-121.8027,138.0049
			c-6.4922,3.371-14.3555,2.6904-20.1836-1.8282c-5.793-4.4843-8.4649-11.9082-6.833-19.0459
			c12.3564-54.042,12.2666-85.1382,6.1513-120.6279c-12.6792-2.4751-35.1137-5.8823-62.3003-5.8823
			c-68.021,0-160.7719,20.9463-216.2754,120.7085c-2.7617,5.1201-67.124,127.497,56.0596,216.9482
			c21.3228-4.2324,43.6675-20.5156,67.1778-37.6601c31.9575-23.2774,64.9726-47.3438,103.6542-47.3438
			c18.3638,0,36.315,5.6671,53.4048,16.7861c5.9903,3.9082,9.2715,10.9024,8.3936,18.0039
			c-0.8604,7.1387-5.6846,13.128-12.4639,15.4952c-5.5591,2.1875-12.5171,27.5459-15.8349,39.7041
			c-6.8863,25.1064-13.9878,51.0019-31.8672,65.6718c-18.4536,20.7666-46.5191,31.7051-81.3277,31.7051
			c-7.3886,0-14.5439-0.5019-21.2329-1.2549c13.127,27.5811,24.7481,60.6504,12.8579,85.9004
			c-11.997,25.5733-38.6816,39.0586-62.1923,50.9307c-14.4903,7.2812-30.8809,15.5664-34.3604,23.0976
			c-2.5645,5.5958-7.729,9.5762-13.8086,10.6524C210.8859,1009.8918,209.7741,1009.9992,208.6979,1009.9992L208.6979,1009.9992z
			 M289.5949,43.2258c0.4844,1.5962,0.9683,3.2099,1.4526,4.8242c3.9273,12.9477,7.9444,26.2182,11.1006,37.7314
			c7.2451,26.5235,10.9395,40.7984,13.6114,57.2251c1.4707,9.0923-3.8555,17.9331-12.5889,20.8565
			C244.923,183.3566,85.2634,265.0065,46.4196,406.6613c-2.9409,10.3296-67.5903,249.9805,177.7368,368.0899
			c2.7974,1.3261,5.2007,3.3359,7.0118,5.8105c16.8935,23.0977,4.6987,52.6152-8.2134,83.8555
			c-16.1397,39.1308-26.792,70.4062-12.9659,97.2695c9.7559-7.4962,21.5918-13.4492,33.1949-19.2959
			c18.9731-9.5762,38.6103-19.5107,45.102-33.3555c7.3887-15.6738-14.1494-56.9922-23.331-74.6386
			c-2.7979-5.3438-5.2007-10.0069-6.9224-13.7002c-3.3179-7.0664-1.9009-15.4952,3.5689-21.0899
			c5.4697-5.5595,13.8623-7.1738,20.9458-4.0888l0,0c0.2153,0,22.6318,7.2451,48.1152,7.2451
			c24.6401,0,42.7886-6.7071,53.9971-19.9063c0.8964-1.04,1.9184-2.0078,3.0483-2.8691
			c8.877-6.6719,14.9922-28.9805,19.8882-46.9141c3.9809-14.418,8.0161-29.1592,14.3105-41.1738
			c-29.6616-6.5283-60.5605,15.207-93.0195,38.8428c-28.9087,21.0898-58.8213,42.8603-92.5356,45.6582
			c-4.3223,0.4658-8.626-0.753-12.1949-3.1924c-159.5341-109.3574-74.4409-268.7388-73.562-270.3345
			c64.4522-115.8135,171.083-140.1128,249.1826-140.1128c47.7564,0,82.0542,9.3071,83.4878,9.7197
			c6.8516,1.8829,12.0518,7.4605,13.4502,14.4185c6.958,34.7905,9.7559,64.7568,3.6944,107.0796
			c45.4072-30.3613,66.8554-63.2149,68.5058-103.5825c0.3947-10.0249,8.6074-17.9693,18.6143-18.041
			c25.3935-0.2154,56.0596-0.8072,90.958-3.8555c160.8613-13.7368,189.7695-34.2349,194.7187-39.7222
			c-2.7968-4.3042-16.9296-19.709-84.9677-44.4209c-5.2725-1.8828-9.3975-6.0434-11.2627-11.2978
			c-38.628-107.5279-115.8848-159.7857-236.1807-159.7857c-39.5605,0-84.1875,5.8462-132.6435,17.3955
			c-4.7701,1.1656-9.6836,0.3946-13.898-2.0625c-16.7319-9.8271-28.2627-23.6718-39.3994-37.0503
			C338.5168,71.9191,322.8791,53.1608,289.5949,43.2258L289.5949,43.2258z"/>
	</g>
	<path fill="#37474F" d="M651.3,242.6081c-14.0957-12.5357-35.6152-11.3159-48.2764,2.708
		c-12.5536,14.0776-11.4775,35.7227,2.6182,48.2583c14.168,12.7148,35.6152,11.6387,48.2764-2.5645
		C666.5432,277.0221,665.3957,255.3224,651.3,242.6081z"/>
</g>
</svg>
