<?xml version="1.0" encoding="utf-8"?>
<!-- Generator: Adobe Illustrator 17.1.0, SVG Export Plug-In . SVG Version: 6.00 Build 0)  -->
<!DOCTYPE svg PUBLIC "-//W3C//DTD SVG 1.1//EN" "http://www.w3.org/Graphics/SVG/1.1/DTD/svg11.dtd">
<svg version="1.1" id="eiffel-tower" xmlns="http://www.w3.org/2000/svg" xmlns:xlink="http://www.w3.org/1999/xlink" x="0px"
	 y="0px" viewBox="0 0 1010 1009.3905" enable-background="new 0 0 1010 1009.3905" xml:space="preserve">
<g id="eiffel-tower-eiffel-tower">
	<g>
		<path id="eiffel-tower-fill_1_" fill="#FFCA72" d="M877.3223,271.3104c0,54.5879-44.2149,98.8203-98.7696,98.8203
			c-54.5536,0-98.8359-44.2324-98.8359-98.8203c0-54.5537,44.2822-98.8027,98.8359-98.8027
			C833.1074,172.5077,877.3223,216.7567,877.3223,271.3104z"/>
	</g>
	<g id="eiffel-tower-fill">
		<path fill="#907973" d="M539.6914,183.5614c0,401.5039,120.6719,678.832,260.5606,808.4151H660.5332v-52.4288
			c0-83.9902-67.1719-152.1836-151.248-152.1836c-84.0757,0-151.2139,68.1934-151.2139,152.1836v52.4288H209.748
			c139.8545-129.5831,260.5948-404.9209,260.5948-806.4083"/>
		<polygon fill="#907973" points="440.2085,171.1132 569.791,171.1132 569.791,126.1669 504.9663,16.8036 440.2085,126.1669 		"/>
		<path fill="#A6DDDD" d="M17.4141,692.5243c0,62.8525,50.9487,113.7852,113.7675,113.7852
			c62.8531,0,113.7681-50.9327,113.7681-113.7852c0-62.8027-50.915-113.751-113.7681-113.751
			C68.3628,578.7733,17.4141,629.7216,17.4141,692.5243z"/>
		<path fill="#A6DDDD" d="M765.0508,692.5243c0,62.8525,50.9492,113.7852,113.8017,113.7852
			c62.7842,0,113.7334-50.9327,113.7334-113.7852c0-62.8027-50.9492-113.751-113.7334-113.751
			C816,578.7733,765.0508,629.7216,765.0508,692.5243z"/>
	</g>
	<g id="eiffel-tower-line">
		<g>
			<path fill="#37474F" d="M569.791,188.5272H440.2085c-9.625,0-17.4136-7.789-17.4136-17.414v-44.9463
				c0-3.1289,0.833-6.1895,2.4317-8.877L489.9844,7.9266c6.2578-10.5605,23.6719-10.5771,29.9638,0l64.8252,109.3633
				c1.5987,2.6875,2.4317,5.7481,2.4317,8.877v44.9463C587.2051,180.7382,579.417,188.5272,569.791,188.5272L569.791,188.5272z
				 M457.6226,153.6991h94.7553v-22.7529l-47.4116-79.9776l-47.3437,79.96V153.6991L457.6226,153.6991z"/>
		</g>
		<g>
			<g>
				<path fill="#37474F" d="M800.252,1009.3905H660.5332c-9.625,0-17.4131-7.7881-17.4131-17.414v-52.4288
					c0-74.3144-60.0303-134.7695-133.8349-134.7695c-73.7701,0-133.8003,60.4551-133.8003,134.7695v52.4288
					c0,9.6259-7.7886,17.414-17.4136,17.414H209.748c-7.1591,0-13.6044-4.3877-16.2065-11.0537
					c-2.6186-6.666-0.8843-14.2676,4.3706-19.1309c159.6831-147.9668,255.0166-444.6474,255.0166-793.6377
					c0-9.625,7.7886-17.414,17.4141-17.414c9.625,0,17.4135,7.789,17.4135,17.414c0,336.4737-87.6298,626.8965-236.1913,788.9952
					h89.0928v-35.0157c0-93.5136,75.6411-169.5966,168.6275-169.5966c93.0039,0,168.6621,76.0829,168.6621,169.5966v35.0157h80.4882
					C609.9082,812.414,522.2773,521.2606,522.2773,183.5614c0-9.625,7.7891-17.4141,17.4141-17.4141s17.4141,7.7891,17.4141,17.4141
					c0,350.2998,95.3164,647.7461,254.9824,795.6445c5.2559,4.8633,6.9902,12.4473,4.3711,19.1309
					C813.8574,1005.0028,807.4121,1009.3905,800.252,1009.3905L800.252,1009.3905z"/>
			</g>
			<g>
				<path fill="#37474F" d="M703.6943,663.7675H314.877c-9.6255,0-17.4141-7.7881-17.4141-17.4141
					c0-9.625,7.7886-17.4131,17.4141-17.4131h388.8173c9.625,0,17.4131,7.7881,17.4131,17.4131
					C721.1074,655.9794,713.3193,663.7675,703.6943,663.7675L703.6943,663.7675z"/>
			</g>
			<g>
				<path fill="#37474F" d="M595.709,490.9559H422.897c-9.6255,0-17.4141-7.789-17.4141-17.414s7.7886-17.4141,17.4141-17.4141
					h172.812c9.625,0,17.4131,7.7891,17.4131,17.4141S605.334,490.9559,595.709,490.9559L595.709,490.9559z"/>
			</g>
		</g>
		<g>
			<path fill="#37474F" d="M131.1816,823.7225C58.8398,823.7225,0,764.8661,0,692.5243c0-72.3252,58.8398-131.165,131.1816-131.165
				c72.3423,0,131.1817,58.8398,131.1817,131.165C262.3633,764.8661,203.5239,823.7225,131.1816,823.7225L131.1816,823.7225z
				 M131.1816,596.1864c-53.1254,0-96.354,43.2119-96.354,96.3379c0,53.1426,43.2286,96.3711,96.354,96.3711
				c53.126,0,96.3545-43.2285,96.3545-96.3711C227.5361,639.3983,184.3076,596.1864,131.1816,596.1864L131.1816,596.1864z"/>
		</g>
		<g>
			<g>
				<path fill="#37474F" d="M131.1816,786.3104c-4.455,0-8.9111-1.7002-12.312-5.1015c-6.8022-6.8028-6.8022-17.8223,0-24.624
					l67.3081-67.2753c6.8028-6.8018,17.8223-6.8018,24.6245,0c6.8023,6.8027,6.8023,17.8221,0,24.625l-67.3081,67.2744
					C140.0928,784.6102,135.6372,786.3104,131.1816,786.3104L131.1816,786.3104z"/>
			</g>
			<g>
				<path fill="#37474F" d="M131.1816,786.3104c-4.455,0-8.9111-1.7002-12.312-5.1015l-67.3081-67.2744
					c-6.8027-6.8029-6.8027-17.8223,0-24.625c6.8018-6.8018,17.8218-6.8018,24.624,0l67.3086,67.2753
					c6.8018,6.8018,6.8018,17.8212,0,24.624C140.0928,784.6102,135.6372,786.3104,131.1816,786.3104L131.1816,786.3104z"/>
			</g>
			<g>
				<path fill="#37474F" d="M131.1816,1009.3905c-9.625,0-17.4135-7.7881-17.4135-17.414V768.8964
					c0-9.625,7.7885-17.4131,17.4135-17.4131s17.4141,7.7881,17.4141,17.4131v223.0801
					C148.5957,1001.6024,140.8066,1009.3905,131.1816,1009.3905L131.1816,1009.3905z"/>
			</g>
		</g>
		<g>
			<path fill="#37474F" d="M878.8525,823.7225c-72.3584,0-131.2158-58.8564-131.2158-131.1982
				c0-72.3252,58.8574-131.165,131.2158-131.165c72.3077,0,131.1475,58.8398,131.1475,131.165
				C1010,764.8661,951.1602,823.7225,878.8525,823.7225L878.8525,823.7225z M878.8525,596.1864
				c-53.1425,0-96.3877,43.2119-96.3877,96.3379c0,53.1426,43.2452,96.3711,96.3877,96.3711
				c53.1084,0,96.3194-43.2285,96.3194-96.3711C975.1719,639.3983,931.9609,596.1864,878.8525,596.1864L878.8525,596.1864z"/>
		</g>
		<g>
			<g>
				<path fill="#37474F" d="M878.8525,786.3104c-4.456,0-8.9111-1.7002-12.3115-5.1015c-6.8027-6.8028-6.8027-17.8223,0-24.624
					l67.2734-67.2753c6.8027-6.8018,17.8222-6.8018,24.625,0c6.8018,6.8027,6.8018,17.8221,0,24.625l-67.2754,67.2744
					C887.7637,784.6102,883.3086,786.3104,878.8525,786.3104L878.8525,786.3104z"/>
			</g>
			<g>
				<path fill="#37474F" d="M878.8525,786.3104c-4.456,0-8.9111-1.7002-12.3115-5.1015l-67.3428-67.2744
					c-6.8017-6.7852-6.8017-17.8223,0-24.625c6.8018-6.8018,17.8213-6.8018,24.6241,0l67.3418,67.2753
					c6.8027,6.7852,6.8027,17.8212,0,24.624C887.7637,784.6102,883.3086,786.3104,878.8525,786.3104L878.8525,786.3104z"/>
			</g>
			<g>
				<path fill="#37474F" d="M878.8525,1009.3905c-9.625,0-17.413-7.7881-17.413-17.414V768.8964
					c0-9.625,7.788-17.4131,17.413-17.4131s17.4131,7.7881,17.4131,17.4131v223.0801
					C896.2656,1001.6024,888.4775,1009.3905,878.8525,1009.3905L878.8525,1009.3905z"/>
			</g>
		</g>
	</g>
</g>
</svg>
