<?xml version="1.0" encoding="utf-8"?>
<!-- Generator: Adobe Illustrator 17.1.0, SVG Export Plug-In . SVG Version: 6.00 Build 0)  -->
<!DOCTYPE svg PUBLIC "-//W3C//DTD SVG 1.1//EN" "http://www.w3.org/Graphics/SVG/1.1/DTD/svg11.dtd">
<svg version="1.1" id="flip-flops" xmlns="http://www.w3.org/2000/svg" xmlns:xlink="http://www.w3.org/1999/xlink" x="0px" y="0px"
	 viewBox="0 0 902.4231 1009.9999" enable-background="new 0 0 902.4231 1009.9999" xml:space="preserve">
<g id="flip-flops-flip-flops">
	<g>
		<g>
			<path fill="#FFCA72" d="M379.5149,314.0858c3.5879-15.3051,5.7481-31.2309,6.7344-47.4033
				c0.9687-16.7847,0.5439-33.8926-1.0889-50.7705c-1.6836-17.6011-4.8125-34.9043-9.2344-51.6802
				c-4.7607-17.8642-10.832-34.9043-18.3486-50.8047c-9.3017-19.4287-20.7129-37.0722-33.9599-51.6801
				c-27.7706-30.5845-63.7891-48.2788-106.7452-43.5513c-31.9365,3.5288-72.58,16.8442-108.8701,43.5513
				c-18.5019,13.6216-35.7461,30.6616-50.2178,51.6801c-10.2373,14.8716-18.9443,31.75-25.6787,50.8047
				c-5.5429,15.7046-9.8115,32.9317-12.1924,51.6802c-2.1259,15.7983-2.8916,32.6934-2.3134,50.7705
				c0.0859,1.3945,0.0859,2.8316,0.0859,4.1919c0.6455,13.8765,2.2275,29.9297,4.7608,47.437
				c2.0917,15.8325,4.9316,32.855,8.4013,50.8047c3.1797,16.5293,6.9043,33.8838,11.0362,51.6714
				c3.8603,16.6147,8.163,33.5864,12.7031,50.8301c4.5918,17.0566,9.4892,34.3598,14.7099,51.6635
				c5.2383,17.0225,10.5782,33.9942,16.3428,50.7276c5.9863,17.6182,12.1758,34.9639,18.6895,51.6973
				c6.8701,17.6513,13.9277,34.6572,21.1884,50.7451c8.3506,18.5703,16.9385,35.9326,25.6788,51.7138
				c11.1044,19.8623,22.3457,37.0215,33.7392,50.7959c14.1319,17.1416,28.417,28.9776,42.4805,33.4668
				c52.0713,16.6319,107.748,0,140.9424-33.4668c14.2509-14.3184,24.2168-31.7324,28.2129-50.7959
				c1.6328-8.0263,2.3808-16.2744,1.7685-24.8281c-0.5615-7.8389-1.4795-16.8349-2.7207-26.8857
				c-1.8369-14.8809-4.1836-32.0391-6.8535-50.7451c-2.2109-16.1221-4.5742-33.5694-7.0068-51.6973
				c-2.0235-16.376-4.0469-33.3994-5.8838-50.7276c-1.7852-17.0566-3.2647-34.3774-4.2852-51.6635
				c-1.0889-16.2573,8.044-130.0933,7.874-146.104"/>
			<path fill="#37474F" d="M269.2161,836.2362c-15.9004,0-31.835-2.3467-47.1055-7.2275
				c-16.8525-5.3906-33.416-18.1455-50.6094-38.9775c-11.6318-14.0635-23.5869-32.0381-35.5078-53.3809
				c-8.8427-15.9678-17.7021-33.8067-26.3584-53.0567c-7.0576-15.6455-14.3183-32.9912-21.5459-51.5957
				c-5.9013-15.1347-12.0918-32.2773-18.9443-52.3769c-5.7988-16.8535-11.1904-34.0117-16.4961-51.2207
				c-5.3057-17.5586-10.2373-35.0322-14.8799-52.2593c-4.6084-17.4985-8.9443-34.6318-12.8564-51.4077
				c-4.166-18.0264-7.958-35.6016-11.1553-52.335c-3.6397-18.7661-6.5137-36.205-8.5713-51.8164
				c-2.5674-17.6435-4.2168-34.1728-4.9141-48.8999c-0.0175-1.8281,0-2.8994-0.0683-3.9365
				c-0.6289-19.4375,0.2041-37.481,2.4492-54.1548c2.3975-18.8594,6.7852-37.4634,13.043-55.1665
				c7.0234-19.8711,16.3593-38.3306,27.7363-54.8686c14.7266-21.3848,32.9736-40.1675,54.2314-55.8379
				c34.4532-25.3301,77.1885-42.3955,117.2872-46.834c45.7793-5.1016,87.7832,11.9639,121.5566,49.1465
				c14.1152,15.5771,26.4785,34.3686,36.7832,55.8808c7.8232,16.5547,14.3535,34.6407,19.4551,53.8399
				c4.7275,17.8896,8.0097,36.2134,9.7607,54.4946c1.752,18.1533,2.126,36.1284,1.1397,53.4316
				c-1.0889,17.856-3.5205,34.7769-7.1768,50.3794c-0.1357,0.6206-0.3232,1.2246-0.5264,1.8111
				c0.5948,1.7177,0.918,3.5542,0.9346,5.4673c0.0684,7.1679-1.2412,27.6425-3.418,60.4721
				c-2.1259,32.2852-5.0332,76.5171-4.4892,84.6455c0.9521,16.1812,2.3301,32.8213,4.2168,51.0259
				c1.8203,17.1924,3.8437,34.1133,5.8506,50.3877c2.415,17.958,4.7783,35.3721,6.9892,51.459
				c2.67,18.7402,5.0332,36.0185,6.8867,50.9999c1.2764,10.3906,2.2286,19.6758,2.8067,27.7871
				c0.6797,9.5908,0,19.251-2.0752,29.5049c-4.6084,22.0224-16.002,42.582-32.9395,59.6221
				C351.9143,820.2509,310.6585,836.2362,269.2161,836.2362L269.2161,836.2362z M230.6135,34.8441
				c-3.8945,0-7.8398,0.2212-11.8359,0.6631c-34.1982,3.7754-70.8115,18.4512-100.4531,40.2696
				C100.1799,89.1264,84.637,105.12,72.1204,123.2992c-9.6426,14.021-17.584,29.7427-23.5869,46.7403
				c-5.4414,15.3559-9.251,31.52-11.3428,48.0576c-2.0068,14.9057-2.7373,31.0185-2.1934,48.0239
				c0.085,1.25,0.1016,3.0527,0.1016,4.7534c0.6123,12.7969,2.1602,28.187,4.5918,44.9458
				c1.9892,15.1436,4.7617,31.8858,8.2646,49.9883c3.1289,16.3511,6.8194,33.4839,10.8838,51.0425
				c3.8262,16.4443,8.0948,33.2544,12.584,50.3281c4.5235,16.8018,9.3701,33.9351,14.5401,51.0679
				c5.1699,16.7509,10.4414,33.5517,16.1552,50.1162c6.6836,19.6582,12.7207,36.3242,18.4346,51.0166
				c7.0059,18.0263,14.0127,34.8105,20.8311,49.8945c8.2822,18.417,16.7001,35.3721,25.0498,50.4561
				c10.8662,19.4375,21.6142,35.6601,31.9199,48.1259c15.747,19.0977,27.3789,25.7471,34.3506,27.9747
				c42.8886,13.706,92.4091,1.9892,123.292-29.1475c12.1923-12.2618,20.3378-26.8008,23.5351-42.0899
				c1.4121-7.0058,1.8877-13.5878,1.4287-20.0156c-0.5273-7.584-1.4287-16.291-2.6357-25.9844
				c-1.8028-14.7949-4.1328-31.8515-6.8028-50.4394c-2.2275-16.2227-4.5908-33.6699-7.0234-51.832
				c-2.0576-16.6328-4.0976-33.7735-5.9512-51.2051c-1.9394-18.7656-3.3671-35.9155-4.3369-52.479
				c-0.6465-9.5742,1.3604-41.5108,4.5069-89.127c1.666-25.372,3.4004-51.6206,3.333-57.8188
				c-0.0176-2.0918,0.3398-4.107,0.9863-5.9693c-1.0205-2.9931-1.2412-6.3007-0.4766-9.6084
				c3.2139-13.7065,5.3399-28.6713,6.3096-44.5034c0.8838-15.4585,0.5439-31.6391-1.0371-48.0327
				c-1.582-16.4189-4.5244-32.8721-8.7412-48.9082c-4.5742-17.1333-10.374-33.229-17.2608-47.8115
				c-8.792-18.3745-19.2841-34.3599-31.1201-47.4204C287.429,47.7938,260.5257,34.8441,230.6135,34.8441L230.6135,34.8441z"/>
		</g>
		<g>
			<path fill="#37474F" d="M110.2132,451.5936c-7.4659,0-14.3868-4.8554-16.6661-12.3886
				c-43.7382-144.8457,83.8721-257.9507,109.8907-279.148c11.4277-9.3193,26.4267-1.9218,38.2119,5.5865
				c46.749,29.7597,126.5732,120.5102,93.956,251.0034c-2.3466,9.3276-11.8183,15.0161-21.1211,12.6694
				c-9.3359-2.3301-15.0156-11.7852-12.6689-21.1211c31.6309-126.5732-58.9414-201.5342-83.0049-215.5469
				c-32.4971,28.2891-126.4365,122.1944-91.915,236.4893c2.789,9.2085-2.4317,18.9189-11.6319,21.7075
				C113.5803,451.3471,111.8801,451.5936,110.2132,451.5936L110.2132,451.5936z"/>
		</g>
		<g>
			<path fill="#37474F" d="M214.4241,190.973c-8.4014,0-15.8154-6.0961-17.1758-14.6669l-11.581-72.419
				c-1.5303-9.4893,4.9482-18.4258,14.4375-19.939c9.4209-1.539,18.4345,4.94,19.9482,14.4463l11.5801,72.4185
				c1.5312,9.4892-4.9483,18.4258-14.4375,19.9394C216.26,190.9052,215.3421,190.973,214.4241,190.973L214.4241,190.973z"/>
		</g>
	</g>
	<g>
		<g>
			<path fill="#A6DDDD" d="M522.8899,487.8241c-3.5889-15.2881-5.7139-31.2392-6.7344-47.4116
				c-0.9697-16.7764-0.5439-33.8672,1.0889-50.7534c1.7002-17.584,4.8291-34.9385,9.2334-51.689
				c4.7617-17.8642,10.8838-34.9209,18.3486-50.7959c9.3028-19.395,20.7305-37.0639,33.961-51.6972
				c27.7695-30.5591,63.8047-48.2535,106.7441-43.4834c31.9199,3.5117,72.5801,16.8017,108.8711,43.4834
				c18.502,13.6215,35.7617,30.687,50.2168,51.6972c10.2549,14.8628,18.9619,31.7324,25.6797,50.7959
				c5.5771,15.6621,9.8281,32.9146,12.209,51.689c2.126,15.8066,2.8906,32.6675,2.3125,50.7534
				c-0.084,1.394-0.084,2.8057-0.084,4.2085c-0.6465,13.8345-2.2285,29.9219-4.7617,47.4292
				c-2.0742,15.8071-4.9151,32.8638-8.418,50.8208c-3.1465,16.4961-6.8867,33.8594-11.0029,51.6807
				c-3.8604,16.5634-8.1797,33.5351-12.7198,50.7451c-4.5917,17.1582-9.4727,34.4199-14.7109,51.7304
				c-5.2363,16.9551-10.5762,33.9942-16.3418,50.7285c-5.9863,17.6006-12.1592,34.9463-18.7226,51.7139
				c-6.8536,17.7198-13.877,34.6241-21.1563,50.7451c-8.3496,18.6045-16.9541,35.9502-25.6953,51.7139
				c-11.0879,19.8457-22.3457,37.0391-33.7559,50.7627c-14.1318,17.1416-28.3828,28.9775-42.4629,33.4668
				c-52.0722,16.666-107.7656,0-140.9433-33.4668c-14.2334-14.2676-24.2158-31.6816-28.1953-50.7627
				c-1.6494-7.9756-2.3975-16.3076-1.7852-24.8281c0.5781-7.8389,1.4961-16.8867,2.7207-26.8858
				c1.836-14.8632,4.1836-32.039,6.8535-50.7451c2.211-16.1894,4.5918-33.6025,7.0059-51.7139
				c2.041-16.377,4.0645-33.3828,5.8848-50.7285c1.7851-17.0566,3.2646-34.3847,4.2851-51.7304
				c1.0879-16.2237-8.0273-130.043-7.874-146.0025"/>
			<path fill="#37474F" d="M633.1721,1009.9999c-41.4257,0-82.6816-15.9854-111.4902-45.0312
				c-16.9199-16.9717-28.3144-37.5479-32.8887-59.4854c-2.0742-10.1016-2.789-20.0674-2.1084-29.624
				c0.6123-8.1289,1.5479-17.4473,2.8057-27.7705c1.8535-14.9815,4.2168-32.2422,6.9043-51.085l6.9893-51.5439
				c2.0068-16.122,4.0302-33.0244,5.833-50.252c1.8535-17.7021,3.2656-34.8447,4.2168-50.9316
				c0.5625-8.2647-2.3633-52.5811-4.5059-84.9434c-2.1426-32.7021-3.4688-53.083-3.4004-60.2085
				c0.0156-1.9219,0.3565-3.7754,0.9512-5.4927c-0.2207-0.5952-0.3906-1.2075-0.544-1.8281
				c-3.6045-15.416-6.0205-32.3452-7.1591-50.2944c-1.004-17.3882-0.629-35.3633,1.1386-53.5254
				c1.7696-18.315,5.0508-36.6304,9.7285-54.4434c5.084-19.0976,11.6143-37.1748,19.4375-53.7807
				c10.3555-21.5972,22.7188-40.3882,36.7998-55.9571c33.8077-37.2168,75.7939-54.2309,121.5732-49.1123
				c40.0996,4.4043,82.8516,21.4527,117.2715,46.7569c21.291,15.6792,39.5215,34.4707,54.2304,55.8554
				c11.4278,16.5464,20.7637,35.0147,27.7704,54.877c6.2237,17.499,10.6281,36.1201,13.0606,55.2856
				c2.2275,16.5122,3.0439,34.5552,2.4482,53.4995c-0.0839,1.5479-0.0839,2.6104-0.0839,3.6563
				c-0.6973,15.6113-2.3643,32.1323-4.9493,49.9204c-2.0576,15.687-4.9492,33.144-8.5537,51.6636
				c-3.1806,16.6484-6.956,34.2324-11.1396,52.2578c-3.8936,16.7676-8.2637,33.9092-12.8379,51.2891
				c-4.6602,17.3798-9.5919,34.8281-14.8809,52.3095c-5.3222,17.2432-10.7304,34.4541-16.5468,51.374
				c-6.7852,19.9473-12.9922,37.0899-18.9434,52.3604c-7.1094,18.3662-14.3535,35.7296-21.5293,51.5781
				c-8.5713,19.1319-17.4316,36.9541-26.3252,53.0069c-12.04,21.5293-24.0117,39.4873-35.5928,53.4492
				c-17.1582,20.7978-33.7226,33.5517-50.5742,38.9258C665.0237,1007.6366,649.0882,1009.9999,633.1721,1009.9999
				L633.1721,1009.9999z M539.3684,493.4784c0.6631,1.8706,1.003,3.8858,0.9864,5.9859c-0.0518,6.1645,1.6669,32.3022,3.333,57.5727
				c3.1464,47.7178,5.1523,79.7227,4.5058,89.4336c-0.9687,16.4785-2.4316,34.1299-4.3359,52.3594
				c-1.836,17.4824-3.877,34.5898-5.9356,51.0859l-6.9882,51.6289c-2.7051,18.9785-5.0342,36.0176-6.8536,50.7959
				c-1.1904,9.6758-2.0918,18.4512-2.6533,26.0352c-0.4424,6.3603,0.0518,13.0947,1.4795,20.0332
				c3.1797,15.2539,11.3086,29.7939,23.4678,41.9873c30.8994,31.1709,80.4199,42.8877,123.3076,29.1816
				c6.9902-2.2285,18.6055-8.8769,34.335-27.9746c10.2881-12.3467,21.0361-28.5351,31.9873-48.1601
				c8.4013-15.1348,16.8193-32.1065,25.0156-50.3711c6.9219-15.3047,13.9102-32.0723,20.7988-49.8946
				c5.7989-14.8291,11.8184-31.4941,18.4668-51.0175c5.7315-16.6309,11.0205-33.5,16.1895-50.2676
				c5.1533-17.0401,9.9824-34.1309,14.541-51.086c4.4717-16.9882,8.7578-33.789,12.5664-50.2002
				c4.0644-17.5498,7.7549-34.708,10.8672-51c3.4863-17.8818,6.2578-34.6235,8.248-49.8266
				c2.4483-16.9038,3.9961-32.294,4.6426-45.9746c-0.0176-0.9439-0.0176-2.7041,0.1016-4.4556
				c0.5097-16.521-0.2207-32.6338-2.1934-47.3691c-2.1435-16.8106-5.9531-32.9742-11.3603-48.169
				c-5.9854-17.0141-13.9278-32.727-23.6045-46.7485c-12.5157-18.1958-28.0586-34.19-46.2032-47.5645
				c-29.625-21.7758-66.2382-36.435-100.4531-40.1933c-34.6914-3.8345-65.5908,8.894-91.9492,37.8803
				c-11.8027,13.0689-22.2949,29.0625-31.1377,47.5225c-6.8701,14.6079-12.6865,30.7119-17.2266,47.7432
				c-4.2002,15.9599-7.1425,32.4297-8.7412,48.8828c-1.582,16.3847-1.9218,32.5576-1.0205,48.0752
				c1.003,15.9341,3.1123,30.9077,6.292,44.4355C540.6272,487.161,540.4055,490.4853,539.3684,493.4784L539.3684,493.4784z"/>
		</g>
		<g>
			<path fill="#37474F" d="M792.2083,625.3319c-1.6836,0-3.3672-0.2383-5.0508-0.748
				c-9.2002-2.7891-14.4209-12.5166-11.6318-21.7168c34.5214-114.2012-59.3838-208.1489-91.9327-236.4805
				c-24.0459,14.021-114.6347,88.9737-82.9873,215.5645c2.3301,9.3359-3.3496,18.791-12.6699,21.1211
				c-9.3183,2.3457-18.791-3.3516-21.1211-12.67c-32.5996-130.3994,47.1572-221.184,93.8721-250.9697
				c11.8017-7.5166,26.8174-14.9477,38.2627-5.6714c26.0693,21.2486,153.6797,134.4214,109.9238,279.19
				C806.595,620.4686,799.6907,625.3319,792.2083,625.3319L792.2083,625.3319z"/>
		</g>
		<g>
			<path fill="#37474F" d="M687.9983,364.7113c-0.9189,0-1.8379-0.0678-2.7725-0.2207
				c-9.4892-1.5136-15.9677-10.4502-14.4384-19.9477l11.5644-72.4019c1.5137-9.4975,10.4414-16.019,19.9473-14.4546
				c9.4902,1.5137,15.9688,10.4502,14.4375,19.9478l-11.5625,72.4013C703.8128,358.6151,696.3987,364.7113,687.9983,364.7113
				L687.9983,364.7113z"/>
		</g>
	</g>
</g>
</svg>
