<?xml version="1.0" encoding="utf-8"?>
<!-- Generator: Adobe Illustrator 17.1.0, SVG Export Plug-In . SVG Version: 6.00 Build 0)  -->
<!DOCTYPE svg PUBLIC "-//W3C//DTD SVG 1.1//EN" "http://www.w3.org/Graphics/SVG/1.1/DTD/svg11.dtd">
<svg version="1.1" id="flippers" xmlns="http://www.w3.org/2000/svg" xmlns:xlink="http://www.w3.org/1999/xlink" x="0px" y="0px"
	 viewBox="0 0 1009.9999 732.2072" enable-background="new 0 0 1009.9999 732.2072" xml:space="preserve">
<g id="flippers-flippers">
	<g>
		<g>
			<path fill="#A6DDDD" d="M649.5829,679.5803l327.9854-448.5899c44.6982-60.3818-21.3086-44.6191-21.3086-44.6191
				c-45.541-7.5313-46.1602-52.8819-46.1602-52.8819s3.1621-8.0556,3.7656-16.7314l-9.5019-19.6875l0.6357-0.1748
				c-7.2462-3.2422-19.624-2.5908-40.7745,6.3555C794.246,132.7746,760.5272,84.009,745.3358,41.423
				c-4.2265-11.9326-8.6591-19.0996-13.665-22.9765l-20.498-1.6211c-8.9141,3.3535-19.4815,10.3291-32.0656,17.7178
				c-32.7812,19.2744-61.3515,47.3994-92.8135,14.5078c-31.4619-33.0039-45.2392,14.9677-45.2392,14.9677l18.29,576.6788"/>
			<path fill="#37474F" d="M649.5673,696.4074c-3.4639,0-6.9278-1.0488-9.9151-3.2412c-7.5156-5.4824-9.1367-16.0332-3.6709-23.5176
				l327.9854-448.5888c7.4365-10.043,10.376-16.2559,11.5361-19.5928c-4.0361-0.3809-10.3447,0.1269-15.3818,1.3027
				c-2.1455,0.5088-4.4336,0.5723-6.626,0.207c-46.9873-7.8017-59.9531-48.7031-60.2236-69.249
				c-0.0313-2.1767,0.3496-4.3379,1.1601-6.3877c0.4297-1.1279,1.4463-4.2578,2.1133-7.7539l-3.6386-7.5156
				c-4.1152,0.4287-11.043,2.0019-22.1348,6.6738c-29.9043,12.6162-57.0449,13.7129-80.6729,3.3203
				c-26.2822-11.5673-47.2412-37.5-60.6201-74.9843c-2.2411-6.3399-4.1953-10.1221-5.6572-12.3623l-9.8838-0.795
				c-4.9102,2.3047-10.916,5.9278-17.6533,9.9795l-8.6758,5.1641c-4.8789,2.876-9.6934,5.959-14.4121,9.0098
				c-26.5361,17.0654-62.9248,40.4238-99.0742,2.6054c-5.7041-5.9746-8.5967-6.3877-8.628-6.3877
				c-1.7802,0.795-5.4824,6.7061-7.5322,12.1397l18.1777,573.7391c0.3028,9.2803-6.9755,17.0656-16.2705,17.336
				c-9.375,1.1602-17.0664-6.9756-17.3359-16.287L524.2274,64.5432c-0.0634-1.7159,0.1592-3.4639,0.6514-5.1319
				c1.5254-5.3555,10.3125-32.289,32.9082-37.8506c9.4229-2.2881,24.1846-1.4453,40.6786,15.8741
				c15.6514,16.3505,26.6153,11.5361,56.5205-7.6905c5.1162-3.2578,10.2969-6.6103,15.5879-9.709l8.3584-4.9736
				c9.6924-5.8476,18.0508-10.8682,26.3135-13.9824c2.3203-0.8906,4.7666-1.208,7.2461-1.0332l20.498,1.6045
				c3.2891,0.2705,6.4034,1.4785,9.0089,3.4961c7.8506,6.0859,13.9521,15.8418,19.1953,30.6513
				c7.1036,19.8946,20.2286,45.668,42.458,55.4561c14.8252,6.5469,33.0196,5.3232,54.0264-3.5117
				c23.8984-10.1055,41.1231-12.0762,54.2158-6.1973c5.1963,2.3359,8.7559,7.0713,9.6934,12.4902l7.4365,15.4131
				c1.2715,2.6377,1.8272,5.5772,1.6046,8.501c-0.4922,7.1504-2.2402,13.7764-3.5117,17.7969
				c0.8584,7.5,5.3398,28.0459,28.999,33.4638c11.918-2.2714,37.4854-4.7509,49.1006,12.8077
				c12.4893,18.8935-2.0654,42.7119-14.126,58.9834L663.1688,689.4953C659.8641,694.0236,654.7635,696.4074,649.5673,696.4074
				L649.5673,696.4074z"/>
		</g>
		<g>
			<path fill="#37474F" d="M636.7762,471.0246c-1.0645,0-2.1612-0.0957-3.2422-0.3018
				c-9.1367-1.7959-15.0791-10.6308-13.2998-19.7519l83.0732-424.8652c1.7793-9.1211,10.5988-15.127,19.7354-13.2999
				c9.1367,1.795,15.0791,10.6143,13.2998,19.7354l-83.0567,424.8809C651.6971,465.4631,644.657,471.0246,636.7762,471.0246
				L636.7762,471.0246z"/>
		</g>
		<g>
			<path fill="#37474F" d="M719.8007,494.1447c-2.4629,0-4.9727-0.541-7.3408-1.7012c-8.3741-4.0673-11.838-14.1416-7.7863-22.5
				L889.871,89.5383c4.084-8.3584,14.1269-11.8379,22.501-7.7705c8.3574,4.0683,11.838,14.1425,7.7695,22.5L734.9599,484.674
				C732.0359,490.6642,726.0458,494.1447,719.8007,494.1447L719.8007,494.1447z"/>
		</g>
		<g>
			<path fill="#FFCA72" d="M603.7245,715.3801c-27.4101-0.2539-49.5605-23.9776-49.4014-52.8662
				c0.0635-20.8155,52.3731-140.5782,87.6172-140.5782c8.8662,0.6035,15.2539,4.4805,19.5284,10.9805
				c18.5126,28.2363-6.0694,127.9453-8.7238,135.4775c-4.8456,13.9991-16.287,46.9865-48.7021,46.9865
				C604.0428,715.3801,603.7723,715.3801,603.7245,715.3801z"/>
			<path fill="#37474F" d="M641.9402,538.7795c0.1114,0,0.2227,0,0.334,0.0156c20.752,1.5098,1.3819,104.667-5.4033,124.0215
				c-6.3877,18.4639-14.7773,35.7207-32.8281,35.7207c-0.0635,0-0.127,0-0.1905,0c-18.1621-0.1592-32.8134-16.2715-32.7177-35.9434
				C571.1981,642.8586,623.4764,538.7951,641.9402,538.7795 M641.9402,505.1086h-0.0156
				c-20.3398,0.0156-39.4551,12.0918-71.9023,72.1875c-9.7569,18.0674-32.4629,62.543-32.543,85.1865
				c-0.1904,38.0879,29.46,69.3916,66.0547,69.7246c44.9053,0,60.1435-43.9355,65.1494-58.3789
				c0.333-0.9219,31.6211-112.3428,6.8486-150.1289c-7.1035-10.8369-18.3213-17.5742-30.7949-18.4961
				C643.9109,505.1564,642.7509,505.1086,641.9402,505.1086L641.9402,505.1086z"/>
		</g>
	</g>
	<g>
		<g>
			<path fill="#A6DDDD" d="M450.6571,640.6975l18.3052-576.6788c0,0-13.7769-47.9716-45.2544-14.9677
				c-31.4463,32.8916-60.0644,4.7666-92.8291-14.5078c-12.5693-7.3887-23.1045-14.3643-32.0664-17.7178l-20.4502,1.6211
				c-5.0054,3.8769-9.4707,11.0439-13.6973,22.9765c-15.1748,42.586-48.9091,91.3516-118.8409,61.8282
				c-21.1972-8.9463-33.6074-9.5977-40.8213-6.3555l0.6358,0.1748l-9.4551,19.6875c0.604,8.6758,3.7344,16.7314,3.7344,16.7314
				s-0.6358,45.3506-46.1284,52.8819c0,0-66.0547-15.7627-21.3721,44.6191l327.9848,448.5899"/>
			<path fill="#37474F" d="M360.4179,696.4074c-5.1963,0-10.2969-2.3838-13.6016-6.9121L18.8314,240.9221
				C6.8505,224.7297-7.7047,200.9113,4.7851,182.0178c11.6308-17.5586,37.2617-15.0635,49.1474-12.8077
				c23.8189-5.4658,28.2046-26.1709,28.9834-33.4482c-1.2397-4.0039-3.0195-10.6465-3.5117-17.8125
				c-0.207-2.9238,0.3652-5.8477,1.6045-8.4697L88.8905,93.05c1.0962-4.9893,4.3535-9.3115,9.1841-11.4883
				c13.0933-5.9111,30.3501-3.9092,54.2964,6.165c20.9902,8.8829,39.2002,10.0586,53.9936,3.544
				c22.23-9.8047,35.355-35.5781,42.4419-55.5039c5.228-14.7617,11.3457-24.4863,19.2271-30.6201
				c2.6059-2.0176,5.7202-3.2256,9.0098-3.4961l20.4502-1.6045c2.3833-0.1592,4.9101,0.1592,7.2143,1.0166
				c8.3262,3.1308,16.7002,8.1514,26.3931,14.0156l8.31,4.957c5.2759,3.0987,10.44,6.42,15.541,9.6934
				c29.9205,19.2266,40.9327,24.0732,56.5997,7.7061c16.5253-17.3516,31.3037-18.1622,40.6787-15.8741
				c22.5952,5.5616,31.3823,32.4951,32.9077,37.8506c0.4927,1.668,0.7153,3.416,0.6518,5.1319l-18.3212,576.6787
				c-0.2706,9.3115-8.0088,17.3681-17.336,16.287c-9.2959-0.2704-16.5732-8.0557-16.2715-17.336l18.1944-573.6913
				c-2.1934-5.8476-5.9434-11.4248-7.9136-12.2353c0.064,0.0957-2.8286,0.7158-8.2466,6.4199
				c-36.1816,37.8652-72.5537,14.46-99.1377-2.6064c-4.7192-3.0508-9.5181-6.1172-14.3965-8.9932l-8.6279-5.1641
				c-6.7534-4.0517-12.7598-7.6748-17.6699-9.9795l-9.8672,0.795c-1.4619,2.2402-3.4326,6.0224-5.6729,12.33
				c-13.3632,37.5166-34.3223,63.4493-60.6045,75.0166c-23.6284,10.3926-50.7685,9.3116-80.6254-3.3203
				c-11.107-4.6562-18.0513-6.2451-22.1827-6.6738l-3.5913,7.5c0.668,3.7021,1.7481,6.96,2.0977,7.8496
				c0.7788,2.002,1.1601,4.1475,1.1279,6.3076c-0.2856,20.5459-13.2363,61.4473-60.1909,69.249
				c-2.2241,0.3809-4.4966,0.3174-6.6733-0.2226c-5.0215-1.1914-11.4414-1.668-15.3819-1.2871
				c1.1441,3.3369,4.0679,9.5185,11.4571,19.5127l328.0478,448.6689c5.4658,7.4844,3.8457,18.0352-3.6709,23.5176
				C367.3456,695.3586,363.8817,696.4074,360.4179,696.4074L360.4179,696.4074z"/>
		</g>
		<g>
			<path fill="#37474F" d="M373.2411,471.0246c-7.8813,0-14.9209-5.5615-16.4941-13.6025L273.6747,32.5412
				c-1.7798-9.1211,4.1631-17.9404,13.2998-19.7354c9.0889-1.8271,17.9556,4.1788,19.7354,13.2999l83.0727,424.8652
				c1.7798,9.1211-4.1636,17.956-13.3003,19.7519C375.4022,470.9289,374.3056,471.0246,373.2411,471.0246L373.2411,471.0246z"/>
		</g>
		<g>
			<path fill="#37474F" d="M290.2157,494.1447c-6.2441,0-12.2348-3.4805-15.1587-9.4707L89.8593,104.2678
				c-4.0674-8.3575-0.5879-18.4317,7.7705-22.5c8.3896-4.0518,18.4326-0.5723,22.5,7.7705l185.2139,380.4052
				c4.0517,8.3584,0.5878,18.4327-7.7862,22.5C295.1894,493.6037,292.6791,494.1447,290.2157,494.1447L290.2157,494.1447z"/>
		</g>
		<g>
			<path fill="#FFCA72" d="M405.9745,715.3801c-32.4155,0-43.8564-32.9873-48.7344-47.0498
				c-2.622-7.4532-27.2675-107.1309-8.7397-135.3985c4.2905-6.499,10.6782-10.3926,18.0034-10.916h0.0156
				c36.8492,0,89.127,119.6983,89.1748,140.5303c0.1114,28.8721-22.0395,52.5801-49.3701,52.834
				C406.2763,715.3801,406.0224,715.3801,405.9745,715.3801L405.9745,715.3801z"/>
			<path fill="#37474F" d="M368.0609,538.7795c18.4644,0,70.774,104.0791,70.8218,123.8144
				c0.0635,19.6719-14.5234,35.7842-32.7178,35.9434c-0.0634,0-0.1269,0-0.1904,0c-18.0195,0-26.4248-17.2568-32.8291-35.7207
				c-6.8008-19.3545-26.2339-122.5117-5.418-124.0215C367.8388,538.7795,367.9501,538.7795,368.0609,538.7795 M368.0609,505.1086
				c-0.8261,0-2.018,0.0478-2.8442,0.1103c-12.4258,0.9063-23.6602,7.6436-30.7788,18.4961
				c-24.7886,37.834,6.5625,149.2071,6.9438,150.2559c4.958,14.3008,20.1963,58.2363,64.5928,58.2363
				c37.0557-0.333,66.6904-31.6211,66.563-69.7246c-0.0474-22.6269-22.7861-67.1191-32.5425-85.2021
				C407.5316,517.1848,388.4003,505.1086,368.0609,505.1086L368.0609,505.1086z"/>
		</g>
	</g>
</g>
</svg>
