<?xml version="1.0" encoding="utf-8"?>
<!-- Generator: Adobe Illustrator 17.1.0, SVG Export Plug-In . SVG Version: 6.00 Build 0)  -->
<!DOCTYPE svg PUBLIC "-//W3C//DTD SVG 1.1//EN" "http://www.w3.org/Graphics/SVG/1.1/DTD/svg11.dtd">
<svg version="1.1" id="flower" xmlns="http://www.w3.org/2000/svg" xmlns:xlink="http://www.w3.org/1999/xlink" x="0px" y="0px"
	 viewBox="0 0 640.2578 1010" enable-background="new 0 0 640.2578 1010" xml:space="preserve">
<g id="flower-flower">
	<g id="flower-fill">
		<path fill="#A6DDDD" d="M386.5908,850.4775c-46.374,50.2705-66.4619,142.6895-66.4619,142.6895s90.5283-27.3877,136.9355-77.6738
			c46.4229-50.2863,50.5333-86.3858,31.1016-104.3369C468.7363,793.2051,432.998,800.2246,386.5908,850.4775z"/>
		<path fill="#A6DDDD" d="M253.6504,850.4775c46.3901,50.2705,66.4785,142.6895,66.4785,142.6895s-90.5449-27.3877-136.9678-77.6738
			c-46.3906-50.2863-50.5166-86.3858-31.0693-104.3369C171.5059,793.2051,207.2436,800.2246,253.6504,850.4775z"/>
		<path fill="#A6DDDD" d="M386.5908,671.4922c-46.374,50.2695-66.4619,142.6885-66.4619,142.6885s90.5283-27.3868,136.9355-77.6563
			c46.4229-50.3027,50.5333-86.4189,31.1016-104.3867C468.7363,614.2187,432.998,621.2227,386.5908,671.4922z"/>
		<path fill="#A6DDDD" d="M253.6504,671.4922c46.3901,50.2695,66.4785,142.6885,66.4785,142.6885s-90.5449-27.3868-136.9678-77.6563
			c-46.3906-50.3027-50.5166-86.4189-31.0693-104.3867C171.5059,614.2187,207.2436,621.2227,253.6504,671.4922z"/>
		<path fill="#FFCA72" d="M544.6504,225.6392c25.6445-36.9219,22.0117-87.9151-10.916-120.7598
			c-33.1407-33.1406-84.6924-36.4116-121.5645-10.1592c-7.8418-44.4175-46.5713-77.8867-93.2246-77.8867
			c-46.7847,0-85.646,34.0283-93.208,78.6924c-36.9707-25.5952-88.0298-21.9624-120.8906,10.9316
			c-33.4204,33.3711-36.4287,85.0547-9.5186,122.0088c-44.664,7.6279-78.4951,45.9468-78.4951,92.7642
			c0,46.9331,33.979,85.7778,78.6924,93.3725c-25.5786,36.8887-21.8799,87.9312,10.998,120.7925
			c33.1075,33.0908,84.6592,36.544,121.5811,10.2744c8.0713,44.253,46.7519,77.6895,93.1914,77.6895
			c46.8018,0,85.7285-33.9961,93.3398-78.6924c36.8389,25.5459,87.8975,21.9785,120.7764-10.9326
			c33.041-33.107,36.5264-84.7085,10.3398-121.6465c44.17-7.94,77.6729-46.6533,77.6729-93.0928
			C623.4248,272.062,589.3301,233.2007,544.6504,225.6392z"/>
		<path fill="#FFFFFD" d="M320.1455,472.5825c-84.1997,0-152.5361-68.2207-152.5361-152.4531
			c0-84.1997,68.2544-152.4536,152.4536-152.4536c84.2983,0,152.5522,68.2539,152.5522,152.4536
			C472.6152,404.3286,404.3613,472.5825,320.1455,472.5825z"/>
	</g>
	<g id="flower-line">
		<g>
			<path fill="#37474F" d="M320.1289,1010c-4.1753,0-8.2686-1.5615-11.4248-4.4717c-4.3731-4.0439-6.2964-10.1094-5.0303-15.9453
				c0.8711-3.9453,21.6328-97.499,70.5391-150.5137c32.9101-35.6396,63.3056-53.706,90.331-53.706
				c13.4141,0,25.5293,4.6367,35.0479,13.4306c11.1621,10.3077,41.9512,50.0069-30.166,128.1241
				c-48.9375,53.0322-140.5508,81.1913-144.4141,82.3584C323.4004,1009.7695,321.7559,1010,320.1289,1010L320.1289,1010z
				 M464.5439,819.0303c-7.8086,0-29.8525,4.1758-65.5908,42.872c-26.7949,29.0479-44.4336,74.3038-53.9023,104.2559
				c29.1289-11.8525,72.873-33.0752,99.6347-62.0732c33.3545-36.1329,45.9297-67.7442,32.0557-80.5664
				C473.4707,820.4932,469.4756,819.0303,464.5439,819.0303L464.5439,819.0303z"/>
		</g>
		<g>
			<path fill="#37474F" d="M320.1289,1010c-1.6274,0-3.2715-0.2305-4.8657-0.7236c-3.8799-1.1671-95.5098-29.3262-144.4644-82.3584
				c-72.1006-78.1494-41.2778-117.833-30.1323-128.1241c9.5015-8.7939,21.6167-13.4306,35.0308-13.4306
				c27.0254,0,57.4209,18.0664,90.3149,53.6894c48.9385,53.0313,69.7007,146.585,70.5718,150.5303
				c1.2656,5.8359-0.6572,11.9014-5.0303,15.9453C328.3975,1008.4385,324.3047,1010,320.1289,1010L320.1289,1010z
				 M175.6973,819.0303c-4.9317,0-8.9092,1.463-12.1807,4.4883c-13.8745,12.8222-1.3154,44.4335,32.0225,80.5664
				c26.8281,29.0634,70.5556,50.2529,99.6523,62.0888c-9.502-29.9843-27.1572-75.289-53.9194-104.2871
				C205.5508,823.2061,183.5225,819.0303,175.6973,819.0303L175.6973,819.0303z"/>
		</g>
		<g>
			<path fill="#37474F" d="M320.1289,831.0146c-4.1753,0-8.2686-1.5615-11.4248-4.4716c-4.3731-4.044-6.2964-10.1094-5.0303-15.9453
				c0.8711-3.9454,21.6328-97.4991,70.5391-150.5137c32.9101-35.6563,63.3056-53.7227,90.3476-53.7227
				c13.3975,0,25.5127,4.6367,35.0137,13.3985c11.1797,10.3398,41.9688,50.0556-30.1318,128.1728
				c-48.9541,53.0313-140.5674,81.1914-144.4307,82.3584C323.4004,830.7842,321.7559,831.0146,320.1289,831.0146L320.1289,831.0146z
				 M464.5605,640.0283c-7.8252,0-29.8691,4.1758-65.6074,42.8887c-26.7949,29.0478-44.4336,74.3037-53.9023,104.2549
				c29.1289-11.8526,72.873-33.0742,99.6513-62.0723c33.3379-36.1328,45.9131-67.7617,32.0391-80.5996
				C473.4863,641.4912,469.4922,640.0283,464.5605,640.0283L464.5605,640.0283z"/>
		</g>
		<g>
			<path fill="#37474F" d="M320.1289,831.0146c-1.6274,0-3.2715-0.2304-4.8657-0.7236
				c-3.8799-1.167-95.4932-29.3271-144.4644-82.3418c-72.084-78.167-41.2939-117.8662-30.1323-128.1738
				c9.5181-8.7774,21.6167-13.4141,35.0146-13.4141c27.0416,0,57.4371,18.0663,90.3311,53.7061
				c48.9385,53.0312,69.7007,146.5849,70.5718,150.5303c1.2656,5.8359-0.6572,11.9013-5.0303,15.9453
				C328.3975,829.4531,324.3047,831.0146,320.1289,831.0146L320.1289,831.0146z M175.6811,640.0283
				c-4.9155,0-8.9096,1.4629-12.1645,4.4717c-13.8906,12.8223-1.3154,44.4668,32.0225,80.6152
				c26.8281,29.0479,70.5556,50.2373,99.6523,62.0733c-9.502-29.9678-27.1572-75.2901-53.9194-104.2881
				C205.5508,644.2041,183.5059,640.0283,175.6811,640.0283L175.6811,640.0283z"/>
		</g>
		<g>
			<path fill="#37474F" d="M321.2959,640.1924c-46.1436,0-86.583-28.1592-103.3672-69.5029
				c-13.9238,6.082-28.998,9.2382-44.5322,9.2382c-29.7549,0-57.7334-11.5888-78.7754-32.6309
				c-32.6636-32.6475-41.376-81.1582-24-122.2061C28.6357,408.6685,0,368.0156,0,321.2305
				c0-46.2749,28.3398-86.5664,69.9795-103.0547c-18.5757-41.3438-10.3067-90.397,22.9648-123.6362
				c21.042-21.0582,49.0537-32.6475,78.8575-32.6475c15.0908,0,29.8037,2.9756,43.4311,8.7456C231.6226,28.6362,272.21,0,318.9453,0
				c46.374,0,86.8457,28.2256,103.4824,69.6514c13.9395-6.0826,29.0313-9.2388,44.5655-9.2388
				c29.7216,0,57.6513,11.5566,78.6435,32.5654c32.6797,32.5982,41.3594,81.0923,23.9346,122.1729
				c42.0342,16.4062,70.6865,57.0429,70.6865,103.8442c0,46.1929-28.1592,86.6157-69.4863,103.3013
				c18.0498,41.2944,9.5674,90.2485-23.4414,123.3237c-21.042,21.0752-49.0371,32.6807-78.8242,32.6807l0,0
				c-15.0918-0.0166-29.7715-2.9922-43.3829-8.7461C408.7012,611.5566,368.0478,640.1924,321.2959,640.1924L321.2959,640.1924z
				 M228.1045,528.8359c2.1372,0,4.2905,0.4113,6.3452,1.2335c5.3262,2.17,9.1895,6.9209,10.2085,12.5752
				c6.7563,37.0204,38.9932,63.8809,76.6377,63.8809c38.0889,0,70.3584-27.2051,76.7529-64.6856
				c0.9531-5.6718,4.751-10.455,10.0606-12.6914c5.3261-2.2519,11.375-1.5937,16.1269,1.6934
				c13.002,9.0078,28.3067,13.7754,44.2696,13.792l0,0c20.7783,0,40.3242-8.1045,55.0039-22.7998
				c26.8945-26.9605,30.4775-69.0108,8.5156-100.0142c-3.3379-4.7016-4.0274-10.7676-1.8574-16.1103
				c2.1855-5.3262,6.9365-9.1729,12.6074-10.1919c36.9717-6.6411,63.8164-38.8286,63.8164-76.5225
				c0-38.1216-27.2393-70.4077-64.7529-76.7529c-5.671-0.9697-10.4717-4.7671-12.7072-10.0772
				c-2.2353-5.3095-1.5947-11.3921,1.6934-16.1264c21.4687-30.9048,17.6885-72.6431-8.9756-99.2407
				c-14.6641-14.6636-34.1269-22.7188-54.8564-22.7188c-16.2911,0-31.875,4.9648-45.0586,14.3511
				c-4.7022,3.3701-10.7842,4.0605-16.1436,1.874c-5.3418-2.2026-9.1894-6.9697-10.1914-12.6577
				c-6.5586-37.0694-38.7793-63.98-76.6543-63.98c-38.0395,0-70.2593,27.1899-76.605,64.6704
				c-0.9697,5.6714-4.7671,10.4717-10.0605,12.707c-5.3096,2.2032-11.3755,1.5948-16.1265-1.6767
				c-13.0522-9.041-28.3896-13.8086-44.3515-13.8086c-20.8116,0-40.3575,8.0879-55.0538,22.8008
				c-27.1074,27.0581-30.3789,69.2075-7.8086,100.1943c3.4195,4.7183,4.1758,10.8496,1.9893,16.2583
				c-2.2031,5.3916-7.0195,9.2715-12.7729,10.2412C60.79,251.4478,33.666,283.4707,33.666,321.2305
				c0,38.1216,27.2066,70.4077,64.6709,76.7695c5.6875,0.9697,10.4712,4.7671,12.707,10.0767
				c2.2354,5.31,1.5948,11.392-1.6933,16.1103c-21.4033,30.8882-17.5899,72.6431,9.0742,99.3071
				c14.6797,14.6797,34.209,22.7676,54.9717,22.7676c16.2578,0,31.792-4.9482,44.9433-14.3027
				C221.2329,529.8887,224.6523,528.8359,228.1045,528.8359L228.1045,528.8359z"/>
		</g>
		<g>
			<path fill="#37474F" d="M320.1455,489.416c-93.3892,0-169.3691-75.9473-169.3691-169.2866
				c0-93.3398,75.9472-169.2871,169.2866-169.2871c93.4057,0,169.3862,75.9473,169.3862,169.2871
				C489.4492,413.4687,413.5019,489.416,320.1455,489.416L320.1455,489.416z M320.063,184.5093
				c-74.7798,0-135.6196,60.8398-135.6196,135.6201c0,74.7798,60.8725,135.6201,135.7021,135.6201
				c74.7959,0,135.6357-60.8403,135.6357-135.6201C455.7812,245.3491,394.8926,184.5093,320.063,184.5093L320.063,184.5093z"/>
		</g>
		<g>
			<path fill="#37474F" d="M320.1289,1010c-9.3042,0-16.8335-7.5293-16.8335-16.833V623.3594c0-9.3047,7.5293-16.834,16.8335-16.834
				c9.3047,0,16.834,7.5293,16.834,16.834V993.167C336.9629,1002.4707,329.4336,1010,320.1289,1010L320.1289,1010z"/>
		</g>
	</g>
</g>
</svg>
