<?xml version="1.0" encoding="utf-8"?>
<!-- Generator: Adobe Illustrator 17.1.0, SVG Export Plug-In . SVG Version: 6.00 Build 0)  -->
<!DOCTYPE svg PUBLIC "-//W3C//DTD SVG 1.1//EN" "http://www.w3.org/Graphics/SVG/1.1/DTD/svg11.dtd">
<svg version="1.1" id="ice-cream" xmlns="http://www.w3.org/2000/svg" xmlns:xlink="http://www.w3.org/1999/xlink" x="0px" y="0px"
	 viewBox="0 0 626.9995 1010" enable-background="new 0 0 626.9995 1010" xml:space="preserve">
<g id="ice-cream-ice-cream">
	<g>
		<path fill="#A6DDDD" d="M461.4819,505c-81.5918,0-147.9829-66.3901-147.9829-147.9834c0-10.1523,1.063-20.3896,3.1294-30.355
			l2.7715-13.3154l13.3496-2.5c6.2578-1.2925,11.6484-2.687,16.9375-4.3535l4.8633-1.8365
			c3.5039-1.2246,7.0078-2.5678,10.375-4.0644c2.2441-1.0205,4.4375-2.0918,6.5976-3.1968c2.584-1.3266,5.17-2.7212,7.6856-4.2348
			c2.3984-1.3775,4.7285-2.7378,6.9726-4.2002c1.7012-1.1392,3.2989-2.3296,4.8985-3.5201
			c5.7812-4.2856,9.9648-7.7378,13.9433-11.4277c0,0,3.9297-3.5205,4.8301-4.4048c1.7695-1.8364,3.4688-3.792,5.2051-5.7475
			c2.4648-2.8062,4.0801-4.6597,5.5937-6.5645c1.752-2.2275,3.4688-4.5405,5.1524-6.9214c1.7519-2.4487,3.2988-4.9316,4.8301-7.4311
			l1.3945-2.2451c0.7988-1.2583,1.5977-2.4996,2.3125-3.8091c2.6191-4.7617,4.9824-9.5401,7.0059-14.4888l1.0898-2.2446
			l5.2031-12.5332l12.9063,1.4111c82.5625,0,148.9355,66.373,148.9355,147.9834C609.4819,438.6099,543.1089,505,461.4819,505
			L461.4819,505z"/>
		<path fill="#FFCA72" d="M304.8091,313.4819c-6.3599,0-13.0601-0.5097-21.0952-1.6494l-5.2891-0.8164
			c-6.3091-1.1221-12.5332-2.6357-18.6211-4.5742c-1.6919-0.5444-3.2651-1.1397-4.855-1.7515
			c-5.459-2.0239-9.4214-3.6904-13.3408-5.5439c-3.0273-1.4287-6.02-2.9082-8.9194-4.5235
			c-4.0391-2.2451-7.9927-4.7109-11.8194-7.3466c-2.8569-1.9727-5.6626-4.0982-8.4004-6.292
			c-2.3554-1.8706-4.6171-3.8775-6.8364-5.918c-3.852-3.4863-7.4741-7.1084-10.9092-10.9517
			c-2.3808-2.6699-4.6172-5.2885-6.7426-8.0268c-1.709-2.2275-3.5035-4.5064-5.1612-6.9043
			c-3.4184-5.0337-6.4961-10.1524-9.2851-15.5259l-1.896-3.8945c-2.7383-5.8159-5.8501-12.8223-8.2652-20.5938
			c-4.353-14.1489-6.581-28.8247-6.581-43.6533c0-81.6274,66.4155-148.0005,148.0171-148.0005
			c81.5771,0,147.9658,66.3731,147.9658,148.0005c0,15.271-2.3809,30.44-7.0566,45.0479
			c-1.8204,5.8159-4.1329,11.3935-6.6329,16.8354l-2.5507,5.2378c-2.5,4.9146-5.2207,9.6421-8.2129,14.1826
			c-1.0371,1.5987-2.1426,3.0781-3.2305,4.5918c-3.1289,4.3023-5.748,7.6524-8.5371,10.8667
			c-1.7695,2.0235-3.5039,3.9619-5.3399,5.8325c-3.0605,3.1802-6.2246,6.1734-9.5566,9.0474
			c-2.3144,2.0234-4.6777,3.894-7.0762,5.7476c-3.2636,2.5341-6.7324,5-10.3222,7.2617c-1.9219,1.2241-3.9278,2.4487-5.9336,3.605
			c-4.7969,2.7378-9.6602,5.2719-14.6934,7.4658l-2.6191,1.0884c-5.8848,2.3637-11.2246,4.1489-16.7168,5.6626l-5.0156,1.2924
			c-6.0547,1.4454-12.168,2.6187-18.4434,3.316C314.8862,313.2271,309.894,313.4819,304.8091,313.4819L304.8091,313.4819z"/>
		<path fill="#907973" d="M165.5161,505c-81.6187,0-148.0005-66.3901-148.0005-147.9834
			c0-74.2808,55.6255-137.3545,129.396-146.7417l15.5942-1.9556l5.918,14.6245c2.1685,5.1871,4.7529,10.1695,7.4912,15.0162
			c1.437,2.5678,2.959,4.9658,4.481,7.3632c1.3262,2.0411,2.8144,4.2007,4.3193,6.3262
			c7.083,9.8804,15.3052,18.8086,24.4883,26.6138l2.7886,2.3301c3.1631,2.5337,6.3774,5.0166,9.7783,7.3125l-8.8345,18.417
			l11.0962-16.9888c5.646,3.6562,11.7339,7.0405,18.1284,10.0166c3.231,1.5132,5.042,2.3808,6.938,3.146
			c2.6363,1.0713,5.3399,2.0405,8.0694,2.959c3.5117,1.1904,7.0146,2.2104,10.5859,3.1289l6.0371,1.5815
			c5.7647,1.2246,11.6148,2.0747,17.5669,2.6358l2.6274,0.3745l15.458,1.2241l1.522,15.1011
			c1.6753,9.0131,2.5337,18.2812,2.5337,27.5151C313.499,438.6099,247.1177,505,165.5161,505L165.5161,505z"/>
		<path fill="#FFFDEB" d="M88.123,489.7798l40.7798,10.4243C141.3677,503.3843,153.6631,505,165.5161,505
			c54.2563,0,104.1255-29.7432,130.127-77.5801l17.8559-32.855l17.856,32.855C357.3569,475.2568,407.2339,505,461.4819,505
			c11.8535,0,24.1836-1.6157,36.6133-4.7959l40.7969-10.4243L313.499,992.4844L88.123,489.7798z"/>
		<path fill="#FFD58E" d="M252.5679,545.627c0,11.206-9.1153,20.3212-20.313,20.3212c-11.2154,0-20.3135-9.1152-20.3135-20.3212
			c0-11.2247,9.0981-20.3047,20.3135-20.3047C243.4526,525.3223,252.5679,534.4023,252.5679,545.627z M293.186,505
			c11.2154,0,20.313-9.0981,20.313-20.3218c0-10.7988-8.5195-19.4204-19.1313-20.0669
			c-6.5044,7.7207-13.4771,14.9991-21.2061,21.4781C273.9101,496.5991,282.4809,505,293.186,505z M354.1265,525.3223
			c-11.2071,0-20.3223,9.08-20.3223,20.3047c0,11.206,9.1152,20.3212,20.3223,20.3212c11.207,0,20.3203-9.1152,20.3203-20.3212
			C374.4468,534.4023,365.3335,525.3223,354.1265,525.3223z M476.0054,525.3223c-11.2227,0-20.3223,9.08-20.3223,20.3047
			c0,11.206,9.0996,20.3212,20.3223,20.3212c2.5175,0,4.8984-0.6123,7.125-1.4619l11.7168-26.1211
			C491.9058,530.7461,484.644,525.3223,476.0054,525.3223z M191.6279,586.2529c0-11.2236-9.0976-20.3047-20.313-20.3047
			c-9.77,0-17.584,7.0401-19.497,16.2403l9.625,21.4443c2.9423,1.7002,6.2241,2.9248,9.872,2.9248
			C182.5303,606.5576,191.6279,597.459,191.6279,586.2529z M232.2549,626.8789c-11.2154,0-20.3135,9.082-20.3135,20.3047
			c0,11.207,9.0981,20.3047,20.3135,20.3047c11.1977,0,20.313-9.0977,20.313-20.3047
			C252.5679,635.9609,243.4526,626.8789,232.2549,626.8789z M293.186,565.9482c-11.1982,0-20.3135,9.0811-20.3135,20.3047
			c0,11.2061,9.1153,20.3047,20.3135,20.3047c11.2154,0,20.313-9.0986,20.313-20.3047
			C313.499,575.0293,304.4014,565.9482,293.186,565.9482z M415.0581,565.9482c-11.1914,0-20.3047,9.0811-20.3047,20.3047
			c0,11.2061,9.1133,20.3047,20.3047,20.3047c11.2227,0,20.3047-9.0986,20.3047-20.3047
			C435.3628,575.0293,426.2808,565.9482,415.0581,565.9482z M354.1265,626.8789c-11.2071,0-20.3223,9.082-20.3223,20.3047
			c0,11.207,9.1152,20.3047,20.3223,20.3047c11.207,0,20.3203-9.0977,20.3203-20.3047
			C374.4468,635.9609,365.3335,626.8789,354.1265,626.8789z M252.5679,769.0635c0-11.2412-9.1153-20.3213-20.313-20.3213
			c-1.8623,0-3.5713,0.5947-5.2803,1.0713l16.104,35.9834C248.6567,782.1582,252.5679,776.1719,252.5679,769.0635z M293.186,687.793
			c-11.1982,0-20.3135,9.0986-20.3135,20.3221c0,11.2246,9.1153,20.3223,20.3135,20.3223c11.2154,0,20.313-9.0977,20.313-20.3223
			C313.499,696.8916,304.4014,687.793,293.186,687.793z M394.7534,708.1152c0,9.4385,6.5625,17.0401,15.3379,19.3018
			l16.0879-35.8486c-3.2656-2.1934-6.9395-3.7754-11.1211-3.7754C403.8667,687.793,394.7534,696.8916,394.7534,708.1152z
			 M293.186,809.6904c-11.1982,0-20.3135,9.0811-20.3135,20.3213c0,11.1729,9.1153,20.2881,20.3135,20.2881
			c11.2154,0,20.313-9.1152,20.313-20.2881C313.499,818.7715,304.4014,809.6904,293.186,809.6904z M354.1265,748.7422
			c-11.2071,0-20.3223,9.0801-20.3223,20.3213c0,11.1904,9.1152,20.3047,20.3223,20.3047c11.207,0,20.3203-9.1143,20.3203-20.3047
			C374.4468,757.8223,365.3335,748.7422,354.1265,748.7422z M333.8042,890.9258c0,1.5996,0.5605,3.0615,0.918,4.5752l9.9824-22.2608
			C338.31,876.6582,333.8042,883.1719,333.8042,890.9258z M299.937,912.5918l11.9722,26.7324
			c1.0117-2.3974,1.5898-5.0166,1.5898-7.7715C313.499,922.7266,307.7851,915.3975,299.937,912.5918z"/>
	</g>
	<g>
		<g>
			<path fill="#37474F" d="M446.7729,224.8999c-1.6504,0-3.3164-0.2212-4.9824-0.7144
				c-9.2519-2.7377-14.5566-12.4653-11.8203-21.7504c3.5215-11.9209,5.2891-24.3521,5.2891-36.919
				c0-71.9682-58.5157-130.5015-130.4502-130.5015c-71.9595,0-130.501,58.5333-130.501,130.5015
				c0,9.6079,1.0454,19.2163,3.1372,28.5352c2.1001,9.4384-3.8433,18.7915-13.2812,20.8999
				c-9.3956,2.143-18.7828-3.8091-20.9087-13.2642c-2.6275-11.8188-3.9707-23.9951-3.9707-36.1709
				C139.2847,74.2466,213.54,0,304.8091,0c91.2529,0,165.4834,74.2466,165.4834,165.5161c0,15.9341-2.2793,31.6812-6.7344,46.8335
				C461.312,219.9683,454.3237,224.8999,446.7729,224.8999L446.7729,224.8999z"/>
		</g>
		<g>
			<path fill="#37474F" d="M461.4819,522.5156c-91.2519,0-165.4902-74.2466-165.4902-165.499
				c0-16.8696,2.5254-33.5352,7.5254-49.5376l3.4433-11.0024l11.4532-1.1905c51.7832-5.4248,95.3007-41.0005,110.8945-90.6914
				l3.418-10.9175l11.4101-1.2412c5.6973-0.6123,11.4785-0.9184,17.3457-0.9184c91.2539,0,165.5176,74.2466,165.5176,165.499
				S552.7358,522.5156,461.4819,522.5156L461.4819,522.5156z M334.144,328.396c-2.0742,9.3701-3.1289,18.9443-3.1289,28.6206
				c0,71.9341,58.5332,130.4673,130.4668,130.4673c71.9512,0,130.502-58.5332,130.502-130.4673
				c0-72.9033-60.5742-131.8618-133.3418-130.4336C437.5718,279.7769,390.4663,318.2949,334.144,328.396L334.144,328.396z"/>
		</g>
		<g>
			<path fill="#37474F" d="M165.5161,522.5156C74.2549,522.5156,0,448.269,0,357.0166c0-89.8921,73.1836-164.0874,163.1265-165.397
				l13.1201-0.187l3.8603,12.5503c16.9458,55.0132,67.0615,91.9834,124.7022,91.9834l15.0342-0.102l3.8339,12.312
				c4.8633,15.6792,7.3379,32.124,7.3379,48.8403C331.0151,448.269,256.7681,522.5156,165.5161,522.5156L165.5161,522.5156z
				 M151.2822,227.4165c-65.1489,7.1592-116.2593,62.8867-116.2593,129.6001c0,71.9341,58.542,130.4673,130.4932,130.4673
				c71.9424,0,130.4756-58.5332,130.4756-130.4673c0-8.9619-0.9014-17.8047-2.6699-26.4268
				C229.7207,326.2876,174.9028,286.375,151.2822,227.4165L151.2822,227.4165z"/>
		</g>
		<g>
			<path fill="#37474F" d="M313.5078,1010c-6.6836,0-13.0688-3.8437-15.9854-10.3398L71.1684,494.7622
				c-3.9624-8.8257-0.0083-19.1992,8.8091-23.1445c8.8003-3.9624,19.1909-0.0342,23.1446,8.8091l226.354,504.8974
				c3.9531,8.8262,0.0078,19.1826-8.8086,23.1446C318.3374,1009.5068,315.9058,1010,313.5078,1010L313.5078,1010z"/>
		</g>
		<g>
			<path fill="#37474F" d="M313.4907,1010c-2.3979,0-4.8296-0.4932-7.1597-1.5312c-8.8173-3.962-12.771-14.3184-8.8086-23.1446
				l226.3541-504.8974c3.9628-8.8262,14.3359-12.7373,23.1445-8.8091c8.8086,3.9453,12.7715,14.3188,8.8086,23.1445
				l-226.3535,504.898C326.56,1006.1563,320.1733,1010,313.4907,1010L313.4907,1010z"/>
		</g>
	</g>
</g>
</svg>
