<?xml version="1.0" encoding="utf-8"?>
<!-- Generator: Adobe Illustrator 17.1.0, SVG Export Plug-In . SVG Version: 6.00 Build 0)  -->
<!DOCTYPE svg PUBLIC "-//W3C//DTD SVG 1.1//EN" "http://www.w3.org/Graphics/SVG/1.1/DTD/svg11.dtd">
<svg version="1.1" id="juicy-ice-cream" xmlns="http://www.w3.org/2000/svg" xmlns:xlink="http://www.w3.org/1999/xlink" x="0px"
	 y="0px" viewBox="0 0 550.5073 1010" enable-background="new 0 0 550.5073 1010" xml:space="preserve">
<g id="juicy-ice-cream-juicy-ice-cream">
	<g>
		<path fill="#907973" d="M338.4292,770.0498l0.2558,164.0879c-2.2285,19.9814-14.5058,38.8232-32.7871,49.2314
			c-22.3115,12.7881-53.2959,12.1416-75.5732-0.3066c-18.6045-10.5771-30.6275-29.2324-32.7188-49.3672V769.9648"/>
		<path fill="#37474F" d="M268.7744,1010c-16.2915,0-32.7358-3.9453-46.8677-11.8535
			c-23.3315-13.2813-38.7729-36.6807-41.4936-62.666c-0.0513-0.5782-0.085-1.1895-0.085-1.7852V769.9648
			c0-9.54,7.7202-17.2607,17.2778-17.2607c9.5401,0,17.2608,7.7207,17.2608,17.2607v162.7784
			c1.7851,14.5908,10.6963,27.7529,24.0117,35.3213c17.2437,9.6582,41.8682,9.8115,58.4492,0.3222
			c13.0254-7.4316,22.1748-20.8652,24.0791-35.2695l-0.2373-163.0332c-0.0176-9.54,7.7031-17.2773,17.2266-17.2949
			c0.0166,0,0.0332,0,0.0332,0c9.5234,0,17.2441,7.7031,17.2617,17.2266l0.2539,164.0879c0,0.6631-0.0332,1.3096-0.1016,1.9385
			c-2.8574,25.543-18.7226,49.4189-41.3916,62.3262C300.9155,1006.1055,284.9126,1010,268.7744,1010L268.7744,1010z"/>
	</g>
	<g>
		<path fill="#FFCA72" d="M532.396,160.8564c2.1933-36.7495-18.9102-66.9174-49.1289-88.1064
			c-26.2735-18.7061-55.5235-30.3379-85.7774-39.4702C300.4389,6.751,183.3721,12.1929,95.0615,56.8159
			C56.2207,76.0151,18.6889,114.312,17.2778,159.5127l0.6289,599.2803l515.0341,0.084l0.2891-7.7031L532.396,160.8564z"/>
		<path fill="#37474F" d="M532.9409,776.1377L532.9409,776.1377l-515.0341-0.085c-9.5229,0-17.2431-7.7207-17.2607-17.2441
			L0,159.5298c1.7514-56.3565,48.1938-98.8027,87.4092-118.2061C140.9087,14.3018,205.9726,0,275.4746,0
			c42.9731,0,86.7456,5.7476,126.5561,16.6143c38.7735,11.7002,66.7637,24.6245,91.252,42.0888
			c38.6367,27.0904,58.7041,63.7544,56.3398,103.1905l0.8848,589.2626l-0.3232,8.3848
			C549.8276,768.8086,542.2085,776.1377,532.9409,776.1377L532.9409,776.1377z M35.1509,741.5146l480.8174,0.085l-0.833-580.7261
			c2.0918-35.6611-21.5634-59.809-41.7822-73.9746c-21.3935-15.2544-46.29-26.665-80.8623-37.1064
			c-36.4434-9.9483-77.0527-15.271-117.0161-15.271c-64.1113,0-123.8013,13.0264-172.6245,37.7012
			c-33.2119,16.4106-67.1382,49.895-68.3115,87.8344L35.1509,741.5146L35.1509,741.5146z"/>
	</g>
	<g>
		<path fill="#37474F" d="M180.8721,689.375c-9.5401,0-17.2608-7.7207-17.2608-17.2607V192.2827
			c0-9.54,7.7207-17.2607,17.2608-17.2607c9.54,0,17.2607,7.7207,17.2607,17.2607v479.8316
			C198.1328,681.6543,190.4121,689.375,180.8721,689.375L180.8721,689.375z"/>
	</g>
	<g>
		<path fill="#37474F" d="M369.6518,689.375c-9.54,0-17.2607-7.7207-17.2607-17.2607V192.2827
			c0-9.54,7.7207-17.2607,17.2607-17.2607c9.5411,0,17.2608,7.7207,17.2608,17.2607v479.8316
			C386.9126,681.6543,379.1929,689.375,369.6518,689.375L369.6518,689.375z"/>
	</g>
</g>
</svg>
