<?xml version="1.0" encoding="utf-8"?>
<!-- Generator: Adobe Illustrator 17.1.0, SVG Export Plug-In . SVG Version: 6.00 Build 0)  -->
<!DOCTYPE svg PUBLIC "-//W3C//DTD SVG 1.1//EN" "http://www.w3.org/Graphics/SVG/1.1/DTD/svg11.dtd">
<svg version="1.1" id="palm-tree" xmlns="http://www.w3.org/2000/svg" xmlns:xlink="http://www.w3.org/1999/xlink" x="0px" y="0px"
	 viewBox="0 0 870.6904 1010" enable-background="new 0 0 870.6904 1010" xml:space="preserve">
<g id="palm-tree-palm-tree">
	<path fill="#A6DDDD" d="M870.6904,505.0337c0,240.3921-194.9199,435.311-435.3457,435.311C194.9531,940.3447,0,745.4258,0,505.0337
		c0-240.46,194.9531-435.3789,435.3447-435.3789C675.7705,69.6548,870.6904,264.5737,870.6904,505.0337z"/>
	<g>
		<path fill="#907973" d="M91.3545,992.5859c0,0-9.4893-329.0594,335.7597-538.688c0,0-254.8808,337.8169-180.498,538.688H91.3545z"
			/>
		<g>
			<path fill="#37474F" d="M246.6162,1010H91.3545c-9.4209,0-17.1333-7.4824-17.4053-16.9043
				c-0.1021-3.4004-5.7393-341.6426,344.1265-554.0776c7.1254-4.3199,16.351-2.9932,21.9545,3.1967
				c5.6036,6.2071,6.0118,15.5093,0.9864,22.1753c-2.4922,3.2994-248.2827,332.5454-178.0664,522.1587
				c1.9726,5.3398,1.2158,11.3086-2.041,15.9854C257.6528,1007.2109,252.313,1010,246.6162,1010L246.6162,1010z M109.2954,975.1719
				h113.7934C186.5859,827.75,292.0044,629.2432,360.2651,521.1387C141.9038,692.0957,113.0195,912.9824,109.2954,975.1719
				L109.2954,975.1719z"/>
		</g>
		<path fill="#FFCA72" d="M581.5937,300.7451c-112.4072,82.8003-178.3554,175.209-178.3554,175.209
			s6.7343-172.5732,115.5703-249.2178c102.1357-71.9848,195.7685-71.2368,195.7685-71.2368S694.0351,217.8765,581.5937,300.7451z"/>
		<g>
			<path fill="#37474F" d="M403.2383,493.3682c-1.8794,0-3.7837-0.3062-5.6377-0.9356
				c-7.2784-2.4829-12.0655-9.4551-11.7593-17.1587c0.289-7.3974,8.3838-182.0967,122.9341-262.7715
				c104.3808-73.5664,201.6025-74.4165,205.6826-74.4165c5.5957,0,10.9013,2.6866,14.166,7.2105
				c3.2832,4.5234,4.252,10.3564,2.4834,15.6621c-0.9014,2.7549-23.6045,68.6177-139.1747,153.8159
				c-108.9209,80.2158-173.874,170.397-174.52,171.2984C414.0791,490.749,408.748,493.3682,403.2383,493.3682L403.2383,493.3682z
				 M683.6953,175.9575c-34.1475,5.544-92.5957,21.1377-154.8535,65.0127c-61.5088,43.313-88.2422,121.4204-99.7295,175.8042
				c31.0605-34.9805,79.3574-83.7866,142.1416-130.042C634.4472,240.1538,667.4043,200.4287,683.6953,175.9575L683.6953,175.9575z"
				/>
		</g>
		<path fill="#FFCA72" d="M638.3926,499.2861c-134.4463-37.8037-229.4747-28.2807-229.4747-28.2807
			s184.6143-127.6953,301.5108-64.0772c171.4844,93.3101,117.2031,200.6157,117.2031,200.6157S772.7705,537.1406,638.3926,499.2861z
			"/>
		<g>
			<path fill="#37474F" d="M827.6318,624.957c-5.3232,0-10.3906-2.4316-13.707-6.666
				c-0.9356-1.1728-54.3164-66.7637-180.2598-102.2373c-88.8037-24.9643-160.1933-28.7056-194.8418-28.7056
				c-17.9419,0-28.0854,0.9864-28.1875,0.9864c-7.8398,0.7822-15.3222-3.8775-18.06-11.3262
				c-2.7295-7.4482-0.085-15.8149,6.4365-20.3213c5.0166-3.4692,124.0825-84.9263,235.4009-84.9263
				c31.7324,0,60.0976,6.6831,84.3476,19.8794c184.1885,100.2315,125.0254,222.5533,124.4141,223.7603
				c-2.6875,5.3223-7.9248,8.9111-13.8594,9.4726C828.7539,624.9414,828.1924,624.957,827.6318,624.957L827.6318,624.957z
				 M473.3525,453.5576c40.8135,2.3467,100.2822,9.4385,169.75,28.961c90.7256,25.5595,146.709,65.4541,175.1582,90.7587
				c2.416-33.6367-11.2402-93.9731-116.165-151.0439c-19.0811-10.3906-41.834-15.6455-67.6826-15.6455
				C577.3427,406.5879,515.9687,431.6885,473.3525,453.5576L473.3525,453.5576z"/>
		</g>
		<path fill="#FFCA72" d="M633.4609,376.0288c-135.8408,32.2427-232.7397,100.4014-232.7397,100.4014
			s117.8149-214.9683,250.9692-216.1416C846.8476,258.5537,851.542,378.75,851.542,378.75S769.3701,343.8203,633.4609,376.0288z"/>
		<g>
			<path fill="#37474F" d="M400.7212,493.8442c-4.1661,0-8.3243-1.4965-11.606-4.4213c-6.0371-5.4083-7.5591-14.251-3.665-21.3594
				c5.0083-9.1489,124.3457-223.9302,266.0879-225.189l4.3193-0.0171c205.4453,0,213.0303,133.8687,213.0811,135.2124
				c0.2382,5.9688-2.6016,11.6319-7.5,15.0156c-4.9141,3.3843-11.2237,4.0303-16.6993,1.7007
				c-0.3066-0.1362-36.6982-14.9819-99.5507-14.9819c-34.5899,0-70.8292,4.4385-107.7149,13.1792
				c-131.0625,31.1035-225.792,97.0347-226.7358,97.6978C407.7192,492.8066,404.2158,493.8442,400.7212,493.8442L400.7212,493.8442z
				 M655.8574,277.6851l-4.0137,0.017c-78.2763,0.6973-153.2373,85.8277-196.9082,146.7081
				c42.2764-21.8697,102.918-48.3301,174.5117-65.3189c39.5215-9.3701,78.4473-14.1147,115.7413-14.1147
				c34.7597,0,62.3417,4.1323,81.5585,8.4179C812.7343,323.2095,772.2949,277.6851,655.8574,277.6851L655.8574,277.6851z"/>
		</g>
		<path fill="#FFCA72" d="M267.0908,257.3804c91.2524,105.7241,138.562,216.0908,138.562,216.0908s21.7334-241.582-85.4702-320.5225
			C162.9824,37.208,88.8037,131.8618,88.8037,131.8618S175.8388,151.6562,267.0908,257.3804z"/>
		<g>
			<path fill="#37474F" d="M405.6445,490.8853c-6.8701,0-13.2134-4.0816-15.9936-10.5435
				c-0.4678-1.0884-47.4629-109.2954-135.7393-211.5845C168.0586,169.291,85.7002,149.0205,84.8838,148.8335
				c-5.7906-1.3604-10.5098-5.5781-12.4825-11.1899c-1.9638-5.6119-0.9687-11.836,2.6954-16.5123
				c1.3779-1.7685,34.5644-43.1264,101.5244-43.1264c47.1987,0,98.9726,20.4917,153.8838,60.9311
				c113.7929,83.7871,93.4121,325.8286,92.4936,336.0996c-0.7139,7.9419-6.7339,14.3873-14.6074,15.6285
				C407.4726,490.8169,406.5542,490.8853,405.6445,490.8853L405.6445,490.8853z M123.9199,125.8589
				c34.9893,15.0669,94.8154,48.8569,156.3506,120.145c49.3672,57.207,85.9126,115.23,109.4736,157.438
				c-1.896-74.5015-15.8237-189.29-79.8838-236.4634c-48.8066-35.9331-93.6333-54.146-133.2392-54.146
				C153.5869,112.8325,136.1133,119.0732,123.9199,125.8589L123.9199,125.8589z"/>
		</g>
		<path fill="#FFCA72" d="M387.0488,219.3047c28.4673,136.7256,16.8018,254.5239,16.8018,254.5239
			s135.7382-198.9663,80.3339-320.0635C403-23.7402,292.1572,22.9575,292.1572,22.9575S358.6494,82.5454,387.0488,219.3047z"/>
		<g>
			<path fill="#37474F" d="M403.8506,491.2422c-1.9898,0-3.9966-0.3399-5.9439-1.0371
				c-7.4736-2.7212-12.1675-10.1695-11.3852-18.0772c0.1108-1.1562,11.02-116.9819-16.521-249.269
				C343.2763,94.1772,281.1123,36.46,280.4912,35.8818c-4.396-3.9965-6.479-9.9824-5.4756-15.8325
				c1.0034-5.8667,4.9062-10.8325,10.3818-13.1284C287.0727,6.207,302.4883,0,325.9218,0
				c39.9888,0,115.792,19.0293,174.0958,146.5205c58.8222,128.563-76.0157,328.6685-81.7803,337.1201
				C414.9209,488.5044,409.4795,491.2422,403.8506,491.2422L403.8506,491.2422z M325.8286,34.8276
				c23.2807,30.1851,59.1284,88.7696,78.2685,180.94c15.3902,73.9238,19.3267,141.895,19.5904,189.7832
				c34.3603-65.5401,77.8095-172.0972,44.665-244.5415C418.1352,51.2207,357.561,34.8276,325.9218,34.8276
				C325.8882,34.8276,325.8623,34.8276,325.8286,34.8276L325.8286,34.8276z"/>
		</g>
	</g>
	<g>
		<g>
			<path fill="#37474F" d="M290.5927,656.0439h-11.4619c-7.2104,0-13.06-5.8496-13.06-13.0595c0-7.211,5.8496-13.0605,13.06-13.0605
				h11.4619c7.2105,0,13.0601,5.8495,13.0601,13.0605C303.6528,650.1943,297.8032,656.0439,290.5927,656.0439L290.5927,656.0439z
				 M244.3032,656.0439h-17.4136c-7.2104,0-13.0605-5.8496-13.0605-13.0595c0-7.211,5.8501-13.0605,13.0605-13.0605h17.4136
				c7.2104,0,13.0605,5.8495,13.0605,13.0605C257.3637,650.1943,251.5136,656.0439,244.3032,656.0439L244.3032,656.0439z"/>
		</g>
		<g>
			<path fill="#37474F" d="M325.4204,603.8027h-11.4619c-7.2105,0-13.0606-5.8495-13.0606-13.0605
				c0-7.211,5.8501-13.0606,13.0606-13.0606h11.4619c7.2104,0,13.06,5.8496,13.06,13.0606
				C338.4804,597.9531,332.6308,603.8027,325.4204,603.8027L325.4204,603.8027z M279.1308,603.8027h-17.4135
				c-7.2105,0-13.0606-5.8495-13.0606-13.0605c0-7.211,5.8501-13.0606,13.0606-13.0606h17.4135
				c7.2105,0,13.0606,5.8496,13.0606,13.0606C292.1914,597.9531,286.3413,603.8027,279.1308,603.8027L279.1308,603.8027z"/>
		</g>
		<g>
			<path fill="#37474F" d="M255.7651,708.2852h-11.4619c-7.2105,0-13.0601-5.8497-13.0601-13.0606
				c0-7.21,5.8496-13.0605,13.0601-13.0605h11.4619c7.2105,0,13.0606,5.8505,13.0606,13.0605
				C268.8257,702.4355,262.9756,708.2852,255.7651,708.2852L255.7651,708.2852z M209.4756,708.2852H192.062
				c-7.2105,0-13.0606-5.8497-13.0606-13.0606c0-7.21,5.8501-13.0605,13.0606-13.0605h17.4136
				c7.2104,0,13.0605,5.8505,13.0605,13.0605C222.5361,702.4355,216.686,708.2852,209.4756,708.2852L209.4756,708.2852z"/>
		</g>
		<g>
			<path fill="#37474F" d="M220.9375,760.5273h-11.4619c-7.2105,0-13.0601-5.8506-13.0601-13.0605
				c0-7.2109,5.8496-13.0606,13.0601-13.0606h11.4619c7.2104,0,13.0605,5.8497,13.0605,13.0606
				C233.998,754.6768,228.1479,760.5273,220.9375,760.5273L220.9375,760.5273z M174.6484,760.5273h-17.4141
				c-7.2104,0-13.0605-5.8506-13.0605-13.0605c0-7.2109,5.8501-13.0606,13.0605-13.0606h17.4141
				c7.21,0,13.0601,5.8497,13.0601,13.0606C187.7085,754.6768,181.8584,760.5273,174.6484,760.5273L174.6484,760.5273z"/>
		</g>
		<g>
			<path fill="#37474F" d="M220.9375,812.7686h-11.4619c-7.2105,0-13.0601-5.8506-13.0601-13.0606s5.8496-13.0605,13.0601-13.0605
				h11.4619c7.2104,0,13.0605,5.8505,13.0605,13.0605S228.1479,812.7686,220.9375,812.7686L220.9375,812.7686z M174.6484,812.7686
				h-17.4141c-7.2104,0-13.0605-5.8506-13.0605-13.0606s5.8501-13.0605,13.0605-13.0605h17.4141
				c7.21,0,13.0601,5.8505,13.0601,13.0605S181.8584,812.7686,174.6484,812.7686L174.6484,812.7686z"/>
		</g>
		<g>
			<path fill="#37474F" d="M209.4756,865.0098H192.062c-7.2105,0-13.0606-5.8496-13.0606-13.0606
				c0-7.2109,5.8501-13.0605,13.0606-13.0605h17.4136c7.2104,0,13.0605,5.8496,13.0605,13.0605
				C222.5361,859.1602,216.686,865.0098,209.4756,865.0098L209.4756,865.0098z M157.2343,865.0098h-17.414
				c-7.21,0-13.0601-5.8496-13.0601-13.0606c0-7.2109,5.8501-13.0605,13.0601-13.0605h17.414
				c7.2105,0,13.0606,5.8496,13.0606,13.0605C170.2949,859.1602,164.4448,865.0098,157.2343,865.0098L157.2343,865.0098z"/>
		</g>
		<g>
			<path fill="#37474F" d="M192.062,917.251h-17.4136c-7.2109,0-13.0605-5.8495-13.0605-13.0605
				c0-7.2099,5.8496-13.0595,13.0605-13.0595h17.4136c7.2104,0,13.06,5.8496,13.06,13.0595
				C205.122,911.4014,199.2724,917.251,192.062,917.251L192.062,917.251z M139.8203,917.251h-17.4136
				c-7.2104,0-13.06-5.8495-13.06-13.0605c0-7.2099,5.8496-13.0595,13.06-13.0595h17.4136c7.2109,0,13.0605,5.8496,13.0605,13.0595
				C152.8808,911.4014,147.0312,917.251,139.8203,917.251L139.8203,917.251z"/>
		</g>
		<g>
			<path fill="#37474F" d="M192.062,969.4922h-17.4136c-7.2109,0-13.0605-5.8496-13.0605-13.0606
				c0-7.2099,5.8496-13.0605,13.0605-13.0605h17.4136c7.2104,0,13.06,5.8506,13.06,13.0605
				C205.122,963.6426,199.2724,969.4922,192.062,969.4922L192.062,969.4922z M139.8203,969.4922h-17.4136
				c-7.2104,0-13.06-5.8496-13.06-13.0606c0-7.2099,5.8496-13.0605,13.06-13.0605h17.4136c7.2109,0,13.0605,5.8506,13.0605,13.0605
				C152.8808,963.6426,147.0312,969.4922,139.8203,969.4922L139.8203,969.4922z"/>
		</g>
	</g>
</g>
</svg>
