<?xml version="1.0" encoding="utf-8"?>
<!-- Generator: Adobe Illustrator 17.1.0, SVG Export Plug-In . SVG Version: 6.00 Build 0)  -->
<!DOCTYPE svg PUBLIC "-//W3C//DTD SVG 1.1//EN" "http://www.w3.org/Graphics/SVG/1.1/DTD/svg11.dtd">
<svg version="1.1" id="plane-window" xmlns="http://www.w3.org/2000/svg" xmlns:xlink="http://www.w3.org/1999/xlink" x="0px"
	 y="0px" viewBox="0 0 841.667 1010" enable-background="new 0 0 841.667 1010" xml:space="preserve">
<g id="plane-window-plane-window">
	<g>
		<path fill="#A6DDDD" d="M420.833,993.167L420.833,993.167c222.1875,0,404-181.7969,404-404.001V420.8335
			c0-222.2036-181.8125-404-404-404c-222.2197,0-404,181.7964-404,404V589.166C16.833,811.3701,198.6133,993.167,420.833,993.167z"
			/>
		<path fill="#FFCA72" d="M770.2236,218.8335H71.4424c70.1279-120.4966,200.6523-202,349.3906-202
			C569.5381,16.8335,700.0947,98.3369,770.2236,218.8335z"/>
		<path fill="#FFFFFD" d="M151.5,639.667c46.291,0,84.166,37.875,84.166,84.166c0,0.2959-0.0986,0.5596-0.0986,0.8389
			c0.0332,0.0166,0.0664,0.0166,0.0986,0.0166c2.7949-0.3125,5.5234-0.8555,8.417-0.8555c41.6563,0,75.75,34.0947,75.75,75.75
			c0,41.6563-34.0937,75.75-75.75,75.75c-2.8936,0-5.6221-0.542-8.417-0.8545c-2.7939,0.3125-5.5557,0.8545-8.416,0.8545h-90.874
			c-38.4668-38.2695-69.2735-84.1992-90.0186-135.2256c6.4434-4.9638,13.6113-9.0078,21.4356-11.7373
			c-0.0987-1.5449-0.46-2.9912-0.46-4.5371C67.333,677.542,105.208,639.667,151.5,639.667z"/>
		<g>
			<path fill="#FFFFFF" d="M118.1289,381.7827c-0.0654-1.0273-0.2959-1.9888-0.2959-3.0327c0-27.8721,22.6201-50.5,50.5-50.5
				s50.5,22.6279,50.5,50.5h16.833c27.7822,0,50.5,22.7266,50.5,50.5c0,27.7734-22.7178,50.5-50.5,50.5h-101
				c-27.7812,0-50.5-22.7266-50.5-50.5C84.166,407.3042,98.4678,388.7036,118.1289,381.7827z"/>
			<path fill="#37474F" d="M235.666,492.375h-101c-34.8086,0-63.125-28.3159-63.125-63.125
				c0-23.4912,13.291-44.8452,33.8726-55.6616c2.6381-32.4009,29.853-57.9634,62.9194-57.9634
				c30.4858,0,55.9902,21.7236,61.8594,50.5h5.4736c34.8096,0,63.125,28.3159,63.125,63.125S270.4756,492.375,235.666,492.375
				L235.666,492.375z M168.333,340.875c-20.8857,0-37.875,16.9893-37.875,37.875c0.041,0.2876,0.2549,1.9316,0.2715,2.2275
				c0.3613,5.6382-3.0742,10.833-8.4087,12.7154c-15.272,5.3755-25.5298,19.6606-25.5298,35.5571
				c0,20.8857,16.9898,37.875,37.875,37.875h101c20.8858,0,37.875-16.9893,37.875-37.875c0-20.8853-16.9892-37.875-37.875-37.875
				h-16.833c-6.9697,0-12.625-5.6548-12.625-12.625C206.208,357.8643,189.2187,340.875,168.333,340.875L168.333,340.875z"/>
		</g>
		<polyline fill="#FFFFFD" points="705.6846,874.9385 387.1665,521.834 387.1665,404 403.9995,404 437.667,471.3335 
			823.7158,617.7705 823.7158,617.7871 		"/>
		<path fill="#FFFFFD" d="M823.7158,617.7871c-0.5273,7.2656-1.25,14.4824-2.1377,21.6494
			c-0.0986,0.625-0.1972,1.2822-0.2627,1.9395c-0.6913,5.2939-1.5127,10.5215-2.3672,15.7646
			c-14.4336,84.2168-55.0703,159.7852-113.2636,217.7979"/>
		<path fill="#907973" d="M496.7803,643.3486L614.9424,774.333h-97.252c-37.0195,0-67.334-30.3125-67.334-67.333
			C450.3564,677.3115,469.9853,652.2422,496.7803,643.3486z"/>
	</g>
	<g>
		<g>
			<path fill="#37474F" d="M420.833,1010C188.7832,1010,0,821.2168,0,589.166V420.8335C0,188.7832,188.7832,0,420.833,0
				c232.0508,0,420.834,188.7832,420.834,420.8335V589.166C841.667,821.2168,652.8838,1010,420.833,1010L420.833,1010z
				 M420.833,33.6665c-213.4824,0-387.167,173.6841-387.167,387.167V589.166c0,213.4746,173.6846,387.167,387.167,387.167
				c213.4746,0,387.166-173.6924,387.166-387.167V420.8335C807.999,207.3506,634.3076,33.6665,420.833,33.6665L420.833,33.6665z"/>
		</g>
		<g>
			<polygon fill="#37474F" points="770.2236,235.6665 71.4424,235.6665 71.4424,202 770.2236,202 770.2236,235.6665 			"/>
		</g>
		<g>
			<path fill="#37474F" d="M244.083,892.167c-2.811,0-5.5234-0.3291-8.2197-0.6904l-0.1973-0.0332l-0.2051,0.0332
				c-2.7124,0.3613-5.4248,0.6904-8.2109,0.6904h-90.874c-4.4468,0-8.7207-1.7588-11.8692-4.8994
				c-40.6611-40.4395-72.1992-87.8155-93.7422-140.8145c-2.8515-7.0029-0.6738-15.0576,5.3184-19.6777
				c4.6685-3.5996,9.5591-6.7227,14.6143-9.3203C54.001,664.7197,97.9502,622.833,151.5,622.833
				c50.0478,0,91.7119,36.5928,99.6435,84.4297c47.7627,3.6172,85.523,43.6455,85.523,92.3203
				C336.6665,850.6426,295.1338,892.167,244.083,892.167L244.083,892.167z M235.666,857.6455c0.625,0,1.25,0.0322,1.8662,0.0986
				l2.9014,0.378c1.2002,0.164,2.4004,0.3779,3.6494,0.3779c32.4834,0,58.917-26.4336,58.917-58.917
				c0-32.4824-26.4336-58.916-58.917-58.916c-1.249,0-2.4492,0.2139-3.6494,0.3779l-2.9014,0.378
				c-3.1972,0.3945-6.6167-0.2627-9.5263-1.71c-5.6797-2.8604-9.2715-8.6797-9.2715-15.041c0-0.5098,0.0332-1.1182,0.0903-1.7266
				C218.3564,686.2217,188.331,656.5,151.5,656.5c-37.1274,0-67.334,30.2148-67.334,67.333
				c0.2222,1.3154,0.3535,2.3838,0.4277,3.4688c0.4766,7.5459-4.1259,14.4824-11.2607,16.9648
				c-1.9727,0.6904-3.9287,1.4961-5.8521,2.4326c18.6167,41.4922,44.0972,79.0215,75.9224,111.8008H227.25
				c1.2407,0,2.4409-0.2139,3.6494-0.3779l2.9014-0.378C234.417,857.6777,235.042,857.6455,235.666,857.6455L235.666,857.6455z"/>
		</g>
		<g>
			<path fill="#37474F" d="M235.666,496.5835h-101c-37.1269,0-67.333-30.2065-67.333-67.3335
				c0-24.2881,13.3154-46.4395,34.1104-58.2837c3.8715-33.4775,32.3925-59.5498,66.8896-59.5498
				c31.3159,0,57.7085,21.4937,65.2046,50.5h2.1284c37.1274,0,67.334,30.2065,67.334,67.3335S272.7934,496.5835,235.666,496.5835
				L235.666,496.5835z M168.333,345.0835c-18.5674,0-33.667,15.0986-33.667,33.6665l0.2637,1.9561l0.8135,12.7236l-12.0254,4.2329
				C110.1313,402.4463,101,415.1372,101,429.25c0,18.5679,15.0986,33.6665,33.666,33.6665h101
				c18.5679,0,33.667-15.0986,33.667-33.6665c0-18.5674-15.0991-33.6665-33.667-33.6665H202V378.75
				C202,360.1821,186.9004,345.0835,168.333,345.0835L168.333,345.0835z"/>
		</g>
		<g>
			<polygon fill="#37474F" points="693.1904,886.2158 370.333,528.3105 370.333,387.1665 414.4053,387.1665 449.7822,457.9277 
				829.6826,602.0215 817.748,633.5186 425.5508,484.7393 403.9995,441.6367 403.9995,515.3652 718.1787,863.6621 
				693.1904,886.2158 			"/>
		</g>
		<g>
			<path fill="#37474F" d="M652.8008,791.167H517.6904c-46.4062,0-84.166-37.7607-84.166-84.167
				c0-36.1328,23.293-68.1221,57.9629-79.6299l10.4219-3.4521L652.8008,791.167L652.8008,791.167z M492.4404,663.667
				c-15.4355,8.9101-25.25,25.2832-25.25,43.333c0,27.8477,22.6524,50.5,50.5,50.5h59.3936L492.4404,663.667L492.4404,663.667z"/>
		</g>
	</g>
</g>
</svg>
