<?xml version="1.0" encoding="utf-8"?>
<!-- Generator: Adobe Illustrator 17.1.0, SVG Export Plug-In . SVG Version: 6.00 Build 0)  -->
<!DOCTYPE svg PUBLIC "-//W3C//DTD SVG 1.1//EN" "http://www.w3.org/Graphics/SVG/1.1/DTD/svg11.dtd">
<svg version="1.1" id="sailboat" xmlns="http://www.w3.org/2000/svg" xmlns:xlink="http://www.w3.org/1999/xlink" x="0px" y="0px"
	 viewBox="0 0 930.0408 1009.9973" enable-background="new 0 0 930.0408 1009.9973" xml:space="preserve">
<g id="sailboat-sailboat">
	<g>
		<polygon fill="#A6DDDD" points="303.7715,313.8313 341.5478,264.3831 530.397,370.2981 530.397,437.8128 		"/>
		<polygon fill="#FFFFFD" points="341.5312,264.3674 530.397,16.8323 530.397,370.2981 		"/>
		<polygon fill="#FFCA72" points="185.2812,469.1116 303.8047,313.8313 530.397,437.7962 530.397,641.4729 		"/>
		<path fill="#A6DDDD" d="M667.0845,899.9231c-69.4043-7.2656-143.2969-27.2881-219.6543-59.5078l-1.6109-0.6582
			c-8.8442-3.6494-17.146-7.0684-25.8584-11.1123c-69.0263-31.4307-136.5405-47.376-200.5366-47.376
			c-8.4497,0-16.8501,0.2627-25.2007,0.8213c-1.1504,0.0654-2.2026,0.2305-3.2876,0.3623l-3.7807,0.4268l-11.4913,1.0849
			L95.9199,635.8508h717.1255L685.9575,880.887l2.1699,21.4033L667.0845,899.9231z"/>
		<path fill="#FFFFFD" d="M642.936,782.7151c-22.0273,0-39.9941-17.9512-39.9941-40.0127c0-22.0937,17.9668-40.0449,39.9941-40.0449
			c22.0625,0,40.0293,17.9512,40.0293,40.0449C682.9653,764.7639,664.9985,782.7151,642.936,782.7151L642.936,782.7151z"/>
	</g>
	<g>
		<g>
			<g>
				<path fill="#37474F" d="M725.1802,1009.9973c-76.211,0-170.7657-16.3066-284.1446-64.1445
					c-10.1264-4.1748-18.8882-7.791-28.0283-12c-75.8481-34.5215-149.1489-49.7109-217.6167-45.042
					c-78.5439,5.3262-135.0937,35.376-168.6777,59.6396c-7.5948,5.4581-18.083,3.7481-23.5244-3.7812
					c-5.4414-7.5615-3.7481-18.082,3.7812-23.5068c37.1846-26.8282,99.6353-60.0674,186.1524-65.9521
					c74.0898-4.998,152.8476,11.1122,233.9077,48.0332c8.7944,4.0449,17.1621,7.4961,25.6606,11.0146
					c238.0835,100.4404,385.7691,56.8125,452.7241,21.8965c8.2696-4.3399,18.4121-1.085,22.7188,7.1669
					c4.291,8.252,1.1015,18.4122-7.1504,22.7188C881.5942,986.5559,816.5962,1009.9973,725.1802,1009.9973L725.1802,1009.9973z"/>
			</g>
			<g>
				<path fill="#37474F" d="M725.1645,920.1106c-76.2285,0-170.7499-16.2754-284.1289-64.1445l-1.8247-0.7237
					c-8.7129-3.583-17.2939-7.1015-26.2202-11.2441c-75.7661-34.5205-148.8696-49.71-217.6001-45.1074
					c-78.5605,5.3584-135.0937,35.4414-168.6777,59.6728c-7.5948,5.4571-18.083,3.7481-23.5244-3.7812
					s-3.7481-18.0498,3.7812-23.5078c37.168-26.8282,99.6353-60.0664,186.1362-65.9844
					c74.1553-4.8662,152.9302,11.2109,233.9239,48.0996c8.5644,3.9453,16.7182,7.2988,24.9868,10.6855l1.956,0.8213
					c236.7681,99.9151,384.4537,56.2862,451.4419,21.4034c8.2696-4.3066,18.4453-1.1182,22.7188,7.1347
					c4.291,8.252,1.1015,18.4113-7.1504,22.7178C881.5942,896.6682,816.563,920.1106,725.1645,920.1106L725.1645,920.1106z"/>
			</g>
			<g>
				<path fill="#37474F" d="M668.4985,915.179c-2.7441,0-5.5234-0.6914-8.1035-2.1045c-8.1367-4.4717-11.1133-14.6963-6.625-22.8506
					l130.7695-237.5401H530.397c-9.3047,0-16.834-7.5283-16.834-16.833c0-9.3046,7.5293-16.833,16.834-16.833h282.6484
					c5.9512,0,11.457,3.1231,14.498,8.252c3.0254,5.1289,3.125,11.4746,0.2481,16.7021L683.2778,906.4661
					C680.2036,912.0227,674.4497,915.179,668.4985,915.179L668.4985,915.179z"/>
			</g>
			<g>
				<path fill="#37474F" d="M519.0708,652.6838c-2.5312,0-5.0957-0.5918-7.5137-1.7753L177.7519,484.1868
					c-4.4878-2.2364-7.7426-6.3623-8.8769-11.2774c-1.1177-4.8828-0.0166-10.0273,3.0249-14.0058L517.0161,6.6233
					c4.373-5.7695,11.9668-8.0215,18.7734-5.7529c6.8379,2.334,11.4413,8.7451,11.4413,15.9619v619.0185
					c0,9.3047-7.5293,16.833-16.8339,16.833c-1.9883,0-3.8965-0.3281-5.6543-0.9863
					C522.9341,652.3557,521.0102,652.6838,519.0708,652.6838L519.0708,652.6838z M211.0244,463.1448L513.563,614.2825V66.6575
					L211.0244,463.1448L211.0244,463.1448z"/>
			</g>
			<g>
				<path fill="#37474F" d="M175.664,800.7649c-6,0-11.8027-3.1895-14.8437-8.8437L81.0918,643.8069
					c-2.8106-5.1943-2.6792-11.5068,0.3784-16.6025c3.041-5.0967,8.5317-8.1866,14.4497-8.1866h510.3423
					c9.3203,0,16.8496,7.5284,16.8496,16.833c0,9.3047-7.5293,16.833-16.8496,16.833H124.0957l66.3799,123.2911
					c4.4057,8.1865,1.3315,18.3789-6.855,22.7841C181.0888,800.1399,178.3603,800.7649,175.664,800.7649L175.664,800.7649z"/>
			</g>
		</g>
		<g>
			<path fill="#37474F" d="M642.936,799.5481c-31.3476,0-56.8281-25.5127-56.8281-56.8457
				c0-31.3652,25.4805-56.8779,56.8281-56.8779c31.3653,0,56.8633,25.5127,56.8633,56.8779
				C699.7993,774.0354,674.3013,799.5481,642.936,799.5481L642.936,799.5481z M642.936,719.4915
				c-12.7558,0-23.1445,10.4218-23.1445,23.2109c0,12.7568,10.3887,23.1465,23.1445,23.1465
				c12.7735,0,23.1797-10.3896,23.1797-23.1465C666.1157,729.9133,655.7095,719.4915,642.936,719.4915L642.936,719.4915z"/>
		</g>
		<g>
			<path fill="#37474F" d="M530.3813,387.1321c-2.7949,0-5.6074-0.6904-8.2207-2.1533L344.3755,285.261
				c-8.104-4.5537-10.9976-14.8115-6.4439-22.916c4.5537-8.1211,14.7949-10.9971,22.9155-6.4444l177.7862,99.7012
				c8.1035,4.5703,10.9961,14.8281,6.4433,22.9326C541.9868,384.0413,536.2661,387.1321,530.3813,387.1321L530.3813,387.1321z"/>
		</g>
		<g>
			<path fill="#37474F" d="M530.3813,454.6292c-2.7304,0-5.5078-0.6573-8.0722-2.0713L307.8154,335.2014
				c-8.1533-4.4541-11.1455-14.6797-6.6738-22.8496c4.4551-8.1533,14.6797-11.1787,22.8662-6.6738l214.477,117.3564
				c8.1543,4.4551,11.1446,14.6797,6.6739,22.8496C542.1021,451.4729,536.3305,454.6292,530.3813,454.6292L530.3813,454.6292z"/>
		</g>
	</g>
</g>
</svg>
