<?xml version="1.0" encoding="utf-8"?>
<!-- Generator: Adobe Illustrator 17.1.0, SVG Export Plug-In . SVG Version: 6.00 Build 0)  -->
<!DOCTYPE svg PUBLIC "-//W3C//DTD SVG 1.1//EN" "http://www.w3.org/Graphics/SVG/1.1/DTD/svg11.dtd">
<svg version="1.1" id="scooter" xmlns="http://www.w3.org/2000/svg" xmlns:xlink="http://www.w3.org/1999/xlink" x="0px" y="0px"
	 viewBox="0 0 596.7968 1010" enable-background="new 0 0 596.7968 1010" xml:space="preserve">
<g id="scooter-scooter">
	<rect x="240.8515" y="223.9302" fill="#FFFFFD" width="115.0938" height="331.8315"/>
	<g>
		<path fill="#FFCA72" d="M215.7172,860.333H33.9609V437.2661c0-114.0737,90.8779-204.9858,204.9351-204.9858"/>
		<path fill="#37474F" d="M215.7172,877.7471H33.9609c-9.6255,0-17.4141-7.8057-17.4141-17.4141V437.2661
			c0-124.7109,97.6636-222.3999,222.3492-222.3999c9.625,0,17.4135,7.7974,17.4135,17.4141c0,9.6167-7.7885,17.4135-17.4135,17.4135
			c-105.146,0-187.5215,82.3926-187.5215,187.5723v405.6528h164.3427c9.625,0,17.4136,7.8057,17.4136,17.4141
			S225.3422,877.7471,215.7172,877.7471L215.7172,877.7471z"/>
	</g>
	<g>
		<path fill="#FFCA72" d="M357.9013,232.2803L357.9013,232.2803c114.0401,0,204.9346,90.9121,204.9346,204.9858V860.333h-181.79"/>
		<path fill="#37474F" d="M562.8359,877.7471h-181.79c-9.625,0-17.4131-7.8057-17.4131-17.4141s7.7881-17.4141,17.4131-17.4141
			h164.3769V437.2661c0-105.1797-82.376-187.5723-187.5215-187.5723c-9.625,0-17.4131-7.7968-17.4131-17.4135
			c0-9.6167,7.7881-17.4141,17.4131-17.4141c124.6856,0,222.3487,97.689,222.3487,222.3999V860.333
			C580.25,869.9414,572.4619,877.7471,562.8359,877.7471L562.8359,877.7471z"/>
	</g>
	<g>
		<path fill="#37474F" d="M248.81,555.4902c-9.625,0-17.4136-7.8066-17.4136-17.414V237.2627
			c0-9.6167,7.7886-17.4136,17.4136-17.4136s17.4141,7.7969,17.4141,17.4136v300.8135
			C266.2241,547.6836,258.435,555.4902,248.81,555.4902L248.81,555.4902z"/>
	</g>
	<g>
		<path fill="#37474F" d="M347.9873,555.4902c-9.626,0-17.4141-7.8066-17.4141-17.414V237.2627
			c0-9.6167,7.7881-17.4136,17.4141-17.4136c9.625,0,17.4131,7.7969,17.4131,17.4136v300.8135
			C365.4004,547.6836,357.6123,555.4902,347.9873,555.4902L347.9873,555.4902z"/>
	</g>
	<g>
		<polyline fill="#907973" points="187.6748,166.1963 17.414,166.1963 17.414,100.0439 187.6748,100.0439 		"/>
		<path fill="#37474F" d="M187.6748,183.6099H17.414C7.789,183.6099,0,175.813,0,166.1963v-66.1524
			c0-9.6167,7.789-17.4135,17.414-17.4135h170.2608c9.625,0,17.4135,7.7968,17.4135,17.4135s-7.7885,17.4141-17.4135,17.4141
			H34.8281v31.3242h152.8467c9.625,0,17.4135,7.7974,17.4135,17.4141C205.0883,175.813,197.2998,183.6099,187.6748,183.6099
			L187.6748,183.6099z"/>
	</g>
	<g>
		<polyline fill="#907973" points="409.123,166.1963 579.3828,166.1963 579.3828,100.0439 409.123,100.0439 		"/>
		<path fill="#37474F" d="M579.3828,183.6099H409.123c-9.626,0-17.4141-7.7969-17.4141-17.4136
			c0-9.6167,7.7881-17.4141,17.4141-17.4141h152.8457V117.458H409.123c-9.626,0-17.4141-7.7974-17.4141-17.4141
			s7.7881-17.4135,17.4141-17.4135h170.2598c9.625,0,17.414,7.7968,17.414,17.4135v66.1524
			C596.7968,175.813,589.0078,183.6099,579.3828,183.6099L579.3828,183.6099z"/>
	</g>
	<g>
		<path fill="#907973" d="M381.0459,678.543v231.3788c0,46.3232-36.3584,82.664-82.6646,82.664
			c-46.272,0-82.6641-36.3408-82.6641-82.664V678.543"/>
		<path fill="#37474F" d="M298.3813,1010c-56.1186,0-100.0781-43.96-100.0781-100.0781V678.543
			c0-9.6085,7.7886-17.4141,17.414-17.4141c9.625,0,17.4136,7.8057,17.4136,17.4141v231.3788c0,36.5791,28.6548,65.25,65.2505,65.25
			c36.5962,0,65.2515-28.6709,65.2515-65.25V678.543c0-9.6085,7.7881-17.4141,17.4131-17.4141
			c9.6259,0,17.414,7.8057,17.414,17.4141v231.3788C398.4599,966.04,354.5,1010,298.3813,1010L298.3813,1010z"/>
	</g>
	<g>
		<path fill="#FFCA72" d="M298.3813,17.4136c63.9243,0,115.7066,51.7993,115.7066,115.6894
			c0,63.9073-51.7823,115.7066-115.7066,115.7066c-63.8901,0-115.6894-51.7993-115.6894-115.7066
			C182.6919,69.2129,234.4912,17.4136,298.3813,17.4136z"/>
		<path fill="#37474F" d="M298.3813,266.2236c-73.396,0-133.103-59.7158-133.103-133.1206C165.2783,59.7065,224.9853,0,298.3813,0
			s133.1206,59.7065,133.1206,133.103C431.5019,206.5078,371.7773,266.2236,298.3813,266.2236L298.3813,266.2236z M298.3813,34.8276
			c-54.1968,0-98.2754,44.087-98.2754,98.2754c0,54.1973,44.0786,98.293,98.2754,98.293s98.2925-44.0957,98.2925-98.293
			C396.6738,78.9146,352.5781,34.8276,298.3813,34.8276L298.3813,34.8276z"/>
	</g>
	<path fill="#FFFFFD" d="M298.3813,82.3242c28.0425,0,50.7964,22.7368,50.7964,50.7788c0,28.0596-22.7539,50.7788-50.7964,50.7788
		c-28.0591,0-50.7959-22.7192-50.7959-50.7788C247.5854,105.061,270.3222,82.3242,298.3813,82.3242z"/>
	<g>
		<path fill="#A6DDDD" d="M298.3813,529.7939c-82.6641,0-148.7651,66.1006-148.7651,148.7491h297.5136
			C447.1298,595.8945,381.0459,529.7939,298.3813,529.7939z"/>
		<path fill="#37474F" d="M447.1298,695.957H149.6162c-9.6255,0-17.4141-7.8066-17.4141-17.4139
			c0-91.627,74.5527-166.1621,166.1792-166.1621S464.5439,586.916,464.5439,678.543
			C464.5439,688.1504,456.7558,695.957,447.1298,695.957L447.1298,695.957z M168.1181,661.1289h260.5098
			c-8.2822-65.1152-62.5127-113.9209-130.2466-113.9209C230.6479,547.208,176.3999,596.0137,168.1181,661.1289L168.1181,661.1289z"
			/>
	</g>
</g>
</svg>
