<?xml version="1.0" encoding="utf-8"?>
<!-- Generator: Adobe Illustrator 17.1.0, SVG Export Plug-In . SVG Version: 6.00 Build 0)  -->
<!DOCTYPE svg PUBLIC "-//W3C//DTD SVG 1.1//EN" "http://www.w3.org/Graphics/SVG/1.1/DTD/svg11.dtd">
<svg version="1.1" id="shell" xmlns="http://www.w3.org/2000/svg" xmlns:xlink="http://www.w3.org/1999/xlink" x="0px" y="0px"
	 viewBox="0 0 1009.9999 920.0463" enable-background="new 0 0 1009.9999 920.0463" xml:space="preserve">
<g id="shell-shell">
	<g>
		<path fill="#A6DDDD" d="M582.6479,206.0517c50.9317-41.9106,105.2911-97.5039,93.4043-136.0825
			c-10.5947-34.5357-90.4843-50.9893-171.0673-50.8018c-80.5079-0.1875-160.398,16.2661-170.9927,50.8018
			c-11.8863,38.5786,42.5283,94.1719,93.3301,136.0825C278.9229,312.0541-21.8067,548.6918,23.6787,696.2114
			c11.1562,36.3701,65.5708,100.7607,180.0337,117.7763l200.3989-362.4628l-85.9175,403.7929c0,0,54.1338,45.5605,186.7911,45.5605
			c67.872,0,135.7451-41.9297,135.7451-41.9297L563.2554,457.477l200.6425,371.335
			c114.5-16.9962,211.3496-96.2305,222.4297-132.6006C1031.8325,548.6918,731.1216,312.0541,582.6479,206.0517z"/>
		<path fill="#37474F" d="M504.9849,920.0463c-138.0669,0-196.7115-48.0136-199.1265-50.0722
			c-5.4282-4.5489-7.8804-11.7178-6.4204-18.6436l59.0942-277.7998L220.4839,823.2534c-3.8745,7-11.774,10.7627-19.5791,9.6953
			C72.1597,813.8374,16.6968,738.8139,5.3535,701.8276C-40.7686,552.267,221.4199,331.914,396.2871,204.7788
			c-65.4956-57.7647-91.8887-103.8497-80.6201-140.4629C333.9922,4.642,464.1601,0,503.6182,0h2.7329
			c39.4765,0,169.7011,4.642,188.0263,64.3535c11.3057,36.6694-15.1064,82.7539-80.6572,140.4443
			c174.8857,127.0977,437.0928,347.3755,390.9141,497.0669c-14.1875,46.5898-120.3594,128.4639-237.9297,145.9102
			c-7.8799,1.123-15.835-2.752-19.6719-9.8467L605.7271,576.4135l53.8155,278.9043c1.5156,7.8242-1.9649,15.7607-8.7412,19.9355
			C647.8433,877.0874,577.4624,920.0463,504.9849,920.0463L504.9849,920.0463z M339.6451,846.5756
			c19.6172,11.3809,71.8042,35.1348,165.3399,35.1348c45.9716,0,93.1806-21.6758,114.2763-32.7383l-74.8183-387.8633
			c-1.7969-9.2846,3.4629-18.4941,12.373-21.6762c8.8906-3.2007,18.8125,0.5991,23.3047,8.9287L774.23,807.6049
			c103.25-20.0097,185.7246-90.5781,193.7539-116.9716c29.4443-95.4073-118.7871-270.7051-396.4746-468.9893
			c-4.8477-3.4629-7.8047-8.9849-8.0108-14.937c-0.206-5.9527,2.3584-11.6616,6.9639-15.4614
			c90.9707-74.855,89.791-107.4439,87.2646-115.6236c-5.5029-17.9512-64.9531-37.2871-151.3759-37.2871h-2.7329
			c-86.3853,0-145.7974,19.3359-151.3008,37.2495c-2.5269,8.1988-3.6685,40.6939,87.209,115.6797
			c4.5864,3.7998,7.1508,9.5088,6.9448,15.4614c-0.2061,5.9527-3.1636,11.4556-8.0117,14.9185
			C160.8286,419.9843,12.6162,595.2817,42.0044,690.5581c6.8696,22.4257,47.3013,82.5859,151.5063,102.2587l193.8291-350.5576
			c4.6045-8.3486,14.6377-11.9985,23.4727-8.6855c8.8911,3.313,14.02,12.6538,12.0547,21.938L339.6451,846.5756L339.6451,846.5756z"
			/>
	</g>
</g>
</svg>
