<?xml version="1.0" encoding="utf-8"?>
<!-- Generator: Adobe Illustrator 17.1.0, SVG Export Plug-In . SVG Version: 6.00 Build 0)  -->
<!DOCTYPE svg PUBLIC "-//W3C//DTD SVG 1.1//EN" "http://www.w3.org/Graphics/SVG/1.1/DTD/svg11.dtd">
<svg version="1.1" id="singlet" xmlns="http://www.w3.org/2000/svg" xmlns:xlink="http://www.w3.org/1999/xlink" x="0px" y="0px"
	 viewBox="0 0 890.123 1010" enable-background="new 0 0 890.123 1010" xml:space="preserve">
<g id="singlet-singlet">
	<g>
		<path fill="#A6DDDD" d="M870.7002,425.0127v565.5635H19.4233V425.0127c247.2456,0,88.2573-405.5898,88.2573-405.5898h150.6617
			c31.4672,72.1728,103.1279,122.5893,186.7192,122.5893c83.6484,0,155.3281-50.4165,186.834-122.5893h150.5469
			C782.4424,19.4229,623.4541,425.0127,870.7002,425.0127z"/>
		<path fill="#37474F" d="M870.7002,1010H19.4233C8.6875,1010,0,1001.3125,0,990.5762V425.0127
			c0-10.7266,8.6875-19.4233,19.4233-19.4233c44.1758,0,75.0747-13.7994,94.4595-42.1939
			c67.5825-99.022-23.3682-334.5171-24.2788-336.8882c-2.3521-5.9746-1.5933-12.727,2.0298-18.0288
			C95.2563,3.1772,101.2695,0,107.6806,0h150.6617c7.7197,0,14.7187,4.5806,17.8105,11.6558
			c29.3814,67.3925,95.6738,110.9331,168.9087,110.9331c73.2734,0,139.623-43.5406,169.041-110.9331
			C617.1758,4.5713,624.1748,0,631.8955,0h150.5469c6.4121,0,12.4238,3.1772,16.0468,8.4785
			c3.6231,5.3018,4.3819,12.0542,2.0293,18.0288c-0.9101,2.3711-91.8613,237.8662-24.2783,336.8882
			c19.3858,28.3945,50.2842,42.1939,94.46,42.1939c10.7363,0,19.4228,8.6967,19.4228,19.4233v565.5635
			C890.123,1001.3125,881.4365,1010,870.7002,1010L870.7002,1010z M38.8462,971.1543h812.4301V443.6201
			c-47.4941-4.0972-83.4765-23.6719-107.1298-58.355c-64.8321-95.0478-12.5381-277.8598,10.6787-346.4189H644.2051
			c-37.917,74.8848-114.7364,122.5889-199.1436,122.5889c-84.3877,0-161.1509-47.7134-199.0293-122.5889H135.2978
			c23.2163,68.5591,75.5108,251.3711,10.6787,346.4189c-23.6528,34.6831-59.6347,54.2578-107.1303,58.355V971.1543L38.8462,971.1543
			z"/>
	</g>
	<g>
		<polygon fill="#FFCA72" points="367.0088,473.9399 192.6562,499.3379 318.9253,622.2969 289.0698,795.9668 445.0615,713.9883 
			601.1103,795.9668 571.2744,622.2969 697.5049,499.3379 523.209,473.9399 445.0615,315.8335 		"/>
		<path fill="#37474F" d="M601.1103,815.3896c-3.0918,0-6.1836-0.7392-9.0293-2.2382l-147.0195-77.2373l-146.9629,77.2373
			c-6.4868,3.4521-14.4722,2.8838-20.4473-1.4796c-5.9746-4.3438-8.9716-11.7227-7.7197-19.0059l28.1104-163.5976L179.1133,513.251
			c-5.3111-5.1592-7.2076-12.8697-4.9317-19.9068c2.2764-7.0371,8.3648-12.1587,15.6675-13.2299l164.2617-23.9283l73.5381-148.9546
			c6.5064-13.2299,28.2427-13.2866,34.8247,0l73.6338,148.9546l164.2041,23.9283c7.3027,1.0712,13.3915,6.1928,15.668,13.2299
			c2.2754,7.0274,0.3789,14.7476-4.9317,19.9068L592.1377,629.0684L620.249,792.666c1.252,7.3028-1.7461,14.6621-7.7207,19.0059
			C609.1523,814.1377,605.1318,815.3896,601.1103,815.3896L601.1103,815.3896z M445.0615,694.5645
			c3.1113,0,6.2031,0.7402,9.0293,2.2382l121.2227,63.6563l-23.1778-134.8809c-1.082-6.3164,1.0049-12.7265,5.5947-17.2031
			l98.0264-95.4941l-135.3555-19.7168c-6.3164-0.9297-11.7783-4.8941-14.6044-10.6221l-60.7164-122.855l-60.6591,122.855
			c-2.8262,5.728-8.2891,9.6924-14.605,10.6221l-135.4116,19.7168l98.0634,95.4941c4.5904,4.457,6.6768,10.8867,5.5957,17.2031
			L314.8852,760.459l121.1475-63.6563C438.8594,695.3047,441.9507,694.5645,445.0615,694.5645L445.0615,694.5645z"/>
	</g>
</g>
</svg>
