<?xml version="1.0" encoding="utf-8"?>
<!-- Generator: Adobe Illustrator 17.1.0, SVG Export Plug-In . SVG Version: 6.00 Build 0)  -->
<!DOCTYPE svg PUBLIC "-//W3C//DTD SVG 1.1//EN" "http://www.w3.org/Graphics/SVG/1.1/DTD/svg11.dtd">
<svg version="1.1" id="snorkel" xmlns="http://www.w3.org/2000/svg" xmlns:xlink="http://www.w3.org/1999/xlink" x="0px" y="0px"
	 viewBox="0 0 1010 1010" enable-background="new 0 0 1010 1010" xml:space="preserve">
<g id="snorkel-snorkel">
	<path fill="#907973" d="M891.709,17.4136v823.8393c0,27.8545-22.584,50.4561-50.4395,50.4561
		c-27.8554,0-50.4384-22.6016-50.4384-50.4561v-50.4218H689.9531v50.4218c0,83.5995,67.751,151.3329,151.3164,151.3329
		c83.5664,0,151.3164-67.7334,151.3164-151.3329V17.4136H891.709z"/>
	<rect x="890.6542" y="18.9951" fill="#FFCA72" width="102.3066" height="93.5991"/>
	<g>
		<path fill="#37474F" d="M841.2695,1010c-93.0371,0-168.7295-75.6924-168.7295-168.7471v-50.4218
			c0-9.625,7.7881-17.4141,17.4131-17.4141h100.8781c9.6259,0,17.4139,7.7891,17.4139,17.4141v50.4218
			c0,18.2129,14.8115,33.042,33.0244,33.042s33.0254-14.8291,33.0254-33.042V17.4136C874.2949,7.7886,882.084,0,891.709,0h100.8769
			C1002.2109,0,1010,7.7886,1010,17.4136v823.8393C1010,934.3076,934.3086,1010,841.2695,1010L841.2695,1010z M707.3672,808.2441
			v33.0089c0,73.8389,60.0644,133.9189,133.9023,133.9189c73.8389,0,133.9024-60.0801,133.9024-133.9189V34.8276H909.123v806.4253
			c0,37.4286-30.4404,67.8691-67.8535,67.8691c-37.4121,0-67.8514-30.4405-67.8514-67.8691v-33.0089H707.3672L707.3672,808.2441z"/>
	</g>
	<g>
		<path fill="#FFFFFF" d="M17.4141,491.7866L17.4141,491.7866c0,111.4203,90.3339,201.772,201.7548,201.772h28.1612
			c53.4663,0,100.9458-34.2149,117.8496-84.9434l0,0c3.1631-9.5234,12.0908-15.951,22.1245-15.951l0,0
			c10.0332,0,18.9609,6.4277,22.124,15.951l0,0c16.9038,50.7285,64.3838,84.9434,117.8491,84.9434h28.1622
			c111.4199,0,201.7538-90.3516,201.7538-201.772l0,0c0-111.4214-90.334-201.7554-201.7538-201.7554H219.1689
			C107.748,290.0312,17.4141,380.3652,17.4141,491.7866z"/>
		<path fill="#37474F" d="M555.4395,710.9727h-28.1622c-61.0669,0-115.0683-38.9258-134.3701-96.8477
			c-1.6152-4.8633-9.5996-4.8467-11.1982-0.0176c-19.3096,57.9395-73.3111,96.8653-134.3789,96.8653h-28.1612
			C98.3184,710.9727,0,612.6455,0,491.7866c0-120.8423,98.3184-219.1689,219.1689-219.1689h336.2706
			c120.8418,0,219.1678,98.3266,219.1678,219.1689C774.6074,612.6455,676.2813,710.9727,555.4395,710.9727L555.4395,710.9727z
			 M387.3042,575.25c17.5835,0,33.1099,11.207,38.6538,27.873c14.5483,43.67,55.2681,73.0215,101.3193,73.0215h28.1622
			c101.6425,0,184.3408-82.6982,184.3408-184.3578c0-101.643-82.6983-184.3413-184.3408-184.3413H219.1689
			c-101.6425,0-184.3413,82.6983-184.3413,184.3413c0,101.6597,82.6988,184.3578,184.3413,184.3578h28.1612
			c46.0517,0,86.7715-29.3514,101.3286-73.0389C354.1938,586.457,369.7202,575.25,387.3042,575.25L387.3042,575.25z"/>
	</g>
	<g>
		<path fill="#A6DDDD" d="M84.6714,491.7866L84.6714,491.7866c0,74.2808,60.2173,134.5142,134.4975,134.5142h30.8995
			c21.7163,0,41.0004-13.8926,47.854-34.4863l0.8672-2.586c12.686-38.1094,48.3642-63.8223,88.5146-63.8223l0,0
			c40.1504,0,75.8281,25.7129,88.5142,63.8223l0.8842,2.586c6.8536,20.5937,26.1206,34.4863,47.8365,34.4863h30.9004
			c74.2968,0,134.5135-60.2334,134.5135-134.5142l0,0c0-74.2807-60.2168-134.5151-134.5135-134.5151H219.1689
			C144.8887,357.2715,84.6714,417.5059,84.6714,491.7866z"/>
		<path fill="#37474F" d="M555.4395,643.7148h-30.9004c-29.2578,0-55.1231-18.6552-64.3575-46.4082l-0.8418-2.4492
			c-10.3818-31.1709-39.3085-52.0371-72.0356-52.0371c-32.7275,0-61.6543,20.8662-71.9937,51.9014l-0.8759,2.6357
			c-9.2256,27.7022-35.0996,46.3574-64.3662,46.3574h-30.8995c-83.7612,0-151.9111-68.1582-151.9111-151.9282
			s68.1499-151.9287,151.9111-151.9287h336.2706c83.7695,0,151.9277,68.1587,151.9277,151.9287S639.209,643.7148,555.4395,643.7148
			L555.4395,643.7148z M387.3042,507.9922c47.7432,0,89.96,30.4414,105.0352,75.7441l0.8418,2.4492
			c4.5405,13.6377,17.1254,22.7012,31.3579,22.7012h30.9004c64.5703,0,117.1005-52.5293,117.1005-117.1001
			s-52.5302-117.1011-117.1005-117.1011H219.1689c-64.5615,0-117.0839,52.5303-117.0839,117.1011
			s52.5224,117.1001,117.0839,117.1001h30.8995c14.2505,0,26.8349-9.0635,31.333-22.5664l0.8755-2.6348
			C297.3442,538.4336,339.5605,507.9922,387.3042,507.9922L387.3042,507.9922z"/>
	</g>
	<g>
		<path fill="#37474F" d="M790.8311,808.2441H689.9531c-28.16,0-51.0508-22.9062-51.0508-51.0507
			c0-9.625,7.7891-17.4141,17.4141-17.4141s17.4141,7.7891,17.4141,17.4141c0,8.9453,7.2783,16.2236,16.2226,16.2236h100.8781
			c8.9453,0,16.2236-7.2783,16.2236-16.2236c0-9.625,7.7891-17.4141,17.4141-17.4141s17.414,7.7891,17.414,17.4141
			C841.8828,785.3379,818.9922,808.2441,790.8311,808.2441L790.8311,808.2441z"/>
	</g>
	<g>
		<polygon fill="#37474F" points="992.5859,135.7051 891.709,135.7051 891.709,100.8774 992.5859,100.8774 992.5859,135.7051 		"/>
	</g>
</g>
</svg>
