<?xml version="1.0" encoding="utf-8"?>
<!-- Generator: Adobe Illustrator 17.1.0, SVG Export Plug-In . SVG Version: 6.00 Build 0)  -->
<!DOCTYPE svg PUBLIC "-//W3C//DTD SVG 1.1//EN" "http://www.w3.org/Graphics/SVG/1.1/DTD/svg11.dtd">
<svg version="1.1" id="speedboat" xmlns="http://www.w3.org/2000/svg" xmlns:xlink="http://www.w3.org/1999/xlink" x="0px" y="0px"
	 viewBox="0 0 1009.9979 793.8536" enable-background="new 0 0 1009.9979 793.8536" xml:space="preserve">
<g id="speedboat-speedboat">
	<path fill="#FFCA72" d="M748.4122,271.9258c0,150.1807-121.7442,271.9102-271.9258,271.9102
		c-150.1807,0-271.9258-121.7295-271.9258-271.9102S326.3058,0,476.4865,0C626.668,0,748.4122,121.7452,748.4122,271.9258z"/>
	<g>
		<g>
			<g>
				<polyline fill="#A6DDDD" points="853.3654,361.2344 732.3809,199.9366 329.252,320.9214 208.2823,441.8448 				"/>
				<path fill="#37474F" d="M219.2756,452.8223l-21.9707-21.9551l120.9697-120.9233c1.8144-1.8296,4.0625-3.1782,6.5117-3.9072
					l403.1289-121.0005c6.2637-1.8145,12.9932,0.3564,16.8848,5.582l121.001,161.2979l-24.8702,18.6367L726.4572,217.9219
					L337.4698,334.6744L219.2756,452.8223L219.2756,452.8223z"/>
			</g>
			<g>
				<polyline fill="#FFFFFF" points="788.7872,584.1026 994.4454,341.0782 67.1877,462.0166 103.5002,662.8985 				"/>
				<path fill="#37474F" d="M103.4846,678.4346c-7.3809,0-13.9083-5.2558-15.2725-12.7764L51.8996,464.7764
					c-0.7598-4.2021,0.2324-8.5117,2.7441-11.9385c2.4961-3.4424,6.3106-5.6748,10.5284-6.2334l927.2734-120.9384
					c6.3721-0.8374,12.5742,2.3413,15.6601,7.9697c3.0694,5.6279,2.3555,12.5742-1.7832,17.4736L800.6329,594.1495
					c-5.5195,6.5429-15.3184,7.3496-21.8926,1.83c-6.543-5.5664-7.3652-15.3652-1.8144-21.9238l179.7343-212.3872L85.3742,475.3038
					l33.4141,184.8349c1.5341,8.4346-4.0782,16.5283-12.5284,18.0635C105.3293,678.3565,104.3996,678.4346,103.4846,678.4346
					L103.4846,678.4346z"/>
			</g>
			<g>
				<polygon fill="#37474F" points="632.8693,390.0274 596.4025,244.0323 626.5441,236.4971 663.0118,382.5069 632.8693,390.0274 
									"/>
			</g>
			<g>
				<polygon fill="#37474F" points="89.2814,537.8975 85.4054,507.0586 927.7579,401.5323 931.6193,432.3555 89.2814,537.8975 				
					"/>
			</g>
		</g>
		<g>
			<path fill="#37474F" d="M193.8468,700.6534c-104.1465,0-165.0342-36.7315-187.6719-53.8184
				c-6.8526-5.1621-8.2022-14.915-3.0391-21.7529c5.1641-6.8682,14.8848-8.2491,21.7695-3.0391
				c34.3741,25.9404,166.7247,101.418,426.1846-16.5898c190.9746-86.9366,334.4258-47.5537,421.1299,0.8213
				c7.4736,4.1709,10.1709,13.6289,6,21.1328c-4.1865,7.5049-13.6289,10.2031-21.1484,6.0009
				c-80.4551-44.8867-213.9678-81.2763-393.1122,0.3252C353.3928,684.0479,263.837,700.6377,193.8468,700.6534L193.8468,700.6534z"
				/>
		</g>
		<g>
			<path fill="#37474F" d="M193.7384,793.8536c-104.0997,0-164.9414-36.7002-187.5635-53.7715
				c-6.8526-5.1475-8.2022-14.8848-3.0391-21.753c5.1641-6.8691,14.8848-8.2334,21.7695-3.039
				c34.3741,25.9238,166.6934,101.3711,426.1846-16.668c190.7578-86.8281,334.2871-47.4921,421.1143,0.791
				c7.4892,4.1856,10.1865,13.6592,6.0156,21.1485c-4.1709,7.4736-13.6289,10.2021-21.1338,6.0156
				c-80.5625-44.793-214.1387-81.1212-393.1426,0.3418C353.3311,777.2471,263.7433,793.8536,193.7384,793.8536L193.7384,793.8536z"
				/>
		</g>
	</g>
</g>
</svg>
