<?xml version="1.0" encoding="utf-8"?>
<!-- Generator: Adobe Illustrator 17.1.0, SVG Export Plug-In . SVG Version: 6.00 Build 0)  -->
<!DOCTYPE svg PUBLIC "-//W3C//DTD SVG 1.1//EN" "http://www.w3.org/Graphics/SVG/1.1/DTD/svg11.dtd">
<svg version="1.1" id="sun-protection" xmlns="http://www.w3.org/2000/svg" xmlns:xlink="http://www.w3.org/1999/xlink" x="0px"
	 y="0px" viewBox="0 0 590.6168 1010" enable-background="new 0 0 590.6168 1010" xml:space="preserve">
<g id="sun-protection-sun-protection">
	<g>
		<g>
			<path fill="#FFCA72" d="M561.9901,376.4199c-30.2715-110.7065-120.1289-129.8891-120.1289-129.8891
				c-32.4805-8.7237-33.9434-24.9302-32.7871-32.2598c0.375-2.3125-16.835-3.7412-16.835-3.7412H180.5355
				c0,0,0.6802,1.5815,1.0884,4.0137c1.0884,7.4482-0.7822,23.3657-32.8208,31.9873c0,0-89.8579,19.1826-120.1958,129.8891
				c0,0-51.0855,211.8731,67.5122,597.4942c-0.272,0.3398-0.4761,0.6797-0.4761,1.037c0,9.7441,89.1773,17.6347,199.1362,17.6347
				c105.0777,0,191.1265-7.2099,198.5747-16.3759h0.4766C613.3124,589.2119,561.9901,376.4199,561.9901,376.4199z"/>
			<path fill="#37474F" d="M294.7796,1010c-216.4653,0-216.5503-20.2363-216.5503-35.0312
				C-38.8039,591.8145,9.5604,381.1475,11.6864,372.3389c32.8886-120.0772,129.396-141.9634,133.4775-142.8306
				c13.6382-3.7075,19.7266-9.0981,19.2334-12.4482c-2.313-5.3741-1.7007-11.3936,1.5132-16.2745
				c3.231-4.8974,8.7749-7.6694,14.625-7.6694h211.7036c20.5088,1.6494,26.3252,4.7783,30.4404,9.999
				c2.9922,3.8267,4.3536,9.1494,3.6045,13.9449c-0.5439,3.3159,5.544,8.7407,20.1006,12.6523
				c3.1973,0.6631,99.7217,22.5664,132.4063,142.1162c2.2793,9.3872,51.2207,222.3999-68.3282,609.5171
				c-1.8027,5.8838-6.5312,10.2539-12.3125,11.7334C467.0643,1006.8877,372.9881,1010,294.7796,1010L294.7796,1010z
				 M111.3226,964.0674c19.4883,4.9658,83.7866,11.1045,183.457,11.1045c101.9146,0,166.8423-6.4278,184.6636-11.4444
				c113.4961-372.2705,66.1192-581.1683,65.6084-583.243c-27.0049-98.8028-106.0127-116.7608-106.8291-116.9307
				c-30.7129-8.2309-41.6641-23.2641-45.2353-35.457c-0.7481-0.085-1.4971-0.1529-2.1768-0.2212l-193.0991,0.0683
				c-3.4522,12.21-14.1826,27.2769-44.3848,35.4058c-4.0644,0.918-80.9473,19.2163-107.9179,117.6792
				C45.0516,382.5591-2.3263,591.5244,111.3226,964.0674L111.3226,964.0674z"/>
		</g>
		<g>
			<path fill="#A6DDDD" d="M405.2987,195.9258v-4.1699V56.4248c0-21.5635-24.5215-39.0112-54.6211-39.0112H236.722
				c-30.2358,0-54.6899,17.4477-54.6899,39.0112v139.501"/>
			<path fill="#37474F" d="M182.0321,209.3394c-9.6255,0-17.4141-7.7886-17.4141-17.4136V56.4248
				C164.618,24.7769,196.2826,0,236.722,0h113.9556c40.4043,0,72.0351,24.7769,72.0351,56.4248v135.3311
				c0,9.625-7.788,17.4985-17.414,17.4985c-9.625,0-17.4131-7.7036-17.4131-17.3286V56.4248
				c0-10.2036-15.917-21.5972-37.208-21.5972H236.722c-21.3418,0-37.2763,11.3936-37.2763,21.5972v135.501
				C199.4457,201.5508,191.6571,209.3394,182.0321,209.3394L182.0321,209.3394z"/>
		</g>
	</g>
	<g>
		<g>
			<path fill="#FFFFFF" d="M301.4803,477.1274c45.3877,0,82.2891,36.8179,82.2891,82.3413
				c0,45.3711-36.9014,82.2911-82.2891,82.2911c-45.5078,0-82.3081-36.92-82.3081-82.2911
				C219.1722,513.9453,255.9725,477.1274,301.4803,477.1274z"/>
			<path fill="#37474F" d="M301.4803,659.1738c-54.98,0-99.7217-44.7256-99.7217-99.7051c0-55.0131,44.7417-99.7548,99.7217-99.7548
				c54.9785,0,99.7031,44.7417,99.7031,99.7548C401.1834,614.4482,356.4588,659.1738,301.4803,659.1738L301.4803,659.1738z
				 M301.4803,494.5415c-35.7807,0-64.894,29.1304-64.894,64.9272c0,35.7803,29.1133,64.877,64.894,64.877
				c35.7617,0,64.876-29.0967,64.876-64.877C366.3563,523.6719,337.242,494.5415,301.4803,494.5415L301.4803,494.5415z"/>
		</g>
		<g>
			<path fill="#37474F" d="M301.4803,441.5859c-9.626,0-17.4145-7.7885-17.4145-17.414v-61.4756
				c0-9.625,7.7885-17.4136,17.4145-17.4136c9.625,0,17.3965,7.7886,17.3965,17.4136v61.4756
				C318.8768,433.7974,311.1053,441.5859,301.4803,441.5859L301.4803,441.5859z"/>
		</g>
		<g>
			<path fill="#37474F" d="M301.4803,773.6387c-9.626,0-17.4145-7.7891-17.4145-17.4141V694.749
				c0-9.626,7.7885-17.414,17.4145-17.414c9.625,0,17.3965,7.788,17.3965,17.414v61.4756
				C318.8768,765.8496,311.1053,773.6387,301.4803,773.6387L301.4803,773.6387z"/>
		</g>
		<g>
			<path fill="#37474F" d="M498.1834,576.8828h-61.457c-9.626,0-17.414-7.7891-17.414-17.4141s7.788-17.414,17.414-17.414h61.457
				c9.626,0,17.4141,7.789,17.4141,17.414S507.8094,576.8828,498.1834,576.8828L498.1834,576.8828z"/>
		</g>
		<g>
			<path fill="#37474F" d="M166.2167,576.8828h-61.4922c-9.6255,0-17.4141-7.7891-17.4141-17.4141s7.7886-17.414,17.4141-17.414
				h61.4922c9.6254,0,17.414,7.789,17.414,17.414S175.8421,576.8828,166.2167,576.8828L166.2167,576.8828z"/>
		</g>
		<g>
			<path fill="#37474F" d="M399.8241,478.4712c-4.4561,0-8.9121-1.7007-12.3125-5.1021c-6.8028-6.8022-6.8028-17.8217,0-24.624
				l30.7119-30.7124c6.8017-6.8022,17.8213-6.8022,24.624,0c6.8027,6.8023,6.8027,17.8223,0,24.6245l-30.7119,30.7119
				C408.7342,476.7705,404.2792,478.4712,399.8241,478.4712L399.8241,478.4712z"/>
		</g>
		<g>
			<path fill="#37474F" d="M172.3387,705.9727c-4.4555,0-8.9111-1.7012-12.312-5.1016c-6.8022-6.8027-6.8022-17.8223,0-24.625
				L190.7728,645.5c6.8022-6.8018,17.8218-6.8018,24.624,0c6.8028,6.8027,6.8028,17.8223,0,24.625l-30.7461,30.7461
				C181.2499,704.2715,176.7943,705.9727,172.3387,705.9727L172.3387,705.9727z"/>
		</g>
		<g>
			<path fill="#37474F" d="M430.535,705.9727c-4.4551,0-8.9101-1.7012-12.3115-5.1016l-30.7119-30.7461
				c-6.8028-6.8027-6.8028-17.8398,0-24.625c6.8027-6.8018,17.8222-6.8018,24.624,0l30.7119,30.7461
				c6.8027,6.8027,6.8027,17.8398,0,24.625C439.4471,704.2715,434.9911,705.9727,430.535,705.9727L430.535,705.9727z"/>
		</g>
		<g>
			<path fill="#37474F" d="M203.0848,478.4712c-4.4556,0-8.9106-1.7007-12.312-5.1021l-30.7461-30.7119
				c-6.8022-6.7851-6.8022-17.8222,0-24.6245c6.7681-6.8022,17.8218-6.8022,24.624,0l30.7461,30.7124
				c6.8028,6.7852,6.8028,17.8218,0,24.624C212.013,476.7705,207.5404,478.4712,203.0848,478.4712L203.0848,478.4712z"/>
		</g>
	</g>
</g>
</svg>
