<?xml version="1.0" encoding="utf-8"?>
<!-- Generator: Adobe Illustrator 17.1.0, SVG Export Plug-In . SVG Version: 6.00 Build 0)  -->
<!DOCTYPE svg PUBLIC "-//W3C//DTD SVG 1.1//EN" "http://www.w3.org/Graphics/SVG/1.1/DTD/svg11.dtd">
<svg version="1.1" id="sun-rays" xmlns="http://www.w3.org/2000/svg" xmlns:xlink="http://www.w3.org/1999/xlink" x="0px" y="0px"
	 viewBox="0 0 1010 1010" enable-background="new 0 0 1010 1010" xml:space="preserve">
<g id="sun-rays-sun-rays">
	<g>
		<path fill="#FFCA72" d="M753.793,505c0,137.4219-111.4044,248.793-248.793,248.793
			c-137.4224,0-248.7925-111.3711-248.7925-248.793c0-137.4229,111.3701-248.8184,248.7925-248.8184
			C642.3887,256.1816,753.793,367.5771,753.793,505z"/>
		<path fill="#37474F" d="M505,771.9033c-147.167,0-266.9033-119.7363-266.9033-266.9033
			c0-147.1841,119.7363-266.9297,266.9033-266.9297S771.9043,357.8159,771.9043,505C771.9043,652.167,652.167,771.9033,505,771.9033
			L505,771.9033z M505,274.2925c-127.2021,0-230.6987,103.4966-230.6987,230.7075c0,127.2021,103.4966,230.6992,230.6987,230.6992
			c127.2031,0,230.6992-103.4971,230.6992-230.6992C735.6992,377.7891,632.2031,274.2925,505,274.2925L505,274.2925z"/>
	</g>
	<g>
		<g>
			<path fill="#37474F" d="M505,201.1089c-8.9956,0-16.3081-7.2954-16.3081-16.3003v-33.7051
				c0-9.0044,7.3125-16.2998,16.3081-16.2998c8.9961,0,16.3086,7.2954,16.3086,16.2998v33.7051
				C521.3086,193.8135,513.9961,201.1089,505,201.1089L505,201.1089z"/>
		</g>
		<g>
			<path fill="#37474F" d="M505,116.854c-8.9956,0-16.3081-7.2954-16.3081-16.291V16.291C488.6919,7.2954,496.0044,0,505,0
				c8.9961,0,16.3086,7.2954,16.3086,16.291v84.272C521.3086,109.5586,513.9961,116.854,505,116.854L505,116.854z"/>
		</g>
		<g>
			<path fill="#37474F" d="M505,875.1787c-8.9956,0-16.3081-7.2949-16.3081-16.291v-33.7051c0-8.9961,7.3125-16.292,16.3081-16.292
				c8.9961,0,16.3086,7.2959,16.3086,16.292v33.7051C521.3086,867.8838,513.9961,875.1787,505,875.1787L505,875.1787z"/>
		</g>
		<g>
			<path fill="#37474F" d="M505,1010c-8.9956,0-16.3081-7.2959-16.3081-16.291v-84.2803c0-8.9961,7.3125-16.292,16.3081-16.292
				c8.9961,0,16.3086,7.2959,16.3086,16.292v84.2803C521.3086,1002.7041,513.9961,1010,505,1010L505,1010z"/>
		</g>
		<g>
			<path fill="#37474F" d="M858.9219,521.291h-33.7051c-9.0137,0-16.3086-7.2871-16.3086-16.291
				c0-9.0049,7.2949-16.2915,16.3086-16.2915h33.7051c8.9962,0,16.291,7.2866,16.291,16.2915
				C875.2129,514.0039,867.918,521.291,858.9219,521.291L858.9219,521.291z"/>
		</g>
		<g>
			<path fill="#37474F" d="M993.709,521.291h-84.2637c-9.0128,0-16.3087-7.2871-16.3087-16.291
				c0-9.0049,7.2959-16.2915,16.3087-16.2915h84.2637c8.9961,0,16.291,7.2866,16.291,16.2915
				C1010,514.0039,1002.7051,521.291,993.709,521.291L993.709,521.291z"/>
		</g>
		<g>
			<path fill="#37474F" d="M184.7837,521.291h-33.6714c-8.9961,0-16.291-7.2871-16.291-16.291
				c0-9.0049,7.2949-16.2915,16.291-16.2915h33.6714c9.0132,0,16.3081,7.2866,16.3081,16.2915
				C201.0918,514.0039,193.7969,521.291,184.7837,521.291L184.7837,521.291z"/>
		</g>
		<g>
			<path fill="#37474F" d="M100.5547,521.291H16.2915C7.2959,521.291,0,514.0039,0,505c0-9.0049,7.2959-16.2915,16.2915-16.2915
				h84.2632c9.0127,0,16.3086,7.2866,16.3086,16.2915C116.8633,514.0039,109.5674,521.291,100.5547,521.291L100.5547,521.291z"/>
		</g>
		<g>
			<path fill="#37474F" d="M731.4141,294.8862c-4.1836,0-8.334-1.5815-11.5137-4.7612c-6.3594-6.3516-6.377-16.6743-0.0166-23.0513
				l23.8076-23.8506c6.3604-6.3857,16.666-6.3769,23.043-0.0253c6.3594,6.3515,6.3769,16.6738,0.0176,23.0424l-23.8087,23.8589
				C739.7637,293.2964,735.5801,294.8862,731.4141,294.8862L731.4141,294.8862z"/>
		</g>
		<g>
			<path fill="#37474F" d="M791.002,235.3071c-4.167,0-8.334-1.5898-11.5303-4.7788c-6.3604-6.3515-6.3604-16.6821,0-23.0425
				l59.6045-59.5962c6.3603-6.3603,16.6826-6.3603,23.0595,0c6.3604,6.3599,6.3604,16.691,0,23.0425l-59.6044,59.5962
				C799.3516,233.7173,795.1846,235.3071,791.002,235.3071L791.002,235.3071z"/>
		</g>
		<g>
			<path fill="#37474F" d="M254.7451,771.5635c-4.1665,0-8.3159-1.5811-11.5127-4.7617c-6.3603-6.377-6.3774-16.6827-0.0176-23.0596
				l23.8423-23.8594c6.3599-6.3594,16.6826-6.3594,23.0425,0c6.3604,6.3613,6.377,16.6836,0.0171,23.0606l-23.8418,23.8418
				C263.0947,769.9824,258.9282,771.5635,254.7451,771.5635L254.7451,771.5635z"/>
		</g>
		<g>
			<path fill="#37474F" d="M159.4282,866.8799c-4.1665,0-8.3501-1.5986-11.5132-4.7608
				c-6.3598-6.3603-6.3769-16.7002-0.0166-23.0605l59.5708-59.5879c6.3599-6.3594,16.6997-6.3594,23.0425,0
				c6.3604,6.3604,6.377,16.666,0.0171,23.043l-59.5708,59.6054C167.7783,865.2813,163.6113,866.8799,159.4282,866.8799
				L159.4282,866.8799z"/>
		</g>
		<g>
			<path fill="#37474F" d="M755.2207,771.5635c-4.1826,0-8.3496-1.5811-11.5293-4.7783l-23.8076-23.8594
				c-6.3604-6.377-6.3428-16.6992,0.0166-23.043c6.3769-6.3769,16.6992-6.3594,23.043,0.0176l23.8087,23.8594
				c6.3593,6.3593,6.3418,16.6992-0.0176,23.042C763.5371,769.9824,759.3711,771.5635,755.2207,771.5635L755.2207,771.5635z"/>
		</g>
		<g>
			<path fill="#37474F" d="M850.6055,866.8799c-4.1826,0-8.3496-1.5986-11.5293-4.7608l-59.6045-59.6054
				c-6.3604-6.3594-6.3604-16.6826,0-23.043c6.3769-6.3594,16.6992-6.3594,23.0596,0l59.6044,59.5879
				c6.3604,6.3603,6.3604,16.7002,0,23.0605C858.9561,865.2813,854.7725,866.8799,850.6055,866.8799L850.6055,866.8799z"/>
		</g>
		<g>
			<path fill="#37474F" d="M278.5869,294.8862c-4.1665,0-8.3501-1.5898-11.5298-4.7783l-23.8423-23.8506
				c-6.3598-6.3686-6.3427-16.6909,0.0176-23.0595c6.377-6.3433,16.6821-6.3516,23.0425,0.017l23.8418,23.8506
				c6.3599,6.3682,6.3433,16.6909-0.0171,23.0508C286.9194,293.2964,282.77,294.8862,278.5869,294.8862L278.5869,294.8862z"/>
		</g>
		<g>
			<path fill="#37474F" d="M218.999,235.3071c-4.1836,0-8.3496-1.5898-11.5298-4.7788l-59.5708-59.5962
				c-6.3603-6.3598-6.3432-16.6826,0.0166-23.0512c6.3438-6.3428,16.6827-6.3516,23.043,0.0087l59.5708,59.5962
				c6.3599,6.3687,6.3433,16.691-0.0171,23.0513C227.332,233.7173,223.165,235.3071,218.999,235.3071L218.999,235.3071z"/>
		</g>
		<g>
			<path fill="#37474F" d="M630.1113,226.583c-2.1093,0-4.2695-0.4165-6.3613-1.3008c-8.2812-3.5117-12.1416-13.0771-8.6553-21.3676
				l13.1787-31.0352c3.5039-8.2905,13.0957-12.1421,21.3594-8.6475c8.2822,3.5118,12.1602,13.0777,8.6562,21.3677l-13.1797,31.0352
				C642.4902,222.8506,636.4541,226.583,630.1113,226.583L630.1113,226.583z"/>
		</g>
		<g>
			<path fill="#37474F" d="M663.0166,148.978c-2.1426,0-4.3018-0.4253-6.377-1.3095c-8.2988-3.5118-12.1416-13.086-8.622-21.3677
				l32.957-77.5625c3.5195-8.2988,13.1797-12.1167,21.3594-8.6221c8.2988,3.52,12.1582,13.0859,8.6387,21.376l-32.9747,77.563
				C675.3633,145.2622,669.3428,148.978,663.0166,148.978L663.0166,148.978z"/>
		</g>
		<g>
			<path fill="#37474F" d="M366.7271,847.0684c-2.1255,0-4.2852-0.4248-6.3599-1.3086
				c-8.2818-3.5039-12.1592-13.0606-8.6563-21.3594l13.1797-31.0352c3.503-8.2988,13.0435-12.125,21.3589-8.6562
				c8.2818,3.5195,12.1592,13.0937,8.6563,21.376l-13.1797,31.0351C379.1074,843.3447,373.0532,847.0684,366.7271,847.0684
				L366.7271,847.0684z"/>
		</g>
		<g>
			<path fill="#37474F" d="M314.0269,971.1758c-2.1431,0-4.3028-0.4248-6.3604-1.3096
				c-8.2988-3.5029-12.1592-13.0771-8.6387-21.3584l32.94-77.5801c3.52-8.2988,13.1621-12.1084,21.3589-8.6385
				c8.2817,3.5029,12.1421,13.0771,8.622,21.3593l-32.9233,77.5791C326.3896,967.4512,320.3525,971.1758,314.0269,971.1758
				L314.0269,971.1758z"/>
		</g>
		<g>
			<path fill="#37474F" d="M830.7607,659.5811c-2.1435,0-4.3027-0.4249-6.3603-1.292l-31.0352-13.1973
				c-8.2988-3.502-12.1591-13.0762-8.6386-21.3584c3.5195-8.2988,13.1621-12.1084,21.3593-8.6397l31.0352,13.1631
				c8.2988,3.5371,12.1582,13.0948,8.6387,21.3936C843.123,655.8398,837.0859,659.5811,830.7607,659.5811L830.7607,659.5811z"/>
		</g>
		<g>
			<path fill="#37474F" d="M954.8672,712.2646c-2.1426,0-4.3018-0.4082-6.3594-1.2919l-77.5625-32.9571
				c-8.2988-3.5039-12.1602-13.0781-8.6387-21.3594c3.5372-8.2988,13.1954-12.0908,21.3584-8.6386l77.5635,32.957
				c8.2988,3.5029,12.1582,13.0938,8.6387,21.376C967.2305,708.5576,961.1934,712.2646,954.8672,712.2646L954.8672,712.2646z"/>
		</g>
		<g>
			<path fill="#37474F" d="M210.2578,396.189c-2.1426,0-4.3022-0.4248-6.3599-1.3008l-31.018-13.1709
				c-8.2988-3.52-12.1592-13.103-8.6392-21.3848c3.52-8.29,13.1968-12.1079,21.3589-8.6304l31.0186,13.1797
				c8.2988,3.5118,12.1591,13.0943,8.6386,21.376C222.6211,392.4565,216.584,396.189,210.2578,396.189L210.2578,396.189z"/>
		</g>
		<g>
			<path fill="#37474F" d="M132.6953,363.2749c-2.1426,0-4.3027-0.4253-6.3603-1.2925l-77.5625-32.957
				c-8.2989-3.5117-12.1592-13.0859-8.6387-21.376c3.5195-8.2905,13.1792-12.0996,21.3589-8.6304l77.563,32.9566
				c8.2988,3.5117,12.1587,13.0859,8.6386,21.3765C145.0586,359.5503,139.0215,363.2749,132.6953,363.2749L132.6953,363.2749z"/>
		</g>
		<g>
			<path fill="#37474F" d="M801.8672,398.6465c-6.4443,0-12.5488-3.8516-15.1172-10.2036
				c-3.3672-8.3496,0.6631-17.8389,9.0127-21.2144l31.2734-12.6264c8.3155-3.3335,17.8389,0.663,21.2237,9.0126
				c3.3496,8.3497-0.6807,17.8389-9.0303,21.2149l-31.2568,12.6265C805.9668,398.2554,803.8916,398.6465,801.8672,398.6465
				L801.8672,398.6465z"/>
		</g>
		<g>
			<path fill="#37474F" d="M879.958,367.084c-6.4287,0-12.5498-3.8604-15.1182-10.2036c-3.3671-8.3579,0.6797-17.856,9.0137-21.2144
				l78.1738-31.5371c8.3165-3.3501,17.8399,0.6636,21.2237,9.0132c3.3506,8.3584-0.6807,17.8559-9.0303,21.2143l-78.1582,31.5289
				C884.0566,366.6929,881.998,367.084,879.958,367.084L879.958,367.084z"/>
		</g>
		<g>
			<path fill="#37474F" d="M176.8931,651.1807c-6.4453,0-12.5503-3.8604-15.1011-10.2041
				c-3.3838-8.3321,0.6465-17.8555,8.9961-21.2227l31.2392-12.6182c8.3331-3.3671,17.8389,0.6465,21.2061,8.9961
				c3.3838,8.3496-0.6465,17.8565-8.9961,21.2238l-31.2563,12.6346C180.9912,650.7891,178.917,651.1807,176.8931,651.1807
				L176.8931,651.1807z"/>
		</g>
		<g>
			<path fill="#37474F" d="M51.8672,701.6533c-6.4448,0-12.5669-3.8603-15.1348-10.2041
				c-3.3501-8.3496,0.6802-17.8555,9.0303-21.2226l78.1748-31.545c8.3496-3.3505,17.8389,0.6631,21.2227,9.0127
				c3.3671,8.3496-0.6631,17.8389-9.0127,21.2061l-78.1924,31.5625C55.9658,701.2617,53.8911,701.6533,51.8672,701.6533
				L51.8672,701.6533z"/>
		</g>
		<g>
			<path fill="#37474F" d="M637.543,846.7285c-6.463,0-12.5508-3.8603-15.1193-10.2207l-12.6006-31.2558
				c-3.3671-8.3497,0.6631-17.8389,9.0127-21.2061c8.333-3.4014,17.8389,0.6631,21.2227,9.0303l12.6016,31.2558
				c3.3671,8.3496-0.6631,17.8555-9.0128,21.2061C641.6406,846.3545,639.583,846.7285,637.543,846.7285L637.543,846.7285z"/>
		</g>
		<g>
			<path fill="#37474F" d="M688.083,971.7207c-6.4287,0-12.5332-3.8613-15.1006-10.1875l-31.5801-78.123
				c-3.3837-8.3672,0.6465-17.8565,8.9961-21.2237c8.333-3.3672,17.8223,0.6631,21.2061,8.9961l31.5791,78.124
				c3.3848,8.3497-0.6455,17.8389-8.9961,21.2227C692.1816,971.3291,690.123,971.7207,688.083,971.7207L688.083,971.7207z"/>
		</g>
		<g>
			<path fill="#37474F" d="M385.0425,221.7197c-6.4282,0-12.5503-3.8603-15.1182-10.2036l-12.6011-31.2139
				c-3.3671-8.3413,0.6631-17.8471,9.0127-21.2143c8.316-3.3418,17.856,0.6631,21.2232,9.0127l12.6011,31.2056
				c3.3671,8.3413-0.6631,17.8476-9.0127,21.2143C389.1577,221.3286,387.083,221.7197,385.0425,221.7197L385.0425,221.7197z"/>
		</g>
		<g>
			<path fill="#37474F" d="M353.4966,143.604c-6.4278,0-12.5498-3.8516-15.1177-10.2031l-31.5625-78.1665
				c-3.3672-8.3413,0.6631-17.8389,9.0127-21.2061c8.333-3.3589,17.8389,0.646,21.2231,9.0044l31.5625,78.1665
				c3.3672,8.3496-0.663,17.8389-9.0131,21.2144C357.5952,143.2129,355.5376,143.604,353.4966,143.604L353.4966,143.604z"/>
		</g>
	</g>
</g>
</svg>
