<?xml version="1.0" encoding="utf-8"?>
<!-- Generator: Adobe Illustrator 17.1.0, SVG Export Plug-In . SVG Version: 6.00 Build 0)  -->
<!DOCTYPE svg PUBLIC "-//W3C//DTD SVG 1.1//EN" "http://www.w3.org/Graphics/SVG/1.1/DTD/svg11.dtd">
<svg version="1.1" id="sun" xmlns="http://www.w3.org/2000/svg" xmlns:xlink="http://www.w3.org/1999/xlink" x="0px" y="0px"
	 viewBox="0 0 1010 1010" enable-background="new 0 0 1010 1010" xml:space="preserve">
<g id="sun-sun">
	<g id="sun-fill">
		<path fill="#FFCA72" d="M826.1182,505c0,177.335-143.7831,321.1006-321.084,321.1006
			C327.7417,826.1006,183.916,682.335,183.916,505c0-177.3184,143.8257-321.1182,321.1182-321.1182
			C682.335,183.8818,826.1182,327.6816,826.1182,505z"/>
	</g>
	<g id="sun-line">
		<g>
			<path fill="#37474F" d="M505.0342,833.0557c-180.9146,0-328.0899-147.1671-328.0899-328.0557
				c0-180.9233,147.1753-328.0903,328.0899-328.0903c180.8896,0,328.039,147.167,328.039,328.0903
				C833.0732,685.8887,685.9238,833.0557,505.0342,833.0557L505.0342,833.0557z M505.0342,212.9785
				c-161.0181,0-292.0215,131.0117-292.0215,292.0215c0,160.9922,131.0034,291.9873,292.0215,291.9873
				c160.9931,0,291.9697-130.9951,291.9697-291.9873C797.0039,343.9902,666.0273,212.9785,505.0342,212.9785L505.0342,212.9785z"/>
		</g>
		<g>
			<g>
				<polygon fill="#37474F" points="1010,523.043 914.5986,523.043 914.5986,486.957 1010,486.957 1010,523.043 				"/>
			</g>
			<g>
				<polygon fill="#37474F" points="95.3936,523.043 0,523.043 0,486.957 95.3936,486.957 95.3936,523.043 				"/>
			</g>
			<g>
				<polygon fill="#37474F" points="524.999,95.3506 488.9385,95.3506 488.9385,0 524.999,0 524.999,95.3506 				"/>
			</g>
			<g>
				<polygon fill="#37474F" points="204.9355,244.8813 138.1455,178.0322 163.6709,152.5234 230.4609,219.373 204.9355,244.8813 
									"/>
			</g>
			<g>
				<polygon fill="#37474F" points="805.1162,244.8813 779.6074,219.373 846.3711,152.5234 871.8809,178.0322 805.1162,244.8813 
									"/>
			</g>
			<g>
				<polygon fill="#37474F" points="524.999,1010 488.9385,1010 488.9385,914.6152 524.999,914.6152 524.999,1010 				"/>
			</g>
			<g>
				<polygon fill="#37474F" points="163.6709,857.459 138.1455,831.9512 204.9355,765.1016 230.4609,790.6094 163.6709,857.459 				
					"/>
			</g>
			<g>
				<polygon fill="#37474F" points="846.3711,857.459 779.6074,790.6094 805.1162,765.1016 871.8809,831.9512 846.3711,857.459 				
					"/>
			</g>
		</g>
	</g>
</g>
</svg>
