<?xml version="1.0" encoding="utf-8"?>
<!-- Generator: Adobe Illustrator 17.1.0, SVG Export Plug-In . SVG Version: 6.00 Build 0)  -->
<!DOCTYPE svg PUBLIC "-//W3C//DTD SVG 1.1//EN" "http://www.w3.org/Graphics/SVG/1.1/DTD/svg11.dtd">
<svg version="1.1" id="sunflower" xmlns="http://www.w3.org/2000/svg" xmlns:xlink="http://www.w3.org/1999/xlink" x="0px" y="0px"
	 viewBox="0 0 741.4135 1010" enable-background="new 0 0 741.4135 1010" xml:space="preserve">
<g id="sunflower-sunflower">
	<g id="sunflower-fill">
		<path fill="#FFCA72" d="M723.9995,316.9512c0-86.2188-70.1641-156.3159-156.418-156.3159c-13.6719,0-26.834,3.435-39.9297,6.9384
			c-3.4687-83.1919-71.082-150.1601-155.125-150.1601c-84.4844,0-152.6431,67.6484-155.3638,151.4526
			c-14.1489-4.1494-28.3994-8.2309-43.3984-8.2309c-86.2187,0-156.3501,70.0971-156.3501,156.3159
			c0,67.4443,43.3648,123.7334,103.2583,145.6367c-16.9033,25.3384-27.2432,54.9277-27.2432,86.1172
			c0,86.1837,70.1656,156.2812,156.3501,156.2812c50.167,0,93.9737-25.0996,122.7471-62.8183
			c28.7735,37.7187,72.6152,62.8183,122.7461,62.8183c86.2188,0,156.4199-70.0976,156.4199-156.2812
			c0-31.9706-10.3398-61.5274-27.5508-86.7974C682.4037,439.0859,723.9995,383.1372,723.9995,316.9512z"/>
		<path fill="#FFFFFD" d="M368.2075,247.228c-74.2129,0-134.583,60.3701-134.583,134.583
			c0,74.2124,60.3701,134.5826,134.583,134.5826c74.2119,0,134.583-60.3702,134.583-134.5826
			C502.7905,307.5981,442.4194,247.228,368.2075,247.228z"/>
		<path fill="#A6DDDD" d="M386.812,933.3379c0,0,103.7011,12.5166,196.789-38.0586
			c93.1231-50.6084,140.3986-145.126,140.3986-145.126s-103.666-12.5166-196.7559,38.0586
			C434.1206,838.7871,386.812,933.3379,386.812,933.3379z"/>
		<path fill="#A6DDDD" d="M354.603,933.3379c0,0-103.7007,12.5166-196.8237-38.0586
			c-93.0889-50.6084-140.3648-145.126-140.3648-145.126s103.6323-12.5166,196.7217,38.0586
			C307.2592,838.7871,354.603,933.3379,354.603,933.3379z"/>
	</g>
	<g id="sunflower-line">
		<g>
			<path fill="#37474F" d="M495.2729,722.4004c-46.1855,0-89.9082-19.2676-122.7461-53.5
				c-32.8296,34.2324-76.5596,53.5-122.7471,53.5c-95.8095,0-173.7636-77.9199-173.7636-173.6953
				c0-26.5977,6.7514-53.2197,19.6499-78.0225C37.7021,441.356,0.0009,381.896,0.0009,316.9512
				c0-95.793,77.9541-173.7295,173.7637-173.7295c9.855,0,19.1992,1.4453,28.0083,3.4521C214.7397,62.8784,286.0107,0,372.5268,0
				c85.793,0,157.0137,62.5806,170.4141,145.917c7.8047-1.5816,16.0371-2.6953,24.6406-2.6953
				c95.8613,0,173.832,77.9365,173.832,173.7295c0,64.6982-35.627,122.645-92.3242,152.643
				c13.1465,24.8365,20.0156,51.8335,20.0156,79.1109C669.1049,644.4805,591.1342,722.4004,495.2729,722.4004L495.2729,722.4004z
				 M372.5268,613.4619l13.8438,18.1455c27.123,35.5586,66.832,55.9649,108.9023,55.9649
				c76.6445,0,139.0059-62.3086,139.0059-138.8672c0-26.8105-8.4864-53.4326-24.5391-76.9937l-12.2793-18.0517l20.3399-7.9673
				c53.9414-21.1294,88.7851-71.6616,88.7851-128.7412c0-76.5933-62.3594-138.9019-139.0039-138.9019
				c-11.7168,0-23.7559,3.2222-35.4219,6.3428l-21.0019,5.6206l-0.9024-21.7163c-3.1289-74.8418-63.6172-133.4688-137.7285-133.4688
				c-74.9101,0-135.5098,59.1285-137.9585,134.5996l-0.7314,22.4732l-21.5713-6.3262c-12.6182-3.6987-25.6704-7.5249-38.501-7.5249
				c-76.6103,0-138.9365,62.3086-138.9365,138.9019c0,58.1338,36.0439,108.8789,91.8223,129.2856l20.7979,7.6016l-12.2866,18.417
				c-15.9087,23.8418-24.3179,50.2778-24.3179,76.4497c0,76.5587,62.3257,138.8672,138.936,138.8672
				c42.0723,0,81.772-20.4063,108.9043-55.9649L372.5268,613.4619L372.5268,613.4619z"/>
		</g>
		<g>
			<path fill="#37474F" d="M368.2075,533.8076c-83.8125,0-151.9966-68.1846-151.9966-151.9966
				c0-83.8125,68.1841-151.9965,151.9966-151.9965c83.8213,0,151.997,68.184,151.997,151.9965
				C520.2045,465.623,452.0288,533.8076,368.2075,533.8076L368.2075,533.8076z M368.2075,264.6421
				c-64.6045,0-117.169,52.5644-117.169,117.1689S303.603,498.98,368.2075,498.98s117.1689-52.5645,117.1689-117.169
				S432.812,264.6421,368.2075,264.6421L368.2075,264.6421z"/>
		</g>
		<g>
			<path fill="#37474F" d="M416.7592,952.1123L416.7592,952.1123c-19.4043,0-31.5293-1.4287-32.0312-1.4961
				c-5.6289-0.6807-10.5684-4.0478-13.2554-9.0303c-2.6787-4.9824-2.772-10.9687-0.2383-16.0361
				c2.0327-4.0644,50.8804-100.0615,147.6949-152.6426c66.5253-36.1543,138.289-41.5283,175.123-41.5283
				c19.4043,0,31.5293,1.4287,32.0391,1.4961c5.6113,0.6807,10.5605,4.0479,13.248,9.0312
				c2.6699,4.9825,2.7715,10.9688,0.2383,16.0352c-2.0234,4.0645-50.8301,100.0274-147.6602,152.6436
				C525.3901,946.7217,453.6264,952.1123,416.7592,952.1123L416.7592,952.1123z M416.5893,917.2852c0.0664,0,0.1192,0,0.1699,0
				c33.5508,0,98.7676-4.8301,158.5254-37.3106c59.3163-32.2256,99.2793-83.7695,118.9374-113.7676c-0.0508,0-0.1015,0-0.1699,0
				c-33.5352,0-98.7344,4.8291-158.4922,37.3106C476.2436,835.7256,436.2651,887.2695,416.5893,917.2852L416.5893,917.2852z"/>
		</g>
		<g>
			<path fill="#37474F" d="M324.6474,952.1123c-36.8598,0-108.6235-5.374-175.1753-41.5273
				C52.6757,857.9688,3.8696,762.0059,1.8374,757.9414c-2.5337-5.0664-2.44-11.0527,0.2378-16.0352
				c2.6875-4.9833,7.6274-8.3505,13.2563-9.0312c0.5015-0.0674,12.6182-1.4961,32.0215-1.4961
				c36.8345,0,108.5639,5.374,175.0986,41.5283c96.8135,52.5811,145.6875,148.5782,147.7197,152.6426
				c2.543,5.0674,2.4493,11.0537-0.2294,16.0361c-2.6871,4.9825-7.627,8.3496-13.2559,9.0303
				C356.1845,950.6836,344.059,952.1123,324.6474,952.1123L324.6474,952.1123z M47.2343,766.207
				c19.7432,30.049,59.7915,81.6613,118.8609,113.7676c59.7832,32.4805,125,37.3106,158.5522,37.3106c0.0425,0,0.085,0,0.1275,0
				c-19.7691-30.0664-59.8599-81.6778-118.9463-113.7676C146.0537,771.0361,80.8798,766.207,47.353,766.207
				C47.3105,766.207,47.2763,766.207,47.2343,766.207L47.2343,766.207z"/>
		</g>
		<g>
			<polygon fill="#37474F" points="385.6206,1010 350.7934,1010 350.7934,656.6904 385.6206,656.6904 385.6206,1010 			"/>
		</g>
	</g>
</g>
</svg>
