<?xml version="1.0" encoding="utf-8"?>
<!-- Generator: Adobe Illustrator 17.1.0, SVG Export Plug-In . SVG Version: 6.00 Build 0)  -->
<!DOCTYPE svg PUBLIC "-//W3C//DTD SVG 1.1//EN" "http://www.w3.org/Graphics/SVG/1.1/DTD/svg11.dtd">
<svg version="1.1" id="sunglasses-smiley" xmlns="http://www.w3.org/2000/svg" xmlns:xlink="http://www.w3.org/1999/xlink" x="0px"
	 y="0px" viewBox="0 0 1010 910.1431" enable-background="new 0 0 1010 910.1431" xml:space="preserve">
<g id="sunglasses-smiley-sunglasses-smiley">
	<path fill="#FFCA72" d="M960.0723,455.0718c0,251.3262-203.7627,455.0713-455.0723,455.0713
		c-251.3433,0-455.0713-203.7451-455.0713-455.0713C49.9287,203.728,253.6567,0,505,0
		C756.3096,0,960.0723,203.728,960.0723,455.0718z"/>
	<g>
		<g>
			<path fill="#A6DDDD" d="M437.7427,455.0718c0,102.1357-80.896,184.9707-183.729,184.9707
				c-102.8164,0-186.1612-82.835-186.1612-184.9707c0-102.1191,83.3448-184.9707,186.1612-184.9707
				C356.8467,270.1011,437.7427,352.9527,437.7427,455.0718z"/>
			<path fill="#37474F" d="M254.0137,657.4566c-112.2544,0-203.5747-90.794-203.5747-202.3848
				c0-111.5913,91.3203-202.3843,203.5747-202.3843c110.9106,0,201.143,90.793,201.143,202.3843
				C455.1567,566.6626,364.9243,657.4566,254.0137,657.4566L254.0137,657.4566z M254.0137,287.5147
				c-93.0547,0-168.7471,75.165-168.7471,167.5571c0,92.3916,75.6924,167.5566,168.7471,167.5566
				c93.2588,0,166.3154-73.6005,166.3154-167.5566C420.3291,361.1153,347.2725,287.5147,254.0137,287.5147L254.0137,287.5147z"/>
		</g>
		<g>
			<path fill="#A6DDDD" d="M942.1475,455.0718c0,102.1357-80.9131,184.9707-183.7294,184.9707
				c-102.8165,0-186.1602-82.835-186.1602-184.9707c0-102.1191,83.3438-184.9707,186.1602-184.9707
				C861.2344,270.1011,942.1475,352.9527,942.1475,455.0718z"/>
			<path fill="#37474F" d="M758.418,657.4566c-112.254,0-203.5742-90.794-203.5742-202.3848
				c0-111.5913,91.3203-202.3843,203.5742-202.3843c110.912,0,201.1434,90.793,201.1434,202.3843
				C959.5615,566.6626,869.3301,657.4566,758.418,657.4566L758.418,657.4566z M758.418,287.5147
				c-93.0547,0-168.7462,75.165-168.7462,167.5571c0,92.3916,75.6914,167.5566,168.7462,167.5566
				c93.2596,0,166.3163-73.6005,166.3163-167.5566C924.7344,361.1153,851.6777,287.5147,758.418,287.5147L758.418,287.5147z"/>
		</g>
		<g>
			<path fill="#37474F" d="M572.2744,472.4859c-5.833,0-11.5469-2.9258-14.8291-8.2657
				C542.8711,440.6167,524.25,427.6245,505,427.6245c-19.2505,0-37.8716,12.9922-52.4453,36.5957
				c-5.0337,8.1465-15.7471,10.7305-23.9609,5.6641c-8.1797-5.0508-10.7134-15.7817-5.6631-23.9619
				c21.1381-34.249,50.2861-53.1255,82.0693-53.1255s60.9316,18.8765,82.0693,53.1255c5.0508,8.1802,2.5166,18.9111-5.663,23.9619
				C578.5498,471.6519,575.3867,472.4859,572.2744,472.4859L572.2744,472.4859z"/>
		</g>
		<g>
			<path fill="#37474F" d="M67.8525,472.4859H17.4141C7.7891,472.4859,0,464.6968,0,455.0718
				c0-9.6255,7.7891-17.4141,17.4141-17.4141h50.4384c9.6255,0,17.4141,7.7886,17.4141,17.4141
				C85.2666,464.6968,77.478,472.4859,67.8525,472.4859L67.8525,472.4859z"/>
		</g>
		<g>
			<path fill="#37474F" d="M992.5859,455.667h-50.4384c-9.625,0-17.4131-7.7886-17.4131-17.414
				c0-9.625,7.7881-17.4136,17.4131-17.4136h50.4384c9.625,0,17.4141,7.7886,17.4141,17.4136
				C1010,447.8784,1002.2109,455.667,992.5859,455.667L992.5859,455.667z"/>
		</g>
	</g>
	<g>
		<path fill="#37474F" d="M505,766.7173c-49.8433,0-95.6396-29.2842-116.6758-74.5869c-4.0473-8.7236-0.2549-19.0801,8.4688-23.127
			c8.7412-4.0644,19.0805-0.2382,23.1279,8.4688c15.3389,33.0586,48.7383,54.418,85.0791,54.418
			c36.3066,0,69.707-21.3594,85.0967-54.4356c4.0303-8.707,14.3701-12.5156,23.1279-8.4346
			c8.7236,4.0479,12.4981,14.4034,8.4346,23.1281C600.5889,737.4507,554.8096,766.7173,505,766.7173L505,766.7173z"/>
	</g>
	<g>
		<g>
			<path fill="#FFFFFF" d="M146.2827,487.6382c-9.625,0-17.4136-7.7891-17.4136-17.4141
				c0-78.7534,64.043-142.8139,142.7793-142.8139c9.6255,0,17.4141,7.7886,17.4141,17.4136c0,9.6254-7.7886,17.414-17.4141,17.414
				c-59.5195,0-107.9521,48.4492-107.9521,107.9863C163.6963,479.8491,155.9082,487.6382,146.2827,487.6382L146.2827,487.6382z"/>
		</g>
		<g>
			<path fill="#FFFFFF" d="M651.2832,487.6382c-9.625,0-17.4141-7.7891-17.4141-17.4141
				c0-78.7534,64.043-142.8139,142.7793-142.8139c9.625,0,17.4141,7.7886,17.4141,17.4136c0,9.6254-7.7891,17.414-17.4141,17.414
				c-59.5195,0-107.9511,48.4492-107.9511,107.9863C668.6973,479.8491,660.9082,487.6382,651.2832,487.6382L651.2832,487.6382z"/>
		</g>
	</g>
</g>
</svg>
