<?xml version="1.0" encoding="utf-8"?>
<!-- Generator: Adobe Illustrator 17.1.0, SVG Export Plug-In . SVG Version: 6.00 Build 0)  -->
<!DOCTYPE svg PUBLIC "-//W3C//DTD SVG 1.1//EN" "http://www.w3.org/Graphics/SVG/1.1/DTD/svg11.dtd">
<svg version="1.1" id="sunglasses" xmlns="http://www.w3.org/2000/svg" xmlns:xlink="http://www.w3.org/1999/xlink" x="0px" y="0px"
	 viewBox="0 0 1010 458.8125" enable-background="new 0 0 1010 458.8125" xml:space="preserve">
<g id="sunglasses-sunglasses">
	<g>
		<path fill="#FFCA72" d="M379.3452,79.5181c-82.7666-82.7666-217.043-82.7832-299.8437,0
			C-3.2646,162.2847-3.231,296.5782,79.5356,379.3458c82.8003,82.7832,217.0093,82.7324,299.7588-0.0176
			C462.0947,296.5274,462.146,162.3189,379.3452,79.5181z"/>
		<path fill="#FFCA72" d="M930.5156,79.5181C847.749-3.2485,713.4902-3.2993,630.7061,79.4844
			c-82.7491,82.7495-82.7666,217.0938,0,299.8614c82.7841,82.7832,217.0594,82.6806,299.7919-0.0518
			C1013.2988,296.4942,1013.2988,162.3189,930.5156,79.5181z"/>
		<g>
			<path fill="#37474F" d="M229.3896,458.8125C102.9014,458.8125,0,355.9278,0,229.44C0,102.9268,102.9014,0,229.3896,0
				c126.5049,0,229.44,102.9268,229.44,229.44C458.8296,355.9278,355.8945,458.8125,229.3896,458.8125L229.3896,458.8125z
				 M229.3896,34.8272c-107.289,0-194.562,87.2988-194.562,194.6128c0,107.272,87.273,194.5444,194.562,194.5444
				c107.3057,0,194.6128-87.2724,194.6128-194.5444C424.0024,122.126,336.6953,34.8272,229.3896,34.8272L229.3896,34.8272z"/>
		</g>
		<g>
			<path fill="#37474F" d="M780.6113,458.8125c-126.5058,0-229.4413-102.8847-229.4413-229.3725
				C551.1699,102.9268,654.1055,0,780.6113,0C907.0996,0,1010,102.9268,1010,229.44
				C1010,355.9278,907.0996,458.8125,780.6113,458.8125L780.6113,458.8125z M780.6113,34.8272
				c-107.3066,0-194.6133,87.2988-194.6133,194.6128c0,107.272,87.3067,194.5444,194.6133,194.5444
				c107.2881,0,194.5606-87.2724,194.5606-194.5444C975.1719,122.126,887.8994,34.8272,780.6113,34.8272L780.6113,34.8272z"/>
		</g>
		<g>
			<path fill="#37474F" d="M559.0098,216.6861H452.9971c-9.6255,0-17.4141-7.7974-17.4141-17.4141s7.7886-17.4136,17.4141-17.4136
				h106.0127c9.625,0,17.414,7.7969,17.414,17.4136S568.6348,216.6861,559.0098,216.6861L559.0098,216.6861z"/>
		</g>
	</g>
	<g>
		<g>
			<path fill="#FFFFFF" d="M104.4829,251.5137c-9.6255,0-17.4136-7.7969-17.4136-17.414
				c0-86.4141,70.3013-156.7242,156.7237-156.7242c9.6255,0,17.414,7.7974,17.414,17.4141s-7.7886,17.4136-17.414,17.4136
				c-67.2061,0-121.8965,54.6816-121.8965,121.8965C121.8965,243.7168,114.1084,251.5137,104.4829,251.5137L104.4829,251.5137z"/>
		</g>
		<g>
			<path fill="#FFFFFF" d="M661.7246,251.5137c-9.625,0-17.4141-7.7969-17.4141-17.414
				c0-86.4141,70.3008-156.7242,156.7247-156.7242c9.625,0,17.413,7.7974,17.413,17.4141s-7.788,17.4136-17.413,17.4136
				c-67.2071,0-121.8965,54.6816-121.8965,121.8965C679.1387,243.7168,671.3496,251.5137,661.7246,251.5137L661.7246,251.5137z"/>
		</g>
	</g>
</g>
</svg>
