<?xml version="1.0" encoding="utf-8"?>
<!-- Generator: Adobe Illustrator 17.1.0, SVG Export Plug-In . SVG Version: 6.00 Build 0)  -->
<!DOCTYPE svg PUBLIC "-//W3C//DTD SVG 1.1//EN" "http://www.w3.org/Graphics/SVG/1.1/DTD/svg11.dtd">
<svg version="1.1" id="swimming-suit" xmlns="http://www.w3.org/2000/svg" xmlns:xlink="http://www.w3.org/1999/xlink" x="0px"
	 y="0px" viewBox="0 0 691.8761 1009.9979" enable-background="new 0 0 691.8761 1009.9979" xml:space="preserve">
<g id="swimming-suit-swimming-suit">
	<g>
		<path fill="#A6DDDD" d="M674.4694,179.9276c0,0-82.4102-106.1577-182.794-162.5059c0,0-10.4072,155.6353-145.7383,155.6524
			C210.5719,173.1083,200.2154,17.4217,200.2154,17.4217C99.7126,73.7699,17.4225,179.9276,17.4225,179.9276
			S149.233,340.1629,144.7946,511.954c-9.9487,69.1103-64.7919,123.9873-110.1796,170.4638c0,0,168.6108,80.6074,236.2421,302.5137
			c43.1602,5.6113,95.878,13.9785,156.3331,0l-0.8506-11.9717l-0.3057-2.6533c70.4199-210.5293,231.2598-287.8887,231.2598-287.8887
			c-45.5244-46.4765-100.2998-101.3535-110.2139-170.4638C542.5905,340.1629,674.4694,179.9276,674.4694,179.9276z"/>
		<path fill="#37474F" d="M357.7213,1009.9979L357.7213,1009.9979c-29.9634,0-57.1724-3.5879-81.1675-6.751l-7.9414-1.0381
			c-6.7851-0.8838-12.4311-5.6454-14.4209-12.1923C189.774,778.6366,28.6969,698.8962,27.0817,698.1151
			c-5.0508-2.4317-8.6392-7.1426-9.6084-12.6875c-0.9698-5.5098,0.7651-11.1543,4.6767-15.168l2.8735-2.959
			c43.6539-44.6572,93.0718-95.249,102.3912-156.8349C131.071,347.4413,5.2462,192.537,3.9708,190.9896
			c-5.1699-6.2837-5.3061-15.3052-0.3232-21.7334C7.0997,164.8094,89.3048,59.6468,191.696,2.2357
			c5.2378-2.9165,11.564-2.9419,16.8018-0.1191c5.2373,2.8315,8.6728,8.1713,9.0976,14.123
			c0.3911,5.6885,11.105,139.4209,128.2906,139.4209c0,0,0,0,0.017,0c117.7305-0.0171,128.0186-133.707,128.4102-139.4038
			c0.3906-5.9605,3.8262-11.3003,9.0801-14.1484c5.2549-2.857,11.5976-2.8062,16.8017,0.1274
			C602.484,59.6468,684.774,164.8011,688.2263,169.2479c4.9834,6.4282,4.8467,15.4497-0.3057,21.7417
			c-1.2754,1.5474-127.1679,156.7666-123.4609,319.4761c9.3359,61.8408,59.043,112.5859,102.9355,157.3789l2.3291,2.3808
			c3.9287,4.0128,5.6631,9.6592,4.71,15.169c-0.9688,5.5439-4.5234,10.2715-9.5742,12.7031
			c-1.5293,0.7481-153.458,76.3555-221.1231,274.2158l0.8321,11.3936c0.5957,8.5537-5.1016,16.2744-13.4512,18.1964
			C407.5486,1007.3445,383.5358,1009.9979,357.7213,1009.9979L357.7213,1009.9979z M284.1217,969.1161
			c22.1919,2.9248,47.1392,6.0537,73.5996,6.0537c17.7891,0,34.5723-1.3947,50.916-4.2344
			c-0.0859-2.0918,0.2207-4.166,0.8838-6.1729c57.5303-171.9609,172.3174-257.3974,219.4746-286.3916
			c-42.5312-43.9589-89.6201-97.5097-99.1435-163.9433c-0.1016-0.6709-0.1524-1.3428-0.17-2.0235
			c-3.9785-151.809,92.1875-291.9438,122.5098-332.2216c-21.0019-25.024-78.498-89.6875-146.9629-134.1914
			c-12.6015,61.1181-56.0176,144.4799-159.292,144.497c-103.3261,0.0083-146.708-83.3701-159.292-144.5053
			C118.0275,90.5287,60.6334,155.1585,39.6822,180.1742c30.2871,40.269,126.4541,180.4126,122.5259,332.2299
			c-0.0171,0.6807-0.0849,1.3615-0.1699,2.0333c-9.5571,66.4062-56.6968,119.957-99.126,163.8828
			C110.5958,707.5018,227.1866,793.9919,284.1217,969.1161L284.1217,969.1161z"/>
	</g>
</g>
</svg>
