<?xml version="1.0" encoding="utf-8"?>
<!-- Generator: Adobe Illustrator 17.1.0, SVG Export Plug-In . SVG Version: 6.00 Build 0)  -->
<!DOCTYPE svg PUBLIC "-//W3C//DTD SVG 1.1//EN" "http://www.w3.org/Graphics/SVG/1.1/DTD/svg11.dtd">
<svg version="1.1" id="swimming-trunks" xmlns="http://www.w3.org/2000/svg" xmlns:xlink="http://www.w3.org/1999/xlink" x="0px"
	 y="0px" viewBox="0 0 1009.9953 673.5292" enable-background="new 0 0 1009.9953 673.5292" xml:space="preserve">
<g id="swimming-trunks-swimming-trunks">
	<polygon fill="#A6DDDD" points="552.259,656.2685 504.9978,359.663 457.7532,656.2685 17.26,656.2685 111.7825,177.3989 
		898.2629,177.3989 992.72,656.2685 	"/>
	<g>
		<g>
			<polygon fill="#FFCA72" points="116.8376,177.3989 116.8376,39.4199 112.0212,17.2607 218.7087,17.2607 213.8674,39.4531 
				213.8674,177.3989 			"/>
		</g>
		<g>
			<polygon fill="#FFCA72" points="213.8674,177.3989 213.8674,39.4199 209.051,17.2607 315.7551,17.2607 310.9387,39.4531 
				310.9387,177.3989 			"/>
		</g>
		<g>
			<polygon fill="#FFCA72" points="310.9387,177.3989 310.9387,39.4199 306.0969,17.2607 412.7932,17.2607 407.968,39.4531 
				407.968,177.3989 			"/>
		</g>
		<g>
			<polygon fill="#FFCA72" points="407.968,177.3989 407.968,39.4199 403.1272,17.2607 509.8391,17.2607 504.9978,39.4531 
				504.9978,177.3989 			"/>
		</g>
		<g>
			<polygon fill="#FFCA72" points="504.9978,177.3989 504.9978,39.4199 500.1731,17.2607 606.886,17.2607 602.052,39.4531 
				602.052,177.3989 			"/>
		</g>
		<g>
			<polygon fill="#FFCA72" points="602.052,177.3989 602.052,39.4199 597.22,17.2607 703.9075,17.2607 699.0735,39.4531 
				699.0735,177.3989 			"/>
		</g>
		<g>
			<polygon fill="#FFCA72" points="699.0735,177.3989 699.0735,39.4199 694.2571,17.2607 800.9446,17.2607 796.1282,39.4531 
				796.1282,177.3989 			"/>
		</g>
		<g>
			<polygon fill="#FFCA72" points="796.1282,177.3989 796.1282,39.4199 791.2961,17.2607 897.9836,17.2607 893.1496,39.4531 
				893.1496,177.3989 			"/>
		</g>
	</g>
	<g>
		<g>
			<g>
				<path fill="#37474F" d="M992.7356,673.5292H552.259c-8.498,0-15.7148-6.165-17.0469-14.5488l-30.2143-189.5879L474.8,658.9804
					c-1.3315,8.3838-8.5566,14.5488-17.0468,14.5488H17.26c-5.1621,0-10.0527-2.3017-13.332-6.3125
					c-3.2793-3.9785-4.6026-9.2226-3.6001-14.3017l94.5146-478.8535c1.5947-8.0957,8.6963-13.9234,16.94-13.9234h786.4804
					c8.252,0,15.3369,5.8277,16.9483,13.9234l94.457,478.8535c1.0029,5.0791-0.3291,10.3232-3.6006,14.3017
					C1002.7961,671.2275,997.8976,673.5292,992.7356,673.5292L992.7356,673.5292z M567.0051,639.0078h404.7227l-87.6524-444.3399
					H125.9778l-87.709,444.3399h404.7471l44.9267-282.0567c1.3399-8.3838,8.565-14.5566,17.0552-14.5566
					c8.4907,0,15.7163,6.1728,17.0474,14.5566L567.0051,639.0078L567.0051,639.0078z"/>
			</g>
			<g>
				<path fill="#37474F" d="M116.8376,179.2563c-9.5346,0-17.2607-7.7344-17.2607-17.269V20.77
					c0-9.5342,7.7261-17.2686,17.2607-17.2686c9.5347,0,17.2691,7.7344,17.2691,17.2686v141.2173
					C134.1067,171.5219,126.3723,179.2563,116.8376,179.2563L116.8376,179.2563z"/>
			</g>
			<g>
				<path fill="#37474F" d="M213.8674,179.2563c-9.5342,0-17.2607-7.7344-17.2607-17.269V38.0307
					c0-9.5342,7.7265-17.2607,17.2607-17.2607s17.2691,7.7265,17.2691,17.2607v123.9566
					C231.1365,171.5219,223.4016,179.2563,213.8674,179.2563L213.8674,179.2563z"/>
			</g>
			<g>
				<path fill="#37474F" d="M310.9387,179.2563c-9.5351,0-17.2695-7.7344-17.2695-17.269V38.0307
					c0-9.5342,7.7344-17.2607,17.2695-17.2607c9.5342,0,17.2607,7.7265,17.2607,17.2607v123.9566
					C328.1994,171.5219,320.4729,179.2563,310.9387,179.2563L310.9387,179.2563z"/>
			</g>
			<g>
				<path fill="#37474F" d="M407.968,179.2563c-9.5342,0-17.2686-7.7344-17.2686-17.269V38.0307
					c0-9.5342,7.7344-17.2607,17.2686-17.2607c9.5347,0,17.2607,7.7265,17.2607,17.2607v123.9566
					C425.2287,171.5219,417.5027,179.2563,407.968,179.2563L407.968,179.2563z"/>
			</g>
			<g>
				<path fill="#37474F" d="M602.052,179.2563c-9.5342,0-17.2598-7.7344-17.2598-17.269V38.0307
					c0-9.5342,7.7256-17.2607,17.2598-17.2607c9.5351,0,17.2617,7.7265,17.2617,17.2607v123.9566
					C619.3137,171.5219,611.5871,179.2563,602.052,179.2563L602.052,179.2563z"/>
			</g>
			<g>
				<path fill="#37474F" d="M504.9978,179.2563c-9.5342,0-17.2686-7.7344-17.2686-17.269V38.0307
					c0-9.5342,7.7344-17.2607,17.2686-17.2607c9.5347,0,17.2612,7.7265,17.2612,17.2607v123.9566
					C522.259,171.5219,514.5325,179.2563,504.9978,179.2563L504.9978,179.2563z"/>
			</g>
			<g>
				<path fill="#37474F" d="M699.0735,179.2563c-9.5332,0-17.2598-7.7344-17.2598-17.269V38.0307
					c0-9.5342,7.7266-17.2607,17.2598-17.2607c9.5351,0,17.2617,7.7265,17.2617,17.2607v123.9566
					C716.3351,171.5219,708.6086,179.2563,699.0735,179.2563L699.0735,179.2563z"/>
			</g>
			<g>
				<path fill="#37474F" d="M796.1282,179.2563c-9.5342,0-17.2598-7.7344-17.2598-17.269V38.0307
					c0-9.5342,7.7256-17.2607,17.2598-17.2607c9.5351,0,17.2617,7.7265,17.2617,17.2607v123.9566
					C813.3899,171.5219,805.6633,179.2563,796.1282,179.2563L796.1282,179.2563z"/>
			</g>
			<g>
				<path fill="#37474F" d="M893.1496,179.2563c-9.5341,0-17.2597-7.7344-17.2597-17.269V20.77
					c0-9.5342,7.7256-17.2686,17.2597-17.2686c9.5352,0,17.2618,7.7344,17.2618,17.2686v141.2173
					C910.4114,171.5219,902.6848,179.2563,893.1496,179.2563L893.1496,179.2563z"/>
			</g>
		</g>
		<g>
			<path fill="#37474F" d="M893.1496,34.5292h-776.312c-9.5346,0-17.2607-7.7343-17.2607-17.2685
				C99.5769,7.726,107.303,0,116.8376,0h776.312c9.5352,0,17.2618,7.726,17.2618,17.2607
				C910.4114,26.7949,902.6848,34.5292,893.1496,34.5292L893.1496,34.5292z"/>
		</g>
	</g>
	<g>
		<g>
			<path fill="#37474F" d="M605.6692,375.5263c-0.0166,0-0.0166,0-0.0332,0c-67.251-0.0156-99.9395-148.499-105.8081-178.2612
				l-8.6875-44.0479l35.9507,26.8775c9.4042,7.0195,18.708,13.8662,27.8144,20.5322
				C618.261,247.1484,668.3,283.8891,665.802,323.0791c-1.1505,17.9843-13.0029,33.3457-35.2442,45.6757
				C622.4202,373.2587,614.053,375.5263,605.6692,375.5263L605.6692,375.5263z M544.9933,236.2001
				c15.5186,52.752,39.4044,104.7969,60.6592,104.8057c0.0166,0,0.0166,0,0.0166,0c2.498,0,5.1621-0.8057,8.1533-2.458
				c6.3457-3.5093,17.0635-10.4795,17.5244-17.6553C632.5305,302.0952,588.0793,267.9516,544.9933,236.2001L544.9933,236.2001z"/>
		</g>
	</g>
	<g>
		<g>
			<path fill="#37474F" d="M404.3435,372.6669c-8.4004,0-16.7676-2.2695-24.8882-6.7734
				c-22.25-12.3281-34.1103-27.6992-35.2529-45.6665c-2.499-39.1899,47.5571-75.939,110.9038-122.4687
				c9.0991-6.6661,18.4116-13.5127,27.8061-20.524l35.96-26.8857l-8.6875,44.0478
				C504.3157,224.1752,471.6111,372.6669,404.3435,372.6669L404.3435,372.6669z M465.0105,233.3315
				c-43.0777,31.7515-87.5444,65.895-86.3443,84.6929c0.4522,7.1753,11.1783,14.1455,17.5235,17.6714
				c2.9673,1.644,5.6387,2.4418,8.1538,2.4418C425.5989,338.1376,449.4924,286.0834,465.0105,233.3315L465.0105,233.3315z"/>
		</g>
	</g>
</g>
</svg>
