<?xml version="1.0" encoding="utf-8"?>
<!-- Generator: Adobe Illustrator 17.1.0, SVG Export Plug-In . SVG Version: 6.00 Build 0)  -->
<!DOCTYPE svg PUBLIC "-//W3C//DTD SVG 1.1//EN" "http://www.w3.org/Graphics/SVG/1.1/DTD/svg11.dtd">
<svg version="1.1" id="thermometer-hot" xmlns="http://www.w3.org/2000/svg" xmlns:xlink="http://www.w3.org/1999/xlink" x="0px"
	 y="0px" viewBox="0 0 425.8901 1010" enable-background="new 0 0 425.8901 1010" xml:space="preserve">
<g id="thermometer-hot-thermometer-hot">
	<g id="thermometer-hot-color">
		<path fill="#FFFFFD" d="M293.9936,621.0801V104.6865c0-48.1938-39.0781-87.2729-87.3066-87.2729
			c-48.1943,0-87.273,39.0791-87.273,87.2729v516.3936c-65.5058,32.1582-102,98.123-102,175.039
			c0,108.4961,91.5245,196.4668,199.9527,196.4668c108.4619,0,191.1094-87.9707,191.1094-196.4668
			C408.4761,719.2031,359.4663,653.2383,293.9936,621.0801z"/>
		<path fill="#FFCA72" d="M293.9936,621.0801V226.5664H119.414v394.5137c-65.5058,32.1582-102,98.123-102,175.039
			c0,108.4961,91.5245,196.4668,199.9527,196.4668c108.4619,0,191.1094-87.9707,191.1094-196.4668
			C408.4761,719.2031,359.4663,653.2383,293.9936,621.0801z"/>
		<path fill="#A6DDDD" d="M322.0532,796.1191c0,60.2686-48.8574,109.1094-109.1255,109.1094
			c-60.2847,0-109.1079-48.8408-109.1079-109.1094c0-60.3007,48.8232-109.1416,109.1079-109.1416
			C273.1958,686.9775,322.0532,735.8184,322.0532,796.1191z"/>
	</g>
	<g id="thermometer-hot-outline">
		<g>
			<path fill="#37474F" d="M217.3667,1010C97.5107,1010,0,914.0537,0,796.1191c0-81.0135,37.914-149.5468,102-185.5488V104.6865
				C102,46.9692,148.9614,0,206.687,0c57.751,0,104.7207,46.9692,104.7207,104.6865v505.833
				c69.8926,38.5352,114.4824,110.2823,114.4824,185.5995C425.8901,916.0605,334.2973,1010,217.3667,1010L217.3667,1010z
				 M206.687,34.8276c-38.5181,0-69.8594,31.3413-69.8594,69.8589v516.3936c0,6.6494-3.7754,12.7031-9.7358,15.6289
				c-57.7764,28.3652-92.2642,87.9531-92.2642,159.4101c0,98.7354,81.8906,179.0528,182.5391,179.0528
				c97.4082,0,173.6953-78.6504,173.6953-179.0528c0-65.5898-41.1192-128.1543-104.7539-159.4101
				c-5.9531-2.9258-9.7285-8.9961-9.7285-15.6289V104.6865C276.5796,66.1689,245.2221,34.8276,206.687,34.8276L206.687,34.8276z"/>
		</g>
		<g>
			<g>
				<path fill="#37474F" d="M196.2456,163.7812h-65.438c-9.6167,0-17.4136-7.7885-17.4136-17.4135
					c0-9.6255,7.7969-17.4141,17.4136-17.4141h65.438c9.6167,0,17.4136,7.7886,17.4136,17.4141
					C213.6592,155.9927,205.8623,163.7812,196.2456,163.7812L196.2456,163.7812z"/>
			</g>
			<g>
				<path fill="#37474F" d="M196.2456,251.0376h-65.438c-9.6167,0-17.4136-7.7891-17.4136-17.4141s7.7969-17.4135,17.4136-17.4135
					h65.438c9.6167,0,17.4136,7.7885,17.4136,17.4135S205.8623,251.0376,196.2456,251.0376L196.2456,251.0376z"/>
			</g>
			<g>
				<path fill="#37474F" d="M196.2456,338.3613h-65.438c-9.6167,0-17.4136-7.7885-17.4136-17.4135
					c0-9.6255,7.7969-17.4141,17.4136-17.4141h65.438c9.6167,0,17.4136,7.7886,17.4136,17.4141
					C213.6592,330.5728,205.8623,338.3613,196.2456,338.3613L196.2456,338.3613z"/>
			</g>
		</g>
		<g>
			<path fill="#37474F" d="M212.9277,922.6416c-69.7656,0-126.522-56.7646-126.522-126.5225
				c0-69.791,56.7564-126.5556,126.522-126.5556c69.7749,0,126.5396,56.7646,126.5396,126.5556
				C339.4673,865.877,282.7026,922.6416,212.9277,922.6416L212.9277,922.6416z M212.9277,704.3906
				c-50.5576,0-91.6943,41.1543-91.6943,91.7285c0,50.5586,41.1367,91.6954,91.6943,91.6954
				c50.5581,0,91.7124-41.1368,91.7124-91.6954C304.6401,745.5449,263.4858,704.3906,212.9277,704.3906L212.9277,704.3906z"/>
		</g>
		<g>
			<path fill="#37474F" d="M212.9448,691.5518c-9.6167,0-17.4136-7.7881-17.4136-17.4131V412.251
				c0-9.625,7.7969-17.4136,17.4136-17.4136c9.6172,0,17.4141,7.7886,17.4141,17.4136v261.8877
				C230.3589,683.7637,222.562,691.5518,212.9448,691.5518L212.9448,691.5518z"/>
		</g>
	</g>
</g>
</svg>
