<?xml version="1.0" encoding="utf-8"?>
<!-- Generator: Adobe Illustrator 17.1.0, SVG Export Plug-In . SVG Version: 6.00 Build 0)  -->
<!DOCTYPE svg PUBLIC "-//W3C//DTD SVG 1.1//EN" "http://www.w3.org/Graphics/SVG/1.1/DTD/svg11.dtd">
<svg version="1.1" id="wasp-bee" xmlns="http://www.w3.org/2000/svg" xmlns:xlink="http://www.w3.org/1999/xlink" x="0px" y="0px"
	 viewBox="0 0 1010 758.5916" enable-background="new 0 0 1010 758.5916" xml:space="preserve">
<g id="wasp-bee-wasp-bee">
	<g>
		<path fill="#907973" d="M337.3926,590.8134l-3.8775-12.0391c-5.3056-16.3262-9.5913-33.4668-12.788-50.916l-3.8096-20.542
			h375.2133l-3.7071,20.5088c-3.1299,17.3799-7.4492,34.5215-12.6875,50.915l-3.9101,12.0733H337.3926z"/>
		<path fill="#FFCA72" d="M611.625,674.3455l-228.7935-0.0342l-5.2377-7.1084c-11.2237-15.2373-21.3252-32.7188-29.9639-51.7988
			l-11.1216-24.5908H672.71l-11.0537,24.5566c-8.8428,19.625-19.1143,37.4121-30.4747,52.7852l-7.0742,9.626L611.625,674.3455z"/>
		<path fill="#907973" d="M315.6934,405.2488c1.7002-17.6015,4.4213-34.8457,8.0263-51.3066l3.0274-13.6387h355.6904l2.9922,13.6719
			c3.5723,16.2236,6.2246,33.2812,7.9258,50.7285l1.8701,19.1143H337.2905c-0.5102,0.1025-23.706,3.8095-23.706,3.8095
			L315.6934,405.2488z"/>
		<path fill="#FFCA72" d="M315.7954,492.0789c-1.5649-16.3252-2.313-30.2695-2.313-43.8398c0-1.8028,0.2383-8.2657,0.2383-8.2657
			l0.4077-22.2773l21.5293,5.8164l-0.0337,0.3057h359.5674c0,0,0.4766,22.8564,0.4766,24.4209
			c0,13.2978-0.7833,27.582-2.3126,43.6357l-1.7012,17.3457l-19.1484-1.9043H337.2905c-0.5781,0.1357-1.1225,0.2373-1.7007,0.3057
			l-18.0258,2.5849L315.7954,492.0789z"/>
		<path fill="#FFCA72" d="M326.1685,340.3035l7.4145-22.7881C366.064,217.4549,431.7739,155.3163,505,155.3163
			c72.9551,0,138.3242,62.1553,170.6016,162.2334l7.3798,22.7539H326.1685z"/>
		<path fill="#907973" d="M505,741.1776c-32.3447,0-64.3154-12.4814-92.4424-36.1201l-36.6645-30.7461h257.602l-36.4267,30.7461
			C569.0781,728.6619,537.209,741.1776,505,741.1776L505,741.1776z"/>
	</g>
	<g>
		<g>
			<path fill="#37474F" d="M505,758.5916c-115.2046,0-208.9312-139.208-208.9312-310.3525
				c0-171.1289,93.7266-310.337,208.9312-310.337c114.7373,0,208.082,139.2081,208.082,310.337
				C713.082,619.3836,619.7373,758.5916,505,758.5916L505,758.5916z M505,172.7293c-96.0054,0-174.104,123.5976-174.104,275.5098
				c0,151.9277,78.0986,275.5254,174.104,275.5254c95.5381,0,173.2539-123.5977,173.2539-275.5254
				C678.2539,296.3269,600.5381,172.7293,505,172.7293L505,172.7293z"/>
		</g>
		<g>
			<path fill="#37474F" d="M674.4785,357.7166H330.4883c-9.6167,0-17.4141-7.7881-17.4141-17.4131s7.7974-17.4141,17.4141-17.4141
				h343.9902c9.625,0,17.4141,7.7891,17.4141,17.4141S684.1035,357.7166,674.4785,357.7166L674.4785,357.7166z"/>
		</g>
		<g>
			<path fill="#37474F" d="M679.5117,441.2322H335.5898c-9.6167,0-17.414-7.7881-17.414-17.414
				c0-9.625,7.7973-17.4131,17.414-17.4131h343.9219c9.625,0,17.4141,7.7881,17.4141,17.4131
				C696.9258,433.4442,689.1367,441.2322,679.5117,441.2322L679.5117,441.2322z"/>
		</g>
		<g>
			<path fill="#37474F" d="M674.4785,524.7293H335.5898c-9.6167,0-17.414-7.7881-17.414-17.4131
				c0-9.626,7.7973-17.4141,17.414-17.4141h338.8887c9.625,0,17.4141,7.7881,17.4141,17.4141
				C691.8926,516.9412,684.1035,524.7293,674.4785,524.7293L674.4785,524.7293z"/>
		</g>
		<g>
			<path fill="#37474F" d="M664.2412,608.2274H348.106c-9.6167,0-17.4136-7.788-17.4136-17.414
				c0-9.625,7.7969-17.4131,17.4136-17.4131h316.1352c9.625,0,17.4131,7.7881,17.4131,17.4131
				C681.6543,600.4393,673.8662,608.2274,664.2412,608.2274L664.2412,608.2274z"/>
		</g>
		<g>
			<path fill="#37474F" d="M612.5781,691.7255H386.3345c-9.6167,0-17.4136-7.7891-17.4136-17.4141s7.7969-17.414,17.4136-17.414
				h226.2436c9.625,0,17.4141,7.789,17.4141,17.414S622.2031,691.7255,612.5781,691.7255L612.5781,691.7255z"/>
		</g>
	</g>
	<g>
		<path fill="#37474F" d="M470.6997,173.0526c-9.1318,0-16.8018-7.1084-17.3628-16.3427
			c-1.709-27.7188-15.8662-103.8702-60.3359-123.3243c-8.8174-3.8437-12.8394-14.1152-8.979-22.9238
			c3.8432-8.8262,14.1318-12.873,22.9233-8.9795c73.1499,31.9707,80.8623,148.2051,81.1514,153.1367
			c0.5693,9.6075-6.7344,17.8389-16.334,18.417C471.4053,173.0526,471.0566,173.0526,470.6997,173.0526L470.6997,173.0526z"/>
	</g>
	<g>
		<path fill="#37474F" d="M539.334,173.0701c-0.3565,0-0.6973-0.0176-1.0371-0.0342c-9.6074-0.5615-16.9287-8.8095-16.3594-18.4004
			c0.2891-4.9316,7.959-121.1826,81.1514-153.1533c8.8095-3.8935,19.08,0.1533,22.9229,8.9795
			c3.8613,8.8086-0.1699,19.0801-8.9785,22.9238c-44.6904,19.5391-58.7031,95.6221-60.3359,123.2911
			C556.1533,165.9276,548.4834,173.0701,539.334,173.0701L539.334,173.0701z"/>
	</g>
	<g>
		<path fill="#37474F" d="M639.6172,274.2019H363.3091c-9.6167,0-17.4141-7.788-17.4141-17.413
			c0-9.626,7.7974-17.4141,17.4141-17.4141h276.3081c9.625,0,17.4141,7.7881,17.4141,17.4141
			C657.0313,266.4139,649.2422,274.2019,639.6172,274.2019L639.6172,274.2019z"/>
	</g>
	<g>
		<path fill="#A6DDDD" d="M679.3086,551.6668c74.2803,0,134.4463-60.2002,134.4463-134.4473
			c0-74.2461-60.166-125.7051-134.4463-125.7051c-40.6094,0-129.4815,0-129.4815,0s0,92.0508,0,125.7051
			C549.8271,491.4666,605.0957,551.6668,679.3086,551.6668z"/>
		<path fill="#37474F" d="M679.3086,569.0809c-82.376,0-146.8955-66.7305-146.8955-151.8614V274.1004h146.8955
			c86.5752,0,151.8594,61.5264,151.8594,143.1191C831.168,500.9559,763.0439,569.0809,679.3086,569.0809L679.3086,569.0809z
			 M567.2402,308.9276v108.292c0,65.6084,49.2149,117.0332,112.0684,117.0332c64.5195,0,117.0332-52.5136,117.0332-117.0332
			c0-61.7304-50.3027-108.292-117.0332-108.292H567.2402L567.2402,308.9276z"/>
	</g>
	<g>
		<path fill="#FFFFFF" d="M842.0859,465.618c83.1241,0,150.5-71.3731,150.5-159.4619c0-124.754-93.7011-171.8086-150.5-170.2608
			C752.4668,138.3611,505,258.4207,505,258.4207S758.9629,465.618,842.0859,465.618z"/>
		<path fill="#37474F" d="M842.0859,483.032c-86.83,0-321.6113-189.5117-348.0971-211.1259
			c-4.6084-3.7579-6.9722-9.6075-6.2832-15.5088c0.6884-5.9004,4.3447-11.0537,9.6928-13.6387
			c10.2461-4.9824,251.9043-121.7266,344.212-124.2774l3.1962-0.0341c68.6016,0,165.1934,58.2275,165.1934,187.709
			C1010,403.6834,934.665,483.032,842.0859,483.032L842.0859,483.032z M537.583,262.2812
			c101.3535,80.5048,251.9561,185.9228,304.5029,185.9228c73.3965,0,133.086-63.7197,133.086-142.0478
			c0-111.3702-79.96-152.8809-130.3653-152.8809l-2.2441,0.0342C773.9277,155.1971,602.1025,232.2498,537.583,262.2812
			L537.583,262.2812z"/>
	</g>
	<g>
		<path fill="#A6DDDD" d="M330.7603,552.7548c-74.315,0-134.481-60.166-134.481-134.4463
			c0-74.2129,60.166-125.6895,134.481-125.6895c40.5751,0,129.4467,0,129.4467,0s0,92.0518,0,125.6895
			C460.207,492.5887,404.9727,552.7548,330.7603,552.7548z"/>
		<path fill="#37474F" d="M330.7603,570.1688c-83.753,0-151.8946-68.125-151.8946-151.8603
			c0-81.5762,65.3018-143.1025,151.8946-143.1025h146.8608v143.1025C477.6211,503.4383,413.1099,570.1688,330.7603,570.1688
			L330.7603,570.1688z M330.7603,310.0331c-66.7388,0-117.0669,46.5449-117.0669,108.2754
			c0,64.5195,52.5131,117.0332,117.0669,117.0332c62.8188,0,112.0332-51.4248,112.0332-117.0332V310.0331H330.7603
			L330.7603,310.0331z"/>
	</g>
	<g>
		<path fill="#FFFFFF" d="M167.9482,465.618c-83.124,0-150.5341-71.3731-150.5341-159.4619
			c0-124.754,93.7353-169.6485,150.5341-170.2608C261.2412,134.8924,505,258.4207,505,258.4207S251.0718,465.618,167.9482,465.618z"
			/>
		<path fill="#37474F" d="M167.9482,483.032C75.3437,483.032,0,403.6834,0,306.1561c0-135.3995,102.9014-186.9776,167.7607-187.6749
			c98.4883,0,335.0884,119.3291,345.1123,124.4141c5.2559,2.6524,8.8096,7.7881,9.4395,13.6553
			c0.6455,5.8496-1.7354,11.6318-6.3008,15.3555C489.5249,293.5204,254.7705,483.032,167.9482,483.032L167.9482,483.032z
			 M169.0874,153.3094c-52.4878,0.5605-134.2598,42.5478-134.2598,152.8467c0,78.3281,59.7154,142.0478,133.1206,142.0478
			c52.5987,0,203.5064-105.6895,304.8516-186.2119C409.7344,231.5008,241.0044,153.3094,169.0874,153.3094L169.0874,153.3094z"/>
	</g>
</g>
</svg>
