<?xml version="1.0" encoding="utf-8"?>
<!-- Generator: Adobe Illustrator 17.1.0, SVG Export Plug-In . SVG Version: 6.00 Build 0)  -->
<!DOCTYPE svg PUBLIC "-//W3C//DTD SVG 1.1//EN" "http://www.w3.org/Graphics/SVG/1.1/DTD/svg11.dtd">
<svg version="1.1" id="windmill" xmlns="http://www.w3.org/2000/svg" xmlns:xlink="http://www.w3.org/1999/xlink" x="0px" y="0px"
	 viewBox="0 0 848.0701 1010.0033" enable-background="new 0 0 848.0701 1010.0033" xml:space="preserve">
<g id="windmill-windmill">
	<g>
		<path fill="#37474F" d="M424.035,1010.0033c-9.625,0-17.4136-7.7891-17.4136-17.4141V559.181
			c0-9.625,7.7886-17.4141,17.4136-17.4141c9.6084,0,17.4141,7.7891,17.4141,17.4141v433.4082
			C441.4491,1002.2142,433.6434,1010.0033,424.035,1010.0033L424.035,1010.0033z"/>
	</g>
	<g>
		<path fill="#FFCA72" d="M496.2752,486.9574c0,39.8789-32.3447,72.2236-72.2402,72.2236s-72.2402-32.3447-72.2402-72.2236
			c0-39.879,32.3447-72.2403,72.2402-72.2403S496.2752,447.0784,496.2752,486.9574z"/>
		<path fill="#37474F" d="M424.035,576.595c-49.4355,0-89.6543-40.2011-89.6543-89.6376c0-49.4356,40.2188-89.6543,89.6543-89.6543
			s89.6543,40.2187,89.6543,89.6543C513.6893,536.3939,473.4705,576.595,424.035,576.595L424.035,576.595z M424.035,432.1312
			c-30.2363,0-54.8262,24.5898-54.8262,54.8262c0,30.2363,24.5899,54.8095,54.8262,54.8095
			c30.2363,0,54.8262-24.5732,54.8262-54.8095C478.8612,456.721,454.2713,432.1312,424.035,432.1312L424.035,432.1312z"/>
	</g>
	<g>
		<path fill="#A6DDDD" d="M424.035,414.7171h-27.0898l-80.0972-55.915c-59.0952-41.2725-70.5737-124.1074-24.9307-179.9033
			L424.035,17.429V414.7171z"/>
		<path fill="#37474F" d="M424.035,432.1312h-27.0898c-3.5713,0-7.0577-1.0889-9.9654-3.1299l-80.0971-55.9141
			c-32.1412-22.4482-53.6534-57.582-59.0269-96.4062c-5.374-38.8242,5.7646-78.4815,30.5933-108.8027L410.5496,6.4095
			c4.6763-5.7139,12.4141-7.8906,19.335-5.374c6.9395,2.4658,11.5645,9.0303,11.5645,16.3935v397.2881
			C441.4491,424.3421,433.6434,432.1312,424.035,432.1312L424.035,432.1312z M402.4207,397.3031h4.2007V66.2181L305.4032,189.9183
			c-18.9786,23.1953-27.1582,52.3096-23.043,81.9844c4.1157,29.6748,19.897,55.4726,44.4702,72.6142L402.4207,397.3031
			L402.4207,397.3031z"/>
	</g>
	<g>
		<path fill="#A6DDDD" d="M486.5819,523.0609l13.5371-23.4346l88.5146-41.4082c65.2852-30.5088,142.7627,0.9521,168.2372,68.3457
			l73.7715,195.1581L486.5819,523.0609z"/>
		<path fill="#37474F" d="M830.6424,739.1361c-2.9931,0-5.9863-0.7481-8.707-2.3125L477.8748,538.1615
			c-8.332-4.8291-11.1894-15.4747-6.3769-23.7911l13.5371-23.4511c1.7852-3.0948,4.4727-5.5606,7.7031-7.0743l88.5157-41.4091
			c18.9267-8.8428,39.0273-13.3155,59.7236-13.3155c58.415,0,111.54,36.6993,132.1855,91.3047l73.7704,195.1407
			c2.6192,6.9042,0.6133,14.6591-4.999,19.4199C838.703,737.7415,834.6893,739.1361,830.6424,739.1361L830.6424,739.1361z
			 M510.3563,516.7005l286.751,165.5684L740.5799,532.72c-15.5429-41.1367-55.5742-68.7714-99.6025-68.7714
			c-15.5596,0-30.6953,3.3838-44.9795,10.0507l-83.5332,39.0791L510.3563,516.7005L510.3563,516.7005z"/>
	</g>
	<g>
		<path fill="#A6DDDD" d="M361.4881,523.0609l13.5366,23.4677l-8.4008,97.3409c-6.1905,71.7978-72.1895,123.1552-143.3247,111.5244
			L17.411,721.722L361.4881,523.0609z"/>
		<path fill="#37474F" d="M243.4681,774.474c-7.6357,0-15.373-0.6465-22.9746-1.8711L14.6048,738.931
			c-7.2612-1.1895-12.9927-6.836-14.3188-14.0801c-1.3262-7.2441,2.041-14.5234,8.4179-18.1963l344.0772-198.6611
			c3.9961-2.2959,8.7578-2.9082,13.2134-1.7344c4.4555,1.1904,8.2646,4.1152,10.5776,8.1113l13.5366,23.4512
			c1.7857,3.0957,2.585,6.666,2.2617,10.2031l-8.4008,97.3418C377.7284,717.7767,316.0145,774.474,243.4681,774.474
			L243.4681,774.474z M68.3768,712.4027l157.7456,25.8154c5.748,0.9512,11.5806,1.4277,17.3457,1.4277
			c54.6226,0,101.0991-42.7187,105.8096-97.2734l7.9248-91.8643l-2.0918-3.6396L68.3768,712.4027L68.3768,712.4027z"/>
	</g>
</g>
</svg>
